%TF.GenerationSoftware,KiCad,Pcbnew,(5.1.12)-1*%
%TF.CreationDate,2022-03-31T08:37:18-05:00*%
%TF.ProjectId,PoE_Stepper_Driver,506f455f-5374-4657-9070-65725f447269,rev?*%
%TF.SameCoordinates,Original*%
%TF.FileFunction,Legend,Top*%
%TF.FilePolarity,Positive*%
%FSLAX46Y46*%
G04 Gerber Fmt 4.6, Leading zero omitted, Abs format (unit mm)*
G04 Created by KiCad (PCBNEW (5.1.12)-1) date 2022-03-31 08:37:18*
%MOMM*%
%LPD*%
G01*
G04 APERTURE LIST*
%ADD10C,0.150000*%
%ADD11C,0.120000*%
G04 APERTURE END LIST*
D10*
X160487523Y-63587285D02*
X161249428Y-63301571D01*
X160487523Y-63015857D01*
X160011333Y-63301571D02*
X159249428Y-63301571D01*
X158773238Y-62920619D02*
X158773238Y-63920619D01*
X158392285Y-63920619D01*
X158297047Y-63873000D01*
X158249428Y-63825380D01*
X158201809Y-63730142D01*
X158201809Y-63587285D01*
X158249428Y-63492047D01*
X158297047Y-63444428D01*
X158392285Y-63396809D01*
X158773238Y-63396809D01*
X157630380Y-62920619D02*
X157725619Y-62968238D01*
X157773238Y-63015857D01*
X157820857Y-63111095D01*
X157820857Y-63396809D01*
X157773238Y-63492047D01*
X157725619Y-63539666D01*
X157630380Y-63587285D01*
X157487523Y-63587285D01*
X157392285Y-63539666D01*
X157344666Y-63492047D01*
X157297047Y-63396809D01*
X157297047Y-63111095D01*
X157344666Y-63015857D01*
X157392285Y-62968238D01*
X157487523Y-62920619D01*
X157630380Y-62920619D01*
X156868476Y-63444428D02*
X156535142Y-63444428D01*
X156392285Y-62920619D02*
X156868476Y-62920619D01*
X156868476Y-63920619D01*
X156392285Y-63920619D01*
X155963714Y-63301571D02*
X155201809Y-63301571D01*
X155582761Y-62920619D02*
X155582761Y-63682523D01*
X154725619Y-63301571D02*
X153963714Y-63301571D01*
X154344666Y-62920619D02*
X154344666Y-63682523D01*
X153201809Y-62539666D02*
X153249428Y-62587285D01*
X153344666Y-62730142D01*
X153392285Y-62825380D01*
X153439904Y-62968238D01*
X153487523Y-63206333D01*
X153487523Y-63396809D01*
X153439904Y-63634904D01*
X153392285Y-63777761D01*
X153344666Y-63873000D01*
X153249428Y-64015857D01*
X153201809Y-64063476D01*
X152392285Y-63920619D02*
X152582761Y-63920619D01*
X152678000Y-63873000D01*
X152725619Y-63825380D01*
X152820857Y-63682523D01*
X152868476Y-63492047D01*
X152868476Y-63111095D01*
X152820857Y-63015857D01*
X152773238Y-62968238D01*
X152678000Y-62920619D01*
X152487523Y-62920619D01*
X152392285Y-62968238D01*
X152344666Y-63015857D01*
X152297047Y-63111095D01*
X152297047Y-63349190D01*
X152344666Y-63444428D01*
X152392285Y-63492047D01*
X152487523Y-63539666D01*
X152678000Y-63539666D01*
X152773238Y-63492047D01*
X152820857Y-63444428D01*
X152868476Y-63349190D01*
X151678000Y-63920619D02*
X151582761Y-63920619D01*
X151487523Y-63873000D01*
X151439904Y-63825380D01*
X151392285Y-63730142D01*
X151344666Y-63539666D01*
X151344666Y-63301571D01*
X151392285Y-63111095D01*
X151439904Y-63015857D01*
X151487523Y-62968238D01*
X151582761Y-62920619D01*
X151678000Y-62920619D01*
X151773238Y-62968238D01*
X151820857Y-63015857D01*
X151868476Y-63111095D01*
X151916095Y-63301571D01*
X151916095Y-63539666D01*
X151868476Y-63730142D01*
X151820857Y-63825380D01*
X151773238Y-63873000D01*
X151678000Y-63920619D01*
X151011333Y-63920619D02*
X150773238Y-62920619D01*
X150582761Y-63634904D01*
X150392285Y-62920619D01*
X150154190Y-63920619D01*
X149868476Y-62539666D02*
X149820857Y-62587285D01*
X149725619Y-62730142D01*
X149678000Y-62825380D01*
X149630380Y-62968238D01*
X149582761Y-63206333D01*
X149582761Y-63396809D01*
X149630380Y-63634904D01*
X149678000Y-63777761D01*
X149725619Y-63873000D01*
X149820857Y-64015857D01*
X149868476Y-64063476D01*
X149106571Y-63301571D02*
X148344666Y-63301571D01*
X147868476Y-63587285D02*
X147106571Y-63301571D01*
X147868476Y-63015857D01*
X160249428Y-60412285D02*
X161011333Y-60126571D01*
X160249428Y-59840857D01*
X159773238Y-60126571D02*
X159011333Y-60126571D01*
X158535142Y-59745619D02*
X158535142Y-60745619D01*
X158154190Y-60745619D01*
X158058952Y-60698000D01*
X158011333Y-60650380D01*
X157963714Y-60555142D01*
X157963714Y-60412285D01*
X158011333Y-60317047D01*
X158058952Y-60269428D01*
X158154190Y-60221809D01*
X158535142Y-60221809D01*
X157392285Y-59745619D02*
X157487523Y-59793238D01*
X157535142Y-59840857D01*
X157582761Y-59936095D01*
X157582761Y-60221809D01*
X157535142Y-60317047D01*
X157487523Y-60364666D01*
X157392285Y-60412285D01*
X157249428Y-60412285D01*
X157154190Y-60364666D01*
X157106571Y-60317047D01*
X157058952Y-60221809D01*
X157058952Y-59936095D01*
X157106571Y-59840857D01*
X157154190Y-59793238D01*
X157249428Y-59745619D01*
X157392285Y-59745619D01*
X156630380Y-60269428D02*
X156297047Y-60269428D01*
X156154190Y-59745619D02*
X156630380Y-59745619D01*
X156630380Y-60745619D01*
X156154190Y-60745619D01*
X155725619Y-60126571D02*
X154963714Y-60126571D01*
X155344666Y-59745619D02*
X155344666Y-60507523D01*
X153439904Y-59364666D02*
X153487523Y-59412285D01*
X153582761Y-59555142D01*
X153630380Y-59650380D01*
X153678000Y-59793238D01*
X153725619Y-60031333D01*
X153725619Y-60221809D01*
X153678000Y-60459904D01*
X153630380Y-60602761D01*
X153582761Y-60698000D01*
X153487523Y-60840857D01*
X153439904Y-60888476D01*
X153154190Y-60745619D02*
X152535142Y-60745619D01*
X152868476Y-60364666D01*
X152725619Y-60364666D01*
X152630380Y-60317047D01*
X152582761Y-60269428D01*
X152535142Y-60174190D01*
X152535142Y-59936095D01*
X152582761Y-59840857D01*
X152630380Y-59793238D01*
X152725619Y-59745619D01*
X153011333Y-59745619D01*
X153106571Y-59793238D01*
X153154190Y-59840857D01*
X151916095Y-60745619D02*
X151820857Y-60745619D01*
X151725619Y-60698000D01*
X151678000Y-60650380D01*
X151630380Y-60555142D01*
X151582761Y-60364666D01*
X151582761Y-60126571D01*
X151630380Y-59936095D01*
X151678000Y-59840857D01*
X151725619Y-59793238D01*
X151820857Y-59745619D01*
X151916095Y-59745619D01*
X152011333Y-59793238D01*
X152058952Y-59840857D01*
X152106571Y-59936095D01*
X152154190Y-60126571D01*
X152154190Y-60364666D01*
X152106571Y-60555142D01*
X152058952Y-60650380D01*
X152011333Y-60698000D01*
X151916095Y-60745619D01*
X151249428Y-60745619D02*
X151011333Y-59745619D01*
X150820857Y-60459904D01*
X150630380Y-59745619D01*
X150392285Y-60745619D01*
X150106571Y-59364666D02*
X150058952Y-59412285D01*
X149963714Y-59555142D01*
X149916095Y-59650380D01*
X149868476Y-59793238D01*
X149820857Y-60031333D01*
X149820857Y-60221809D01*
X149868476Y-60459904D01*
X149916095Y-60602761D01*
X149963714Y-60698000D01*
X150058952Y-60840857D01*
X150106571Y-60888476D01*
X149344666Y-60126571D02*
X148582761Y-60126571D01*
X148106571Y-60412285D02*
X147344666Y-60126571D01*
X148106571Y-59840857D01*
D11*
%TO.C,C2*%
X118879252Y-119201000D02*
X118356748Y-119201000D01*
X118879252Y-117781000D02*
X118356748Y-117781000D01*
D10*
%TO.C,U16*%
X123793000Y-113125000D02*
X123793000Y-112550000D01*
X113443000Y-113125000D02*
X113443000Y-112450000D01*
X113443000Y-102775000D02*
X113443000Y-103450000D01*
X123793000Y-102775000D02*
X123793000Y-103450000D01*
X123793000Y-113125000D02*
X123118000Y-113125000D01*
X123793000Y-102775000D02*
X123118000Y-102775000D01*
X113443000Y-102775000D02*
X114118000Y-102775000D01*
X113443000Y-113125000D02*
X114118000Y-113125000D01*
X123793000Y-112550000D02*
X125068000Y-112550000D01*
D11*
%TO.C,J1*%
X113141000Y-68025000D02*
X111141000Y-68025000D01*
X94811000Y-68225000D02*
X107251000Y-68225000D01*
X94811000Y-84175000D02*
X94811000Y-68225000D01*
X107251000Y-84175000D02*
X94811000Y-84175000D01*
X116731000Y-84175000D02*
X110451000Y-84175000D01*
X116731000Y-68225000D02*
X116731000Y-84175000D01*
X110451000Y-68225000D02*
X116731000Y-68225000D01*
%TO.C,C17*%
X121404748Y-115495000D02*
X121927252Y-115495000D01*
X121404748Y-116915000D02*
X121927252Y-116915000D01*
%TO.C,CG1*%
X98755748Y-89975000D02*
X101528252Y-89975000D01*
X98755748Y-86555000D02*
X101528252Y-86555000D01*
%TO.C,D1*%
X137578000Y-90964000D02*
X137578000Y-85984000D01*
X140298000Y-90964000D02*
X140298000Y-85984000D01*
X137578000Y-90964000D02*
X140298000Y-90964000D01*
%TO.C,D3*%
X142946000Y-83169000D02*
X142946000Y-80309000D01*
X142946000Y-80309000D02*
X141026000Y-80309000D01*
X141026000Y-80309000D02*
X141026000Y-83169000D01*
%TO.C,D4*%
X186518000Y-110164999D02*
X183658000Y-110164999D01*
X186518000Y-112084999D02*
X186518000Y-110164999D01*
X183658000Y-112084999D02*
X186518000Y-112084999D01*
%TO.C,D5*%
X183658000Y-110052999D02*
X186518000Y-110052999D01*
X186518000Y-110052999D02*
X186518000Y-108132999D01*
X186518000Y-108132999D02*
X183658000Y-108132999D01*
%TO.C,R7*%
X107180748Y-93801000D02*
X107703252Y-93801000D01*
X107180748Y-92381000D02*
X107703252Y-92381000D01*
%TO.C,R8*%
X107180748Y-90349000D02*
X107703252Y-90349000D01*
X107180748Y-91769000D02*
X107703252Y-91769000D01*
%TO.C,RMPS1*%
X147252000Y-79862936D02*
X147252000Y-83967064D01*
X143832000Y-79862936D02*
X143832000Y-83967064D01*
%TO.C,U3*%
X160826115Y-90381967D02*
X160126115Y-90381967D01*
X160126115Y-90381967D02*
X160126115Y-91081967D01*
X173646115Y-90381967D02*
X174346115Y-90381967D01*
X174346115Y-90381967D02*
X174346115Y-91081967D01*
X160826115Y-104601967D02*
X160126115Y-104601967D01*
X160126115Y-104601967D02*
X160126115Y-103901967D01*
X173646115Y-104601967D02*
X174346115Y-104601967D01*
X174346115Y-104601967D02*
X174346115Y-103901967D01*
X174346115Y-103901967D02*
X175711115Y-103901967D01*
%TO.C,U14*%
X160220000Y-77709000D02*
X160220000Y-78159000D01*
X160220000Y-78159000D02*
X160670000Y-78159000D01*
X160220000Y-71389000D02*
X160220000Y-70939000D01*
X160220000Y-70939000D02*
X160670000Y-70939000D01*
X167440000Y-77709000D02*
X167440000Y-78159000D01*
X167440000Y-78159000D02*
X166990000Y-78159000D01*
X167440000Y-71389000D02*
X167440000Y-70939000D01*
X167440000Y-70939000D02*
X166990000Y-70939000D01*
X166990000Y-70939000D02*
X166990000Y-69649000D01*
D10*
%TO.C,U15*%
X155035000Y-114038000D02*
X151035000Y-114038000D01*
X156310000Y-119438000D02*
X151035000Y-119438000D01*
D11*
%TO.C,Y1*%
X181348115Y-101934967D02*
X181348115Y-95534967D01*
X186398115Y-101934967D02*
X186398115Y-95534967D01*
X186398115Y-101934967D02*
G75*
G02*
X181348115Y-101934967I-2525000J0D01*
G01*
X186398115Y-95534967D02*
G75*
G03*
X181348115Y-95534967I-2525000J0D01*
G01*
%TO.C,C4*%
X151680000Y-95927000D02*
X151680000Y-93077000D01*
X151680000Y-87207000D02*
X151680000Y-90057000D01*
X144024437Y-87207000D02*
X151680000Y-87207000D01*
X144024437Y-95927000D02*
X151680000Y-95927000D01*
X142960000Y-94862563D02*
X142960000Y-93077000D01*
X142960000Y-88271437D02*
X142960000Y-90057000D01*
X142960000Y-88271437D02*
X144024437Y-87207000D01*
X142960000Y-94862563D02*
X144024437Y-95927000D01*
X141720000Y-89057000D02*
X142720000Y-89057000D01*
X142220000Y-88557000D02*
X142220000Y-89557000D01*
%TO.C,C6*%
X178922115Y-94615234D02*
X178922115Y-94272700D01*
X177902115Y-94615234D02*
X177902115Y-94272700D01*
%TO.C,C11*%
X138818252Y-77545000D02*
X138295748Y-77545000D01*
X138818252Y-76125000D02*
X138295748Y-76125000D01*
%TO.C,C12*%
X178922115Y-100114700D02*
X178922115Y-100457234D01*
X177902115Y-100114700D02*
X177902115Y-100457234D01*
%TO.C,C13*%
X138818252Y-78284000D02*
X138295748Y-78284000D01*
X138818252Y-79704000D02*
X138295748Y-79704000D01*
%TO.C,C15*%
X131325252Y-103199000D02*
X130802748Y-103199000D01*
X131325252Y-101779000D02*
X130802748Y-101779000D01*
%TO.C,C16*%
X105148748Y-100636000D02*
X105671252Y-100636000D01*
X105148748Y-102056000D02*
X105671252Y-102056000D01*
%TO.C,C18*%
X115323252Y-116915000D02*
X114800748Y-116915000D01*
X115323252Y-115495000D02*
X114800748Y-115495000D01*
%TO.C,C19*%
X137843000Y-108865302D02*
X137043000Y-108865302D01*
X137443000Y-108465302D02*
X137443000Y-109265302D01*
X135661000Y-116956000D02*
X134595000Y-116956000D01*
X135896000Y-116916000D02*
X134360000Y-116916000D01*
X136076000Y-116876000D02*
X134180000Y-116876000D01*
X136226000Y-116836000D02*
X134030000Y-116836000D01*
X136357000Y-116796000D02*
X133899000Y-116796000D01*
X136474000Y-116756000D02*
X133782000Y-116756000D01*
X136581000Y-116716000D02*
X133675000Y-116716000D01*
X136680000Y-116676000D02*
X133576000Y-116676000D01*
X136773000Y-116636000D02*
X133483000Y-116636000D01*
X136859000Y-116596000D02*
X133397000Y-116596000D01*
X136941000Y-116556000D02*
X133315000Y-116556000D01*
X137018000Y-116516000D02*
X133238000Y-116516000D01*
X137092000Y-116476000D02*
X133164000Y-116476000D01*
X137162000Y-116436000D02*
X133094000Y-116436000D01*
X137230000Y-116396000D02*
X133026000Y-116396000D01*
X137294000Y-116356000D02*
X132962000Y-116356000D01*
X137356000Y-116316000D02*
X132900000Y-116316000D01*
X137415000Y-116276000D02*
X132841000Y-116276000D01*
X137473000Y-116236000D02*
X132783000Y-116236000D01*
X137528000Y-116196000D02*
X132728000Y-116196000D01*
X137582000Y-116156000D02*
X132674000Y-116156000D01*
X137633000Y-116116000D02*
X132623000Y-116116000D01*
X137684000Y-116076000D02*
X132572000Y-116076000D01*
X137732000Y-116036000D02*
X132524000Y-116036000D01*
X137779000Y-115996000D02*
X132477000Y-115996000D01*
X137825000Y-115956000D02*
X132431000Y-115956000D01*
X137869000Y-115916000D02*
X132387000Y-115916000D01*
X137912000Y-115876000D02*
X132344000Y-115876000D01*
X137954000Y-115836000D02*
X132302000Y-115836000D01*
X137995000Y-115796000D02*
X132261000Y-115796000D01*
X138035000Y-115756000D02*
X132221000Y-115756000D01*
X138073000Y-115716000D02*
X132183000Y-115716000D01*
X138111000Y-115676000D02*
X132145000Y-115676000D01*
X134088000Y-115636000D02*
X132109000Y-115636000D01*
X138147000Y-115636000D02*
X136168000Y-115636000D01*
X134088000Y-115596000D02*
X132073000Y-115596000D01*
X138183000Y-115596000D02*
X136168000Y-115596000D01*
X134088000Y-115556000D02*
X132038000Y-115556000D01*
X138218000Y-115556000D02*
X136168000Y-115556000D01*
X134088000Y-115516000D02*
X132004000Y-115516000D01*
X138252000Y-115516000D02*
X136168000Y-115516000D01*
X134088000Y-115476000D02*
X131972000Y-115476000D01*
X138284000Y-115476000D02*
X136168000Y-115476000D01*
X134088000Y-115436000D02*
X131939000Y-115436000D01*
X138317000Y-115436000D02*
X136168000Y-115436000D01*
X134088000Y-115396000D02*
X131908000Y-115396000D01*
X138348000Y-115396000D02*
X136168000Y-115396000D01*
X134088000Y-115356000D02*
X131878000Y-115356000D01*
X138378000Y-115356000D02*
X136168000Y-115356000D01*
X134088000Y-115316000D02*
X131848000Y-115316000D01*
X138408000Y-115316000D02*
X136168000Y-115316000D01*
X134088000Y-115276000D02*
X131819000Y-115276000D01*
X138437000Y-115276000D02*
X136168000Y-115276000D01*
X134088000Y-115236000D02*
X131790000Y-115236000D01*
X138466000Y-115236000D02*
X136168000Y-115236000D01*
X134088000Y-115196000D02*
X131763000Y-115196000D01*
X138493000Y-115196000D02*
X136168000Y-115196000D01*
X134088000Y-115156000D02*
X131736000Y-115156000D01*
X138520000Y-115156000D02*
X136168000Y-115156000D01*
X134088000Y-115116000D02*
X131710000Y-115116000D01*
X138546000Y-115116000D02*
X136168000Y-115116000D01*
X134088000Y-115076000D02*
X131684000Y-115076000D01*
X138572000Y-115076000D02*
X136168000Y-115076000D01*
X134088000Y-115036000D02*
X131659000Y-115036000D01*
X138597000Y-115036000D02*
X136168000Y-115036000D01*
X134088000Y-114996000D02*
X131635000Y-114996000D01*
X138621000Y-114996000D02*
X136168000Y-114996000D01*
X134088000Y-114956000D02*
X131611000Y-114956000D01*
X138645000Y-114956000D02*
X136168000Y-114956000D01*
X134088000Y-114916000D02*
X131588000Y-114916000D01*
X138668000Y-114916000D02*
X136168000Y-114916000D01*
X134088000Y-114876000D02*
X131566000Y-114876000D01*
X138690000Y-114876000D02*
X136168000Y-114876000D01*
X134088000Y-114836000D02*
X131544000Y-114836000D01*
X138712000Y-114836000D02*
X136168000Y-114836000D01*
X134088000Y-114796000D02*
X131522000Y-114796000D01*
X138734000Y-114796000D02*
X136168000Y-114796000D01*
X134088000Y-114756000D02*
X131501000Y-114756000D01*
X138755000Y-114756000D02*
X136168000Y-114756000D01*
X134088000Y-114716000D02*
X131481000Y-114716000D01*
X138775000Y-114716000D02*
X136168000Y-114716000D01*
X134088000Y-114676000D02*
X131462000Y-114676000D01*
X138794000Y-114676000D02*
X136168000Y-114676000D01*
X134088000Y-114636000D02*
X131442000Y-114636000D01*
X138814000Y-114636000D02*
X136168000Y-114636000D01*
X134088000Y-114596000D02*
X131424000Y-114596000D01*
X138832000Y-114596000D02*
X136168000Y-114596000D01*
X134088000Y-114556000D02*
X131406000Y-114556000D01*
X138850000Y-114556000D02*
X136168000Y-114556000D01*
X134088000Y-114516000D02*
X131388000Y-114516000D01*
X138868000Y-114516000D02*
X136168000Y-114516000D01*
X134088000Y-114476000D02*
X131371000Y-114476000D01*
X138885000Y-114476000D02*
X136168000Y-114476000D01*
X134088000Y-114436000D02*
X131354000Y-114436000D01*
X138902000Y-114436000D02*
X136168000Y-114436000D01*
X134088000Y-114396000D02*
X131338000Y-114396000D01*
X138918000Y-114396000D02*
X136168000Y-114396000D01*
X134088000Y-114356000D02*
X131323000Y-114356000D01*
X138933000Y-114356000D02*
X136168000Y-114356000D01*
X134088000Y-114316000D02*
X131307000Y-114316000D01*
X138949000Y-114316000D02*
X136168000Y-114316000D01*
X134088000Y-114276000D02*
X131293000Y-114276000D01*
X138963000Y-114276000D02*
X136168000Y-114276000D01*
X134088000Y-114236000D02*
X131278000Y-114236000D01*
X138978000Y-114236000D02*
X136168000Y-114236000D01*
X134088000Y-114196000D02*
X131265000Y-114196000D01*
X138991000Y-114196000D02*
X136168000Y-114196000D01*
X134088000Y-114156000D02*
X131251000Y-114156000D01*
X139005000Y-114156000D02*
X136168000Y-114156000D01*
X134088000Y-114116000D02*
X131239000Y-114116000D01*
X139017000Y-114116000D02*
X136168000Y-114116000D01*
X134088000Y-114076000D02*
X131226000Y-114076000D01*
X139030000Y-114076000D02*
X136168000Y-114076000D01*
X134088000Y-114036000D02*
X131214000Y-114036000D01*
X139042000Y-114036000D02*
X136168000Y-114036000D01*
X134088000Y-113996000D02*
X131203000Y-113996000D01*
X139053000Y-113996000D02*
X136168000Y-113996000D01*
X134088000Y-113956000D02*
X131192000Y-113956000D01*
X139064000Y-113956000D02*
X136168000Y-113956000D01*
X134088000Y-113916000D02*
X131181000Y-113916000D01*
X139075000Y-113916000D02*
X136168000Y-113916000D01*
X134088000Y-113876000D02*
X131171000Y-113876000D01*
X139085000Y-113876000D02*
X136168000Y-113876000D01*
X134088000Y-113836000D02*
X131161000Y-113836000D01*
X139095000Y-113836000D02*
X136168000Y-113836000D01*
X134088000Y-113796000D02*
X131152000Y-113796000D01*
X139104000Y-113796000D02*
X136168000Y-113796000D01*
X134088000Y-113756000D02*
X131143000Y-113756000D01*
X139113000Y-113756000D02*
X136168000Y-113756000D01*
X134088000Y-113716000D02*
X131134000Y-113716000D01*
X139122000Y-113716000D02*
X136168000Y-113716000D01*
X134088000Y-113676000D02*
X131126000Y-113676000D01*
X139130000Y-113676000D02*
X136168000Y-113676000D01*
X134088000Y-113636000D02*
X131118000Y-113636000D01*
X139138000Y-113636000D02*
X136168000Y-113636000D01*
X134088000Y-113596000D02*
X131111000Y-113596000D01*
X139145000Y-113596000D02*
X136168000Y-113596000D01*
X139152000Y-113555000D02*
X131104000Y-113555000D01*
X139158000Y-113515000D02*
X131098000Y-113515000D01*
X139165000Y-113475000D02*
X131091000Y-113475000D01*
X139170000Y-113435000D02*
X131086000Y-113435000D01*
X139176000Y-113395000D02*
X131080000Y-113395000D01*
X139180000Y-113355000D02*
X131076000Y-113355000D01*
X139185000Y-113315000D02*
X131071000Y-113315000D01*
X139189000Y-113275000D02*
X131067000Y-113275000D01*
X139193000Y-113235000D02*
X131063000Y-113235000D01*
X139196000Y-113195000D02*
X131060000Y-113195000D01*
X139199000Y-113155000D02*
X131057000Y-113155000D01*
X139202000Y-113115000D02*
X131054000Y-113115000D01*
X139204000Y-113075000D02*
X131052000Y-113075000D01*
X139205000Y-113035000D02*
X131051000Y-113035000D01*
X139207000Y-112995000D02*
X131049000Y-112995000D01*
X139208000Y-112955000D02*
X131048000Y-112955000D01*
X139208000Y-112915000D02*
X131048000Y-112915000D01*
X139208000Y-112875000D02*
X131048000Y-112875000D01*
X139248000Y-112875000D02*
G75*
G03*
X139248000Y-112875000I-4120000J0D01*
G01*
%TO.C,C20*%
X110130000Y-113251064D02*
X110130000Y-112046936D01*
X108310000Y-113251064D02*
X108310000Y-112046936D01*
%TO.C,C21*%
X107752000Y-112367000D02*
G75*
G03*
X107752000Y-112367000I-4120000J0D01*
G01*
X107712000Y-112367000D02*
X99552000Y-112367000D01*
X107712000Y-112407000D02*
X99552000Y-112407000D01*
X107712000Y-112447000D02*
X99552000Y-112447000D01*
X107711000Y-112487000D02*
X99553000Y-112487000D01*
X107709000Y-112527000D02*
X99555000Y-112527000D01*
X107708000Y-112567000D02*
X99556000Y-112567000D01*
X107706000Y-112607000D02*
X99558000Y-112607000D01*
X107703000Y-112647000D02*
X99561000Y-112647000D01*
X107700000Y-112687000D02*
X99564000Y-112687000D01*
X107697000Y-112727000D02*
X99567000Y-112727000D01*
X107693000Y-112767000D02*
X99571000Y-112767000D01*
X107689000Y-112807000D02*
X99575000Y-112807000D01*
X107684000Y-112847000D02*
X99580000Y-112847000D01*
X107680000Y-112887000D02*
X99584000Y-112887000D01*
X107674000Y-112927000D02*
X99590000Y-112927000D01*
X107669000Y-112967000D02*
X99595000Y-112967000D01*
X107662000Y-113007000D02*
X99602000Y-113007000D01*
X107656000Y-113047000D02*
X99608000Y-113047000D01*
X107649000Y-113088000D02*
X104672000Y-113088000D01*
X102592000Y-113088000D02*
X99615000Y-113088000D01*
X107642000Y-113128000D02*
X104672000Y-113128000D01*
X102592000Y-113128000D02*
X99622000Y-113128000D01*
X107634000Y-113168000D02*
X104672000Y-113168000D01*
X102592000Y-113168000D02*
X99630000Y-113168000D01*
X107626000Y-113208000D02*
X104672000Y-113208000D01*
X102592000Y-113208000D02*
X99638000Y-113208000D01*
X107617000Y-113248000D02*
X104672000Y-113248000D01*
X102592000Y-113248000D02*
X99647000Y-113248000D01*
X107608000Y-113288000D02*
X104672000Y-113288000D01*
X102592000Y-113288000D02*
X99656000Y-113288000D01*
X107599000Y-113328000D02*
X104672000Y-113328000D01*
X102592000Y-113328000D02*
X99665000Y-113328000D01*
X107589000Y-113368000D02*
X104672000Y-113368000D01*
X102592000Y-113368000D02*
X99675000Y-113368000D01*
X107579000Y-113408000D02*
X104672000Y-113408000D01*
X102592000Y-113408000D02*
X99685000Y-113408000D01*
X107568000Y-113448000D02*
X104672000Y-113448000D01*
X102592000Y-113448000D02*
X99696000Y-113448000D01*
X107557000Y-113488000D02*
X104672000Y-113488000D01*
X102592000Y-113488000D02*
X99707000Y-113488000D01*
X107546000Y-113528000D02*
X104672000Y-113528000D01*
X102592000Y-113528000D02*
X99718000Y-113528000D01*
X107534000Y-113568000D02*
X104672000Y-113568000D01*
X102592000Y-113568000D02*
X99730000Y-113568000D01*
X107521000Y-113608000D02*
X104672000Y-113608000D01*
X102592000Y-113608000D02*
X99743000Y-113608000D01*
X107509000Y-113648000D02*
X104672000Y-113648000D01*
X102592000Y-113648000D02*
X99755000Y-113648000D01*
X107495000Y-113688000D02*
X104672000Y-113688000D01*
X102592000Y-113688000D02*
X99769000Y-113688000D01*
X107482000Y-113728000D02*
X104672000Y-113728000D01*
X102592000Y-113728000D02*
X99782000Y-113728000D01*
X107467000Y-113768000D02*
X104672000Y-113768000D01*
X102592000Y-113768000D02*
X99797000Y-113768000D01*
X107453000Y-113808000D02*
X104672000Y-113808000D01*
X102592000Y-113808000D02*
X99811000Y-113808000D01*
X107437000Y-113848000D02*
X104672000Y-113848000D01*
X102592000Y-113848000D02*
X99827000Y-113848000D01*
X107422000Y-113888000D02*
X104672000Y-113888000D01*
X102592000Y-113888000D02*
X99842000Y-113888000D01*
X107406000Y-113928000D02*
X104672000Y-113928000D01*
X102592000Y-113928000D02*
X99858000Y-113928000D01*
X107389000Y-113968000D02*
X104672000Y-113968000D01*
X102592000Y-113968000D02*
X99875000Y-113968000D01*
X107372000Y-114008000D02*
X104672000Y-114008000D01*
X102592000Y-114008000D02*
X99892000Y-114008000D01*
X107354000Y-114048000D02*
X104672000Y-114048000D01*
X102592000Y-114048000D02*
X99910000Y-114048000D01*
X107336000Y-114088000D02*
X104672000Y-114088000D01*
X102592000Y-114088000D02*
X99928000Y-114088000D01*
X107318000Y-114128000D02*
X104672000Y-114128000D01*
X102592000Y-114128000D02*
X99946000Y-114128000D01*
X107298000Y-114168000D02*
X104672000Y-114168000D01*
X102592000Y-114168000D02*
X99966000Y-114168000D01*
X107279000Y-114208000D02*
X104672000Y-114208000D01*
X102592000Y-114208000D02*
X99985000Y-114208000D01*
X107259000Y-114248000D02*
X104672000Y-114248000D01*
X102592000Y-114248000D02*
X100005000Y-114248000D01*
X107238000Y-114288000D02*
X104672000Y-114288000D01*
X102592000Y-114288000D02*
X100026000Y-114288000D01*
X107216000Y-114328000D02*
X104672000Y-114328000D01*
X102592000Y-114328000D02*
X100048000Y-114328000D01*
X107194000Y-114368000D02*
X104672000Y-114368000D01*
X102592000Y-114368000D02*
X100070000Y-114368000D01*
X107172000Y-114408000D02*
X104672000Y-114408000D01*
X102592000Y-114408000D02*
X100092000Y-114408000D01*
X107149000Y-114448000D02*
X104672000Y-114448000D01*
X102592000Y-114448000D02*
X100115000Y-114448000D01*
X107125000Y-114488000D02*
X104672000Y-114488000D01*
X102592000Y-114488000D02*
X100139000Y-114488000D01*
X107101000Y-114528000D02*
X104672000Y-114528000D01*
X102592000Y-114528000D02*
X100163000Y-114528000D01*
X107076000Y-114568000D02*
X104672000Y-114568000D01*
X102592000Y-114568000D02*
X100188000Y-114568000D01*
X107050000Y-114608000D02*
X104672000Y-114608000D01*
X102592000Y-114608000D02*
X100214000Y-114608000D01*
X107024000Y-114648000D02*
X104672000Y-114648000D01*
X102592000Y-114648000D02*
X100240000Y-114648000D01*
X106997000Y-114688000D02*
X104672000Y-114688000D01*
X102592000Y-114688000D02*
X100267000Y-114688000D01*
X106970000Y-114728000D02*
X104672000Y-114728000D01*
X102592000Y-114728000D02*
X100294000Y-114728000D01*
X106941000Y-114768000D02*
X104672000Y-114768000D01*
X102592000Y-114768000D02*
X100323000Y-114768000D01*
X106912000Y-114808000D02*
X104672000Y-114808000D01*
X102592000Y-114808000D02*
X100352000Y-114808000D01*
X106882000Y-114848000D02*
X104672000Y-114848000D01*
X102592000Y-114848000D02*
X100382000Y-114848000D01*
X106852000Y-114888000D02*
X104672000Y-114888000D01*
X102592000Y-114888000D02*
X100412000Y-114888000D01*
X106821000Y-114928000D02*
X104672000Y-114928000D01*
X102592000Y-114928000D02*
X100443000Y-114928000D01*
X106788000Y-114968000D02*
X104672000Y-114968000D01*
X102592000Y-114968000D02*
X100476000Y-114968000D01*
X106756000Y-115008000D02*
X104672000Y-115008000D01*
X102592000Y-115008000D02*
X100508000Y-115008000D01*
X106722000Y-115048000D02*
X104672000Y-115048000D01*
X102592000Y-115048000D02*
X100542000Y-115048000D01*
X106687000Y-115088000D02*
X104672000Y-115088000D01*
X102592000Y-115088000D02*
X100577000Y-115088000D01*
X106651000Y-115128000D02*
X104672000Y-115128000D01*
X102592000Y-115128000D02*
X100613000Y-115128000D01*
X106615000Y-115168000D02*
X100649000Y-115168000D01*
X106577000Y-115208000D02*
X100687000Y-115208000D01*
X106539000Y-115248000D02*
X100725000Y-115248000D01*
X106499000Y-115288000D02*
X100765000Y-115288000D01*
X106458000Y-115328000D02*
X100806000Y-115328000D01*
X106416000Y-115368000D02*
X100848000Y-115368000D01*
X106373000Y-115408000D02*
X100891000Y-115408000D01*
X106329000Y-115448000D02*
X100935000Y-115448000D01*
X106283000Y-115488000D02*
X100981000Y-115488000D01*
X106236000Y-115528000D02*
X101028000Y-115528000D01*
X106188000Y-115568000D02*
X101076000Y-115568000D01*
X106137000Y-115608000D02*
X101127000Y-115608000D01*
X106086000Y-115648000D02*
X101178000Y-115648000D01*
X106032000Y-115688000D02*
X101232000Y-115688000D01*
X105977000Y-115728000D02*
X101287000Y-115728000D01*
X105919000Y-115768000D02*
X101345000Y-115768000D01*
X105860000Y-115808000D02*
X101404000Y-115808000D01*
X105798000Y-115848000D02*
X101466000Y-115848000D01*
X105734000Y-115888000D02*
X101530000Y-115888000D01*
X105666000Y-115928000D02*
X101598000Y-115928000D01*
X105596000Y-115968000D02*
X101668000Y-115968000D01*
X105522000Y-116008000D02*
X101742000Y-116008000D01*
X105445000Y-116048000D02*
X101819000Y-116048000D01*
X105363000Y-116088000D02*
X101901000Y-116088000D01*
X105277000Y-116128000D02*
X101987000Y-116128000D01*
X105184000Y-116168000D02*
X102080000Y-116168000D01*
X105085000Y-116208000D02*
X102179000Y-116208000D01*
X104978000Y-116248000D02*
X102286000Y-116248000D01*
X104861000Y-116288000D02*
X102403000Y-116288000D01*
X104730000Y-116328000D02*
X102534000Y-116328000D01*
X104580000Y-116368000D02*
X102684000Y-116368000D01*
X104400000Y-116408000D02*
X102864000Y-116408000D01*
X104165000Y-116448000D02*
X103099000Y-116448000D01*
X105947000Y-107957302D02*
X105947000Y-108757302D01*
X106347000Y-108357302D02*
X105547000Y-108357302D01*
%TO.C,C22*%
X128376000Y-115283064D02*
X128376000Y-114078936D01*
X130196000Y-115283064D02*
X130196000Y-114078936D01*
%TO.C,JP1*%
X146491000Y-61782000D02*
X146491000Y-59122000D01*
X143891000Y-61782000D02*
X146491000Y-61782000D01*
X143891000Y-59122000D02*
X146491000Y-59122000D01*
X143891000Y-61782000D02*
X143891000Y-59122000D01*
X142621000Y-61782000D02*
X141291000Y-61782000D01*
X141291000Y-61782000D02*
X141291000Y-60452000D01*
%TO.C,JP2*%
X161738000Y-59122000D02*
X161738000Y-61782000D01*
X164338000Y-59122000D02*
X161738000Y-59122000D01*
X164338000Y-61782000D02*
X161738000Y-61782000D01*
X164338000Y-59122000D02*
X164338000Y-61782000D01*
X165608000Y-59122000D02*
X166938000Y-59122000D01*
X166938000Y-59122000D02*
X166938000Y-60452000D01*
%TO.C,JP3*%
X141291000Y-64322000D02*
X141291000Y-62992000D01*
X142621000Y-64322000D02*
X141291000Y-64322000D01*
X143891000Y-64322000D02*
X143891000Y-61662000D01*
X143891000Y-61662000D02*
X146491000Y-61662000D01*
X143891000Y-64322000D02*
X146491000Y-64322000D01*
X146491000Y-64322000D02*
X146491000Y-61662000D01*
%TO.C,JP4*%
X166938000Y-61662000D02*
X166938000Y-62992000D01*
X165608000Y-61662000D02*
X166938000Y-61662000D01*
X164338000Y-61662000D02*
X164338000Y-64322000D01*
X164338000Y-64322000D02*
X161738000Y-64322000D01*
X164338000Y-61662000D02*
X161738000Y-61662000D01*
X161738000Y-61662000D02*
X161738000Y-64322000D01*
%TO.C,R1*%
X180982252Y-111835000D02*
X180459748Y-111835000D01*
X180982252Y-110415000D02*
X180459748Y-110415000D01*
%TO.C,R2*%
X180982252Y-108383000D02*
X180459748Y-108383000D01*
X180982252Y-109803000D02*
X180459748Y-109803000D01*
%TO.C,R3*%
X178748849Y-96981967D02*
X179091383Y-96981967D01*
X178748849Y-98001967D02*
X179091383Y-98001967D01*
%TO.C,R19*%
X153976000Y-80891748D02*
X153976000Y-81414252D01*
X155396000Y-80891748D02*
X155396000Y-81414252D01*
%TO.C,R20*%
X156008000Y-81414252D02*
X156008000Y-80891748D01*
X157428000Y-81414252D02*
X157428000Y-80891748D01*
%TO.C,R23*%
X159265252Y-121083000D02*
X158742748Y-121083000D01*
X159265252Y-122503000D02*
X158742748Y-122503000D01*
%TO.C,R24*%
X159265252Y-118439000D02*
X158742748Y-118439000D01*
X159265252Y-117019000D02*
X158742748Y-117019000D01*
%TO.C,R25*%
X159265252Y-119051000D02*
X158742748Y-119051000D01*
X159265252Y-120471000D02*
X158742748Y-120471000D01*
%TO.C,R26*%
X136234000Y-106177064D02*
X136234000Y-103372936D01*
X133514000Y-106177064D02*
X133514000Y-103372936D01*
%TO.C,R27*%
X131116000Y-106052252D02*
X131116000Y-105529748D01*
X132536000Y-106052252D02*
X132536000Y-105529748D01*
%TO.C,R28*%
X100240000Y-105034064D02*
X100240000Y-102229936D01*
X102960000Y-105034064D02*
X102960000Y-102229936D01*
%TO.C,R29*%
X103938000Y-104909252D02*
X103938000Y-104386748D01*
X105358000Y-104909252D02*
X105358000Y-104386748D01*
%TO.C,R30*%
X156471252Y-76275000D02*
X155948748Y-76275000D01*
X156471252Y-74855000D02*
X155948748Y-74855000D01*
%TO.C,R31*%
X156471252Y-78307000D02*
X155948748Y-78307000D01*
X156471252Y-76887000D02*
X155948748Y-76887000D01*
%TO.C,R32*%
X158040000Y-80891748D02*
X158040000Y-81414252D01*
X159460000Y-80891748D02*
X159460000Y-81414252D01*
%TO.C,R35*%
X171442748Y-76633000D02*
X171965252Y-76633000D01*
X171442748Y-78053000D02*
X171965252Y-78053000D01*
%TO.C,R36*%
X171442748Y-76021000D02*
X171965252Y-76021000D01*
X171442748Y-74601000D02*
X171965252Y-74601000D01*
%TO.C,R37*%
X183336000Y-81541252D02*
X183336000Y-81018748D01*
X181916000Y-81541252D02*
X181916000Y-81018748D01*
%TO.C,C41*%
X184202000Y-81018748D02*
X184202000Y-81541252D01*
X185622000Y-81018748D02*
X185622000Y-81541252D01*
%TO.C,D6*%
X183649000Y-108020999D02*
X186509000Y-108020999D01*
X186509000Y-108020999D02*
X186509000Y-106100999D01*
X186509000Y-106100999D02*
X183649000Y-106100999D01*
%TO.C,R38*%
X180982252Y-107771000D02*
X180459748Y-107771000D01*
X180982252Y-106351000D02*
X180459748Y-106351000D01*
%TO.C,SW3*%
X185395000Y-78638000D02*
X185395000Y-78888000D01*
X185395000Y-78888000D02*
X179095000Y-78888000D01*
X179095000Y-78888000D02*
X179095000Y-78638000D01*
X185395000Y-74138000D02*
X185395000Y-76738000D01*
X179095000Y-72238000D02*
X179095000Y-71988000D01*
X179095000Y-71988000D02*
X185395000Y-71988000D01*
X185395000Y-71988000D02*
X185395000Y-72238000D01*
X179095000Y-76738000D02*
X179095000Y-74138000D01*
%TO.C,R16*%
X155396000Y-101988252D02*
X155396000Y-101465748D01*
X153976000Y-101988252D02*
X153976000Y-101465748D01*
%TO.C,R17*%
X153976000Y-106306252D02*
X153976000Y-105783748D01*
X155396000Y-106306252D02*
X155396000Y-105783748D01*
%TO.C,J4*%
X150054000Y-97857000D02*
X151384000Y-97857000D01*
X150054000Y-99187000D02*
X150054000Y-97857000D01*
X150054000Y-100457000D02*
X152714000Y-100457000D01*
X152714000Y-100457000D02*
X152714000Y-108137000D01*
X150054000Y-100457000D02*
X150054000Y-108137000D01*
X150054000Y-108137000D02*
X152714000Y-108137000D01*
%TO.C,J7*%
X188020000Y-84903000D02*
X188020000Y-86233000D01*
X186690000Y-84903000D02*
X188020000Y-84903000D01*
X188020000Y-87503000D02*
X188020000Y-90103000D01*
X185420000Y-87503000D02*
X188020000Y-87503000D01*
X185420000Y-84903000D02*
X185420000Y-87503000D01*
X188020000Y-90103000D02*
X177740000Y-90103000D01*
X185420000Y-84903000D02*
X177740000Y-84903000D01*
X177740000Y-84903000D02*
X177740000Y-90103000D01*
%TO.C,J8*%
X167326000Y-121345000D02*
X167326000Y-120015000D01*
X168656000Y-121345000D02*
X167326000Y-121345000D01*
X167326000Y-118745000D02*
X167326000Y-116145000D01*
X169926000Y-118745000D02*
X167326000Y-118745000D01*
X169926000Y-121345000D02*
X169926000Y-118745000D01*
X167326000Y-116145000D02*
X180146000Y-116145000D01*
X169926000Y-121345000D02*
X180146000Y-121345000D01*
X180146000Y-121345000D02*
X180146000Y-116145000D01*
%TO.C,J9*%
X154245000Y-97850000D02*
X156905000Y-97850000D01*
X154245000Y-95250000D02*
X154245000Y-97850000D01*
X156905000Y-95250000D02*
X156905000Y-97850000D01*
X154245000Y-95250000D02*
X156905000Y-95250000D01*
X154245000Y-93980000D02*
X154245000Y-92650000D01*
X154245000Y-92650000D02*
X155575000Y-92650000D01*
%TO.C,C44*%
X160911000Y-86912267D02*
X160911000Y-86569733D01*
X159891000Y-86912267D02*
X159891000Y-86569733D01*
%TO.C,J5*%
X96079000Y-105223000D02*
X97409000Y-105223000D01*
X96079000Y-106553000D02*
X96079000Y-105223000D01*
X96079000Y-107823000D02*
X98739000Y-107823000D01*
X98739000Y-107823000D02*
X98739000Y-118043000D01*
X96079000Y-107823000D02*
X96079000Y-118043000D01*
X96079000Y-118043000D02*
X98739000Y-118043000D01*
%TO.C,J10*%
X140148000Y-118043000D02*
X142808000Y-118043000D01*
X140148000Y-107823000D02*
X140148000Y-118043000D01*
X142808000Y-107823000D02*
X142808000Y-118043000D01*
X140148000Y-107823000D02*
X142808000Y-107823000D01*
X140148000Y-106553000D02*
X140148000Y-105223000D01*
X140148000Y-105223000D02*
X141478000Y-105223000D01*
%TO.C,C2*%
D10*
X118451333Y-117070142D02*
X118403714Y-117117761D01*
X118260857Y-117165380D01*
X118165619Y-117165380D01*
X118022761Y-117117761D01*
X117927523Y-117022523D01*
X117879904Y-116927285D01*
X117832285Y-116736809D01*
X117832285Y-116593952D01*
X117879904Y-116403476D01*
X117927523Y-116308238D01*
X118022761Y-116213000D01*
X118165619Y-116165380D01*
X118260857Y-116165380D01*
X118403714Y-116213000D01*
X118451333Y-116260619D01*
X118832285Y-116260619D02*
X118879904Y-116213000D01*
X118975142Y-116165380D01*
X119213238Y-116165380D01*
X119308476Y-116213000D01*
X119356095Y-116260619D01*
X119403714Y-116355857D01*
X119403714Y-116451095D01*
X119356095Y-116593952D01*
X118784666Y-117165380D01*
X119403714Y-117165380D01*
%TO.C,U16*%
X112807904Y-99401380D02*
X112807904Y-100210904D01*
X112855523Y-100306142D01*
X112903142Y-100353761D01*
X112998380Y-100401380D01*
X113188857Y-100401380D01*
X113284095Y-100353761D01*
X113331714Y-100306142D01*
X113379333Y-100210904D01*
X113379333Y-99401380D01*
X114379333Y-100401380D02*
X113807904Y-100401380D01*
X114093619Y-100401380D02*
X114093619Y-99401380D01*
X113998380Y-99544238D01*
X113903142Y-99639476D01*
X113807904Y-99687095D01*
X115236476Y-99401380D02*
X115046000Y-99401380D01*
X114950761Y-99449000D01*
X114903142Y-99496619D01*
X114807904Y-99639476D01*
X114760285Y-99829952D01*
X114760285Y-100210904D01*
X114807904Y-100306142D01*
X114855523Y-100353761D01*
X114950761Y-100401380D01*
X115141238Y-100401380D01*
X115236476Y-100353761D01*
X115284095Y-100306142D01*
X115331714Y-100210904D01*
X115331714Y-99972809D01*
X115284095Y-99877571D01*
X115236476Y-99829952D01*
X115141238Y-99782333D01*
X114950761Y-99782333D01*
X114855523Y-99829952D01*
X114807904Y-99877571D01*
X114760285Y-99972809D01*
%TO.C,J1*%
X117083380Y-76533333D02*
X117797666Y-76533333D01*
X117940523Y-76580952D01*
X118035761Y-76676190D01*
X118083380Y-76819047D01*
X118083380Y-76914285D01*
X118083380Y-75533333D02*
X118083380Y-76104761D01*
X118083380Y-75819047D02*
X117083380Y-75819047D01*
X117226238Y-75914285D01*
X117321476Y-76009523D01*
X117369095Y-76104761D01*
%TO.C,C17*%
X121531142Y-118340142D02*
X121483523Y-118387761D01*
X121340666Y-118435380D01*
X121245428Y-118435380D01*
X121102571Y-118387761D01*
X121007333Y-118292523D01*
X120959714Y-118197285D01*
X120912095Y-118006809D01*
X120912095Y-117863952D01*
X120959714Y-117673476D01*
X121007333Y-117578238D01*
X121102571Y-117483000D01*
X121245428Y-117435380D01*
X121340666Y-117435380D01*
X121483523Y-117483000D01*
X121531142Y-117530619D01*
X122483523Y-118435380D02*
X121912095Y-118435380D01*
X122197809Y-118435380D02*
X122197809Y-117435380D01*
X122102571Y-117578238D01*
X122007333Y-117673476D01*
X121912095Y-117721095D01*
X122816857Y-117435380D02*
X123483523Y-117435380D01*
X123054952Y-118435380D01*
%TO.C,CG1*%
X94649333Y-87352142D02*
X94601714Y-87399761D01*
X94458857Y-87447380D01*
X94363619Y-87447380D01*
X94220761Y-87399761D01*
X94125523Y-87304523D01*
X94077904Y-87209285D01*
X94030285Y-87018809D01*
X94030285Y-86875952D01*
X94077904Y-86685476D01*
X94125523Y-86590238D01*
X94220761Y-86495000D01*
X94363619Y-86447380D01*
X94458857Y-86447380D01*
X94601714Y-86495000D01*
X94649333Y-86542619D01*
X95601714Y-86495000D02*
X95506476Y-86447380D01*
X95363619Y-86447380D01*
X95220761Y-86495000D01*
X95125523Y-86590238D01*
X95077904Y-86685476D01*
X95030285Y-86875952D01*
X95030285Y-87018809D01*
X95077904Y-87209285D01*
X95125523Y-87304523D01*
X95220761Y-87399761D01*
X95363619Y-87447380D01*
X95458857Y-87447380D01*
X95601714Y-87399761D01*
X95649333Y-87352142D01*
X95649333Y-87018809D01*
X95458857Y-87018809D01*
X96601714Y-87447380D02*
X96030285Y-87447380D01*
X96316000Y-87447380D02*
X96316000Y-86447380D01*
X96220761Y-86590238D01*
X96125523Y-86685476D01*
X96030285Y-86733095D01*
%TO.C,D1*%
X137390380Y-88622095D02*
X136390380Y-88622095D01*
X136390380Y-88384000D01*
X136438000Y-88241142D01*
X136533238Y-88145904D01*
X136628476Y-88098285D01*
X136818952Y-88050666D01*
X136961809Y-88050666D01*
X137152285Y-88098285D01*
X137247523Y-88145904D01*
X137342761Y-88241142D01*
X137390380Y-88384000D01*
X137390380Y-88622095D01*
X137390380Y-87098285D02*
X137390380Y-87669714D01*
X137390380Y-87384000D02*
X136390380Y-87384000D01*
X136533238Y-87479238D01*
X136628476Y-87574476D01*
X136676095Y-87669714D01*
%TO.C,D3*%
X142438380Y-79859095D02*
X141438380Y-79859095D01*
X141438380Y-79621000D01*
X141486000Y-79478142D01*
X141581238Y-79382904D01*
X141676476Y-79335285D01*
X141866952Y-79287666D01*
X142009809Y-79287666D01*
X142200285Y-79335285D01*
X142295523Y-79382904D01*
X142390761Y-79478142D01*
X142438380Y-79621000D01*
X142438380Y-79859095D01*
X141438380Y-78954333D02*
X141438380Y-78335285D01*
X141819333Y-78668619D01*
X141819333Y-78525761D01*
X141866952Y-78430523D01*
X141914571Y-78382904D01*
X142009809Y-78335285D01*
X142247904Y-78335285D01*
X142343142Y-78382904D01*
X142390761Y-78430523D01*
X142438380Y-78525761D01*
X142438380Y-78811476D01*
X142390761Y-78906714D01*
X142343142Y-78954333D01*
%TO.C,D4*%
X186840904Y-111577380D02*
X186840904Y-110577380D01*
X187079000Y-110577380D01*
X187221857Y-110625000D01*
X187317095Y-110720238D01*
X187364714Y-110815476D01*
X187412333Y-111005952D01*
X187412333Y-111148809D01*
X187364714Y-111339285D01*
X187317095Y-111434523D01*
X187221857Y-111529761D01*
X187079000Y-111577380D01*
X186840904Y-111577380D01*
X188269476Y-110910714D02*
X188269476Y-111577380D01*
X188031380Y-110529761D02*
X187793285Y-111244047D01*
X188412333Y-111244047D01*
%TO.C,D5*%
X186840904Y-109418379D02*
X186840904Y-108418379D01*
X187079000Y-108418379D01*
X187221857Y-108465999D01*
X187317095Y-108561237D01*
X187364714Y-108656475D01*
X187412333Y-108846951D01*
X187412333Y-108989808D01*
X187364714Y-109180284D01*
X187317095Y-109275522D01*
X187221857Y-109370760D01*
X187079000Y-109418379D01*
X186840904Y-109418379D01*
X188317095Y-108418379D02*
X187840904Y-108418379D01*
X187793285Y-108894570D01*
X187840904Y-108846951D01*
X187936142Y-108799332D01*
X188174238Y-108799332D01*
X188269476Y-108846951D01*
X188317095Y-108894570D01*
X188364714Y-108989808D01*
X188364714Y-109227903D01*
X188317095Y-109323141D01*
X188269476Y-109370760D01*
X188174238Y-109418379D01*
X187936142Y-109418379D01*
X187840904Y-109370760D01*
X187793285Y-109323141D01*
%TO.C,R7*%
X110323333Y-93543380D02*
X109990000Y-93067190D01*
X109751904Y-93543380D02*
X109751904Y-92543380D01*
X110132857Y-92543380D01*
X110228095Y-92591000D01*
X110275714Y-92638619D01*
X110323333Y-92733857D01*
X110323333Y-92876714D01*
X110275714Y-92971952D01*
X110228095Y-93019571D01*
X110132857Y-93067190D01*
X109751904Y-93067190D01*
X110656666Y-92543380D02*
X111323333Y-92543380D01*
X110894761Y-93543380D01*
%TO.C,R8*%
X110314333Y-91511380D02*
X109981000Y-91035190D01*
X109742904Y-91511380D02*
X109742904Y-90511380D01*
X110123857Y-90511380D01*
X110219095Y-90559000D01*
X110266714Y-90606619D01*
X110314333Y-90701857D01*
X110314333Y-90844714D01*
X110266714Y-90939952D01*
X110219095Y-90987571D01*
X110123857Y-91035190D01*
X109742904Y-91035190D01*
X110885761Y-90939952D02*
X110790523Y-90892333D01*
X110742904Y-90844714D01*
X110695285Y-90749476D01*
X110695285Y-90701857D01*
X110742904Y-90606619D01*
X110790523Y-90559000D01*
X110885761Y-90511380D01*
X111076238Y-90511380D01*
X111171476Y-90559000D01*
X111219095Y-90606619D01*
X111266714Y-90701857D01*
X111266714Y-90749476D01*
X111219095Y-90844714D01*
X111171476Y-90892333D01*
X111076238Y-90939952D01*
X110885761Y-90939952D01*
X110790523Y-90987571D01*
X110742904Y-91035190D01*
X110695285Y-91130428D01*
X110695285Y-91320904D01*
X110742904Y-91416142D01*
X110790523Y-91463761D01*
X110885761Y-91511380D01*
X111076238Y-91511380D01*
X111171476Y-91463761D01*
X111219095Y-91416142D01*
X111266714Y-91320904D01*
X111266714Y-91130428D01*
X111219095Y-91035190D01*
X111171476Y-90987571D01*
X111076238Y-90939952D01*
%TO.C,RMPS1*%
X148614380Y-83629285D02*
X148138190Y-83962619D01*
X148614380Y-84200714D02*
X147614380Y-84200714D01*
X147614380Y-83819761D01*
X147662000Y-83724523D01*
X147709619Y-83676904D01*
X147804857Y-83629285D01*
X147947714Y-83629285D01*
X148042952Y-83676904D01*
X148090571Y-83724523D01*
X148138190Y-83819761D01*
X148138190Y-84200714D01*
X148614380Y-83200714D02*
X147614380Y-83200714D01*
X148328666Y-82867380D01*
X147614380Y-82534047D01*
X148614380Y-82534047D01*
X148614380Y-82057857D02*
X147614380Y-82057857D01*
X147614380Y-81676904D01*
X147662000Y-81581666D01*
X147709619Y-81534047D01*
X147804857Y-81486428D01*
X147947714Y-81486428D01*
X148042952Y-81534047D01*
X148090571Y-81581666D01*
X148138190Y-81676904D01*
X148138190Y-82057857D01*
X148566761Y-81105476D02*
X148614380Y-80962619D01*
X148614380Y-80724523D01*
X148566761Y-80629285D01*
X148519142Y-80581666D01*
X148423904Y-80534047D01*
X148328666Y-80534047D01*
X148233428Y-80581666D01*
X148185809Y-80629285D01*
X148138190Y-80724523D01*
X148090571Y-80915000D01*
X148042952Y-81010238D01*
X147995333Y-81057857D01*
X147900095Y-81105476D01*
X147804857Y-81105476D01*
X147709619Y-81057857D01*
X147662000Y-81010238D01*
X147614380Y-80915000D01*
X147614380Y-80676904D01*
X147662000Y-80534047D01*
X148614380Y-79581666D02*
X148614380Y-80153095D01*
X148614380Y-79867380D02*
X147614380Y-79867380D01*
X147757238Y-79962619D01*
X147852476Y-80057857D01*
X147900095Y-80153095D01*
%TO.C,TR1*%
X120531095Y-65365380D02*
X121102523Y-65365380D01*
X120816809Y-66365380D02*
X120816809Y-65365380D01*
X122007285Y-66365380D02*
X121673952Y-65889190D01*
X121435857Y-66365380D02*
X121435857Y-65365380D01*
X121816809Y-65365380D01*
X121912047Y-65413000D01*
X121959666Y-65460619D01*
X122007285Y-65555857D01*
X122007285Y-65698714D01*
X121959666Y-65793952D01*
X121912047Y-65841571D01*
X121816809Y-65889190D01*
X121435857Y-65889190D01*
X122959666Y-66365380D02*
X122388238Y-66365380D01*
X122673952Y-66365380D02*
X122673952Y-65365380D01*
X122578714Y-65508238D01*
X122483476Y-65603476D01*
X122388238Y-65651095D01*
%TO.C,U3*%
X166220210Y-106596347D02*
X166220210Y-107405871D01*
X166267829Y-107501109D01*
X166315448Y-107548728D01*
X166410686Y-107596347D01*
X166601162Y-107596347D01*
X166696400Y-107548728D01*
X166744019Y-107501109D01*
X166791638Y-107405871D01*
X166791638Y-106596347D01*
X167172591Y-106596347D02*
X167791638Y-106596347D01*
X167458305Y-106977300D01*
X167601162Y-106977300D01*
X167696400Y-107024919D01*
X167744019Y-107072538D01*
X167791638Y-107167776D01*
X167791638Y-107405871D01*
X167744019Y-107501109D01*
X167696400Y-107548728D01*
X167601162Y-107596347D01*
X167315448Y-107596347D01*
X167220210Y-107548728D01*
X167172591Y-107501109D01*
%TO.C,U14*%
X162591904Y-74001380D02*
X162591904Y-74810904D01*
X162639523Y-74906142D01*
X162687142Y-74953761D01*
X162782380Y-75001380D01*
X162972857Y-75001380D01*
X163068095Y-74953761D01*
X163115714Y-74906142D01*
X163163333Y-74810904D01*
X163163333Y-74001380D01*
X164163333Y-75001380D02*
X163591904Y-75001380D01*
X163877619Y-75001380D02*
X163877619Y-74001380D01*
X163782380Y-74144238D01*
X163687142Y-74239476D01*
X163591904Y-74287095D01*
X165020476Y-74334714D02*
X165020476Y-75001380D01*
X164782380Y-73953761D02*
X164544285Y-74668047D01*
X165163333Y-74668047D01*
%TO.C,U15*%
X151796904Y-119665380D02*
X151796904Y-120474904D01*
X151844523Y-120570142D01*
X151892142Y-120617761D01*
X151987380Y-120665380D01*
X152177857Y-120665380D01*
X152273095Y-120617761D01*
X152320714Y-120570142D01*
X152368333Y-120474904D01*
X152368333Y-119665380D01*
X153368333Y-120665380D02*
X152796904Y-120665380D01*
X153082619Y-120665380D02*
X153082619Y-119665380D01*
X152987380Y-119808238D01*
X152892142Y-119903476D01*
X152796904Y-119951095D01*
X154273095Y-119665380D02*
X153796904Y-119665380D01*
X153749285Y-120141571D01*
X153796904Y-120093952D01*
X153892142Y-120046333D01*
X154130238Y-120046333D01*
X154225476Y-120093952D01*
X154273095Y-120141571D01*
X154320714Y-120236809D01*
X154320714Y-120474904D01*
X154273095Y-120570142D01*
X154225476Y-120617761D01*
X154130238Y-120665380D01*
X153892142Y-120665380D01*
X153796904Y-120617761D01*
X153749285Y-120570142D01*
%TO.C,X1*%
X162512476Y-85431380D02*
X163179142Y-86431380D01*
X163179142Y-85431380D02*
X162512476Y-86431380D01*
X164083904Y-86431380D02*
X163512476Y-86431380D01*
X163798190Y-86431380D02*
X163798190Y-85431380D01*
X163702952Y-85574238D01*
X163607714Y-85669476D01*
X163512476Y-85717095D01*
%TO.C,Y1*%
X187405305Y-99238157D02*
X187881495Y-99238157D01*
X186881495Y-99571490D02*
X187405305Y-99238157D01*
X186881495Y-98904824D01*
X187881495Y-98047681D02*
X187881495Y-98619109D01*
X187881495Y-98333395D02*
X186881495Y-98333395D01*
X187024353Y-98428633D01*
X187119591Y-98523871D01*
X187167210Y-98619109D01*
%TO.C,C4*%
X149947333Y-86624142D02*
X149899714Y-86671761D01*
X149756857Y-86719380D01*
X149661619Y-86719380D01*
X149518761Y-86671761D01*
X149423523Y-86576523D01*
X149375904Y-86481285D01*
X149328285Y-86290809D01*
X149328285Y-86147952D01*
X149375904Y-85957476D01*
X149423523Y-85862238D01*
X149518761Y-85767000D01*
X149661619Y-85719380D01*
X149756857Y-85719380D01*
X149899714Y-85767000D01*
X149947333Y-85814619D01*
X150804476Y-86052714D02*
X150804476Y-86719380D01*
X150566380Y-85671761D02*
X150328285Y-86386047D01*
X150947333Y-86386047D01*
%TO.C,C6*%
X180166257Y-94737633D02*
X180213876Y-94785252D01*
X180261495Y-94928109D01*
X180261495Y-95023347D01*
X180213876Y-95166205D01*
X180118638Y-95261443D01*
X180023400Y-95309062D01*
X179832924Y-95356681D01*
X179690067Y-95356681D01*
X179499591Y-95309062D01*
X179404353Y-95261443D01*
X179309115Y-95166205D01*
X179261495Y-95023347D01*
X179261495Y-94928109D01*
X179309115Y-94785252D01*
X179356734Y-94737633D01*
X179261495Y-93880490D02*
X179261495Y-94070967D01*
X179309115Y-94166205D01*
X179356734Y-94213824D01*
X179499591Y-94309062D01*
X179690067Y-94356681D01*
X180071019Y-94356681D01*
X180166257Y-94309062D01*
X180213876Y-94261443D01*
X180261495Y-94166205D01*
X180261495Y-93975728D01*
X180213876Y-93880490D01*
X180166257Y-93832871D01*
X180071019Y-93785252D01*
X179832924Y-93785252D01*
X179737686Y-93832871D01*
X179690067Y-93880490D01*
X179642448Y-93975728D01*
X179642448Y-94166205D01*
X179690067Y-94261443D01*
X179737686Y-94309062D01*
X179832924Y-94356681D01*
%TO.C,C11*%
X140953142Y-77192142D02*
X140905523Y-77239761D01*
X140762666Y-77287380D01*
X140667428Y-77287380D01*
X140524571Y-77239761D01*
X140429333Y-77144523D01*
X140381714Y-77049285D01*
X140334095Y-76858809D01*
X140334095Y-76715952D01*
X140381714Y-76525476D01*
X140429333Y-76430238D01*
X140524571Y-76335000D01*
X140667428Y-76287380D01*
X140762666Y-76287380D01*
X140905523Y-76335000D01*
X140953142Y-76382619D01*
X141905523Y-77287380D02*
X141334095Y-77287380D01*
X141619809Y-77287380D02*
X141619809Y-76287380D01*
X141524571Y-76430238D01*
X141429333Y-76525476D01*
X141334095Y-76573095D01*
X142857904Y-77287380D02*
X142286476Y-77287380D01*
X142572190Y-77287380D02*
X142572190Y-76287380D01*
X142476952Y-76430238D01*
X142381714Y-76525476D01*
X142286476Y-76573095D01*
%TO.C,C12*%
X180199257Y-100928824D02*
X180246876Y-100976443D01*
X180294495Y-101119300D01*
X180294495Y-101214538D01*
X180246876Y-101357395D01*
X180151638Y-101452633D01*
X180056400Y-101500252D01*
X179865924Y-101547871D01*
X179723067Y-101547871D01*
X179532591Y-101500252D01*
X179437353Y-101452633D01*
X179342115Y-101357395D01*
X179294495Y-101214538D01*
X179294495Y-101119300D01*
X179342115Y-100976443D01*
X179389734Y-100928824D01*
X180294495Y-99976443D02*
X180294495Y-100547871D01*
X180294495Y-100262157D02*
X179294495Y-100262157D01*
X179437353Y-100357395D01*
X179532591Y-100452633D01*
X179580210Y-100547871D01*
X179389734Y-99595490D02*
X179342115Y-99547871D01*
X179294495Y-99452633D01*
X179294495Y-99214538D01*
X179342115Y-99119300D01*
X179389734Y-99071681D01*
X179484972Y-99024062D01*
X179580210Y-99024062D01*
X179723067Y-99071681D01*
X180294495Y-99643109D01*
X180294495Y-99024062D01*
%TO.C,C13*%
X137914142Y-81001142D02*
X137866523Y-81048761D01*
X137723666Y-81096380D01*
X137628428Y-81096380D01*
X137485571Y-81048761D01*
X137390333Y-80953523D01*
X137342714Y-80858285D01*
X137295095Y-80667809D01*
X137295095Y-80524952D01*
X137342714Y-80334476D01*
X137390333Y-80239238D01*
X137485571Y-80144000D01*
X137628428Y-80096380D01*
X137723666Y-80096380D01*
X137866523Y-80144000D01*
X137914142Y-80191619D01*
X138866523Y-81096380D02*
X138295095Y-81096380D01*
X138580809Y-81096380D02*
X138580809Y-80096380D01*
X138485571Y-80239238D01*
X138390333Y-80334476D01*
X138295095Y-80382095D01*
X139199857Y-80096380D02*
X139818904Y-80096380D01*
X139485571Y-80477333D01*
X139628428Y-80477333D01*
X139723666Y-80524952D01*
X139771285Y-80572571D01*
X139818904Y-80667809D01*
X139818904Y-80905904D01*
X139771285Y-81001142D01*
X139723666Y-81048761D01*
X139628428Y-81096380D01*
X139342714Y-81096380D01*
X139247476Y-81048761D01*
X139199857Y-81001142D01*
%TO.C,C15*%
X130421142Y-101068142D02*
X130373523Y-101115761D01*
X130230666Y-101163380D01*
X130135428Y-101163380D01*
X129992571Y-101115761D01*
X129897333Y-101020523D01*
X129849714Y-100925285D01*
X129802095Y-100734809D01*
X129802095Y-100591952D01*
X129849714Y-100401476D01*
X129897333Y-100306238D01*
X129992571Y-100211000D01*
X130135428Y-100163380D01*
X130230666Y-100163380D01*
X130373523Y-100211000D01*
X130421142Y-100258619D01*
X131373523Y-101163380D02*
X130802095Y-101163380D01*
X131087809Y-101163380D02*
X131087809Y-100163380D01*
X130992571Y-100306238D01*
X130897333Y-100401476D01*
X130802095Y-100449095D01*
X132278285Y-100163380D02*
X131802095Y-100163380D01*
X131754476Y-100639571D01*
X131802095Y-100591952D01*
X131897333Y-100544333D01*
X132135428Y-100544333D01*
X132230666Y-100591952D01*
X132278285Y-100639571D01*
X132325904Y-100734809D01*
X132325904Y-100972904D01*
X132278285Y-101068142D01*
X132230666Y-101115761D01*
X132135428Y-101163380D01*
X131897333Y-101163380D01*
X131802095Y-101115761D01*
X131754476Y-101068142D01*
%TO.C,C16*%
X104767142Y-100053142D02*
X104719523Y-100100761D01*
X104576666Y-100148380D01*
X104481428Y-100148380D01*
X104338571Y-100100761D01*
X104243333Y-100005523D01*
X104195714Y-99910285D01*
X104148095Y-99719809D01*
X104148095Y-99576952D01*
X104195714Y-99386476D01*
X104243333Y-99291238D01*
X104338571Y-99196000D01*
X104481428Y-99148380D01*
X104576666Y-99148380D01*
X104719523Y-99196000D01*
X104767142Y-99243619D01*
X105719523Y-100148380D02*
X105148095Y-100148380D01*
X105433809Y-100148380D02*
X105433809Y-99148380D01*
X105338571Y-99291238D01*
X105243333Y-99386476D01*
X105148095Y-99434095D01*
X106576666Y-99148380D02*
X106386190Y-99148380D01*
X106290952Y-99196000D01*
X106243333Y-99243619D01*
X106148095Y-99386476D01*
X106100476Y-99576952D01*
X106100476Y-99957904D01*
X106148095Y-100053142D01*
X106195714Y-100100761D01*
X106290952Y-100148380D01*
X106481428Y-100148380D01*
X106576666Y-100100761D01*
X106624285Y-100053142D01*
X106671904Y-99957904D01*
X106671904Y-99719809D01*
X106624285Y-99624571D01*
X106576666Y-99576952D01*
X106481428Y-99529333D01*
X106290952Y-99529333D01*
X106195714Y-99576952D01*
X106148095Y-99624571D01*
X106100476Y-99719809D01*
%TO.C,C18*%
X114419142Y-118212142D02*
X114371523Y-118259761D01*
X114228666Y-118307380D01*
X114133428Y-118307380D01*
X113990571Y-118259761D01*
X113895333Y-118164523D01*
X113847714Y-118069285D01*
X113800095Y-117878809D01*
X113800095Y-117735952D01*
X113847714Y-117545476D01*
X113895333Y-117450238D01*
X113990571Y-117355000D01*
X114133428Y-117307380D01*
X114228666Y-117307380D01*
X114371523Y-117355000D01*
X114419142Y-117402619D01*
X115371523Y-118307380D02*
X114800095Y-118307380D01*
X115085809Y-118307380D02*
X115085809Y-117307380D01*
X114990571Y-117450238D01*
X114895333Y-117545476D01*
X114800095Y-117593095D01*
X115942952Y-117735952D02*
X115847714Y-117688333D01*
X115800095Y-117640714D01*
X115752476Y-117545476D01*
X115752476Y-117497857D01*
X115800095Y-117402619D01*
X115847714Y-117355000D01*
X115942952Y-117307380D01*
X116133428Y-117307380D01*
X116228666Y-117355000D01*
X116276285Y-117402619D01*
X116323904Y-117497857D01*
X116323904Y-117545476D01*
X116276285Y-117640714D01*
X116228666Y-117688333D01*
X116133428Y-117735952D01*
X115942952Y-117735952D01*
X115847714Y-117783571D01*
X115800095Y-117831190D01*
X115752476Y-117926428D01*
X115752476Y-118116904D01*
X115800095Y-118212142D01*
X115847714Y-118259761D01*
X115942952Y-118307380D01*
X116133428Y-118307380D01*
X116228666Y-118259761D01*
X116276285Y-118212142D01*
X116323904Y-118116904D01*
X116323904Y-117926428D01*
X116276285Y-117831190D01*
X116228666Y-117783571D01*
X116133428Y-117735952D01*
%TO.C,C19*%
X134993142Y-118721142D02*
X134945523Y-118768761D01*
X134802666Y-118816380D01*
X134707428Y-118816380D01*
X134564571Y-118768761D01*
X134469333Y-118673523D01*
X134421714Y-118578285D01*
X134374095Y-118387809D01*
X134374095Y-118244952D01*
X134421714Y-118054476D01*
X134469333Y-117959238D01*
X134564571Y-117864000D01*
X134707428Y-117816380D01*
X134802666Y-117816380D01*
X134945523Y-117864000D01*
X134993142Y-117911619D01*
X135945523Y-118816380D02*
X135374095Y-118816380D01*
X135659809Y-118816380D02*
X135659809Y-117816380D01*
X135564571Y-117959238D01*
X135469333Y-118054476D01*
X135374095Y-118102095D01*
X136421714Y-118816380D02*
X136612190Y-118816380D01*
X136707428Y-118768761D01*
X136755047Y-118721142D01*
X136850285Y-118578285D01*
X136897904Y-118387809D01*
X136897904Y-118006857D01*
X136850285Y-117911619D01*
X136802666Y-117864000D01*
X136707428Y-117816380D01*
X136516952Y-117816380D01*
X136421714Y-117864000D01*
X136374095Y-117911619D01*
X136326476Y-118006857D01*
X136326476Y-118244952D01*
X136374095Y-118340190D01*
X136421714Y-118387809D01*
X136516952Y-118435428D01*
X136707428Y-118435428D01*
X136802666Y-118387809D01*
X136850285Y-118340190D01*
X136897904Y-118244952D01*
%TO.C,C20*%
X110894857Y-112768142D02*
X110847238Y-112720523D01*
X110799619Y-112577666D01*
X110799619Y-112482428D01*
X110847238Y-112339571D01*
X110942476Y-112244333D01*
X111037714Y-112196714D01*
X111228190Y-112149095D01*
X111371047Y-112149095D01*
X111561523Y-112196714D01*
X111656761Y-112244333D01*
X111752000Y-112339571D01*
X111799619Y-112482428D01*
X111799619Y-112577666D01*
X111752000Y-112720523D01*
X111704380Y-112768142D01*
X111704380Y-113149095D02*
X111752000Y-113196714D01*
X111799619Y-113291952D01*
X111799619Y-113530047D01*
X111752000Y-113625285D01*
X111704380Y-113672904D01*
X111609142Y-113720523D01*
X111513904Y-113720523D01*
X111371047Y-113672904D01*
X110799619Y-113101476D01*
X110799619Y-113720523D01*
X111799619Y-114339571D02*
X111799619Y-114434809D01*
X111752000Y-114530047D01*
X111704380Y-114577666D01*
X111609142Y-114625285D01*
X111418666Y-114672904D01*
X111180571Y-114672904D01*
X110990095Y-114625285D01*
X110894857Y-114577666D01*
X110847238Y-114530047D01*
X110799619Y-114434809D01*
X110799619Y-114339571D01*
X110847238Y-114244333D01*
X110894857Y-114196714D01*
X110990095Y-114149095D01*
X111180571Y-114101476D01*
X111418666Y-114101476D01*
X111609142Y-114149095D01*
X111704380Y-114196714D01*
X111752000Y-114244333D01*
X111799619Y-114339571D01*
%TO.C,C21*%
X102608142Y-118086142D02*
X102560523Y-118133761D01*
X102417666Y-118181380D01*
X102322428Y-118181380D01*
X102179571Y-118133761D01*
X102084333Y-118038523D01*
X102036714Y-117943285D01*
X101989095Y-117752809D01*
X101989095Y-117609952D01*
X102036714Y-117419476D01*
X102084333Y-117324238D01*
X102179571Y-117229000D01*
X102322428Y-117181380D01*
X102417666Y-117181380D01*
X102560523Y-117229000D01*
X102608142Y-117276619D01*
X102989095Y-117276619D02*
X103036714Y-117229000D01*
X103131952Y-117181380D01*
X103370047Y-117181380D01*
X103465285Y-117229000D01*
X103512904Y-117276619D01*
X103560523Y-117371857D01*
X103560523Y-117467095D01*
X103512904Y-117609952D01*
X102941476Y-118181380D01*
X103560523Y-118181380D01*
X104512904Y-118181380D02*
X103941476Y-118181380D01*
X104227190Y-118181380D02*
X104227190Y-117181380D01*
X104131952Y-117324238D01*
X104036714Y-117419476D01*
X103941476Y-117467095D01*
%TO.C,C22*%
X127823142Y-115323857D02*
X127870761Y-115371476D01*
X127918380Y-115514333D01*
X127918380Y-115609571D01*
X127870761Y-115752428D01*
X127775523Y-115847666D01*
X127680285Y-115895285D01*
X127489809Y-115942904D01*
X127346952Y-115942904D01*
X127156476Y-115895285D01*
X127061238Y-115847666D01*
X126966000Y-115752428D01*
X126918380Y-115609571D01*
X126918380Y-115514333D01*
X126966000Y-115371476D01*
X127013619Y-115323857D01*
X127013619Y-114942904D02*
X126966000Y-114895285D01*
X126918380Y-114800047D01*
X126918380Y-114561952D01*
X126966000Y-114466714D01*
X127013619Y-114419095D01*
X127108857Y-114371476D01*
X127204095Y-114371476D01*
X127346952Y-114419095D01*
X127918380Y-114990523D01*
X127918380Y-114371476D01*
X127013619Y-113990523D02*
X126966000Y-113942904D01*
X126918380Y-113847666D01*
X126918380Y-113609571D01*
X126966000Y-113514333D01*
X127013619Y-113466714D01*
X127108857Y-113419095D01*
X127204095Y-113419095D01*
X127346952Y-113466714D01*
X127918380Y-114038142D01*
X127918380Y-113419095D01*
%TO.C,JP1*%
X138739666Y-59650380D02*
X138739666Y-60364666D01*
X138692047Y-60507523D01*
X138596809Y-60602761D01*
X138453952Y-60650380D01*
X138358714Y-60650380D01*
X139215857Y-60650380D02*
X139215857Y-59650380D01*
X139596809Y-59650380D01*
X139692047Y-59698000D01*
X139739666Y-59745619D01*
X139787285Y-59840857D01*
X139787285Y-59983714D01*
X139739666Y-60078952D01*
X139692047Y-60126571D01*
X139596809Y-60174190D01*
X139215857Y-60174190D01*
X140739666Y-60650380D02*
X140168238Y-60650380D01*
X140453952Y-60650380D02*
X140453952Y-59650380D01*
X140358714Y-59793238D01*
X140263476Y-59888476D01*
X140168238Y-59936095D01*
%TO.C,JP2*%
X167949666Y-59523380D02*
X167949666Y-60237666D01*
X167902047Y-60380523D01*
X167806809Y-60475761D01*
X167663952Y-60523380D01*
X167568714Y-60523380D01*
X168425857Y-60523380D02*
X168425857Y-59523380D01*
X168806809Y-59523380D01*
X168902047Y-59571000D01*
X168949666Y-59618619D01*
X168997285Y-59713857D01*
X168997285Y-59856714D01*
X168949666Y-59951952D01*
X168902047Y-59999571D01*
X168806809Y-60047190D01*
X168425857Y-60047190D01*
X169378238Y-59618619D02*
X169425857Y-59571000D01*
X169521095Y-59523380D01*
X169759190Y-59523380D01*
X169854428Y-59571000D01*
X169902047Y-59618619D01*
X169949666Y-59713857D01*
X169949666Y-59809095D01*
X169902047Y-59951952D01*
X169330619Y-60523380D01*
X169949666Y-60523380D01*
%TO.C,JP3*%
X138739666Y-62952380D02*
X138739666Y-63666666D01*
X138692047Y-63809523D01*
X138596809Y-63904761D01*
X138453952Y-63952380D01*
X138358714Y-63952380D01*
X139215857Y-63952380D02*
X139215857Y-62952380D01*
X139596809Y-62952380D01*
X139692047Y-63000000D01*
X139739666Y-63047619D01*
X139787285Y-63142857D01*
X139787285Y-63285714D01*
X139739666Y-63380952D01*
X139692047Y-63428571D01*
X139596809Y-63476190D01*
X139215857Y-63476190D01*
X140120619Y-62952380D02*
X140739666Y-62952380D01*
X140406333Y-63333333D01*
X140549190Y-63333333D01*
X140644428Y-63380952D01*
X140692047Y-63428571D01*
X140739666Y-63523809D01*
X140739666Y-63761904D01*
X140692047Y-63857142D01*
X140644428Y-63904761D01*
X140549190Y-63952380D01*
X140263476Y-63952380D01*
X140168238Y-63904761D01*
X140120619Y-63857142D01*
%TO.C,JP4*%
X168076666Y-62444380D02*
X168076666Y-63158666D01*
X168029047Y-63301523D01*
X167933809Y-63396761D01*
X167790952Y-63444380D01*
X167695714Y-63444380D01*
X168552857Y-63444380D02*
X168552857Y-62444380D01*
X168933809Y-62444380D01*
X169029047Y-62492000D01*
X169076666Y-62539619D01*
X169124285Y-62634857D01*
X169124285Y-62777714D01*
X169076666Y-62872952D01*
X169029047Y-62920571D01*
X168933809Y-62968190D01*
X168552857Y-62968190D01*
X169981428Y-62777714D02*
X169981428Y-63444380D01*
X169743333Y-62396761D02*
X169505238Y-63111047D01*
X170124285Y-63111047D01*
%TO.C,R1*%
X177633333Y-111450380D02*
X177300000Y-110974190D01*
X177061904Y-111450380D02*
X177061904Y-110450380D01*
X177442857Y-110450380D01*
X177538095Y-110498000D01*
X177585714Y-110545619D01*
X177633333Y-110640857D01*
X177633333Y-110783714D01*
X177585714Y-110878952D01*
X177538095Y-110926571D01*
X177442857Y-110974190D01*
X177061904Y-110974190D01*
X178585714Y-111450380D02*
X178014285Y-111450380D01*
X178300000Y-111450380D02*
X178300000Y-110450380D01*
X178204761Y-110593238D01*
X178109523Y-110688476D01*
X178014285Y-110736095D01*
%TO.C,R2*%
X177633333Y-109418380D02*
X177300000Y-108942190D01*
X177061904Y-109418380D02*
X177061904Y-108418380D01*
X177442857Y-108418380D01*
X177538095Y-108466000D01*
X177585714Y-108513619D01*
X177633333Y-108608857D01*
X177633333Y-108751714D01*
X177585714Y-108846952D01*
X177538095Y-108894571D01*
X177442857Y-108942190D01*
X177061904Y-108942190D01*
X178014285Y-108513619D02*
X178061904Y-108466000D01*
X178157142Y-108418380D01*
X178395238Y-108418380D01*
X178490476Y-108466000D01*
X178538095Y-108513619D01*
X178585714Y-108608857D01*
X178585714Y-108704095D01*
X178538095Y-108846952D01*
X177966666Y-109418380D01*
X178585714Y-109418380D01*
%TO.C,R3*%
X179388449Y-96514347D02*
X179055116Y-96038157D01*
X178817020Y-96514347D02*
X178817020Y-95514347D01*
X179197973Y-95514347D01*
X179293211Y-95561967D01*
X179340830Y-95609586D01*
X179388449Y-95704824D01*
X179388449Y-95847681D01*
X179340830Y-95942919D01*
X179293211Y-95990538D01*
X179197973Y-96038157D01*
X178817020Y-96038157D01*
X179721782Y-95514347D02*
X180340830Y-95514347D01*
X180007496Y-95895300D01*
X180150354Y-95895300D01*
X180245592Y-95942919D01*
X180293211Y-95990538D01*
X180340830Y-96085776D01*
X180340830Y-96323871D01*
X180293211Y-96419109D01*
X180245592Y-96466728D01*
X180150354Y-96514347D01*
X179864639Y-96514347D01*
X179769401Y-96466728D01*
X179721782Y-96419109D01*
%TO.C,R19*%
X155138380Y-85097857D02*
X154662190Y-85431190D01*
X155138380Y-85669285D02*
X154138380Y-85669285D01*
X154138380Y-85288333D01*
X154186000Y-85193095D01*
X154233619Y-85145476D01*
X154328857Y-85097857D01*
X154471714Y-85097857D01*
X154566952Y-85145476D01*
X154614571Y-85193095D01*
X154662190Y-85288333D01*
X154662190Y-85669285D01*
X155138380Y-84145476D02*
X155138380Y-84716904D01*
X155138380Y-84431190D02*
X154138380Y-84431190D01*
X154281238Y-84526428D01*
X154376476Y-84621666D01*
X154424095Y-84716904D01*
X155138380Y-83669285D02*
X155138380Y-83478809D01*
X155090761Y-83383571D01*
X155043142Y-83335952D01*
X154900285Y-83240714D01*
X154709809Y-83193095D01*
X154328857Y-83193095D01*
X154233619Y-83240714D01*
X154186000Y-83288333D01*
X154138380Y-83383571D01*
X154138380Y-83574047D01*
X154186000Y-83669285D01*
X154233619Y-83716904D01*
X154328857Y-83764523D01*
X154566952Y-83764523D01*
X154662190Y-83716904D01*
X154709809Y-83669285D01*
X154757428Y-83574047D01*
X154757428Y-83383571D01*
X154709809Y-83288333D01*
X154662190Y-83240714D01*
X154566952Y-83193095D01*
%TO.C,R20*%
X157170380Y-85097857D02*
X156694190Y-85431190D01*
X157170380Y-85669285D02*
X156170380Y-85669285D01*
X156170380Y-85288333D01*
X156218000Y-85193095D01*
X156265619Y-85145476D01*
X156360857Y-85097857D01*
X156503714Y-85097857D01*
X156598952Y-85145476D01*
X156646571Y-85193095D01*
X156694190Y-85288333D01*
X156694190Y-85669285D01*
X156265619Y-84716904D02*
X156218000Y-84669285D01*
X156170380Y-84574047D01*
X156170380Y-84335952D01*
X156218000Y-84240714D01*
X156265619Y-84193095D01*
X156360857Y-84145476D01*
X156456095Y-84145476D01*
X156598952Y-84193095D01*
X157170380Y-84764523D01*
X157170380Y-84145476D01*
X156170380Y-83526428D02*
X156170380Y-83431190D01*
X156218000Y-83335952D01*
X156265619Y-83288333D01*
X156360857Y-83240714D01*
X156551333Y-83193095D01*
X156789428Y-83193095D01*
X156979904Y-83240714D01*
X157075142Y-83288333D01*
X157122761Y-83335952D01*
X157170380Y-83431190D01*
X157170380Y-83526428D01*
X157122761Y-83621666D01*
X157075142Y-83669285D01*
X156979904Y-83716904D01*
X156789428Y-83764523D01*
X156551333Y-83764523D01*
X156360857Y-83716904D01*
X156265619Y-83669285D01*
X156218000Y-83621666D01*
X156170380Y-83526428D01*
%TO.C,R23*%
X161663142Y-122118380D02*
X161329809Y-121642190D01*
X161091714Y-122118380D02*
X161091714Y-121118380D01*
X161472666Y-121118380D01*
X161567904Y-121166000D01*
X161615523Y-121213619D01*
X161663142Y-121308857D01*
X161663142Y-121451714D01*
X161615523Y-121546952D01*
X161567904Y-121594571D01*
X161472666Y-121642190D01*
X161091714Y-121642190D01*
X162044095Y-121213619D02*
X162091714Y-121166000D01*
X162186952Y-121118380D01*
X162425047Y-121118380D01*
X162520285Y-121166000D01*
X162567904Y-121213619D01*
X162615523Y-121308857D01*
X162615523Y-121404095D01*
X162567904Y-121546952D01*
X161996476Y-122118380D01*
X162615523Y-122118380D01*
X162948857Y-121118380D02*
X163567904Y-121118380D01*
X163234571Y-121499333D01*
X163377428Y-121499333D01*
X163472666Y-121546952D01*
X163520285Y-121594571D01*
X163567904Y-121689809D01*
X163567904Y-121927904D01*
X163520285Y-122023142D01*
X163472666Y-122070761D01*
X163377428Y-122118380D01*
X163091714Y-122118380D01*
X162996476Y-122070761D01*
X162948857Y-122023142D01*
%TO.C,R24*%
X161663142Y-118181380D02*
X161329809Y-117705190D01*
X161091714Y-118181380D02*
X161091714Y-117181380D01*
X161472666Y-117181380D01*
X161567904Y-117229000D01*
X161615523Y-117276619D01*
X161663142Y-117371857D01*
X161663142Y-117514714D01*
X161615523Y-117609952D01*
X161567904Y-117657571D01*
X161472666Y-117705190D01*
X161091714Y-117705190D01*
X162044095Y-117276619D02*
X162091714Y-117229000D01*
X162186952Y-117181380D01*
X162425047Y-117181380D01*
X162520285Y-117229000D01*
X162567904Y-117276619D01*
X162615523Y-117371857D01*
X162615523Y-117467095D01*
X162567904Y-117609952D01*
X161996476Y-118181380D01*
X162615523Y-118181380D01*
X163472666Y-117514714D02*
X163472666Y-118181380D01*
X163234571Y-117133761D02*
X162996476Y-117848047D01*
X163615523Y-117848047D01*
%TO.C,R25*%
X161663142Y-120213380D02*
X161329809Y-119737190D01*
X161091714Y-120213380D02*
X161091714Y-119213380D01*
X161472666Y-119213380D01*
X161567904Y-119261000D01*
X161615523Y-119308619D01*
X161663142Y-119403857D01*
X161663142Y-119546714D01*
X161615523Y-119641952D01*
X161567904Y-119689571D01*
X161472666Y-119737190D01*
X161091714Y-119737190D01*
X162044095Y-119308619D02*
X162091714Y-119261000D01*
X162186952Y-119213380D01*
X162425047Y-119213380D01*
X162520285Y-119261000D01*
X162567904Y-119308619D01*
X162615523Y-119403857D01*
X162615523Y-119499095D01*
X162567904Y-119641952D01*
X161996476Y-120213380D01*
X162615523Y-120213380D01*
X163520285Y-119213380D02*
X163044095Y-119213380D01*
X162996476Y-119689571D01*
X163044095Y-119641952D01*
X163139333Y-119594333D01*
X163377428Y-119594333D01*
X163472666Y-119641952D01*
X163520285Y-119689571D01*
X163567904Y-119784809D01*
X163567904Y-120022904D01*
X163520285Y-120118142D01*
X163472666Y-120165761D01*
X163377428Y-120213380D01*
X163139333Y-120213380D01*
X163044095Y-120165761D01*
X162996476Y-120118142D01*
%TO.C,R26*%
X137993380Y-105417857D02*
X137517190Y-105751190D01*
X137993380Y-105989285D02*
X136993380Y-105989285D01*
X136993380Y-105608333D01*
X137041000Y-105513095D01*
X137088619Y-105465476D01*
X137183857Y-105417857D01*
X137326714Y-105417857D01*
X137421952Y-105465476D01*
X137469571Y-105513095D01*
X137517190Y-105608333D01*
X137517190Y-105989285D01*
X137088619Y-105036904D02*
X137041000Y-104989285D01*
X136993380Y-104894047D01*
X136993380Y-104655952D01*
X137041000Y-104560714D01*
X137088619Y-104513095D01*
X137183857Y-104465476D01*
X137279095Y-104465476D01*
X137421952Y-104513095D01*
X137993380Y-105084523D01*
X137993380Y-104465476D01*
X136993380Y-103608333D02*
X136993380Y-103798809D01*
X137041000Y-103894047D01*
X137088619Y-103941666D01*
X137231476Y-104036904D01*
X137421952Y-104084523D01*
X137802904Y-104084523D01*
X137898142Y-104036904D01*
X137945761Y-103989285D01*
X137993380Y-103894047D01*
X137993380Y-103703571D01*
X137945761Y-103608333D01*
X137898142Y-103560714D01*
X137802904Y-103513095D01*
X137564809Y-103513095D01*
X137469571Y-103560714D01*
X137421952Y-103608333D01*
X137374333Y-103703571D01*
X137374333Y-103894047D01*
X137421952Y-103989285D01*
X137469571Y-104036904D01*
X137564809Y-104084523D01*
%TO.C,R27*%
X130628380Y-106433857D02*
X130152190Y-106767190D01*
X130628380Y-107005285D02*
X129628380Y-107005285D01*
X129628380Y-106624333D01*
X129676000Y-106529095D01*
X129723619Y-106481476D01*
X129818857Y-106433857D01*
X129961714Y-106433857D01*
X130056952Y-106481476D01*
X130104571Y-106529095D01*
X130152190Y-106624333D01*
X130152190Y-107005285D01*
X129723619Y-106052904D02*
X129676000Y-106005285D01*
X129628380Y-105910047D01*
X129628380Y-105671952D01*
X129676000Y-105576714D01*
X129723619Y-105529095D01*
X129818857Y-105481476D01*
X129914095Y-105481476D01*
X130056952Y-105529095D01*
X130628380Y-106100523D01*
X130628380Y-105481476D01*
X129628380Y-105148142D02*
X129628380Y-104481476D01*
X130628380Y-104910047D01*
%TO.C,R28*%
X99772380Y-104274857D02*
X99296190Y-104608190D01*
X99772380Y-104846285D02*
X98772380Y-104846285D01*
X98772380Y-104465333D01*
X98820000Y-104370095D01*
X98867619Y-104322476D01*
X98962857Y-104274857D01*
X99105714Y-104274857D01*
X99200952Y-104322476D01*
X99248571Y-104370095D01*
X99296190Y-104465333D01*
X99296190Y-104846285D01*
X98867619Y-103893904D02*
X98820000Y-103846285D01*
X98772380Y-103751047D01*
X98772380Y-103512952D01*
X98820000Y-103417714D01*
X98867619Y-103370095D01*
X98962857Y-103322476D01*
X99058095Y-103322476D01*
X99200952Y-103370095D01*
X99772380Y-103941523D01*
X99772380Y-103322476D01*
X99200952Y-102751047D02*
X99153333Y-102846285D01*
X99105714Y-102893904D01*
X99010476Y-102941523D01*
X98962857Y-102941523D01*
X98867619Y-102893904D01*
X98820000Y-102846285D01*
X98772380Y-102751047D01*
X98772380Y-102560571D01*
X98820000Y-102465333D01*
X98867619Y-102417714D01*
X98962857Y-102370095D01*
X99010476Y-102370095D01*
X99105714Y-102417714D01*
X99153333Y-102465333D01*
X99200952Y-102560571D01*
X99200952Y-102751047D01*
X99248571Y-102846285D01*
X99296190Y-102893904D01*
X99391428Y-102941523D01*
X99581904Y-102941523D01*
X99677142Y-102893904D01*
X99724761Y-102846285D01*
X99772380Y-102751047D01*
X99772380Y-102560571D01*
X99724761Y-102465333D01*
X99677142Y-102417714D01*
X99581904Y-102370095D01*
X99391428Y-102370095D01*
X99296190Y-102417714D01*
X99248571Y-102465333D01*
X99200952Y-102560571D01*
%TO.C,R29*%
X107132380Y-105290857D02*
X106656190Y-105624190D01*
X107132380Y-105862285D02*
X106132380Y-105862285D01*
X106132380Y-105481333D01*
X106180000Y-105386095D01*
X106227619Y-105338476D01*
X106322857Y-105290857D01*
X106465714Y-105290857D01*
X106560952Y-105338476D01*
X106608571Y-105386095D01*
X106656190Y-105481333D01*
X106656190Y-105862285D01*
X106227619Y-104909904D02*
X106180000Y-104862285D01*
X106132380Y-104767047D01*
X106132380Y-104528952D01*
X106180000Y-104433714D01*
X106227619Y-104386095D01*
X106322857Y-104338476D01*
X106418095Y-104338476D01*
X106560952Y-104386095D01*
X107132380Y-104957523D01*
X107132380Y-104338476D01*
X107132380Y-103862285D02*
X107132380Y-103671809D01*
X107084761Y-103576571D01*
X107037142Y-103528952D01*
X106894285Y-103433714D01*
X106703809Y-103386095D01*
X106322857Y-103386095D01*
X106227619Y-103433714D01*
X106180000Y-103481333D01*
X106132380Y-103576571D01*
X106132380Y-103767047D01*
X106180000Y-103862285D01*
X106227619Y-103909904D01*
X106322857Y-103957523D01*
X106560952Y-103957523D01*
X106656190Y-103909904D01*
X106703809Y-103862285D01*
X106751428Y-103767047D01*
X106751428Y-103576571D01*
X106703809Y-103481333D01*
X106656190Y-103433714D01*
X106560952Y-103386095D01*
%TO.C,R30*%
X152265142Y-76271380D02*
X151931809Y-75795190D01*
X151693714Y-76271380D02*
X151693714Y-75271380D01*
X152074666Y-75271380D01*
X152169904Y-75319000D01*
X152217523Y-75366619D01*
X152265142Y-75461857D01*
X152265142Y-75604714D01*
X152217523Y-75699952D01*
X152169904Y-75747571D01*
X152074666Y-75795190D01*
X151693714Y-75795190D01*
X152598476Y-75271380D02*
X153217523Y-75271380D01*
X152884190Y-75652333D01*
X153027047Y-75652333D01*
X153122285Y-75699952D01*
X153169904Y-75747571D01*
X153217523Y-75842809D01*
X153217523Y-76080904D01*
X153169904Y-76176142D01*
X153122285Y-76223761D01*
X153027047Y-76271380D01*
X152741333Y-76271380D01*
X152646095Y-76223761D01*
X152598476Y-76176142D01*
X153836571Y-75271380D02*
X153931809Y-75271380D01*
X154027047Y-75319000D01*
X154074666Y-75366619D01*
X154122285Y-75461857D01*
X154169904Y-75652333D01*
X154169904Y-75890428D01*
X154122285Y-76080904D01*
X154074666Y-76176142D01*
X154027047Y-76223761D01*
X153931809Y-76271380D01*
X153836571Y-76271380D01*
X153741333Y-76223761D01*
X153693714Y-76176142D01*
X153646095Y-76080904D01*
X153598476Y-75890428D01*
X153598476Y-75652333D01*
X153646095Y-75461857D01*
X153693714Y-75366619D01*
X153741333Y-75319000D01*
X153836571Y-75271380D01*
%TO.C,R31*%
X152265142Y-78303380D02*
X151931809Y-77827190D01*
X151693714Y-78303380D02*
X151693714Y-77303380D01*
X152074666Y-77303380D01*
X152169904Y-77351000D01*
X152217523Y-77398619D01*
X152265142Y-77493857D01*
X152265142Y-77636714D01*
X152217523Y-77731952D01*
X152169904Y-77779571D01*
X152074666Y-77827190D01*
X151693714Y-77827190D01*
X152598476Y-77303380D02*
X153217523Y-77303380D01*
X152884190Y-77684333D01*
X153027047Y-77684333D01*
X153122285Y-77731952D01*
X153169904Y-77779571D01*
X153217523Y-77874809D01*
X153217523Y-78112904D01*
X153169904Y-78208142D01*
X153122285Y-78255761D01*
X153027047Y-78303380D01*
X152741333Y-78303380D01*
X152646095Y-78255761D01*
X152598476Y-78208142D01*
X154169904Y-78303380D02*
X153598476Y-78303380D01*
X153884190Y-78303380D02*
X153884190Y-77303380D01*
X153788952Y-77446238D01*
X153693714Y-77541476D01*
X153598476Y-77589095D01*
%TO.C,R32*%
X159202380Y-85097857D02*
X158726190Y-85431190D01*
X159202380Y-85669285D02*
X158202380Y-85669285D01*
X158202380Y-85288333D01*
X158250000Y-85193095D01*
X158297619Y-85145476D01*
X158392857Y-85097857D01*
X158535714Y-85097857D01*
X158630952Y-85145476D01*
X158678571Y-85193095D01*
X158726190Y-85288333D01*
X158726190Y-85669285D01*
X158202380Y-84764523D02*
X158202380Y-84145476D01*
X158583333Y-84478809D01*
X158583333Y-84335952D01*
X158630952Y-84240714D01*
X158678571Y-84193095D01*
X158773809Y-84145476D01*
X159011904Y-84145476D01*
X159107142Y-84193095D01*
X159154761Y-84240714D01*
X159202380Y-84335952D01*
X159202380Y-84621666D01*
X159154761Y-84716904D01*
X159107142Y-84764523D01*
X158297619Y-83764523D02*
X158250000Y-83716904D01*
X158202380Y-83621666D01*
X158202380Y-83383571D01*
X158250000Y-83288333D01*
X158297619Y-83240714D01*
X158392857Y-83193095D01*
X158488095Y-83193095D01*
X158630952Y-83240714D01*
X159202380Y-83812142D01*
X159202380Y-83193095D01*
%TO.C,R35*%
X171061142Y-79573380D02*
X170727809Y-79097190D01*
X170489714Y-79573380D02*
X170489714Y-78573380D01*
X170870666Y-78573380D01*
X170965904Y-78621000D01*
X171013523Y-78668619D01*
X171061142Y-78763857D01*
X171061142Y-78906714D01*
X171013523Y-79001952D01*
X170965904Y-79049571D01*
X170870666Y-79097190D01*
X170489714Y-79097190D01*
X171394476Y-78573380D02*
X172013523Y-78573380D01*
X171680190Y-78954333D01*
X171823047Y-78954333D01*
X171918285Y-79001952D01*
X171965904Y-79049571D01*
X172013523Y-79144809D01*
X172013523Y-79382904D01*
X171965904Y-79478142D01*
X171918285Y-79525761D01*
X171823047Y-79573380D01*
X171537333Y-79573380D01*
X171442095Y-79525761D01*
X171394476Y-79478142D01*
X172918285Y-78573380D02*
X172442095Y-78573380D01*
X172394476Y-79049571D01*
X172442095Y-79001952D01*
X172537333Y-78954333D01*
X172775428Y-78954333D01*
X172870666Y-79001952D01*
X172918285Y-79049571D01*
X172965904Y-79144809D01*
X172965904Y-79382904D01*
X172918285Y-79478142D01*
X172870666Y-79525761D01*
X172775428Y-79573380D01*
X172537333Y-79573380D01*
X172442095Y-79525761D01*
X172394476Y-79478142D01*
%TO.C,R36*%
X171315142Y-73731380D02*
X170981809Y-73255190D01*
X170743714Y-73731380D02*
X170743714Y-72731380D01*
X171124666Y-72731380D01*
X171219904Y-72779000D01*
X171267523Y-72826619D01*
X171315142Y-72921857D01*
X171315142Y-73064714D01*
X171267523Y-73159952D01*
X171219904Y-73207571D01*
X171124666Y-73255190D01*
X170743714Y-73255190D01*
X171648476Y-72731380D02*
X172267523Y-72731380D01*
X171934190Y-73112333D01*
X172077047Y-73112333D01*
X172172285Y-73159952D01*
X172219904Y-73207571D01*
X172267523Y-73302809D01*
X172267523Y-73540904D01*
X172219904Y-73636142D01*
X172172285Y-73683761D01*
X172077047Y-73731380D01*
X171791333Y-73731380D01*
X171696095Y-73683761D01*
X171648476Y-73636142D01*
X173124666Y-72731380D02*
X172934190Y-72731380D01*
X172838952Y-72779000D01*
X172791333Y-72826619D01*
X172696095Y-72969476D01*
X172648476Y-73159952D01*
X172648476Y-73540904D01*
X172696095Y-73636142D01*
X172743714Y-73683761D01*
X172838952Y-73731380D01*
X173029428Y-73731380D01*
X173124666Y-73683761D01*
X173172285Y-73636142D01*
X173219904Y-73540904D01*
X173219904Y-73302809D01*
X173172285Y-73207571D01*
X173124666Y-73159952D01*
X173029428Y-73112333D01*
X172838952Y-73112333D01*
X172743714Y-73159952D01*
X172696095Y-73207571D01*
X172648476Y-73302809D01*
%TO.C,R37*%
X181428380Y-81922857D02*
X180952190Y-82256190D01*
X181428380Y-82494285D02*
X180428380Y-82494285D01*
X180428380Y-82113333D01*
X180476000Y-82018095D01*
X180523619Y-81970476D01*
X180618857Y-81922857D01*
X180761714Y-81922857D01*
X180856952Y-81970476D01*
X180904571Y-82018095D01*
X180952190Y-82113333D01*
X180952190Y-82494285D01*
X180428380Y-81589523D02*
X180428380Y-80970476D01*
X180809333Y-81303809D01*
X180809333Y-81160952D01*
X180856952Y-81065714D01*
X180904571Y-81018095D01*
X180999809Y-80970476D01*
X181237904Y-80970476D01*
X181333142Y-81018095D01*
X181380761Y-81065714D01*
X181428380Y-81160952D01*
X181428380Y-81446666D01*
X181380761Y-81541904D01*
X181333142Y-81589523D01*
X180428380Y-80637142D02*
X180428380Y-79970476D01*
X181428380Y-80399047D01*
%TO.C,C41*%
X186919142Y-81922857D02*
X186966761Y-81970476D01*
X187014380Y-82113333D01*
X187014380Y-82208571D01*
X186966761Y-82351428D01*
X186871523Y-82446666D01*
X186776285Y-82494285D01*
X186585809Y-82541904D01*
X186442952Y-82541904D01*
X186252476Y-82494285D01*
X186157238Y-82446666D01*
X186062000Y-82351428D01*
X186014380Y-82208571D01*
X186014380Y-82113333D01*
X186062000Y-81970476D01*
X186109619Y-81922857D01*
X186347714Y-81065714D02*
X187014380Y-81065714D01*
X185966761Y-81303809D02*
X186681047Y-81541904D01*
X186681047Y-80922857D01*
X187014380Y-80018095D02*
X187014380Y-80589523D01*
X187014380Y-80303809D02*
X186014380Y-80303809D01*
X186157238Y-80399047D01*
X186252476Y-80494285D01*
X186300095Y-80589523D01*
%TO.C,D6*%
X186713904Y-107386380D02*
X186713904Y-106386380D01*
X186952000Y-106386380D01*
X187094857Y-106434000D01*
X187190095Y-106529238D01*
X187237714Y-106624476D01*
X187285333Y-106814952D01*
X187285333Y-106957809D01*
X187237714Y-107148285D01*
X187190095Y-107243523D01*
X187094857Y-107338761D01*
X186952000Y-107386380D01*
X186713904Y-107386380D01*
X188142476Y-106386380D02*
X187952000Y-106386380D01*
X187856761Y-106434000D01*
X187809142Y-106481619D01*
X187713904Y-106624476D01*
X187666285Y-106814952D01*
X187666285Y-107195904D01*
X187713904Y-107291142D01*
X187761523Y-107338761D01*
X187856761Y-107386380D01*
X188047238Y-107386380D01*
X188142476Y-107338761D01*
X188190095Y-107291142D01*
X188237714Y-107195904D01*
X188237714Y-106957809D01*
X188190095Y-106862571D01*
X188142476Y-106814952D01*
X188047238Y-106767333D01*
X187856761Y-106767333D01*
X187761523Y-106814952D01*
X187713904Y-106862571D01*
X187666285Y-106957809D01*
%TO.C,R38*%
X176649142Y-107386380D02*
X176315809Y-106910190D01*
X176077714Y-107386380D02*
X176077714Y-106386380D01*
X176458666Y-106386380D01*
X176553904Y-106434000D01*
X176601523Y-106481619D01*
X176649142Y-106576857D01*
X176649142Y-106719714D01*
X176601523Y-106814952D01*
X176553904Y-106862571D01*
X176458666Y-106910190D01*
X176077714Y-106910190D01*
X176982476Y-106386380D02*
X177601523Y-106386380D01*
X177268190Y-106767333D01*
X177411047Y-106767333D01*
X177506285Y-106814952D01*
X177553904Y-106862571D01*
X177601523Y-106957809D01*
X177601523Y-107195904D01*
X177553904Y-107291142D01*
X177506285Y-107338761D01*
X177411047Y-107386380D01*
X177125333Y-107386380D01*
X177030095Y-107338761D01*
X176982476Y-107291142D01*
X178172952Y-106814952D02*
X178077714Y-106767333D01*
X178030095Y-106719714D01*
X177982476Y-106624476D01*
X177982476Y-106576857D01*
X178030095Y-106481619D01*
X178077714Y-106434000D01*
X178172952Y-106386380D01*
X178363428Y-106386380D01*
X178458666Y-106434000D01*
X178506285Y-106481619D01*
X178553904Y-106576857D01*
X178553904Y-106624476D01*
X178506285Y-106719714D01*
X178458666Y-106767333D01*
X178363428Y-106814952D01*
X178172952Y-106814952D01*
X178077714Y-106862571D01*
X178030095Y-106910190D01*
X177982476Y-107005428D01*
X177982476Y-107195904D01*
X178030095Y-107291142D01*
X178077714Y-107338761D01*
X178172952Y-107386380D01*
X178363428Y-107386380D01*
X178458666Y-107338761D01*
X178506285Y-107291142D01*
X178553904Y-107195904D01*
X178553904Y-107005428D01*
X178506285Y-106910190D01*
X178458666Y-106862571D01*
X178363428Y-106814952D01*
%TO.C,SW3*%
X177482666Y-80342761D02*
X177625523Y-80390380D01*
X177863619Y-80390380D01*
X177958857Y-80342761D01*
X178006476Y-80295142D01*
X178054095Y-80199904D01*
X178054095Y-80104666D01*
X178006476Y-80009428D01*
X177958857Y-79961809D01*
X177863619Y-79914190D01*
X177673142Y-79866571D01*
X177577904Y-79818952D01*
X177530285Y-79771333D01*
X177482666Y-79676095D01*
X177482666Y-79580857D01*
X177530285Y-79485619D01*
X177577904Y-79438000D01*
X177673142Y-79390380D01*
X177911238Y-79390380D01*
X178054095Y-79438000D01*
X178387428Y-79390380D02*
X178625523Y-80390380D01*
X178816000Y-79676095D01*
X179006476Y-80390380D01*
X179244571Y-79390380D01*
X179530285Y-79390380D02*
X180149333Y-79390380D01*
X179816000Y-79771333D01*
X179958857Y-79771333D01*
X180054095Y-79818952D01*
X180101714Y-79866571D01*
X180149333Y-79961809D01*
X180149333Y-80199904D01*
X180101714Y-80295142D01*
X180054095Y-80342761D01*
X179958857Y-80390380D01*
X179673142Y-80390380D01*
X179577904Y-80342761D01*
X179530285Y-80295142D01*
%TO.C,R16*%
X156662380Y-102369857D02*
X156186190Y-102703190D01*
X156662380Y-102941285D02*
X155662380Y-102941285D01*
X155662380Y-102560333D01*
X155710000Y-102465095D01*
X155757619Y-102417476D01*
X155852857Y-102369857D01*
X155995714Y-102369857D01*
X156090952Y-102417476D01*
X156138571Y-102465095D01*
X156186190Y-102560333D01*
X156186190Y-102941285D01*
X156662380Y-101417476D02*
X156662380Y-101988904D01*
X156662380Y-101703190D02*
X155662380Y-101703190D01*
X155805238Y-101798428D01*
X155900476Y-101893666D01*
X155948095Y-101988904D01*
X155662380Y-100560333D02*
X155662380Y-100750809D01*
X155710000Y-100846047D01*
X155757619Y-100893666D01*
X155900476Y-100988904D01*
X156090952Y-101036523D01*
X156471904Y-101036523D01*
X156567142Y-100988904D01*
X156614761Y-100941285D01*
X156662380Y-100846047D01*
X156662380Y-100655571D01*
X156614761Y-100560333D01*
X156567142Y-100512714D01*
X156471904Y-100465095D01*
X156233809Y-100465095D01*
X156138571Y-100512714D01*
X156090952Y-100560333D01*
X156043333Y-100655571D01*
X156043333Y-100846047D01*
X156090952Y-100941285D01*
X156138571Y-100988904D01*
X156233809Y-101036523D01*
%TO.C,R17*%
X156662380Y-106687857D02*
X156186190Y-107021190D01*
X156662380Y-107259285D02*
X155662380Y-107259285D01*
X155662380Y-106878333D01*
X155710000Y-106783095D01*
X155757619Y-106735476D01*
X155852857Y-106687857D01*
X155995714Y-106687857D01*
X156090952Y-106735476D01*
X156138571Y-106783095D01*
X156186190Y-106878333D01*
X156186190Y-107259285D01*
X156662380Y-105735476D02*
X156662380Y-106306904D01*
X156662380Y-106021190D02*
X155662380Y-106021190D01*
X155805238Y-106116428D01*
X155900476Y-106211666D01*
X155948095Y-106306904D01*
X155662380Y-105402142D02*
X155662380Y-104735476D01*
X156662380Y-105164047D01*
%TO.C,J4*%
X151050666Y-96309380D02*
X151050666Y-97023666D01*
X151003047Y-97166523D01*
X150907809Y-97261761D01*
X150764952Y-97309380D01*
X150669714Y-97309380D01*
X151955428Y-96642714D02*
X151955428Y-97309380D01*
X151717333Y-96261761D02*
X151479238Y-96976047D01*
X152098285Y-96976047D01*
X142986714Y-97734380D02*
X142986714Y-96734380D01*
X143367666Y-96734380D01*
X143462904Y-96782000D01*
X143510523Y-96829619D01*
X143558142Y-96924857D01*
X143558142Y-97067714D01*
X143510523Y-97162952D01*
X143462904Y-97210571D01*
X143367666Y-97258190D01*
X142986714Y-97258190D01*
X143986714Y-97734380D02*
X143986714Y-97067714D01*
X143986714Y-97258190D02*
X144034333Y-97162952D01*
X144081952Y-97115333D01*
X144177190Y-97067714D01*
X144272428Y-97067714D01*
X144748619Y-97734380D02*
X144653380Y-97686761D01*
X144605761Y-97639142D01*
X144558142Y-97543904D01*
X144558142Y-97258190D01*
X144605761Y-97162952D01*
X144653380Y-97115333D01*
X144748619Y-97067714D01*
X144891476Y-97067714D01*
X144986714Y-97115333D01*
X145034333Y-97162952D01*
X145081952Y-97258190D01*
X145081952Y-97543904D01*
X145034333Y-97639142D01*
X144986714Y-97686761D01*
X144891476Y-97734380D01*
X144748619Y-97734380D01*
X145939095Y-97067714D02*
X145939095Y-97877238D01*
X145891476Y-97972476D01*
X145843857Y-98020095D01*
X145748619Y-98067714D01*
X145605761Y-98067714D01*
X145510523Y-98020095D01*
X145939095Y-97686761D02*
X145843857Y-97734380D01*
X145653380Y-97734380D01*
X145558142Y-97686761D01*
X145510523Y-97639142D01*
X145462904Y-97543904D01*
X145462904Y-97258190D01*
X145510523Y-97162952D01*
X145558142Y-97115333D01*
X145653380Y-97067714D01*
X145843857Y-97067714D01*
X145939095Y-97115333D01*
X146415285Y-97734380D02*
X146415285Y-97067714D01*
X146415285Y-97258190D02*
X146462904Y-97162952D01*
X146510523Y-97115333D01*
X146605761Y-97067714D01*
X146701000Y-97067714D01*
X147462904Y-97734380D02*
X147462904Y-97210571D01*
X147415285Y-97115333D01*
X147320047Y-97067714D01*
X147129571Y-97067714D01*
X147034333Y-97115333D01*
X147462904Y-97686761D02*
X147367666Y-97734380D01*
X147129571Y-97734380D01*
X147034333Y-97686761D01*
X146986714Y-97591523D01*
X146986714Y-97496285D01*
X147034333Y-97401047D01*
X147129571Y-97353428D01*
X147367666Y-97353428D01*
X147462904Y-97305809D01*
X147939095Y-97734380D02*
X147939095Y-97067714D01*
X147939095Y-97162952D02*
X147986714Y-97115333D01*
X148081952Y-97067714D01*
X148224809Y-97067714D01*
X148320047Y-97115333D01*
X148367666Y-97210571D01*
X148367666Y-97734380D01*
X148367666Y-97210571D02*
X148415285Y-97115333D01*
X148510523Y-97067714D01*
X148653380Y-97067714D01*
X148748619Y-97115333D01*
X148796238Y-97210571D01*
X148796238Y-97734380D01*
X149272428Y-97734380D02*
X149272428Y-97067714D01*
X149272428Y-97162952D02*
X149320047Y-97115333D01*
X149415285Y-97067714D01*
X149558142Y-97067714D01*
X149653380Y-97115333D01*
X149701000Y-97210571D01*
X149701000Y-97734380D01*
X149701000Y-97210571D02*
X149748619Y-97115333D01*
X149843857Y-97067714D01*
X149986714Y-97067714D01*
X150081952Y-97115333D01*
X150129571Y-97210571D01*
X150129571Y-97734380D01*
X150605761Y-97734380D02*
X150605761Y-97067714D01*
X150605761Y-96734380D02*
X150558142Y-96782000D01*
X150605761Y-96829619D01*
X150653380Y-96782000D01*
X150605761Y-96734380D01*
X150605761Y-96829619D01*
X151081952Y-97067714D02*
X151081952Y-97734380D01*
X151081952Y-97162952D02*
X151129571Y-97115333D01*
X151224809Y-97067714D01*
X151367666Y-97067714D01*
X151462904Y-97115333D01*
X151510523Y-97210571D01*
X151510523Y-97734380D01*
X152415285Y-97067714D02*
X152415285Y-97877238D01*
X152367666Y-97972476D01*
X152320047Y-98020095D01*
X152224809Y-98067714D01*
X152081952Y-98067714D01*
X151986714Y-98020095D01*
X152415285Y-97686761D02*
X152320047Y-97734380D01*
X152129571Y-97734380D01*
X152034333Y-97686761D01*
X151986714Y-97639142D01*
X151939095Y-97543904D01*
X151939095Y-97258190D01*
X151986714Y-97162952D01*
X152034333Y-97115333D01*
X152129571Y-97067714D01*
X152320047Y-97067714D01*
X152415285Y-97115333D01*
X148209047Y-99004428D02*
X148970952Y-99004428D01*
X148590000Y-99385380D02*
X148590000Y-98623476D01*
X148463047Y-106878428D02*
X149224952Y-106878428D01*
X144677095Y-104798761D02*
X144819952Y-104846380D01*
X145058047Y-104846380D01*
X145153285Y-104798761D01*
X145200904Y-104751142D01*
X145248523Y-104655904D01*
X145248523Y-104560666D01*
X145200904Y-104465428D01*
X145153285Y-104417809D01*
X145058047Y-104370190D01*
X144867571Y-104322571D01*
X144772333Y-104274952D01*
X144724714Y-104227333D01*
X144677095Y-104132095D01*
X144677095Y-104036857D01*
X144724714Y-103941619D01*
X144772333Y-103894000D01*
X144867571Y-103846380D01*
X145105666Y-103846380D01*
X145248523Y-103894000D01*
X145581857Y-103846380D02*
X145819952Y-104846380D01*
X146010428Y-104132095D01*
X146200904Y-104846380D01*
X146439000Y-103846380D01*
X147391380Y-104751142D02*
X147343761Y-104798761D01*
X147200904Y-104846380D01*
X147105666Y-104846380D01*
X146962809Y-104798761D01*
X146867571Y-104703523D01*
X146819952Y-104608285D01*
X146772333Y-104417809D01*
X146772333Y-104274952D01*
X146819952Y-104084476D01*
X146867571Y-103989238D01*
X146962809Y-103894000D01*
X147105666Y-103846380D01*
X147200904Y-103846380D01*
X147343761Y-103894000D01*
X147391380Y-103941619D01*
X148296142Y-104846380D02*
X147819952Y-104846380D01*
X147819952Y-103846380D01*
X148629476Y-104846380D02*
X148629476Y-103846380D01*
X149200904Y-104846380D02*
X148772333Y-104274952D01*
X149200904Y-103846380D02*
X148629476Y-104417809D01*
X144692952Y-102258761D02*
X144835809Y-102306380D01*
X145073904Y-102306380D01*
X145169142Y-102258761D01*
X145216761Y-102211142D01*
X145264380Y-102115904D01*
X145264380Y-102020666D01*
X145216761Y-101925428D01*
X145169142Y-101877809D01*
X145073904Y-101830190D01*
X144883428Y-101782571D01*
X144788190Y-101734952D01*
X144740571Y-101687333D01*
X144692952Y-101592095D01*
X144692952Y-101496857D01*
X144740571Y-101401619D01*
X144788190Y-101354000D01*
X144883428Y-101306380D01*
X145121523Y-101306380D01*
X145264380Y-101354000D01*
X145597714Y-101306380D02*
X145835809Y-102306380D01*
X146026285Y-101592095D01*
X146216761Y-102306380D01*
X146454857Y-101306380D01*
X146835809Y-102306380D02*
X146835809Y-101306380D01*
X147073904Y-101306380D01*
X147216761Y-101354000D01*
X147312000Y-101449238D01*
X147359619Y-101544476D01*
X147407238Y-101734952D01*
X147407238Y-101877809D01*
X147359619Y-102068285D01*
X147312000Y-102163523D01*
X147216761Y-102258761D01*
X147073904Y-102306380D01*
X146835809Y-102306380D01*
X147835809Y-102306380D02*
X147835809Y-101306380D01*
X148502476Y-101306380D02*
X148692952Y-101306380D01*
X148788190Y-101354000D01*
X148883428Y-101449238D01*
X148931047Y-101639714D01*
X148931047Y-101973047D01*
X148883428Y-102163523D01*
X148788190Y-102258761D01*
X148692952Y-102306380D01*
X148502476Y-102306380D01*
X148407238Y-102258761D01*
X148312000Y-102163523D01*
X148264380Y-101973047D01*
X148264380Y-101639714D01*
X148312000Y-101449238D01*
X148407238Y-101354000D01*
X148502476Y-101306380D01*
%TO.C,J7*%
X189063380Y-87709333D02*
X189777666Y-87709333D01*
X189920523Y-87756952D01*
X190015761Y-87852190D01*
X190063380Y-87995047D01*
X190063380Y-88090285D01*
X189063380Y-87328380D02*
X189063380Y-86661714D01*
X190063380Y-87090285D01*
X176220380Y-90153714D02*
X175220380Y-90153714D01*
X175220380Y-89772761D01*
X175268000Y-89677523D01*
X175315619Y-89629904D01*
X175410857Y-89582285D01*
X175553714Y-89582285D01*
X175648952Y-89629904D01*
X175696571Y-89677523D01*
X175744190Y-89772761D01*
X175744190Y-90153714D01*
X176220380Y-89153714D02*
X175220380Y-89153714D01*
X175696571Y-89153714D02*
X175696571Y-88582285D01*
X176220380Y-88582285D02*
X175220380Y-88582285D01*
X175744190Y-87915619D02*
X176220380Y-87915619D01*
X175220380Y-88248952D02*
X175744190Y-87915619D01*
X175220380Y-87582285D01*
X176220380Y-86487047D02*
X175220380Y-86487047D01*
X175220380Y-86248952D01*
X175268000Y-86106095D01*
X175363238Y-86010857D01*
X175458476Y-85963238D01*
X175648952Y-85915619D01*
X175791809Y-85915619D01*
X175982285Y-85963238D01*
X176077523Y-86010857D01*
X176172761Y-86106095D01*
X176220380Y-86248952D01*
X176220380Y-86487047D01*
X176220380Y-85058476D02*
X175696571Y-85058476D01*
X175601333Y-85106095D01*
X175553714Y-85201333D01*
X175553714Y-85391809D01*
X175601333Y-85487047D01*
X176172761Y-85058476D02*
X176220380Y-85153714D01*
X176220380Y-85391809D01*
X176172761Y-85487047D01*
X176077523Y-85534666D01*
X175982285Y-85534666D01*
X175887047Y-85487047D01*
X175839428Y-85391809D01*
X175839428Y-85153714D01*
X175791809Y-85058476D01*
X175553714Y-84725142D02*
X175553714Y-84344190D01*
X175220380Y-84582285D02*
X176077523Y-84582285D01*
X176172761Y-84534666D01*
X176220380Y-84439428D01*
X176220380Y-84344190D01*
X176220380Y-83582285D02*
X175696571Y-83582285D01*
X175601333Y-83629904D01*
X175553714Y-83725142D01*
X175553714Y-83915619D01*
X175601333Y-84010857D01*
X176172761Y-83582285D02*
X176220380Y-83677523D01*
X176220380Y-83915619D01*
X176172761Y-84010857D01*
X176077523Y-84058476D01*
X175982285Y-84058476D01*
X175887047Y-84010857D01*
X175839428Y-83915619D01*
X175839428Y-83677523D01*
X175791809Y-83582285D01*
%TO.C,J8*%
X165778380Y-119078333D02*
X166492666Y-119078333D01*
X166635523Y-119125952D01*
X166730761Y-119221190D01*
X166778380Y-119364047D01*
X166778380Y-119459285D01*
X166206952Y-118459285D02*
X166159333Y-118554523D01*
X166111714Y-118602142D01*
X166016476Y-118649761D01*
X165968857Y-118649761D01*
X165873619Y-118602142D01*
X165826000Y-118554523D01*
X165778380Y-118459285D01*
X165778380Y-118268809D01*
X165826000Y-118173571D01*
X165873619Y-118125952D01*
X165968857Y-118078333D01*
X166016476Y-118078333D01*
X166111714Y-118125952D01*
X166159333Y-118173571D01*
X166206952Y-118268809D01*
X166206952Y-118459285D01*
X166254571Y-118554523D01*
X166302190Y-118602142D01*
X166397428Y-118649761D01*
X166587904Y-118649761D01*
X166683142Y-118602142D01*
X166730761Y-118554523D01*
X166778380Y-118459285D01*
X166778380Y-118268809D01*
X166730761Y-118173571D01*
X166683142Y-118125952D01*
X166587904Y-118078333D01*
X166397428Y-118078333D01*
X166302190Y-118125952D01*
X166254571Y-118173571D01*
X166206952Y-118268809D01*
X182141761Y-121586238D02*
X182189380Y-121443380D01*
X182189380Y-121205285D01*
X182141761Y-121110047D01*
X182094142Y-121062428D01*
X181998904Y-121014809D01*
X181903666Y-121014809D01*
X181808428Y-121062428D01*
X181760809Y-121110047D01*
X181713190Y-121205285D01*
X181665571Y-121395761D01*
X181617952Y-121491000D01*
X181570333Y-121538619D01*
X181475095Y-121586238D01*
X181379857Y-121586238D01*
X181284619Y-121538619D01*
X181237000Y-121491000D01*
X181189380Y-121395761D01*
X181189380Y-121157666D01*
X181237000Y-121014809D01*
X182189380Y-120586238D02*
X181189380Y-120586238D01*
X181189380Y-120205285D01*
X181237000Y-120110047D01*
X181284619Y-120062428D01*
X181379857Y-120014809D01*
X181522714Y-120014809D01*
X181617952Y-120062428D01*
X181665571Y-120110047D01*
X181713190Y-120205285D01*
X181713190Y-120586238D01*
X182189380Y-119586238D02*
X181189380Y-119586238D01*
X182189380Y-118348142D02*
X181189380Y-118348142D01*
X181189380Y-118110047D01*
X181237000Y-117967190D01*
X181332238Y-117871952D01*
X181427476Y-117824333D01*
X181617952Y-117776714D01*
X181760809Y-117776714D01*
X181951285Y-117824333D01*
X182046523Y-117871952D01*
X182141761Y-117967190D01*
X182189380Y-118110047D01*
X182189380Y-118348142D01*
X182189380Y-116919571D02*
X181665571Y-116919571D01*
X181570333Y-116967190D01*
X181522714Y-117062428D01*
X181522714Y-117252904D01*
X181570333Y-117348142D01*
X182141761Y-116919571D02*
X182189380Y-117014809D01*
X182189380Y-117252904D01*
X182141761Y-117348142D01*
X182046523Y-117395761D01*
X181951285Y-117395761D01*
X181856047Y-117348142D01*
X181808428Y-117252904D01*
X181808428Y-117014809D01*
X181760809Y-116919571D01*
X181522714Y-116586238D02*
X181522714Y-116205285D01*
X181189380Y-116443380D02*
X182046523Y-116443380D01*
X182141761Y-116395761D01*
X182189380Y-116300523D01*
X182189380Y-116205285D01*
X182189380Y-115443380D02*
X181665571Y-115443380D01*
X181570333Y-115491000D01*
X181522714Y-115586238D01*
X181522714Y-115776714D01*
X181570333Y-115871952D01*
X182141761Y-115443380D02*
X182189380Y-115538619D01*
X182189380Y-115776714D01*
X182141761Y-115871952D01*
X182046523Y-115919571D01*
X181951285Y-115919571D01*
X181856047Y-115871952D01*
X181808428Y-115776714D01*
X181808428Y-115538619D01*
X181760809Y-115443380D01*
X169013142Y-123959857D02*
X169060761Y-124007476D01*
X169108380Y-124150333D01*
X169108380Y-124245571D01*
X169060761Y-124388428D01*
X168965523Y-124483666D01*
X168870285Y-124531285D01*
X168679809Y-124578904D01*
X168536952Y-124578904D01*
X168346476Y-124531285D01*
X168251238Y-124483666D01*
X168156000Y-124388428D01*
X168108380Y-124245571D01*
X168108380Y-124150333D01*
X168156000Y-124007476D01*
X168203619Y-123959857D01*
X169060761Y-123578904D02*
X169108380Y-123436047D01*
X169108380Y-123197952D01*
X169060761Y-123102714D01*
X169013142Y-123055095D01*
X168917904Y-123007476D01*
X168822666Y-123007476D01*
X168727428Y-123055095D01*
X168679809Y-123102714D01*
X168632190Y-123197952D01*
X168584571Y-123388428D01*
X168536952Y-123483666D01*
X168489333Y-123531285D01*
X168394095Y-123578904D01*
X168298857Y-123578904D01*
X168203619Y-123531285D01*
X168156000Y-123483666D01*
X168108380Y-123388428D01*
X168108380Y-123150333D01*
X168156000Y-123007476D01*
X169108380Y-122055095D02*
X169108380Y-122626523D01*
X169108380Y-122340809D02*
X168108380Y-122340809D01*
X168251238Y-122436047D01*
X168346476Y-122531285D01*
X168394095Y-122626523D01*
X171775380Y-126253619D02*
X170775380Y-126253619D01*
X171489666Y-125920285D01*
X170775380Y-125586952D01*
X171775380Y-125586952D01*
X171775380Y-125110761D02*
X170775380Y-125110761D01*
X171727761Y-124682190D02*
X171775380Y-124539333D01*
X171775380Y-124301238D01*
X171727761Y-124206000D01*
X171680142Y-124158380D01*
X171584904Y-124110761D01*
X171489666Y-124110761D01*
X171394428Y-124158380D01*
X171346809Y-124206000D01*
X171299190Y-124301238D01*
X171251571Y-124491714D01*
X171203952Y-124586952D01*
X171156333Y-124634571D01*
X171061095Y-124682190D01*
X170965857Y-124682190D01*
X170870619Y-124634571D01*
X170823000Y-124586952D01*
X170775380Y-124491714D01*
X170775380Y-124253619D01*
X170823000Y-124110761D01*
X170775380Y-123491714D02*
X170775380Y-123301238D01*
X170823000Y-123206000D01*
X170918238Y-123110761D01*
X171108714Y-123063142D01*
X171442047Y-123063142D01*
X171632523Y-123110761D01*
X171727761Y-123206000D01*
X171775380Y-123301238D01*
X171775380Y-123491714D01*
X171727761Y-123586952D01*
X171632523Y-123682190D01*
X171442047Y-123729809D01*
X171108714Y-123729809D01*
X170918238Y-123682190D01*
X170823000Y-123586952D01*
X170775380Y-123491714D01*
X171775380Y-122110761D02*
X171775380Y-122682190D01*
X171775380Y-122396476D02*
X170775380Y-122396476D01*
X170918238Y-122491714D01*
X171013476Y-122586952D01*
X171061095Y-122682190D01*
X174220142Y-124086857D02*
X174267761Y-124134476D01*
X174315380Y-124277333D01*
X174315380Y-124372571D01*
X174267761Y-124515428D01*
X174172523Y-124610666D01*
X174077285Y-124658285D01*
X173886809Y-124705904D01*
X173743952Y-124705904D01*
X173553476Y-124658285D01*
X173458238Y-124610666D01*
X173363000Y-124515428D01*
X173315380Y-124372571D01*
X173315380Y-124277333D01*
X173363000Y-124134476D01*
X173410619Y-124086857D01*
X174267761Y-123705904D02*
X174315380Y-123563047D01*
X174315380Y-123324952D01*
X174267761Y-123229714D01*
X174220142Y-123182095D01*
X174124904Y-123134476D01*
X174029666Y-123134476D01*
X173934428Y-123182095D01*
X173886809Y-123229714D01*
X173839190Y-123324952D01*
X173791571Y-123515428D01*
X173743952Y-123610666D01*
X173696333Y-123658285D01*
X173601095Y-123705904D01*
X173505857Y-123705904D01*
X173410619Y-123658285D01*
X173363000Y-123610666D01*
X173315380Y-123515428D01*
X173315380Y-123277333D01*
X173363000Y-123134476D01*
X173410619Y-122753523D02*
X173363000Y-122705904D01*
X173315380Y-122610666D01*
X173315380Y-122372571D01*
X173363000Y-122277333D01*
X173410619Y-122229714D01*
X173505857Y-122182095D01*
X173601095Y-122182095D01*
X173743952Y-122229714D01*
X174315380Y-122801142D01*
X174315380Y-122182095D01*
X176855380Y-126253619D02*
X175855380Y-126253619D01*
X176569666Y-125920285D01*
X175855380Y-125586952D01*
X176855380Y-125586952D01*
X176855380Y-125110761D02*
X175855380Y-125110761D01*
X176807761Y-124682190D02*
X176855380Y-124539333D01*
X176855380Y-124301238D01*
X176807761Y-124206000D01*
X176760142Y-124158380D01*
X176664904Y-124110761D01*
X176569666Y-124110761D01*
X176474428Y-124158380D01*
X176426809Y-124206000D01*
X176379190Y-124301238D01*
X176331571Y-124491714D01*
X176283952Y-124586952D01*
X176236333Y-124634571D01*
X176141095Y-124682190D01*
X176045857Y-124682190D01*
X175950619Y-124634571D01*
X175903000Y-124586952D01*
X175855380Y-124491714D01*
X175855380Y-124253619D01*
X175903000Y-124110761D01*
X175855380Y-123491714D02*
X175855380Y-123301238D01*
X175903000Y-123206000D01*
X175998238Y-123110761D01*
X176188714Y-123063142D01*
X176522047Y-123063142D01*
X176712523Y-123110761D01*
X176807761Y-123206000D01*
X176855380Y-123301238D01*
X176855380Y-123491714D01*
X176807761Y-123586952D01*
X176712523Y-123682190D01*
X176522047Y-123729809D01*
X176188714Y-123729809D01*
X175998238Y-123682190D01*
X175903000Y-123586952D01*
X175855380Y-123491714D01*
X175950619Y-122682190D02*
X175903000Y-122634571D01*
X175855380Y-122539333D01*
X175855380Y-122301238D01*
X175903000Y-122206000D01*
X175950619Y-122158380D01*
X176045857Y-122110761D01*
X176141095Y-122110761D01*
X176283952Y-122158380D01*
X176855380Y-122729809D01*
X176855380Y-122110761D01*
X168806761Y-115299904D02*
X168854380Y-115157047D01*
X168854380Y-114918952D01*
X168806761Y-114823714D01*
X168759142Y-114776095D01*
X168663904Y-114728476D01*
X168568666Y-114728476D01*
X168473428Y-114776095D01*
X168425809Y-114823714D01*
X168378190Y-114918952D01*
X168330571Y-115109428D01*
X168282952Y-115204666D01*
X168235333Y-115252285D01*
X168140095Y-115299904D01*
X168044857Y-115299904D01*
X167949619Y-115252285D01*
X167902000Y-115204666D01*
X167854380Y-115109428D01*
X167854380Y-114871333D01*
X167902000Y-114728476D01*
X168759142Y-113728476D02*
X168806761Y-113776095D01*
X168854380Y-113918952D01*
X168854380Y-114014190D01*
X168806761Y-114157047D01*
X168711523Y-114252285D01*
X168616285Y-114299904D01*
X168425809Y-114347523D01*
X168282952Y-114347523D01*
X168092476Y-114299904D01*
X167997238Y-114252285D01*
X167902000Y-114157047D01*
X167854380Y-114014190D01*
X167854380Y-113918952D01*
X167902000Y-113776095D01*
X167949619Y-113728476D01*
X168854380Y-113299904D02*
X167854380Y-113299904D01*
X168854380Y-112728476D02*
X168282952Y-113157047D01*
X167854380Y-112728476D02*
X168425809Y-113299904D01*
X168854380Y-111776095D02*
X168854380Y-112347523D01*
X168854380Y-112061809D02*
X167854380Y-112061809D01*
X167997238Y-112157047D01*
X168092476Y-112252285D01*
X168140095Y-112347523D01*
X171521380Y-115204619D02*
X170521380Y-115204619D01*
X171235666Y-114871285D01*
X170521380Y-114537952D01*
X171521380Y-114537952D01*
X170521380Y-113871285D02*
X170521380Y-113680809D01*
X170569000Y-113585571D01*
X170664238Y-113490333D01*
X170854714Y-113442714D01*
X171188047Y-113442714D01*
X171378523Y-113490333D01*
X171473761Y-113585571D01*
X171521380Y-113680809D01*
X171521380Y-113871285D01*
X171473761Y-113966523D01*
X171378523Y-114061761D01*
X171188047Y-114109380D01*
X170854714Y-114109380D01*
X170664238Y-114061761D01*
X170569000Y-113966523D01*
X170521380Y-113871285D01*
X171473761Y-113061761D02*
X171521380Y-112918904D01*
X171521380Y-112680809D01*
X171473761Y-112585571D01*
X171426142Y-112537952D01*
X171330904Y-112490333D01*
X171235666Y-112490333D01*
X171140428Y-112537952D01*
X171092809Y-112585571D01*
X171045190Y-112680809D01*
X170997571Y-112871285D01*
X170949952Y-112966523D01*
X170902333Y-113014142D01*
X170807095Y-113061761D01*
X170711857Y-113061761D01*
X170616619Y-113014142D01*
X170569000Y-112966523D01*
X170521380Y-112871285D01*
X170521380Y-112633190D01*
X170569000Y-112490333D01*
X171521380Y-112061761D02*
X170521380Y-112061761D01*
X171521380Y-111061761D02*
X171521380Y-111633190D01*
X171521380Y-111347476D02*
X170521380Y-111347476D01*
X170664238Y-111442714D01*
X170759476Y-111537952D01*
X170807095Y-111633190D01*
X174140761Y-115299904D02*
X174188380Y-115157047D01*
X174188380Y-114918952D01*
X174140761Y-114823714D01*
X174093142Y-114776095D01*
X173997904Y-114728476D01*
X173902666Y-114728476D01*
X173807428Y-114776095D01*
X173759809Y-114823714D01*
X173712190Y-114918952D01*
X173664571Y-115109428D01*
X173616952Y-115204666D01*
X173569333Y-115252285D01*
X173474095Y-115299904D01*
X173378857Y-115299904D01*
X173283619Y-115252285D01*
X173236000Y-115204666D01*
X173188380Y-115109428D01*
X173188380Y-114871333D01*
X173236000Y-114728476D01*
X174093142Y-113728476D02*
X174140761Y-113776095D01*
X174188380Y-113918952D01*
X174188380Y-114014190D01*
X174140761Y-114157047D01*
X174045523Y-114252285D01*
X173950285Y-114299904D01*
X173759809Y-114347523D01*
X173616952Y-114347523D01*
X173426476Y-114299904D01*
X173331238Y-114252285D01*
X173236000Y-114157047D01*
X173188380Y-114014190D01*
X173188380Y-113918952D01*
X173236000Y-113776095D01*
X173283619Y-113728476D01*
X174188380Y-113299904D02*
X173188380Y-113299904D01*
X174188380Y-112728476D02*
X173616952Y-113157047D01*
X173188380Y-112728476D02*
X173759809Y-113299904D01*
X173283619Y-112347523D02*
X173236000Y-112299904D01*
X173188380Y-112204666D01*
X173188380Y-111966571D01*
X173236000Y-111871333D01*
X173283619Y-111823714D01*
X173378857Y-111776095D01*
X173474095Y-111776095D01*
X173616952Y-111823714D01*
X174188380Y-112395142D01*
X174188380Y-111776095D01*
X176728380Y-115204619D02*
X175728380Y-115204619D01*
X176442666Y-114871285D01*
X175728380Y-114537952D01*
X176728380Y-114537952D01*
X175728380Y-113871285D02*
X175728380Y-113680809D01*
X175776000Y-113585571D01*
X175871238Y-113490333D01*
X176061714Y-113442714D01*
X176395047Y-113442714D01*
X176585523Y-113490333D01*
X176680761Y-113585571D01*
X176728380Y-113680809D01*
X176728380Y-113871285D01*
X176680761Y-113966523D01*
X176585523Y-114061761D01*
X176395047Y-114109380D01*
X176061714Y-114109380D01*
X175871238Y-114061761D01*
X175776000Y-113966523D01*
X175728380Y-113871285D01*
X176680761Y-113061761D02*
X176728380Y-112918904D01*
X176728380Y-112680809D01*
X176680761Y-112585571D01*
X176633142Y-112537952D01*
X176537904Y-112490333D01*
X176442666Y-112490333D01*
X176347428Y-112537952D01*
X176299809Y-112585571D01*
X176252190Y-112680809D01*
X176204571Y-112871285D01*
X176156952Y-112966523D01*
X176109333Y-113014142D01*
X176014095Y-113061761D01*
X175918857Y-113061761D01*
X175823619Y-113014142D01*
X175776000Y-112966523D01*
X175728380Y-112871285D01*
X175728380Y-112633190D01*
X175776000Y-112490333D01*
X176728380Y-112061761D02*
X175728380Y-112061761D01*
X175823619Y-111633190D02*
X175776000Y-111585571D01*
X175728380Y-111490333D01*
X175728380Y-111252238D01*
X175776000Y-111157000D01*
X175823619Y-111109380D01*
X175918857Y-111061761D01*
X176014095Y-111061761D01*
X176156952Y-111109380D01*
X176728380Y-111680809D01*
X176728380Y-111061761D01*
X178348000Y-114784142D02*
X178300380Y-114831761D01*
X178157523Y-114879380D01*
X178062285Y-114879380D01*
X177919428Y-114831761D01*
X177824190Y-114736523D01*
X177776571Y-114641285D01*
X177728952Y-114450809D01*
X177728952Y-114307952D01*
X177776571Y-114117476D01*
X177824190Y-114022238D01*
X177919428Y-113927000D01*
X178062285Y-113879380D01*
X178157523Y-113879380D01*
X178300380Y-113927000D01*
X178348000Y-113974619D01*
X179252761Y-114879380D02*
X178776571Y-114879380D01*
X178776571Y-113879380D01*
X179586095Y-114879380D02*
X179586095Y-113879380D01*
X180157523Y-114879380D02*
X179728952Y-114307952D01*
X180157523Y-113879380D02*
X179586095Y-114450809D01*
X180538476Y-113974619D02*
X180586095Y-113927000D01*
X180681333Y-113879380D01*
X180919428Y-113879380D01*
X181014666Y-113927000D01*
X181062285Y-113974619D01*
X181109904Y-114069857D01*
X181109904Y-114165095D01*
X181062285Y-114307952D01*
X180490857Y-114879380D01*
X181109904Y-114879380D01*
X181967047Y-113879380D02*
X181776571Y-113879380D01*
X181681333Y-113927000D01*
X181633714Y-113974619D01*
X181538476Y-114117476D01*
X181490857Y-114307952D01*
X181490857Y-114688904D01*
X181538476Y-114784142D01*
X181586095Y-114831761D01*
X181681333Y-114879380D01*
X181871809Y-114879380D01*
X181967047Y-114831761D01*
X182014666Y-114784142D01*
X182062285Y-114688904D01*
X182062285Y-114450809D01*
X182014666Y-114355571D01*
X181967047Y-114307952D01*
X181871809Y-114260333D01*
X181681333Y-114260333D01*
X181586095Y-114307952D01*
X181538476Y-114355571D01*
X181490857Y-114450809D01*
X182919428Y-113879380D02*
X182728952Y-113879380D01*
X182633714Y-113927000D01*
X182586095Y-113974619D01*
X182490857Y-114117476D01*
X182443238Y-114307952D01*
X182443238Y-114688904D01*
X182490857Y-114784142D01*
X182538476Y-114831761D01*
X182633714Y-114879380D01*
X182824190Y-114879380D01*
X182919428Y-114831761D01*
X182967047Y-114784142D01*
X183014666Y-114688904D01*
X183014666Y-114450809D01*
X182967047Y-114355571D01*
X182919428Y-114307952D01*
X182824190Y-114260333D01*
X182633714Y-114260333D01*
X182538476Y-114307952D01*
X182490857Y-114355571D01*
X182443238Y-114450809D01*
X183633714Y-113879380D02*
X183728952Y-113879380D01*
X183824190Y-113927000D01*
X183871809Y-113974619D01*
X183919428Y-114069857D01*
X183967047Y-114260333D01*
X183967047Y-114498428D01*
X183919428Y-114688904D01*
X183871809Y-114784142D01*
X183824190Y-114831761D01*
X183728952Y-114879380D01*
X183633714Y-114879380D01*
X183538476Y-114831761D01*
X183490857Y-114784142D01*
X183443238Y-114688904D01*
X183395619Y-114498428D01*
X183395619Y-114260333D01*
X183443238Y-114069857D01*
X183490857Y-113974619D01*
X183538476Y-113927000D01*
X183633714Y-113879380D01*
X179300142Y-126737809D02*
X179347761Y-126785428D01*
X179395380Y-126928285D01*
X179395380Y-127023523D01*
X179347761Y-127166380D01*
X179252523Y-127261619D01*
X179157285Y-127309238D01*
X178966809Y-127356857D01*
X178823952Y-127356857D01*
X178633476Y-127309238D01*
X178538238Y-127261619D01*
X178443000Y-127166380D01*
X178395380Y-127023523D01*
X178395380Y-126928285D01*
X178443000Y-126785428D01*
X178490619Y-126737809D01*
X179395380Y-125833047D02*
X179395380Y-126309238D01*
X178395380Y-126309238D01*
X179395380Y-125499714D02*
X178395380Y-125499714D01*
X179395380Y-124928285D02*
X178823952Y-125356857D01*
X178395380Y-124928285D02*
X178966809Y-125499714D01*
X178728714Y-124071142D02*
X179395380Y-124071142D01*
X178347761Y-124309238D02*
X179062047Y-124547333D01*
X179062047Y-123928285D01*
X178490619Y-123594952D02*
X178443000Y-123547333D01*
X178395380Y-123452095D01*
X178395380Y-123214000D01*
X178443000Y-123118761D01*
X178490619Y-123071142D01*
X178585857Y-123023523D01*
X178681095Y-123023523D01*
X178823952Y-123071142D01*
X179395380Y-123642571D01*
X179395380Y-123023523D01*
X179395380Y-122547333D02*
X179395380Y-122356857D01*
X179347761Y-122261619D01*
X179300142Y-122214000D01*
X179157285Y-122118761D01*
X178966809Y-122071142D01*
X178585857Y-122071142D01*
X178490619Y-122118761D01*
X178443000Y-122166380D01*
X178395380Y-122261619D01*
X178395380Y-122452095D01*
X178443000Y-122547333D01*
X178490619Y-122594952D01*
X178585857Y-122642571D01*
X178823952Y-122642571D01*
X178919190Y-122594952D01*
X178966809Y-122547333D01*
X179014428Y-122452095D01*
X179014428Y-122261619D01*
X178966809Y-122166380D01*
X178919190Y-122118761D01*
X178823952Y-122071142D01*
%TO.C,J9*%
X155241666Y-91102380D02*
X155241666Y-91816666D01*
X155194047Y-91959523D01*
X155098809Y-92054761D01*
X154955952Y-92102380D01*
X154860714Y-92102380D01*
X155765476Y-92102380D02*
X155955952Y-92102380D01*
X156051190Y-92054761D01*
X156098809Y-92007142D01*
X156194047Y-91864285D01*
X156241666Y-91673809D01*
X156241666Y-91292857D01*
X156194047Y-91197619D01*
X156146428Y-91150000D01*
X156051190Y-91102380D01*
X155860714Y-91102380D01*
X155765476Y-91150000D01*
X155717857Y-91197619D01*
X155670238Y-91292857D01*
X155670238Y-91530952D01*
X155717857Y-91626190D01*
X155765476Y-91673809D01*
X155860714Y-91721428D01*
X156051190Y-91721428D01*
X156146428Y-91673809D01*
X156194047Y-91626190D01*
X156241666Y-91530952D01*
%TO.C,C44*%
X159328142Y-87383857D02*
X159375761Y-87431476D01*
X159423380Y-87574333D01*
X159423380Y-87669571D01*
X159375761Y-87812428D01*
X159280523Y-87907666D01*
X159185285Y-87955285D01*
X158994809Y-88002904D01*
X158851952Y-88002904D01*
X158661476Y-87955285D01*
X158566238Y-87907666D01*
X158471000Y-87812428D01*
X158423380Y-87669571D01*
X158423380Y-87574333D01*
X158471000Y-87431476D01*
X158518619Y-87383857D01*
X158756714Y-86526714D02*
X159423380Y-86526714D01*
X158375761Y-86764809D02*
X159090047Y-87002904D01*
X159090047Y-86383857D01*
X158756714Y-85574333D02*
X159423380Y-85574333D01*
X158375761Y-85812428D02*
X159090047Y-86050523D01*
X159090047Y-85431476D01*
%TO.C,J5*%
X97075666Y-103675380D02*
X97075666Y-104389666D01*
X97028047Y-104532523D01*
X96932809Y-104627761D01*
X96789952Y-104675380D01*
X96694714Y-104675380D01*
X98028047Y-103675380D02*
X97551857Y-103675380D01*
X97504238Y-104151571D01*
X97551857Y-104103952D01*
X97647095Y-104056333D01*
X97885190Y-104056333D01*
X97980428Y-104103952D01*
X98028047Y-104151571D01*
X98075666Y-104246809D01*
X98075666Y-104484904D01*
X98028047Y-104580142D01*
X97980428Y-104627761D01*
X97885190Y-104675380D01*
X97647095Y-104675380D01*
X97551857Y-104627761D01*
X97504238Y-104580142D01*
X94575380Y-109187952D02*
X95575380Y-108854619D01*
X94575380Y-108521285D01*
X94575380Y-107997476D02*
X94575380Y-107807000D01*
X94623000Y-107711761D01*
X94718238Y-107616523D01*
X94908714Y-107568904D01*
X95242047Y-107568904D01*
X95432523Y-107616523D01*
X95527761Y-107711761D01*
X95575380Y-107807000D01*
X95575380Y-107997476D01*
X95527761Y-108092714D01*
X95432523Y-108187952D01*
X95242047Y-108235571D01*
X94908714Y-108235571D01*
X94718238Y-108187952D01*
X94623000Y-108092714D01*
X94575380Y-107997476D01*
X94575380Y-107140333D02*
X95384904Y-107140333D01*
X95480142Y-107092714D01*
X95527761Y-107045095D01*
X95575380Y-106949857D01*
X95575380Y-106759380D01*
X95527761Y-106664142D01*
X95480142Y-106616523D01*
X95384904Y-106568904D01*
X94575380Y-106568904D01*
X94575380Y-106235571D02*
X94575380Y-105664142D01*
X95575380Y-105949857D02*
X94575380Y-105949857D01*
X95194428Y-105330809D02*
X95194428Y-104568904D01*
X95575380Y-104949857D02*
X94813476Y-104949857D01*
X94575380Y-118331952D02*
X95575380Y-117998619D01*
X94575380Y-117665285D01*
X94575380Y-117141476D02*
X94575380Y-116951000D01*
X94623000Y-116855761D01*
X94718238Y-116760523D01*
X94908714Y-116712904D01*
X95242047Y-116712904D01*
X95432523Y-116760523D01*
X95527761Y-116855761D01*
X95575380Y-116951000D01*
X95575380Y-117141476D01*
X95527761Y-117236714D01*
X95432523Y-117331952D01*
X95242047Y-117379571D01*
X94908714Y-117379571D01*
X94718238Y-117331952D01*
X94623000Y-117236714D01*
X94575380Y-117141476D01*
X94575380Y-116284333D02*
X95384904Y-116284333D01*
X95480142Y-116236714D01*
X95527761Y-116189095D01*
X95575380Y-116093857D01*
X95575380Y-115903380D01*
X95527761Y-115808142D01*
X95480142Y-115760523D01*
X95384904Y-115712904D01*
X94575380Y-115712904D01*
X94575380Y-115379571D02*
X94575380Y-114808142D01*
X95575380Y-115093857D02*
X94575380Y-115093857D01*
X95194428Y-114474809D02*
X95194428Y-113712904D01*
X94623000Y-111871095D02*
X94575380Y-111966333D01*
X94575380Y-112109190D01*
X94623000Y-112252047D01*
X94718238Y-112347285D01*
X94813476Y-112394904D01*
X95003952Y-112442523D01*
X95146809Y-112442523D01*
X95337285Y-112394904D01*
X95432523Y-112347285D01*
X95527761Y-112252047D01*
X95575380Y-112109190D01*
X95575380Y-112013952D01*
X95527761Y-111871095D01*
X95480142Y-111823476D01*
X95146809Y-111823476D01*
X95146809Y-112013952D01*
X95575380Y-111394904D02*
X94575380Y-111394904D01*
X94575380Y-111156809D01*
X94623000Y-111013952D01*
X94718238Y-110918714D01*
X94813476Y-110871095D01*
X95003952Y-110823476D01*
X95146809Y-110823476D01*
X95337285Y-110871095D01*
X95432523Y-110918714D01*
X95527761Y-111013952D01*
X95575380Y-111156809D01*
X95575380Y-111394904D01*
%TO.C,J10*%
X140668476Y-103675380D02*
X140668476Y-104389666D01*
X140620857Y-104532523D01*
X140525619Y-104627761D01*
X140382761Y-104675380D01*
X140287523Y-104675380D01*
X141668476Y-104675380D02*
X141097047Y-104675380D01*
X141382761Y-104675380D02*
X141382761Y-103675380D01*
X141287523Y-103818238D01*
X141192285Y-103913476D01*
X141097047Y-103961095D01*
X142287523Y-103675380D02*
X142382761Y-103675380D01*
X142478000Y-103723000D01*
X142525619Y-103770619D01*
X142573238Y-103865857D01*
X142620857Y-104056333D01*
X142620857Y-104294428D01*
X142573238Y-104484904D01*
X142525619Y-104580142D01*
X142478000Y-104627761D01*
X142382761Y-104675380D01*
X142287523Y-104675380D01*
X142192285Y-104627761D01*
X142144666Y-104580142D01*
X142097047Y-104484904D01*
X142049428Y-104294428D01*
X142049428Y-104056333D01*
X142097047Y-103865857D01*
X142144666Y-103770619D01*
X142192285Y-103723000D01*
X142287523Y-103675380D01*
X144033952Y-107005380D02*
X143462523Y-107005380D01*
X143748238Y-107005380D02*
X143748238Y-106005380D01*
X143653000Y-106148238D01*
X143557761Y-106243476D01*
X143462523Y-106291095D01*
X144414904Y-106100619D02*
X144462523Y-106053000D01*
X144557761Y-106005380D01*
X144795857Y-106005380D01*
X144891095Y-106053000D01*
X144938714Y-106100619D01*
X144986333Y-106195857D01*
X144986333Y-106291095D01*
X144938714Y-106433952D01*
X144367285Y-107005380D01*
X144986333Y-107005380D01*
X145272047Y-106005380D02*
X145605380Y-107005380D01*
X145938714Y-106005380D01*
X143541904Y-111212380D02*
X144160952Y-111212380D01*
X143827619Y-111593333D01*
X143970476Y-111593333D01*
X144065714Y-111640952D01*
X144113333Y-111688571D01*
X144160952Y-111783809D01*
X144160952Y-112021904D01*
X144113333Y-112117142D01*
X144065714Y-112164761D01*
X143970476Y-112212380D01*
X143684761Y-112212380D01*
X143589523Y-112164761D01*
X143541904Y-112117142D01*
X144446666Y-111212380D02*
X144780000Y-112212380D01*
X145113333Y-111212380D01*
X145351428Y-111212380D02*
X145970476Y-111212380D01*
X145637142Y-111593333D01*
X145780000Y-111593333D01*
X145875238Y-111640952D01*
X145922857Y-111688571D01*
X145970476Y-111783809D01*
X145970476Y-112021904D01*
X145922857Y-112117142D01*
X145875238Y-112164761D01*
X145780000Y-112212380D01*
X145494285Y-112212380D01*
X145399047Y-112164761D01*
X145351428Y-112117142D01*
X144018095Y-116213000D02*
X143922857Y-116165380D01*
X143780000Y-116165380D01*
X143637142Y-116213000D01*
X143541904Y-116308238D01*
X143494285Y-116403476D01*
X143446666Y-116593952D01*
X143446666Y-116736809D01*
X143494285Y-116927285D01*
X143541904Y-117022523D01*
X143637142Y-117117761D01*
X143780000Y-117165380D01*
X143875238Y-117165380D01*
X144018095Y-117117761D01*
X144065714Y-117070142D01*
X144065714Y-116736809D01*
X143875238Y-116736809D01*
X144494285Y-117165380D02*
X144494285Y-116165380D01*
X145065714Y-117165380D01*
X145065714Y-116165380D01*
X145541904Y-117165380D02*
X145541904Y-116165380D01*
X145780000Y-116165380D01*
X145922857Y-116213000D01*
X146018095Y-116308238D01*
X146065714Y-116403476D01*
X146113333Y-116593952D01*
X146113333Y-116736809D01*
X146065714Y-116927285D01*
X146018095Y-117022523D01*
X145922857Y-117117761D01*
X145780000Y-117165380D01*
X145541904Y-117165380D01*
X144033952Y-109545380D02*
X143462523Y-109545380D01*
X143748238Y-109545380D02*
X143748238Y-108545380D01*
X143653000Y-108688238D01*
X143557761Y-108783476D01*
X143462523Y-108831095D01*
X144414904Y-108640619D02*
X144462523Y-108593000D01*
X144557761Y-108545380D01*
X144795857Y-108545380D01*
X144891095Y-108593000D01*
X144938714Y-108640619D01*
X144986333Y-108735857D01*
X144986333Y-108831095D01*
X144938714Y-108973952D01*
X144367285Y-109545380D01*
X144986333Y-109545380D01*
X145272047Y-108545380D02*
X145605380Y-109545380D01*
X145938714Y-108545380D01*
X144018095Y-113800000D02*
X143922857Y-113752380D01*
X143780000Y-113752380D01*
X143637142Y-113800000D01*
X143541904Y-113895238D01*
X143494285Y-113990476D01*
X143446666Y-114180952D01*
X143446666Y-114323809D01*
X143494285Y-114514285D01*
X143541904Y-114609523D01*
X143637142Y-114704761D01*
X143780000Y-114752380D01*
X143875238Y-114752380D01*
X144018095Y-114704761D01*
X144065714Y-114657142D01*
X144065714Y-114323809D01*
X143875238Y-114323809D01*
X144494285Y-114752380D02*
X144494285Y-113752380D01*
X145065714Y-114752380D01*
X145065714Y-113752380D01*
X145541904Y-114752380D02*
X145541904Y-113752380D01*
X145780000Y-113752380D01*
X145922857Y-113800000D01*
X146018095Y-113895238D01*
X146065714Y-113990476D01*
X146113333Y-114180952D01*
X146113333Y-114323809D01*
X146065714Y-114514285D01*
X146018095Y-114609523D01*
X145922857Y-114704761D01*
X145780000Y-114752380D01*
X145541904Y-114752380D01*
%TD*%
M02*
