M48
; DRILL file {KiCad (5.1.12)-1} date 03/31/22 08:37:03
; FORMAT={-:-/ absolute / inch / decimal}
; #@! TF.CreationDate,2022-03-31T08:37:03-05:00
; #@! TF.GenerationSoftware,Kicad,Pcbnew,(5.1.12)-1
; #@! TF.FileFunction,Plated,1,2,PTH
FMAT,2
INCH
T1C0.0118
T2C0.0157
T3C0.0295
T4C0.0315
T5C0.0350
T6C0.0354
T7C0.0394
T8C0.0630
%
G90
G05
T1
X3.75Y-3.92
X3.915Y-3.195
X3.92Y-2.935
X3.935Y-3.015
X3.95Y-2.825
X4.025Y-3.18
X4.085Y-2.615
X4.095Y-3.015
X4.105Y-2.945
X4.125Y-3.34
X4.15Y-2.515
X4.155Y-2.915
X4.195Y-2.905
X4.245Y-3.145
X4.3Y-3.095
X4.305Y-2.865
X4.335Y-3.035
X4.3563Y-2.9757
X4.425Y-2.6032
X4.4379Y-2.7023
X4.485Y-2.705
X4.685Y-2.705
X4.805Y-3.46
X4.825Y-2.675
X4.835Y-3.5367
X4.87Y-2.875
X4.8716Y-3.35
X4.885Y-3.06
X4.905Y-2.635
X4.91Y-2.86
X4.915Y-3.085
X4.95Y-2.87
X5.0Y-2.455
X5.005Y-2.5267
X5.135Y-3.185
X5.195Y-3.075
X5.24Y-2.905
X5.26Y-3.07
X5.585Y-3.13
X5.655Y-2.795
X5.69Y-2.874
X5.7Y-2.77
X5.735Y-2.9006
X5.76Y-3.235
X5.84Y-2.9933
X5.87Y-3.52
X5.8745Y-2.9055
X5.951Y-2.874
X6.02Y-3.345
X6.03Y-2.935
X6.05Y-2.985
X6.09Y-3.285
X6.1223Y-2.8473
X6.195Y-2.815
X6.2Y-3.385
X6.2584Y-3.0839
X6.34Y-2.985
X6.34Y-3.155
X6.3688Y-2.9036
X6.37Y-2.695
X6.37Y-2.945
X6.37Y-3.975
X6.3769Y-3.1719
X6.38Y-2.87
X6.39Y-4.075
X6.43Y-3.6287
X6.4382Y-3.1831
X6.47Y-3.455
X6.47Y-3.99
X6.48Y-4.255
X6.4809Y-2.9459
X6.4916Y-3.1618
X6.54Y-2.705
X6.545Y-3.045
X6.55Y-2.95
X6.58Y-3.305
X6.615Y-2.795
X6.62Y-4.415
X6.655Y-4.495
X6.66Y-3.075
X6.67Y-2.845
X6.685Y-4.325
X6.6866Y-3.4316
X6.69Y-3.215
X6.695Y-4.285
X6.695Y-4.395
X6.695Y-2.9033
X6.71Y-3.635
X6.7131Y-2.8729
X6.715Y-3.175
X6.72Y-3.335
X6.73Y-4.26
X6.735Y-4.21
X6.79Y-3.225
X6.82Y-3.17
X6.83Y-3.605
X6.83Y-3.775
X6.85Y-3.305
X6.89Y-3.12
X6.93Y-4.52
X6.94Y-3.415
X6.95Y-3.66
X6.95Y-3.7
X6.96Y-3.055
X6.96Y-3.515
X6.975Y-3.6
X7.105Y-3.745
X7.11Y-3.6583
T2
X3.81Y-3.475
X3.835Y-3.745
X3.85Y-3.615
X3.8865Y-3.585
X3.915Y-3.66
X3.92Y-3.085
X3.96Y-3.745
X3.96Y-3.81
X4.03Y-3.615
X4.07Y-3.94
X4.09Y-3.475
X4.13Y-3.665
X4.23Y-4.545
X4.285Y-4.085
X4.285Y-4.13
X4.285Y-4.24
X4.285Y-4.29
X4.31Y-3.4167
X4.36Y-4.085
X4.36Y-4.13
X4.36Y-4.24
X4.36Y-4.29
X4.375Y-3.355
X4.45Y-3.555
X4.45Y-3.635
X4.52Y-4.18
X4.52Y-4.23
X4.52Y-4.335
X4.52Y-4.385
X4.58Y-4.18
X4.58Y-4.23
X4.58Y-4.335
X4.58Y-4.385
X4.6Y-3.955
X4.615Y-2.975
X4.65Y-3.555
X4.65Y-3.635
X4.655Y-3.045
X4.665Y-2.895
X4.67Y-3.945
X4.685Y-2.835
X4.685Y-2.995
X4.695Y-3.145
X4.695Y-3.295
X4.7364Y-3.8448
X4.765Y-4.0835
X4.765Y-4.1335
X4.765Y-4.241
X4.765Y-4.291
X4.825Y-4.0835
X4.825Y-4.241
X4.825Y-4.1335
X4.825Y-4.291
X4.855Y-3.955
X4.86Y-3.855
X4.89Y-4.985
X4.91Y-3.555
X4.91Y-3.6336
X4.92Y-4.865
X4.955Y-4.985
X4.96Y-4.865
X4.98Y-3.415
X4.995Y-4.178
X4.995Y-4.228
X4.995Y-4.3354
X4.995Y-4.3854
X5.0Y-4.695
X5.025Y-3.465
X5.06Y-4.178
X5.06Y-4.228
X5.06Y-4.3354
X5.06Y-4.3854
X5.09Y-4.635
X5.11Y-3.43
X5.1681Y-4.5426
X5.17Y-3.435
X5.22Y-4.635
X5.23Y-3.44
X5.23Y-3.985
X5.31Y-2.695
X5.33Y-3.485
X5.49Y-3.225
X5.64Y-2.925
X5.74Y-3.035
X5.76Y-4.685
X5.765Y-4.585
X5.78Y-3.52
X5.8Y-4.765
X5.85Y-3.035
X5.855Y-3.395
X5.86Y-4.535
X5.87Y-4.595
X5.975Y-4.655
X6.08Y-4.525
X6.08Y-4.605
X6.12Y-2.625
X6.1202Y-3.3552
X6.13Y-3.305
X6.16Y-4.4264
X6.2191Y-4.0983
X6.225Y-4.045
X6.27Y-4.5861
X6.3091Y-3.5283
X6.315Y-3.335
X6.32Y-4.545
X6.3391Y-4.0533
X6.3517Y-4.5833
X6.39Y-4.4789
X6.3952Y-4.2202
X6.4Y-4.535
X6.44Y-4.395
X6.51Y-3.385
X6.52Y-4.055
X6.53Y-4.505
X6.53Y-4.565
X6.56Y-3.165
X6.56Y-4.465
X6.7004Y-4.0749
X6.7628Y-3.4656
X6.7941Y-4.0833
X6.805Y-3.47
X6.8241Y-3.8483
X6.8241Y-3.9083
X6.8291Y-3.6983
X6.8341Y-4.2033
X6.9566Y-3.9876
X6.96Y-3.785
X7.0741Y-3.6883
X7.0741Y-3.9833
X7.17Y-2.875
X7.345Y-3.23
X7.365Y-4.215
X7.365Y-4.295
X7.365Y-4.375
T3
X4.5538Y-4.815
X4.6325Y-4.815
X4.7113Y-4.815
X4.79Y-4.815
X5.4938Y-4.815
X5.5725Y-4.815
X5.6513Y-4.815
X5.73Y-4.815
T4
X4.08Y-4.355
X4.08Y-4.4928
X5.32Y-4.375
X5.32Y-4.5128
X7.2391Y-3.7911
X7.2391Y-3.9833
T5
X3.9725Y-2.751
X3.9725Y-3.149
X4.0323Y-2.851
X4.0323Y-3.249
T6
X4.415Y-2.825
X4.415Y-2.925
X4.415Y-3.025
X4.415Y-3.125
X4.515Y-2.875
X4.515Y-2.975
X4.515Y-3.075
X4.515Y-3.175
T7
X3.835Y-4.195
X3.835Y-4.295
X3.835Y-4.395
X3.835Y-4.495
X3.835Y-4.595
X5.57Y-4.195
X5.57Y-4.295
X5.57Y-4.395
X5.57Y-4.495
X5.57Y-4.595
X5.615Y-2.38
X5.615Y-2.48
X5.715Y-2.38
X5.715Y-2.48
X5.96Y-3.905
X5.96Y-4.005
X5.96Y-4.105
X5.96Y-4.205
X6.125Y-3.7
X6.125Y-3.8
X6.42Y-2.38
X6.42Y-2.48
X6.52Y-2.38
X6.52Y-2.48
X6.64Y-4.625
X6.64Y-4.725
X6.74Y-4.625
X6.74Y-4.725
X6.84Y-4.625
X6.84Y-4.725
X6.94Y-4.625
X6.94Y-4.725
X7.04Y-4.625
X7.04Y-4.725
X7.05Y-3.395
X7.05Y-3.495
X7.15Y-3.395
X7.15Y-3.495
X7.25Y-3.395
X7.25Y-3.495
X7.35Y-3.395
X7.35Y-3.495
T8
X4.2855Y-2.6939
X4.2855Y-3.3061
T0
M30
