%TF.GenerationSoftware,KiCad,Pcbnew,(5.1.12)-1*%
%TF.CreationDate,2022-03-31T08:37:18-05:00*%
%TF.ProjectId,PoE_Stepper_Driver,506f455f-5374-4657-9070-65725f447269,rev?*%
%TF.SameCoordinates,Original*%
%TF.FileFunction,Soldermask,Bot*%
%TF.FilePolarity,Negative*%
%FSLAX46Y46*%
G04 Gerber Fmt 4.6, Leading zero omitted, Abs format (unit mm)*
G04 Created by KiCad (PCBNEW (5.1.12)-1) date 2022-03-31 08:37:18*
%MOMM*%
%LPD*%
G01*
G04 APERTURE LIST*
%ADD10C,3.200001*%
%ADD11R,1.900000X1.900000*%
%ADD12C,1.900000*%
%ADD13C,1.890000*%
%ADD14C,2.600000*%
%ADD15C,3.250000*%
%ADD16R,1.400000X2.100000*%
%ADD17O,1.200000X1.750000*%
%ADD18C,1.500000*%
%ADD19R,0.300000X1.400000*%
%ADD20C,1.600000*%
%ADD21R,1.600000X1.600000*%
%ADD22R,1.700000X1.700000*%
%ADD23O,1.700000X1.700000*%
%ADD24R,1.000000X1.000000*%
G04 APERTURE END LIST*
%TO.C,R40*%
G36*
G01*
X174821000Y-109543001D02*
X174821000Y-108642999D01*
G75*
G02*
X175070999Y-108393000I249999J0D01*
G01*
X175721001Y-108393000D01*
G75*
G02*
X175971000Y-108642999I0J-249999D01*
G01*
X175971000Y-109543001D01*
G75*
G02*
X175721001Y-109793000I-249999J0D01*
G01*
X175070999Y-109793000D01*
G75*
G02*
X174821000Y-109543001I0J249999D01*
G01*
G37*
G36*
G01*
X172771000Y-109543001D02*
X172771000Y-108642999D01*
G75*
G02*
X173020999Y-108393000I249999J0D01*
G01*
X173671001Y-108393000D01*
G75*
G02*
X173921000Y-108642999I0J-249999D01*
G01*
X173921000Y-109543001D01*
G75*
G02*
X173671001Y-109793000I-249999J0D01*
G01*
X173020999Y-109793000D01*
G75*
G02*
X172771000Y-109543001I0J249999D01*
G01*
G37*
%TD*%
D10*
%TO.C,REF\u002A\u002A*%
X99314000Y-123825000D03*
%TD*%
%TO.C,REF\u002A\u002A*%
X186436000Y-123825000D03*
%TD*%
D11*
%TO.C,J1*%
X112141000Y-71755000D03*
D12*
X114681000Y-73025000D03*
X112141000Y-74295000D03*
X114681000Y-75565000D03*
X112141000Y-76835000D03*
X114681000Y-78105000D03*
X112141000Y-79375000D03*
X114681000Y-80645000D03*
D13*
X102421000Y-82525000D03*
X100901000Y-79985000D03*
X102421000Y-72415000D03*
X100901000Y-69875000D03*
D14*
X108851000Y-68425000D03*
X108851000Y-83975000D03*
D15*
X105801000Y-70485000D03*
X105801000Y-81915000D03*
%TD*%
D10*
%TO.C,REF\u002A\u002A*%
X99314000Y-62865000D03*
%TD*%
%TO.C,REF\u002A\u002A*%
X186436000Y-62865000D03*
%TD*%
%TO.C,RT4*%
G36*
G01*
X99317000Y-79899500D02*
X99317000Y-80374500D01*
G75*
G02*
X99079500Y-80612000I-237500J0D01*
G01*
X98504500Y-80612000D01*
G75*
G02*
X98267000Y-80374500I0J237500D01*
G01*
X98267000Y-79899500D01*
G75*
G02*
X98504500Y-79662000I237500J0D01*
G01*
X99079500Y-79662000D01*
G75*
G02*
X99317000Y-79899500I0J-237500D01*
G01*
G37*
G36*
G01*
X97567000Y-79899500D02*
X97567000Y-80374500D01*
G75*
G02*
X97329500Y-80612000I-237500J0D01*
G01*
X96754500Y-80612000D01*
G75*
G02*
X96517000Y-80374500I0J237500D01*
G01*
X96517000Y-79899500D01*
G75*
G02*
X96754500Y-79662000I237500J0D01*
G01*
X97329500Y-79662000D01*
G75*
G02*
X97567000Y-79899500I0J-237500D01*
G01*
G37*
%TD*%
%TO.C,C5*%
G36*
G01*
X102505500Y-77439000D02*
X102980500Y-77439000D01*
G75*
G02*
X103218000Y-77676500I0J-237500D01*
G01*
X103218000Y-78251500D01*
G75*
G02*
X102980500Y-78489000I-237500J0D01*
G01*
X102505500Y-78489000D01*
G75*
G02*
X102268000Y-78251500I0J237500D01*
G01*
X102268000Y-77676500D01*
G75*
G02*
X102505500Y-77439000I237500J0D01*
G01*
G37*
G36*
G01*
X102505500Y-75689000D02*
X102980500Y-75689000D01*
G75*
G02*
X103218000Y-75926500I0J-237500D01*
G01*
X103218000Y-76501500D01*
G75*
G02*
X102980500Y-76739000I-237500J0D01*
G01*
X102505500Y-76739000D01*
G75*
G02*
X102268000Y-76501500I0J237500D01*
G01*
X102268000Y-75926500D01*
G75*
G02*
X102505500Y-75689000I237500J0D01*
G01*
G37*
%TD*%
%TO.C,C1*%
G36*
G01*
X138065500Y-73403000D02*
X138540500Y-73403000D01*
G75*
G02*
X138778000Y-73640500I0J-237500D01*
G01*
X138778000Y-74215500D01*
G75*
G02*
X138540500Y-74453000I-237500J0D01*
G01*
X138065500Y-74453000D01*
G75*
G02*
X137828000Y-74215500I0J237500D01*
G01*
X137828000Y-73640500D01*
G75*
G02*
X138065500Y-73403000I237500J0D01*
G01*
G37*
G36*
G01*
X138065500Y-75153000D02*
X138540500Y-75153000D01*
G75*
G02*
X138778000Y-75390500I0J-237500D01*
G01*
X138778000Y-75965500D01*
G75*
G02*
X138540500Y-76203000I-237500J0D01*
G01*
X138065500Y-76203000D01*
G75*
G02*
X137828000Y-75965500I0J237500D01*
G01*
X137828000Y-75390500D01*
G75*
G02*
X138065500Y-75153000I237500J0D01*
G01*
G37*
%TD*%
%TO.C,C3*%
G36*
G01*
X133555000Y-73221001D02*
X133555000Y-72320999D01*
G75*
G02*
X133804999Y-72071000I249999J0D01*
G01*
X134455001Y-72071000D01*
G75*
G02*
X134705000Y-72320999I0J-249999D01*
G01*
X134705000Y-73221001D01*
G75*
G02*
X134455001Y-73471000I-249999J0D01*
G01*
X133804999Y-73471000D01*
G75*
G02*
X133555000Y-73221001I0J249999D01*
G01*
G37*
G36*
G01*
X131505000Y-73221001D02*
X131505000Y-72320999D01*
G75*
G02*
X131754999Y-72071000I249999J0D01*
G01*
X132405001Y-72071000D01*
G75*
G02*
X132655000Y-72320999I0J-249999D01*
G01*
X132655000Y-73221001D01*
G75*
G02*
X132405001Y-73471000I-249999J0D01*
G01*
X131754999Y-73471000D01*
G75*
G02*
X131505000Y-73221001I0J249999D01*
G01*
G37*
%TD*%
%TO.C,C7*%
G36*
G01*
X159939117Y-102747967D02*
X159039115Y-102747967D01*
G75*
G02*
X158789116Y-102497968I0J249999D01*
G01*
X158789116Y-101847966D01*
G75*
G02*
X159039115Y-101597967I249999J0D01*
G01*
X159939117Y-101597967D01*
G75*
G02*
X160189116Y-101847966I0J-249999D01*
G01*
X160189116Y-102497968D01*
G75*
G02*
X159939117Y-102747967I-249999J0D01*
G01*
G37*
G36*
G01*
X159939117Y-104797967D02*
X159039115Y-104797967D01*
G75*
G02*
X158789116Y-104547968I0J249999D01*
G01*
X158789116Y-103897966D01*
G75*
G02*
X159039115Y-103647967I249999J0D01*
G01*
X159939117Y-103647967D01*
G75*
G02*
X160189116Y-103897966I0J-249999D01*
G01*
X160189116Y-104547968D01*
G75*
G02*
X159939117Y-104797967I-249999J0D01*
G01*
G37*
%TD*%
%TO.C,C14*%
G36*
G01*
X149917999Y-118052000D02*
X150818001Y-118052000D01*
G75*
G02*
X151068000Y-118301999I0J-249999D01*
G01*
X151068000Y-118952001D01*
G75*
G02*
X150818001Y-119202000I-249999J0D01*
G01*
X149917999Y-119202000D01*
G75*
G02*
X149668000Y-118952001I0J249999D01*
G01*
X149668000Y-118301999D01*
G75*
G02*
X149917999Y-118052000I249999J0D01*
G01*
G37*
G36*
G01*
X149917999Y-116002000D02*
X150818001Y-116002000D01*
G75*
G02*
X151068000Y-116251999I0J-249999D01*
G01*
X151068000Y-116902001D01*
G75*
G02*
X150818001Y-117152000I-249999J0D01*
G01*
X149917999Y-117152000D01*
G75*
G02*
X149668000Y-116902001I0J249999D01*
G01*
X149668000Y-116251999D01*
G75*
G02*
X149917999Y-116002000I249999J0D01*
G01*
G37*
%TD*%
%TO.C,C26*%
G36*
G01*
X161468000Y-77158001D02*
X161468000Y-76257999D01*
G75*
G02*
X161717999Y-76008000I249999J0D01*
G01*
X162368001Y-76008000D01*
G75*
G02*
X162618000Y-76257999I0J-249999D01*
G01*
X162618000Y-77158001D01*
G75*
G02*
X162368001Y-77408000I-249999J0D01*
G01*
X161717999Y-77408000D01*
G75*
G02*
X161468000Y-77158001I0J249999D01*
G01*
G37*
G36*
G01*
X163518000Y-77158001D02*
X163518000Y-76257999D01*
G75*
G02*
X163767999Y-76008000I249999J0D01*
G01*
X164418001Y-76008000D01*
G75*
G02*
X164668000Y-76257999I0J-249999D01*
G01*
X164668000Y-77158001D01*
G75*
G02*
X164418001Y-77408000I-249999J0D01*
G01*
X163767999Y-77408000D01*
G75*
G02*
X163518000Y-77158001I0J249999D01*
G01*
G37*
%TD*%
%TO.C,C27*%
G36*
G01*
X168725001Y-75496000D02*
X167824999Y-75496000D01*
G75*
G02*
X167575000Y-75246001I0J249999D01*
G01*
X167575000Y-74595999D01*
G75*
G02*
X167824999Y-74346000I249999J0D01*
G01*
X168725001Y-74346000D01*
G75*
G02*
X168975000Y-74595999I0J-249999D01*
G01*
X168975000Y-75246001D01*
G75*
G02*
X168725001Y-75496000I-249999J0D01*
G01*
G37*
G36*
G01*
X168725001Y-77546000D02*
X167824999Y-77546000D01*
G75*
G02*
X167575000Y-77296001I0J249999D01*
G01*
X167575000Y-76645999D01*
G75*
G02*
X167824999Y-76396000I249999J0D01*
G01*
X168725001Y-76396000D01*
G75*
G02*
X168975000Y-76645999I0J-249999D01*
G01*
X168975000Y-77296001D01*
G75*
G02*
X168725001Y-77546000I-249999J0D01*
G01*
G37*
%TD*%
%TO.C,C28*%
G36*
G01*
X160204999Y-72060000D02*
X161105001Y-72060000D01*
G75*
G02*
X161355000Y-72309999I0J-249999D01*
G01*
X161355000Y-72960001D01*
G75*
G02*
X161105001Y-73210000I-249999J0D01*
G01*
X160204999Y-73210000D01*
G75*
G02*
X159955000Y-72960001I0J249999D01*
G01*
X159955000Y-72309999D01*
G75*
G02*
X160204999Y-72060000I249999J0D01*
G01*
G37*
G36*
G01*
X160204999Y-74110000D02*
X161105001Y-74110000D01*
G75*
G02*
X161355000Y-74359999I0J-249999D01*
G01*
X161355000Y-75010001D01*
G75*
G02*
X161105001Y-75260000I-249999J0D01*
G01*
X160204999Y-75260000D01*
G75*
G02*
X159955000Y-75010001I0J249999D01*
G01*
X159955000Y-74359999D01*
G75*
G02*
X160204999Y-74110000I249999J0D01*
G01*
G37*
%TD*%
%TO.C,C30*%
G36*
G01*
X158819001Y-77038000D02*
X157918999Y-77038000D01*
G75*
G02*
X157669000Y-76788001I0J249999D01*
G01*
X157669000Y-76137999D01*
G75*
G02*
X157918999Y-75888000I249999J0D01*
G01*
X158819001Y-75888000D01*
G75*
G02*
X159069000Y-76137999I0J-249999D01*
G01*
X159069000Y-76788001D01*
G75*
G02*
X158819001Y-77038000I-249999J0D01*
G01*
G37*
G36*
G01*
X158819001Y-74988000D02*
X157918999Y-74988000D01*
G75*
G02*
X157669000Y-74738001I0J249999D01*
G01*
X157669000Y-74087999D01*
G75*
G02*
X157918999Y-73838000I249999J0D01*
G01*
X158819001Y-73838000D01*
G75*
G02*
X159069000Y-74087999I0J-249999D01*
G01*
X159069000Y-74738001D01*
G75*
G02*
X158819001Y-74988000I-249999J0D01*
G01*
G37*
%TD*%
%TO.C,C31*%
G36*
G01*
X166046999Y-70409000D02*
X166947001Y-70409000D01*
G75*
G02*
X167197000Y-70658999I0J-249999D01*
G01*
X167197000Y-71309001D01*
G75*
G02*
X166947001Y-71559000I-249999J0D01*
G01*
X166046999Y-71559000D01*
G75*
G02*
X165797000Y-71309001I0J249999D01*
G01*
X165797000Y-70658999D01*
G75*
G02*
X166046999Y-70409000I249999J0D01*
G01*
G37*
G36*
G01*
X166046999Y-72459000D02*
X166947001Y-72459000D01*
G75*
G02*
X167197000Y-72708999I0J-249999D01*
G01*
X167197000Y-73359001D01*
G75*
G02*
X166947001Y-73609000I-249999J0D01*
G01*
X166046999Y-73609000D01*
G75*
G02*
X165797000Y-73359001I0J249999D01*
G01*
X165797000Y-72708999D01*
G75*
G02*
X166046999Y-72459000I249999J0D01*
G01*
G37*
%TD*%
%TO.C,C32*%
G36*
G01*
X165550000Y-79190001D02*
X165550000Y-78289999D01*
G75*
G02*
X165799999Y-78040000I249999J0D01*
G01*
X166450001Y-78040000D01*
G75*
G02*
X166700000Y-78289999I0J-249999D01*
G01*
X166700000Y-79190001D01*
G75*
G02*
X166450001Y-79440000I-249999J0D01*
G01*
X165799999Y-79440000D01*
G75*
G02*
X165550000Y-79190001I0J249999D01*
G01*
G37*
G36*
G01*
X163500000Y-79190001D02*
X163500000Y-78289999D01*
G75*
G02*
X163749999Y-78040000I249999J0D01*
G01*
X164400001Y-78040000D01*
G75*
G02*
X164650000Y-78289999I0J-249999D01*
G01*
X164650000Y-79190001D01*
G75*
G02*
X164400001Y-79440000I-249999J0D01*
G01*
X163749999Y-79440000D01*
G75*
G02*
X163500000Y-79190001I0J249999D01*
G01*
G37*
%TD*%
%TO.C,C34*%
G36*
G01*
X161325114Y-91464966D02*
X162225116Y-91464966D01*
G75*
G02*
X162475115Y-91714965I0J-249999D01*
G01*
X162475115Y-92364967D01*
G75*
G02*
X162225116Y-92614966I-249999J0D01*
G01*
X161325114Y-92614966D01*
G75*
G02*
X161075115Y-92364967I0J249999D01*
G01*
X161075115Y-91714965D01*
G75*
G02*
X161325114Y-91464966I249999J0D01*
G01*
G37*
G36*
G01*
X161325114Y-89414966D02*
X162225116Y-89414966D01*
G75*
G02*
X162475115Y-89664965I0J-249999D01*
G01*
X162475115Y-90314967D01*
G75*
G02*
X162225116Y-90564966I-249999J0D01*
G01*
X161325114Y-90564966D01*
G75*
G02*
X161075115Y-90314967I0J249999D01*
G01*
X161075115Y-89664965D01*
G75*
G02*
X161325114Y-89414966I249999J0D01*
G01*
G37*
%TD*%
%TO.C,C35*%
G36*
G01*
X170843115Y-90194968D02*
X170843115Y-89294966D01*
G75*
G02*
X171093114Y-89044967I249999J0D01*
G01*
X171743116Y-89044967D01*
G75*
G02*
X171993115Y-89294966I0J-249999D01*
G01*
X171993115Y-90194968D01*
G75*
G02*
X171743116Y-90444967I-249999J0D01*
G01*
X171093114Y-90444967D01*
G75*
G02*
X170843115Y-90194968I0J249999D01*
G01*
G37*
G36*
G01*
X172893115Y-90194968D02*
X172893115Y-89294966D01*
G75*
G02*
X173143114Y-89044967I249999J0D01*
G01*
X173793116Y-89044967D01*
G75*
G02*
X174043115Y-89294966I0J-249999D01*
G01*
X174043115Y-90194968D01*
G75*
G02*
X173793116Y-90444967I-249999J0D01*
G01*
X173143114Y-90444967D01*
G75*
G02*
X172893115Y-90194968I0J249999D01*
G01*
G37*
%TD*%
%TO.C,C36*%
G36*
G01*
X175433117Y-95789967D02*
X174533115Y-95789967D01*
G75*
G02*
X174283116Y-95539968I0J249999D01*
G01*
X174283116Y-94889966D01*
G75*
G02*
X174533115Y-94639967I249999J0D01*
G01*
X175433117Y-94639967D01*
G75*
G02*
X175683116Y-94889966I0J-249999D01*
G01*
X175683116Y-95539968D01*
G75*
G02*
X175433117Y-95789967I-249999J0D01*
G01*
G37*
G36*
G01*
X175433117Y-93739967D02*
X174533115Y-93739967D01*
G75*
G02*
X174283116Y-93489968I0J249999D01*
G01*
X174283116Y-92839966D01*
G75*
G02*
X174533115Y-92589967I249999J0D01*
G01*
X175433117Y-92589967D01*
G75*
G02*
X175683116Y-92839966I0J-249999D01*
G01*
X175683116Y-93489968D01*
G75*
G02*
X175433117Y-93739967I-249999J0D01*
G01*
G37*
%TD*%
%TO.C,C37*%
G36*
G01*
X174406115Y-99084967D02*
X175306117Y-99084967D01*
G75*
G02*
X175556116Y-99334966I0J-249999D01*
G01*
X175556116Y-99984968D01*
G75*
G02*
X175306117Y-100234967I-249999J0D01*
G01*
X174406115Y-100234967D01*
G75*
G02*
X174156116Y-99984968I0J249999D01*
G01*
X174156116Y-99334966D01*
G75*
G02*
X174406115Y-99084967I249999J0D01*
G01*
G37*
G36*
G01*
X174406115Y-97034967D02*
X175306117Y-97034967D01*
G75*
G02*
X175556116Y-97284966I0J-249999D01*
G01*
X175556116Y-97934968D01*
G75*
G02*
X175306117Y-98184967I-249999J0D01*
G01*
X174406115Y-98184967D01*
G75*
G02*
X174156116Y-97934968I0J249999D01*
G01*
X174156116Y-97284966D01*
G75*
G02*
X174406115Y-97034967I249999J0D01*
G01*
G37*
%TD*%
%TO.C,C38*%
G36*
G01*
X174551116Y-104788966D02*
X174551116Y-105688968D01*
G75*
G02*
X174301117Y-105938967I-249999J0D01*
G01*
X173651115Y-105938967D01*
G75*
G02*
X173401116Y-105688968I0J249999D01*
G01*
X173401116Y-104788966D01*
G75*
G02*
X173651115Y-104538967I249999J0D01*
G01*
X174301117Y-104538967D01*
G75*
G02*
X174551116Y-104788966I0J-249999D01*
G01*
G37*
G36*
G01*
X172501116Y-104788966D02*
X172501116Y-105688968D01*
G75*
G02*
X172251117Y-105938967I-249999J0D01*
G01*
X171601115Y-105938967D01*
G75*
G02*
X171351116Y-105688968I0J249999D01*
G01*
X171351116Y-104788966D01*
G75*
G02*
X171601115Y-104538967I249999J0D01*
G01*
X172251117Y-104538967D01*
G75*
G02*
X172501116Y-104788966I0J-249999D01*
G01*
G37*
%TD*%
%TO.C,C39*%
G36*
G01*
X175336000Y-101022999D02*
X175336000Y-101923001D01*
G75*
G02*
X175086001Y-102173000I-249999J0D01*
G01*
X174435999Y-102173000D01*
G75*
G02*
X174186000Y-101923001I0J249999D01*
G01*
X174186000Y-101022999D01*
G75*
G02*
X174435999Y-100773000I249999J0D01*
G01*
X175086001Y-100773000D01*
G75*
G02*
X175336000Y-101022999I0J-249999D01*
G01*
G37*
G36*
G01*
X173286000Y-101022999D02*
X173286000Y-101923001D01*
G75*
G02*
X173036001Y-102173000I-249999J0D01*
G01*
X172385999Y-102173000D01*
G75*
G02*
X172136000Y-101923001I0J249999D01*
G01*
X172136000Y-101022999D01*
G75*
G02*
X172385999Y-100773000I249999J0D01*
G01*
X173036001Y-100773000D01*
G75*
G02*
X173286000Y-101022999I0J-249999D01*
G01*
G37*
%TD*%
%TO.C,CG2*%
G36*
G01*
X134955000Y-91894999D02*
X134955000Y-94795001D01*
G75*
G02*
X134705001Y-95045000I-249999J0D01*
G01*
X133904999Y-95045000D01*
G75*
G02*
X133655000Y-94795001I0J249999D01*
G01*
X133655000Y-91894999D01*
G75*
G02*
X133904999Y-91645000I249999J0D01*
G01*
X134705001Y-91645000D01*
G75*
G02*
X134955000Y-91894999I0J-249999D01*
G01*
G37*
G36*
G01*
X130505000Y-91894999D02*
X130505000Y-94795001D01*
G75*
G02*
X130255001Y-95045000I-249999J0D01*
G01*
X129454999Y-95045000D01*
G75*
G02*
X129205000Y-94795001I0J249999D01*
G01*
X129205000Y-91894999D01*
G75*
G02*
X129454999Y-91645000I249999J0D01*
G01*
X130255001Y-91645000D01*
G75*
G02*
X130505000Y-91894999I0J-249999D01*
G01*
G37*
%TD*%
%TO.C,CT1*%
G36*
G01*
X96460000Y-70796999D02*
X96460000Y-71697001D01*
G75*
G02*
X96210001Y-71947000I-249999J0D01*
G01*
X95559999Y-71947000D01*
G75*
G02*
X95310000Y-71697001I0J249999D01*
G01*
X95310000Y-70796999D01*
G75*
G02*
X95559999Y-70547000I249999J0D01*
G01*
X96210001Y-70547000D01*
G75*
G02*
X96460000Y-70796999I0J-249999D01*
G01*
G37*
G36*
G01*
X98510000Y-70796999D02*
X98510000Y-71697001D01*
G75*
G02*
X98260001Y-71947000I-249999J0D01*
G01*
X97609999Y-71947000D01*
G75*
G02*
X97360000Y-71697001I0J249999D01*
G01*
X97360000Y-70796999D01*
G75*
G02*
X97609999Y-70547000I249999J0D01*
G01*
X98260001Y-70547000D01*
G75*
G02*
X98510000Y-70796999I0J-249999D01*
G01*
G37*
%TD*%
%TO.C,CT2*%
G36*
G01*
X98501000Y-74352999D02*
X98501000Y-75253001D01*
G75*
G02*
X98251001Y-75503000I-249999J0D01*
G01*
X97600999Y-75503000D01*
G75*
G02*
X97351000Y-75253001I0J249999D01*
G01*
X97351000Y-74352999D01*
G75*
G02*
X97600999Y-74103000I249999J0D01*
G01*
X98251001Y-74103000D01*
G75*
G02*
X98501000Y-74352999I0J-249999D01*
G01*
G37*
G36*
G01*
X96451000Y-74352999D02*
X96451000Y-75253001D01*
G75*
G02*
X96201001Y-75503000I-249999J0D01*
G01*
X95550999Y-75503000D01*
G75*
G02*
X95301000Y-75253001I0J249999D01*
G01*
X95301000Y-74352999D01*
G75*
G02*
X95550999Y-74103000I249999J0D01*
G01*
X96201001Y-74103000D01*
G75*
G02*
X96451000Y-74352999I0J-249999D01*
G01*
G37*
%TD*%
%TO.C,CT3*%
G36*
G01*
X98501000Y-81464999D02*
X98501000Y-82365001D01*
G75*
G02*
X98251001Y-82615000I-249999J0D01*
G01*
X97600999Y-82615000D01*
G75*
G02*
X97351000Y-82365001I0J249999D01*
G01*
X97351000Y-81464999D01*
G75*
G02*
X97600999Y-81215000I249999J0D01*
G01*
X98251001Y-81215000D01*
G75*
G02*
X98501000Y-81464999I0J-249999D01*
G01*
G37*
G36*
G01*
X96451000Y-81464999D02*
X96451000Y-82365001D01*
G75*
G02*
X96201001Y-82615000I-249999J0D01*
G01*
X95550999Y-82615000D01*
G75*
G02*
X95301000Y-82365001I0J249999D01*
G01*
X95301000Y-81464999D01*
G75*
G02*
X95550999Y-81215000I249999J0D01*
G01*
X96201001Y-81215000D01*
G75*
G02*
X96451000Y-81464999I0J-249999D01*
G01*
G37*
%TD*%
%TO.C,CT4*%
G36*
G01*
X96451000Y-77908999D02*
X96451000Y-78809001D01*
G75*
G02*
X96201001Y-79059000I-249999J0D01*
G01*
X95550999Y-79059000D01*
G75*
G02*
X95301000Y-78809001I0J249999D01*
G01*
X95301000Y-77908999D01*
G75*
G02*
X95550999Y-77659000I249999J0D01*
G01*
X96201001Y-77659000D01*
G75*
G02*
X96451000Y-77908999I0J-249999D01*
G01*
G37*
G36*
G01*
X98501000Y-77908999D02*
X98501000Y-78809001D01*
G75*
G02*
X98251001Y-79059000I-249999J0D01*
G01*
X97600999Y-79059000D01*
G75*
G02*
X97351000Y-78809001I0J249999D01*
G01*
X97351000Y-77908999D01*
G75*
G02*
X97600999Y-77659000I249999J0D01*
G01*
X98251001Y-77659000D01*
G75*
G02*
X98501000Y-77908999I0J-249999D01*
G01*
G37*
%TD*%
D16*
%TO.C,D2*%
X122514000Y-91948000D03*
X126914000Y-91948000D03*
%TD*%
%TO.C,J2*%
G36*
G01*
X122266000Y-121675999D02*
X122266000Y-122926001D01*
G75*
G02*
X122016001Y-123176000I-249999J0D01*
G01*
X121315999Y-123176000D01*
G75*
G02*
X121066000Y-122926001I0J249999D01*
G01*
X121066000Y-121675999D01*
G75*
G02*
X121315999Y-121426000I249999J0D01*
G01*
X122016001Y-121426000D01*
G75*
G02*
X122266000Y-121675999I0J-249999D01*
G01*
G37*
D17*
X119666000Y-122301000D03*
X117666000Y-122301000D03*
X115666000Y-122301000D03*
%TD*%
%TO.C,R4*%
G36*
G01*
X139141000Y-60001999D02*
X139141000Y-60902001D01*
G75*
G02*
X138891001Y-61152000I-249999J0D01*
G01*
X138240999Y-61152000D01*
G75*
G02*
X137991000Y-60902001I0J249999D01*
G01*
X137991000Y-60001999D01*
G75*
G02*
X138240999Y-59752000I249999J0D01*
G01*
X138891001Y-59752000D01*
G75*
G02*
X139141000Y-60001999I0J-249999D01*
G01*
G37*
G36*
G01*
X137091000Y-60001999D02*
X137091000Y-60902001D01*
G75*
G02*
X136841001Y-61152000I-249999J0D01*
G01*
X136190999Y-61152000D01*
G75*
G02*
X135941000Y-60902001I0J249999D01*
G01*
X135941000Y-60001999D01*
G75*
G02*
X136190999Y-59752000I249999J0D01*
G01*
X136841001Y-59752000D01*
G75*
G02*
X137091000Y-60001999I0J-249999D01*
G01*
G37*
%TD*%
%TO.C,R5*%
G36*
G01*
X137091000Y-62541999D02*
X137091000Y-63442001D01*
G75*
G02*
X136841001Y-63692000I-249999J0D01*
G01*
X136190999Y-63692000D01*
G75*
G02*
X135941000Y-63442001I0J249999D01*
G01*
X135941000Y-62541999D01*
G75*
G02*
X136190999Y-62292000I249999J0D01*
G01*
X136841001Y-62292000D01*
G75*
G02*
X137091000Y-62541999I0J-249999D01*
G01*
G37*
G36*
G01*
X139141000Y-62541999D02*
X139141000Y-63442001D01*
G75*
G02*
X138891001Y-63692000I-249999J0D01*
G01*
X138240999Y-63692000D01*
G75*
G02*
X137991000Y-63442001I0J249999D01*
G01*
X137991000Y-62541999D01*
G75*
G02*
X138240999Y-62292000I249999J0D01*
G01*
X138891001Y-62292000D01*
G75*
G02*
X139141000Y-62541999I0J-249999D01*
G01*
G37*
%TD*%
%TO.C,R6*%
G36*
G01*
X157658000Y-63442001D02*
X157658000Y-62541999D01*
G75*
G02*
X157907999Y-62292000I249999J0D01*
G01*
X158558001Y-62292000D01*
G75*
G02*
X158808000Y-62541999I0J-249999D01*
G01*
X158808000Y-63442001D01*
G75*
G02*
X158558001Y-63692000I-249999J0D01*
G01*
X157907999Y-63692000D01*
G75*
G02*
X157658000Y-63442001I0J249999D01*
G01*
G37*
G36*
G01*
X159708000Y-63442001D02*
X159708000Y-62541999D01*
G75*
G02*
X159957999Y-62292000I249999J0D01*
G01*
X160608001Y-62292000D01*
G75*
G02*
X160858000Y-62541999I0J-249999D01*
G01*
X160858000Y-63442001D01*
G75*
G02*
X160608001Y-63692000I-249999J0D01*
G01*
X159957999Y-63692000D01*
G75*
G02*
X159708000Y-63442001I0J249999D01*
G01*
G37*
%TD*%
%TO.C,R9*%
G36*
G01*
X138413500Y-81819000D02*
X137938500Y-81819000D01*
G75*
G02*
X137701000Y-81581500I0J237500D01*
G01*
X137701000Y-81006500D01*
G75*
G02*
X137938500Y-80769000I237500J0D01*
G01*
X138413500Y-80769000D01*
G75*
G02*
X138651000Y-81006500I0J-237500D01*
G01*
X138651000Y-81581500D01*
G75*
G02*
X138413500Y-81819000I-237500J0D01*
G01*
G37*
G36*
G01*
X138413500Y-83569000D02*
X137938500Y-83569000D01*
G75*
G02*
X137701000Y-83331500I0J237500D01*
G01*
X137701000Y-82756500D01*
G75*
G02*
X137938500Y-82519000I237500J0D01*
G01*
X138413500Y-82519000D01*
G75*
G02*
X138651000Y-82756500I0J-237500D01*
G01*
X138651000Y-83331500D01*
G75*
G02*
X138413500Y-83569000I-237500J0D01*
G01*
G37*
%TD*%
%TO.C,R10*%
G36*
G01*
X135385000Y-83963500D02*
X135385000Y-84438500D01*
G75*
G02*
X135147500Y-84676000I-237500J0D01*
G01*
X134572500Y-84676000D01*
G75*
G02*
X134335000Y-84438500I0J237500D01*
G01*
X134335000Y-83963500D01*
G75*
G02*
X134572500Y-83726000I237500J0D01*
G01*
X135147500Y-83726000D01*
G75*
G02*
X135385000Y-83963500I0J-237500D01*
G01*
G37*
G36*
G01*
X133635000Y-83963500D02*
X133635000Y-84438500D01*
G75*
G02*
X133397500Y-84676000I-237500J0D01*
G01*
X132822500Y-84676000D01*
G75*
G02*
X132585000Y-84438500I0J237500D01*
G01*
X132585000Y-83963500D01*
G75*
G02*
X132822500Y-83726000I237500J0D01*
G01*
X133397500Y-83726000D01*
G75*
G02*
X133635000Y-83963500I0J-237500D01*
G01*
G37*
%TD*%
%TO.C,R11*%
G36*
G01*
X138413500Y-78404000D02*
X137938500Y-78404000D01*
G75*
G02*
X137701000Y-78166500I0J237500D01*
G01*
X137701000Y-77591500D01*
G75*
G02*
X137938500Y-77354000I237500J0D01*
G01*
X138413500Y-77354000D01*
G75*
G02*
X138651000Y-77591500I0J-237500D01*
G01*
X138651000Y-78166500D01*
G75*
G02*
X138413500Y-78404000I-237500J0D01*
G01*
G37*
G36*
G01*
X138413500Y-80154000D02*
X137938500Y-80154000D01*
G75*
G02*
X137701000Y-79916500I0J237500D01*
G01*
X137701000Y-79341500D01*
G75*
G02*
X137938500Y-79104000I237500J0D01*
G01*
X138413500Y-79104000D01*
G75*
G02*
X138651000Y-79341500I0J-237500D01*
G01*
X138651000Y-79916500D01*
G75*
G02*
X138413500Y-80154000I-237500J0D01*
G01*
G37*
%TD*%
%TO.C,R12*%
G36*
G01*
X141662999Y-71443000D02*
X142563001Y-71443000D01*
G75*
G02*
X142813000Y-71692999I0J-249999D01*
G01*
X142813000Y-72343001D01*
G75*
G02*
X142563001Y-72593000I-249999J0D01*
G01*
X141662999Y-72593000D01*
G75*
G02*
X141413000Y-72343001I0J249999D01*
G01*
X141413000Y-71692999D01*
G75*
G02*
X141662999Y-71443000I249999J0D01*
G01*
G37*
G36*
G01*
X141662999Y-69393000D02*
X142563001Y-69393000D01*
G75*
G02*
X142813000Y-69642999I0J-249999D01*
G01*
X142813000Y-70293001D01*
G75*
G02*
X142563001Y-70543000I-249999J0D01*
G01*
X141662999Y-70543000D01*
G75*
G02*
X141413000Y-70293001I0J249999D01*
G01*
X141413000Y-69642999D01*
G75*
G02*
X141662999Y-69393000I249999J0D01*
G01*
G37*
%TD*%
%TO.C,R13*%
G36*
G01*
X138065500Y-69847000D02*
X138540500Y-69847000D01*
G75*
G02*
X138778000Y-70084500I0J-237500D01*
G01*
X138778000Y-70659500D01*
G75*
G02*
X138540500Y-70897000I-237500J0D01*
G01*
X138065500Y-70897000D01*
G75*
G02*
X137828000Y-70659500I0J237500D01*
G01*
X137828000Y-70084500D01*
G75*
G02*
X138065500Y-69847000I237500J0D01*
G01*
G37*
G36*
G01*
X138065500Y-71597000D02*
X138540500Y-71597000D01*
G75*
G02*
X138778000Y-71834500I0J-237500D01*
G01*
X138778000Y-72409500D01*
G75*
G02*
X138540500Y-72647000I-237500J0D01*
G01*
X138065500Y-72647000D01*
G75*
G02*
X137828000Y-72409500I0J237500D01*
G01*
X137828000Y-71834500D01*
G75*
G02*
X138065500Y-71597000I237500J0D01*
G01*
G37*
%TD*%
%TO.C,R14*%
G36*
G01*
X141748500Y-75407000D02*
X142223500Y-75407000D01*
G75*
G02*
X142461000Y-75644500I0J-237500D01*
G01*
X142461000Y-76219500D01*
G75*
G02*
X142223500Y-76457000I-237500J0D01*
G01*
X141748500Y-76457000D01*
G75*
G02*
X141511000Y-76219500I0J237500D01*
G01*
X141511000Y-75644500D01*
G75*
G02*
X141748500Y-75407000I237500J0D01*
G01*
G37*
G36*
G01*
X141748500Y-73657000D02*
X142223500Y-73657000D01*
G75*
G02*
X142461000Y-73894500I0J-237500D01*
G01*
X142461000Y-74469500D01*
G75*
G02*
X142223500Y-74707000I-237500J0D01*
G01*
X141748500Y-74707000D01*
G75*
G02*
X141511000Y-74469500I0J237500D01*
G01*
X141511000Y-73894500D01*
G75*
G02*
X141748500Y-73657000I237500J0D01*
G01*
G37*
%TD*%
%TO.C,R15*%
G36*
G01*
X134369000Y-74438500D02*
X134369000Y-74913500D01*
G75*
G02*
X134131500Y-75151000I-237500J0D01*
G01*
X133556500Y-75151000D01*
G75*
G02*
X133319000Y-74913500I0J237500D01*
G01*
X133319000Y-74438500D01*
G75*
G02*
X133556500Y-74201000I237500J0D01*
G01*
X134131500Y-74201000D01*
G75*
G02*
X134369000Y-74438500I0J-237500D01*
G01*
G37*
G36*
G01*
X132619000Y-74438500D02*
X132619000Y-74913500D01*
G75*
G02*
X132381500Y-75151000I-237500J0D01*
G01*
X131806500Y-75151000D01*
G75*
G02*
X131569000Y-74913500I0J237500D01*
G01*
X131569000Y-74438500D01*
G75*
G02*
X131806500Y-74201000I237500J0D01*
G01*
X132381500Y-74201000D01*
G75*
G02*
X132619000Y-74438500I0J-237500D01*
G01*
G37*
%TD*%
%TO.C,R18*%
G36*
G01*
X103381000Y-74311500D02*
X103381000Y-74786500D01*
G75*
G02*
X103143500Y-75024000I-237500J0D01*
G01*
X102568500Y-75024000D01*
G75*
G02*
X102331000Y-74786500I0J237500D01*
G01*
X102331000Y-74311500D01*
G75*
G02*
X102568500Y-74074000I237500J0D01*
G01*
X103143500Y-74074000D01*
G75*
G02*
X103381000Y-74311500I0J-237500D01*
G01*
G37*
G36*
G01*
X101631000Y-74311500D02*
X101631000Y-74786500D01*
G75*
G02*
X101393500Y-75024000I-237500J0D01*
G01*
X100818500Y-75024000D01*
G75*
G02*
X100581000Y-74786500I0J237500D01*
G01*
X100581000Y-74311500D01*
G75*
G02*
X100818500Y-74074000I237500J0D01*
G01*
X101393500Y-74074000D01*
G75*
G02*
X101631000Y-74311500I0J-237500D01*
G01*
G37*
%TD*%
%TO.C,RT1*%
G36*
G01*
X97567000Y-72787500D02*
X97567000Y-73262500D01*
G75*
G02*
X97329500Y-73500000I-237500J0D01*
G01*
X96754500Y-73500000D01*
G75*
G02*
X96517000Y-73262500I0J237500D01*
G01*
X96517000Y-72787500D01*
G75*
G02*
X96754500Y-72550000I237500J0D01*
G01*
X97329500Y-72550000D01*
G75*
G02*
X97567000Y-72787500I0J-237500D01*
G01*
G37*
G36*
G01*
X99317000Y-72787500D02*
X99317000Y-73262500D01*
G75*
G02*
X99079500Y-73500000I-237500J0D01*
G01*
X98504500Y-73500000D01*
G75*
G02*
X98267000Y-73262500I0J237500D01*
G01*
X98267000Y-72787500D01*
G75*
G02*
X98504500Y-72550000I237500J0D01*
G01*
X99079500Y-72550000D01*
G75*
G02*
X99317000Y-72787500I0J-237500D01*
G01*
G37*
%TD*%
%TO.C,RT2*%
G36*
G01*
X99317000Y-76343500D02*
X99317000Y-76818500D01*
G75*
G02*
X99079500Y-77056000I-237500J0D01*
G01*
X98504500Y-77056000D01*
G75*
G02*
X98267000Y-76818500I0J237500D01*
G01*
X98267000Y-76343500D01*
G75*
G02*
X98504500Y-76106000I237500J0D01*
G01*
X99079500Y-76106000D01*
G75*
G02*
X99317000Y-76343500I0J-237500D01*
G01*
G37*
G36*
G01*
X97567000Y-76343500D02*
X97567000Y-76818500D01*
G75*
G02*
X97329500Y-77056000I-237500J0D01*
G01*
X96754500Y-77056000D01*
G75*
G02*
X96517000Y-76818500I0J237500D01*
G01*
X96517000Y-76343500D01*
G75*
G02*
X96754500Y-76106000I237500J0D01*
G01*
X97329500Y-76106000D01*
G75*
G02*
X97567000Y-76343500I0J-237500D01*
G01*
G37*
%TD*%
%TO.C,RT3*%
G36*
G01*
X97567000Y-83455500D02*
X97567000Y-83930500D01*
G75*
G02*
X97329500Y-84168000I-237500J0D01*
G01*
X96754500Y-84168000D01*
G75*
G02*
X96517000Y-83930500I0J237500D01*
G01*
X96517000Y-83455500D01*
G75*
G02*
X96754500Y-83218000I237500J0D01*
G01*
X97329500Y-83218000D01*
G75*
G02*
X97567000Y-83455500I0J-237500D01*
G01*
G37*
G36*
G01*
X99317000Y-83455500D02*
X99317000Y-83930500D01*
G75*
G02*
X99079500Y-84168000I-237500J0D01*
G01*
X98504500Y-84168000D01*
G75*
G02*
X98267000Y-83930500I0J237500D01*
G01*
X98267000Y-83455500D01*
G75*
G02*
X98504500Y-83218000I237500J0D01*
G01*
X99079500Y-83218000D01*
G75*
G02*
X99317000Y-83455500I0J-237500D01*
G01*
G37*
%TD*%
%TO.C,RT5*%
G36*
G01*
X134128500Y-89885000D02*
X134603500Y-89885000D01*
G75*
G02*
X134841000Y-90122500I0J-237500D01*
G01*
X134841000Y-90697500D01*
G75*
G02*
X134603500Y-90935000I-237500J0D01*
G01*
X134128500Y-90935000D01*
G75*
G02*
X133891000Y-90697500I0J237500D01*
G01*
X133891000Y-90122500D01*
G75*
G02*
X134128500Y-89885000I237500J0D01*
G01*
G37*
G36*
G01*
X134128500Y-88135000D02*
X134603500Y-88135000D01*
G75*
G02*
X134841000Y-88372500I0J-237500D01*
G01*
X134841000Y-88947500D01*
G75*
G02*
X134603500Y-89185000I-237500J0D01*
G01*
X134128500Y-89185000D01*
G75*
G02*
X133891000Y-88947500I0J237500D01*
G01*
X133891000Y-88372500D01*
G75*
G02*
X134128500Y-88135000I237500J0D01*
G01*
G37*
%TD*%
%TO.C,RT6*%
G36*
G01*
X132604500Y-88149000D02*
X133079500Y-88149000D01*
G75*
G02*
X133317000Y-88386500I0J-237500D01*
G01*
X133317000Y-88961500D01*
G75*
G02*
X133079500Y-89199000I-237500J0D01*
G01*
X132604500Y-89199000D01*
G75*
G02*
X132367000Y-88961500I0J237500D01*
G01*
X132367000Y-88386500D01*
G75*
G02*
X132604500Y-88149000I237500J0D01*
G01*
G37*
G36*
G01*
X132604500Y-89899000D02*
X133079500Y-89899000D01*
G75*
G02*
X133317000Y-90136500I0J-237500D01*
G01*
X133317000Y-90711500D01*
G75*
G02*
X133079500Y-90949000I-237500J0D01*
G01*
X132604500Y-90949000D01*
G75*
G02*
X132367000Y-90711500I0J237500D01*
G01*
X132367000Y-90136500D01*
G75*
G02*
X132604500Y-89899000I237500J0D01*
G01*
G37*
%TD*%
%TO.C,RT7*%
G36*
G01*
X131080500Y-89899000D02*
X131555500Y-89899000D01*
G75*
G02*
X131793000Y-90136500I0J-237500D01*
G01*
X131793000Y-90711500D01*
G75*
G02*
X131555500Y-90949000I-237500J0D01*
G01*
X131080500Y-90949000D01*
G75*
G02*
X130843000Y-90711500I0J237500D01*
G01*
X130843000Y-90136500D01*
G75*
G02*
X131080500Y-89899000I237500J0D01*
G01*
G37*
G36*
G01*
X131080500Y-88149000D02*
X131555500Y-88149000D01*
G75*
G02*
X131793000Y-88386500I0J-237500D01*
G01*
X131793000Y-88961500D01*
G75*
G02*
X131555500Y-89199000I-237500J0D01*
G01*
X131080500Y-89199000D01*
G75*
G02*
X130843000Y-88961500I0J237500D01*
G01*
X130843000Y-88386500D01*
G75*
G02*
X131080500Y-88149000I237500J0D01*
G01*
G37*
%TD*%
%TO.C,RT8*%
G36*
G01*
X129556500Y-88149000D02*
X130031500Y-88149000D01*
G75*
G02*
X130269000Y-88386500I0J-237500D01*
G01*
X130269000Y-88961500D01*
G75*
G02*
X130031500Y-89199000I-237500J0D01*
G01*
X129556500Y-89199000D01*
G75*
G02*
X129319000Y-88961500I0J237500D01*
G01*
X129319000Y-88386500D01*
G75*
G02*
X129556500Y-88149000I237500J0D01*
G01*
G37*
G36*
G01*
X129556500Y-89899000D02*
X130031500Y-89899000D01*
G75*
G02*
X130269000Y-90136500I0J-237500D01*
G01*
X130269000Y-90711500D01*
G75*
G02*
X130031500Y-90949000I-237500J0D01*
G01*
X129556500Y-90949000D01*
G75*
G02*
X129319000Y-90711500I0J237500D01*
G01*
X129319000Y-90136500D01*
G75*
G02*
X129556500Y-89899000I237500J0D01*
G01*
G37*
%TD*%
%TO.C,U1*%
G36*
G01*
X108136000Y-76009999D02*
X108136000Y-77660001D01*
G75*
G02*
X107886001Y-77910000I-249999J0D01*
G01*
X106235999Y-77910000D01*
G75*
G02*
X105986000Y-77660001I0J249999D01*
G01*
X105986000Y-76009999D01*
G75*
G02*
X106235999Y-75760000I249999J0D01*
G01*
X107886001Y-75760000D01*
G75*
G02*
X108136000Y-76009999I0J-249999D01*
G01*
G37*
G36*
G01*
X109436000Y-75785000D02*
X109436000Y-75935000D01*
G75*
G02*
X109361000Y-76010000I-75000J0D01*
G01*
X108436000Y-76010000D01*
G75*
G02*
X108361000Y-75935000I0J75000D01*
G01*
X108361000Y-75785000D01*
G75*
G02*
X108436000Y-75710000I75000J0D01*
G01*
X109361000Y-75710000D01*
G75*
G02*
X109436000Y-75785000I0J-75000D01*
G01*
G37*
G36*
G01*
X109436000Y-76435000D02*
X109436000Y-76585000D01*
G75*
G02*
X109361000Y-76660000I-75000J0D01*
G01*
X108436000Y-76660000D01*
G75*
G02*
X108361000Y-76585000I0J75000D01*
G01*
X108361000Y-76435000D01*
G75*
G02*
X108436000Y-76360000I75000J0D01*
G01*
X109361000Y-76360000D01*
G75*
G02*
X109436000Y-76435000I0J-75000D01*
G01*
G37*
G36*
G01*
X109436000Y-77085000D02*
X109436000Y-77235000D01*
G75*
G02*
X109361000Y-77310000I-75000J0D01*
G01*
X108436000Y-77310000D01*
G75*
G02*
X108361000Y-77235000I0J75000D01*
G01*
X108361000Y-77085000D01*
G75*
G02*
X108436000Y-77010000I75000J0D01*
G01*
X109361000Y-77010000D01*
G75*
G02*
X109436000Y-77085000I0J-75000D01*
G01*
G37*
G36*
G01*
X109436000Y-77735000D02*
X109436000Y-77885000D01*
G75*
G02*
X109361000Y-77960000I-75000J0D01*
G01*
X108436000Y-77960000D01*
G75*
G02*
X108361000Y-77885000I0J75000D01*
G01*
X108361000Y-77735000D01*
G75*
G02*
X108436000Y-77660000I75000J0D01*
G01*
X109361000Y-77660000D01*
G75*
G02*
X109436000Y-77735000I0J-75000D01*
G01*
G37*
G36*
G01*
X108186000Y-78210000D02*
X108186000Y-79135000D01*
G75*
G02*
X108111000Y-79210000I-75000J0D01*
G01*
X107961000Y-79210000D01*
G75*
G02*
X107886000Y-79135000I0J75000D01*
G01*
X107886000Y-78210000D01*
G75*
G02*
X107961000Y-78135000I75000J0D01*
G01*
X108111000Y-78135000D01*
G75*
G02*
X108186000Y-78210000I0J-75000D01*
G01*
G37*
G36*
G01*
X107536000Y-78210000D02*
X107536000Y-79135000D01*
G75*
G02*
X107461000Y-79210000I-75000J0D01*
G01*
X107311000Y-79210000D01*
G75*
G02*
X107236000Y-79135000I0J75000D01*
G01*
X107236000Y-78210000D01*
G75*
G02*
X107311000Y-78135000I75000J0D01*
G01*
X107461000Y-78135000D01*
G75*
G02*
X107536000Y-78210000I0J-75000D01*
G01*
G37*
G36*
G01*
X106886000Y-78210000D02*
X106886000Y-79135000D01*
G75*
G02*
X106811000Y-79210000I-75000J0D01*
G01*
X106661000Y-79210000D01*
G75*
G02*
X106586000Y-79135000I0J75000D01*
G01*
X106586000Y-78210000D01*
G75*
G02*
X106661000Y-78135000I75000J0D01*
G01*
X106811000Y-78135000D01*
G75*
G02*
X106886000Y-78210000I0J-75000D01*
G01*
G37*
G36*
G01*
X106236000Y-78210000D02*
X106236000Y-79135000D01*
G75*
G02*
X106161000Y-79210000I-75000J0D01*
G01*
X106011000Y-79210000D01*
G75*
G02*
X105936000Y-79135000I0J75000D01*
G01*
X105936000Y-78210000D01*
G75*
G02*
X106011000Y-78135000I75000J0D01*
G01*
X106161000Y-78135000D01*
G75*
G02*
X106236000Y-78210000I0J-75000D01*
G01*
G37*
G36*
G01*
X105761000Y-77735000D02*
X105761000Y-77885000D01*
G75*
G02*
X105686000Y-77960000I-75000J0D01*
G01*
X104761000Y-77960000D01*
G75*
G02*
X104686000Y-77885000I0J75000D01*
G01*
X104686000Y-77735000D01*
G75*
G02*
X104761000Y-77660000I75000J0D01*
G01*
X105686000Y-77660000D01*
G75*
G02*
X105761000Y-77735000I0J-75000D01*
G01*
G37*
G36*
G01*
X105761000Y-77085000D02*
X105761000Y-77235000D01*
G75*
G02*
X105686000Y-77310000I-75000J0D01*
G01*
X104761000Y-77310000D01*
G75*
G02*
X104686000Y-77235000I0J75000D01*
G01*
X104686000Y-77085000D01*
G75*
G02*
X104761000Y-77010000I75000J0D01*
G01*
X105686000Y-77010000D01*
G75*
G02*
X105761000Y-77085000I0J-75000D01*
G01*
G37*
G36*
G01*
X105761000Y-76435000D02*
X105761000Y-76585000D01*
G75*
G02*
X105686000Y-76660000I-75000J0D01*
G01*
X104761000Y-76660000D01*
G75*
G02*
X104686000Y-76585000I0J75000D01*
G01*
X104686000Y-76435000D01*
G75*
G02*
X104761000Y-76360000I75000J0D01*
G01*
X105686000Y-76360000D01*
G75*
G02*
X105761000Y-76435000I0J-75000D01*
G01*
G37*
G36*
G01*
X105761000Y-75785000D02*
X105761000Y-75935000D01*
G75*
G02*
X105686000Y-76010000I-75000J0D01*
G01*
X104761000Y-76010000D01*
G75*
G02*
X104686000Y-75935000I0J75000D01*
G01*
X104686000Y-75785000D01*
G75*
G02*
X104761000Y-75710000I75000J0D01*
G01*
X105686000Y-75710000D01*
G75*
G02*
X105761000Y-75785000I0J-75000D01*
G01*
G37*
G36*
G01*
X106236000Y-74535000D02*
X106236000Y-75460000D01*
G75*
G02*
X106161000Y-75535000I-75000J0D01*
G01*
X106011000Y-75535000D01*
G75*
G02*
X105936000Y-75460000I0J75000D01*
G01*
X105936000Y-74535000D01*
G75*
G02*
X106011000Y-74460000I75000J0D01*
G01*
X106161000Y-74460000D01*
G75*
G02*
X106236000Y-74535000I0J-75000D01*
G01*
G37*
G36*
G01*
X106886000Y-74535000D02*
X106886000Y-75460000D01*
G75*
G02*
X106811000Y-75535000I-75000J0D01*
G01*
X106661000Y-75535000D01*
G75*
G02*
X106586000Y-75460000I0J75000D01*
G01*
X106586000Y-74535000D01*
G75*
G02*
X106661000Y-74460000I75000J0D01*
G01*
X106811000Y-74460000D01*
G75*
G02*
X106886000Y-74535000I0J-75000D01*
G01*
G37*
G36*
G01*
X107536000Y-74535000D02*
X107536000Y-75460000D01*
G75*
G02*
X107461000Y-75535000I-75000J0D01*
G01*
X107311000Y-75535000D01*
G75*
G02*
X107236000Y-75460000I0J75000D01*
G01*
X107236000Y-74535000D01*
G75*
G02*
X107311000Y-74460000I75000J0D01*
G01*
X107461000Y-74460000D01*
G75*
G02*
X107536000Y-74535000I0J-75000D01*
G01*
G37*
G36*
G01*
X108186000Y-74535000D02*
X108186000Y-75460000D01*
G75*
G02*
X108111000Y-75535000I-75000J0D01*
G01*
X107961000Y-75535000D01*
G75*
G02*
X107886000Y-75460000I0J75000D01*
G01*
X107886000Y-74535000D01*
G75*
G02*
X107961000Y-74460000I75000J0D01*
G01*
X108111000Y-74460000D01*
G75*
G02*
X108186000Y-74535000I0J-75000D01*
G01*
G37*
%TD*%
D18*
%TO.C,Y1*%
X183873115Y-101174967D03*
X183873115Y-96294967D03*
%TD*%
D19*
%TO.C,U2*%
X134096000Y-81194000D03*
X133596000Y-81194000D03*
X133096000Y-81194000D03*
X132596000Y-81194000D03*
X132096000Y-81194000D03*
X132096000Y-76794000D03*
X132596000Y-76794000D03*
X133096000Y-76794000D03*
X133596000Y-76794000D03*
X134096000Y-76794000D03*
%TD*%
%TO.C,Q1*%
G36*
G01*
X133699000Y-69990000D02*
X133699000Y-70390000D01*
G75*
G02*
X133649000Y-70440000I-50000J0D01*
G01*
X132819000Y-70440000D01*
G75*
G02*
X132769000Y-70390000I0J50000D01*
G01*
X132769000Y-69990000D01*
G75*
G02*
X132819000Y-69940000I50000J0D01*
G01*
X133649000Y-69940000D01*
G75*
G02*
X133699000Y-69990000I0J-50000D01*
G01*
G37*
G36*
G01*
X130549000Y-69340000D02*
X130549000Y-69740000D01*
G75*
G02*
X130499000Y-69790000I-50000J0D01*
G01*
X129749000Y-69790000D01*
G75*
G02*
X129699000Y-69740000I0J50000D01*
G01*
X129699000Y-69340000D01*
G75*
G02*
X129749000Y-69290000I50000J0D01*
G01*
X130499000Y-69290000D01*
G75*
G02*
X130549000Y-69340000I0J-50000D01*
G01*
G37*
G36*
G01*
X132269000Y-68090000D02*
X132269000Y-70340000D01*
G75*
G02*
X132219000Y-70390000I-50000J0D01*
G01*
X130369000Y-70390000D01*
G75*
G02*
X130319000Y-70340000I0J50000D01*
G01*
X130319000Y-68090000D01*
G75*
G02*
X130369000Y-68040000I50000J0D01*
G01*
X132219000Y-68040000D01*
G75*
G02*
X132269000Y-68090000I0J-50000D01*
G01*
G37*
G36*
G01*
X133699000Y-69340000D02*
X133699000Y-69740000D01*
G75*
G02*
X133649000Y-69790000I-50000J0D01*
G01*
X132819000Y-69790000D01*
G75*
G02*
X132769000Y-69740000I0J50000D01*
G01*
X132769000Y-69340000D01*
G75*
G02*
X132819000Y-69290000I50000J0D01*
G01*
X133649000Y-69290000D01*
G75*
G02*
X133699000Y-69340000I0J-50000D01*
G01*
G37*
G36*
G01*
X133699000Y-68040000D02*
X133699000Y-68440000D01*
G75*
G02*
X133649000Y-68490000I-50000J0D01*
G01*
X132819000Y-68490000D01*
G75*
G02*
X132769000Y-68440000I0J50000D01*
G01*
X132769000Y-68040000D01*
G75*
G02*
X132819000Y-67990000I50000J0D01*
G01*
X133649000Y-67990000D01*
G75*
G02*
X133699000Y-68040000I0J-50000D01*
G01*
G37*
G36*
G01*
X133699000Y-68690000D02*
X133699000Y-69090000D01*
G75*
G02*
X133649000Y-69140000I-50000J0D01*
G01*
X132819000Y-69140000D01*
G75*
G02*
X132769000Y-69090000I0J50000D01*
G01*
X132769000Y-68690000D01*
G75*
G02*
X132819000Y-68640000I50000J0D01*
G01*
X133649000Y-68640000D01*
G75*
G02*
X133699000Y-68690000I0J-50000D01*
G01*
G37*
G36*
G01*
X130549000Y-68690000D02*
X130549000Y-69090000D01*
G75*
G02*
X130499000Y-69140000I-50000J0D01*
G01*
X129749000Y-69140000D01*
G75*
G02*
X129699000Y-69090000I0J50000D01*
G01*
X129699000Y-68690000D01*
G75*
G02*
X129749000Y-68640000I50000J0D01*
G01*
X130499000Y-68640000D01*
G75*
G02*
X130549000Y-68690000I0J-50000D01*
G01*
G37*
G36*
G01*
X130549000Y-69990000D02*
X130549000Y-70390000D01*
G75*
G02*
X130499000Y-70440000I-50000J0D01*
G01*
X129749000Y-70440000D01*
G75*
G02*
X129699000Y-70390000I0J50000D01*
G01*
X129699000Y-69990000D01*
G75*
G02*
X129749000Y-69940000I50000J0D01*
G01*
X130499000Y-69940000D01*
G75*
G02*
X130549000Y-69990000I0J-50000D01*
G01*
G37*
G36*
G01*
X130549000Y-68040000D02*
X130549000Y-68440000D01*
G75*
G02*
X130499000Y-68490000I-50000J0D01*
G01*
X129749000Y-68490000D01*
G75*
G02*
X129699000Y-68440000I0J50000D01*
G01*
X129699000Y-68040000D01*
G75*
G02*
X129749000Y-67990000I50000J0D01*
G01*
X130499000Y-67990000D01*
G75*
G02*
X130549000Y-68040000I0J-50000D01*
G01*
G37*
%TD*%
%TO.C,Q3*%
G36*
G01*
X127388000Y-81312000D02*
X127388000Y-80912000D01*
G75*
G02*
X127438000Y-80862000I50000J0D01*
G01*
X128188000Y-80862000D01*
G75*
G02*
X128238000Y-80912000I0J-50000D01*
G01*
X128238000Y-81312000D01*
G75*
G02*
X128188000Y-81362000I-50000J0D01*
G01*
X127438000Y-81362000D01*
G75*
G02*
X127388000Y-81312000I0J50000D01*
G01*
G37*
G36*
G01*
X127388000Y-79362000D02*
X127388000Y-78962000D01*
G75*
G02*
X127438000Y-78912000I50000J0D01*
G01*
X128188000Y-78912000D01*
G75*
G02*
X128238000Y-78962000I0J-50000D01*
G01*
X128238000Y-79362000D01*
G75*
G02*
X128188000Y-79412000I-50000J0D01*
G01*
X127438000Y-79412000D01*
G75*
G02*
X127388000Y-79362000I0J50000D01*
G01*
G37*
G36*
G01*
X127388000Y-80662000D02*
X127388000Y-80262000D01*
G75*
G02*
X127438000Y-80212000I50000J0D01*
G01*
X128188000Y-80212000D01*
G75*
G02*
X128238000Y-80262000I0J-50000D01*
G01*
X128238000Y-80662000D01*
G75*
G02*
X128188000Y-80712000I-50000J0D01*
G01*
X127438000Y-80712000D01*
G75*
G02*
X127388000Y-80662000I0J50000D01*
G01*
G37*
G36*
G01*
X124238000Y-80662000D02*
X124238000Y-80262000D01*
G75*
G02*
X124288000Y-80212000I50000J0D01*
G01*
X125118000Y-80212000D01*
G75*
G02*
X125168000Y-80262000I0J-50000D01*
G01*
X125168000Y-80662000D01*
G75*
G02*
X125118000Y-80712000I-50000J0D01*
G01*
X124288000Y-80712000D01*
G75*
G02*
X124238000Y-80662000I0J50000D01*
G01*
G37*
G36*
G01*
X124238000Y-81312000D02*
X124238000Y-80912000D01*
G75*
G02*
X124288000Y-80862000I50000J0D01*
G01*
X125118000Y-80862000D01*
G75*
G02*
X125168000Y-80912000I0J-50000D01*
G01*
X125168000Y-81312000D01*
G75*
G02*
X125118000Y-81362000I-50000J0D01*
G01*
X124288000Y-81362000D01*
G75*
G02*
X124238000Y-81312000I0J50000D01*
G01*
G37*
G36*
G01*
X124238000Y-80012000D02*
X124238000Y-79612000D01*
G75*
G02*
X124288000Y-79562000I50000J0D01*
G01*
X125118000Y-79562000D01*
G75*
G02*
X125168000Y-79612000I0J-50000D01*
G01*
X125168000Y-80012000D01*
G75*
G02*
X125118000Y-80062000I-50000J0D01*
G01*
X124288000Y-80062000D01*
G75*
G02*
X124238000Y-80012000I0J50000D01*
G01*
G37*
G36*
G01*
X125668000Y-81262000D02*
X125668000Y-79012000D01*
G75*
G02*
X125718000Y-78962000I50000J0D01*
G01*
X127568000Y-78962000D01*
G75*
G02*
X127618000Y-79012000I0J-50000D01*
G01*
X127618000Y-81262000D01*
G75*
G02*
X127568000Y-81312000I-50000J0D01*
G01*
X125718000Y-81312000D01*
G75*
G02*
X125668000Y-81262000I0J50000D01*
G01*
G37*
G36*
G01*
X127388000Y-80012000D02*
X127388000Y-79612000D01*
G75*
G02*
X127438000Y-79562000I50000J0D01*
G01*
X128188000Y-79562000D01*
G75*
G02*
X128238000Y-79612000I0J-50000D01*
G01*
X128238000Y-80012000D01*
G75*
G02*
X128188000Y-80062000I-50000J0D01*
G01*
X127438000Y-80062000D01*
G75*
G02*
X127388000Y-80012000I0J50000D01*
G01*
G37*
G36*
G01*
X124238000Y-79362000D02*
X124238000Y-78962000D01*
G75*
G02*
X124288000Y-78912000I50000J0D01*
G01*
X125118000Y-78912000D01*
G75*
G02*
X125168000Y-78962000I0J-50000D01*
G01*
X125168000Y-79362000D01*
G75*
G02*
X125118000Y-79412000I-50000J0D01*
G01*
X124288000Y-79412000D01*
G75*
G02*
X124238000Y-79362000I0J50000D01*
G01*
G37*
%TD*%
%TO.C,Q4*%
G36*
G01*
X120618000Y-81287000D02*
X121018000Y-81287000D01*
G75*
G02*
X121068000Y-81337000I0J-50000D01*
G01*
X121068000Y-82087000D01*
G75*
G02*
X121018000Y-82137000I-50000J0D01*
G01*
X120618000Y-82137000D01*
G75*
G02*
X120568000Y-82087000I0J50000D01*
G01*
X120568000Y-81337000D01*
G75*
G02*
X120618000Y-81287000I50000J0D01*
G01*
G37*
G36*
G01*
X122568000Y-81287000D02*
X122968000Y-81287000D01*
G75*
G02*
X123018000Y-81337000I0J-50000D01*
G01*
X123018000Y-82087000D01*
G75*
G02*
X122968000Y-82137000I-50000J0D01*
G01*
X122568000Y-82137000D01*
G75*
G02*
X122518000Y-82087000I0J50000D01*
G01*
X122518000Y-81337000D01*
G75*
G02*
X122568000Y-81287000I50000J0D01*
G01*
G37*
G36*
G01*
X121268000Y-81287000D02*
X121668000Y-81287000D01*
G75*
G02*
X121718000Y-81337000I0J-50000D01*
G01*
X121718000Y-82087000D01*
G75*
G02*
X121668000Y-82137000I-50000J0D01*
G01*
X121268000Y-82137000D01*
G75*
G02*
X121218000Y-82087000I0J50000D01*
G01*
X121218000Y-81337000D01*
G75*
G02*
X121268000Y-81287000I50000J0D01*
G01*
G37*
G36*
G01*
X121268000Y-78137000D02*
X121668000Y-78137000D01*
G75*
G02*
X121718000Y-78187000I0J-50000D01*
G01*
X121718000Y-79017000D01*
G75*
G02*
X121668000Y-79067000I-50000J0D01*
G01*
X121268000Y-79067000D01*
G75*
G02*
X121218000Y-79017000I0J50000D01*
G01*
X121218000Y-78187000D01*
G75*
G02*
X121268000Y-78137000I50000J0D01*
G01*
G37*
G36*
G01*
X120618000Y-78137000D02*
X121018000Y-78137000D01*
G75*
G02*
X121068000Y-78187000I0J-50000D01*
G01*
X121068000Y-79017000D01*
G75*
G02*
X121018000Y-79067000I-50000J0D01*
G01*
X120618000Y-79067000D01*
G75*
G02*
X120568000Y-79017000I0J50000D01*
G01*
X120568000Y-78187000D01*
G75*
G02*
X120618000Y-78137000I50000J0D01*
G01*
G37*
G36*
G01*
X121918000Y-78137000D02*
X122318000Y-78137000D01*
G75*
G02*
X122368000Y-78187000I0J-50000D01*
G01*
X122368000Y-79017000D01*
G75*
G02*
X122318000Y-79067000I-50000J0D01*
G01*
X121918000Y-79067000D01*
G75*
G02*
X121868000Y-79017000I0J50000D01*
G01*
X121868000Y-78187000D01*
G75*
G02*
X121918000Y-78137000I50000J0D01*
G01*
G37*
G36*
G01*
X120668000Y-79567000D02*
X122918000Y-79567000D01*
G75*
G02*
X122968000Y-79617000I0J-50000D01*
G01*
X122968000Y-81467000D01*
G75*
G02*
X122918000Y-81517000I-50000J0D01*
G01*
X120668000Y-81517000D01*
G75*
G02*
X120618000Y-81467000I0J50000D01*
G01*
X120618000Y-79617000D01*
G75*
G02*
X120668000Y-79567000I50000J0D01*
G01*
G37*
G36*
G01*
X121918000Y-81287000D02*
X122318000Y-81287000D01*
G75*
G02*
X122368000Y-81337000I0J-50000D01*
G01*
X122368000Y-82087000D01*
G75*
G02*
X122318000Y-82137000I-50000J0D01*
G01*
X121918000Y-82137000D01*
G75*
G02*
X121868000Y-82087000I0J50000D01*
G01*
X121868000Y-81337000D01*
G75*
G02*
X121918000Y-81287000I50000J0D01*
G01*
G37*
G36*
G01*
X122568000Y-78137000D02*
X122968000Y-78137000D01*
G75*
G02*
X123018000Y-78187000I0J-50000D01*
G01*
X123018000Y-79017000D01*
G75*
G02*
X122968000Y-79067000I-50000J0D01*
G01*
X122568000Y-79067000D01*
G75*
G02*
X122518000Y-79017000I0J50000D01*
G01*
X122518000Y-78187000D01*
G75*
G02*
X122568000Y-78137000I50000J0D01*
G01*
G37*
%TD*%
%TO.C,Q5*%
G36*
G01*
X124238000Y-74536000D02*
X124238000Y-74136000D01*
G75*
G02*
X124288000Y-74086000I50000J0D01*
G01*
X125118000Y-74086000D01*
G75*
G02*
X125168000Y-74136000I0J-50000D01*
G01*
X125168000Y-74536000D01*
G75*
G02*
X125118000Y-74586000I-50000J0D01*
G01*
X124288000Y-74586000D01*
G75*
G02*
X124238000Y-74536000I0J50000D01*
G01*
G37*
G36*
G01*
X127388000Y-75186000D02*
X127388000Y-74786000D01*
G75*
G02*
X127438000Y-74736000I50000J0D01*
G01*
X128188000Y-74736000D01*
G75*
G02*
X128238000Y-74786000I0J-50000D01*
G01*
X128238000Y-75186000D01*
G75*
G02*
X128188000Y-75236000I-50000J0D01*
G01*
X127438000Y-75236000D01*
G75*
G02*
X127388000Y-75186000I0J50000D01*
G01*
G37*
G36*
G01*
X125668000Y-76436000D02*
X125668000Y-74186000D01*
G75*
G02*
X125718000Y-74136000I50000J0D01*
G01*
X127568000Y-74136000D01*
G75*
G02*
X127618000Y-74186000I0J-50000D01*
G01*
X127618000Y-76436000D01*
G75*
G02*
X127568000Y-76486000I-50000J0D01*
G01*
X125718000Y-76486000D01*
G75*
G02*
X125668000Y-76436000I0J50000D01*
G01*
G37*
G36*
G01*
X124238000Y-75186000D02*
X124238000Y-74786000D01*
G75*
G02*
X124288000Y-74736000I50000J0D01*
G01*
X125118000Y-74736000D01*
G75*
G02*
X125168000Y-74786000I0J-50000D01*
G01*
X125168000Y-75186000D01*
G75*
G02*
X125118000Y-75236000I-50000J0D01*
G01*
X124288000Y-75236000D01*
G75*
G02*
X124238000Y-75186000I0J50000D01*
G01*
G37*
G36*
G01*
X124238000Y-76486000D02*
X124238000Y-76086000D01*
G75*
G02*
X124288000Y-76036000I50000J0D01*
G01*
X125118000Y-76036000D01*
G75*
G02*
X125168000Y-76086000I0J-50000D01*
G01*
X125168000Y-76486000D01*
G75*
G02*
X125118000Y-76536000I-50000J0D01*
G01*
X124288000Y-76536000D01*
G75*
G02*
X124238000Y-76486000I0J50000D01*
G01*
G37*
G36*
G01*
X124238000Y-75836000D02*
X124238000Y-75436000D01*
G75*
G02*
X124288000Y-75386000I50000J0D01*
G01*
X125118000Y-75386000D01*
G75*
G02*
X125168000Y-75436000I0J-50000D01*
G01*
X125168000Y-75836000D01*
G75*
G02*
X125118000Y-75886000I-50000J0D01*
G01*
X124288000Y-75886000D01*
G75*
G02*
X124238000Y-75836000I0J50000D01*
G01*
G37*
G36*
G01*
X127388000Y-75836000D02*
X127388000Y-75436000D01*
G75*
G02*
X127438000Y-75386000I50000J0D01*
G01*
X128188000Y-75386000D01*
G75*
G02*
X128238000Y-75436000I0J-50000D01*
G01*
X128238000Y-75836000D01*
G75*
G02*
X128188000Y-75886000I-50000J0D01*
G01*
X127438000Y-75886000D01*
G75*
G02*
X127388000Y-75836000I0J50000D01*
G01*
G37*
G36*
G01*
X127388000Y-74536000D02*
X127388000Y-74136000D01*
G75*
G02*
X127438000Y-74086000I50000J0D01*
G01*
X128188000Y-74086000D01*
G75*
G02*
X128238000Y-74136000I0J-50000D01*
G01*
X128238000Y-74536000D01*
G75*
G02*
X128188000Y-74586000I-50000J0D01*
G01*
X127438000Y-74586000D01*
G75*
G02*
X127388000Y-74536000I0J50000D01*
G01*
G37*
G36*
G01*
X127388000Y-76486000D02*
X127388000Y-76086000D01*
G75*
G02*
X127438000Y-76036000I50000J0D01*
G01*
X128188000Y-76036000D01*
G75*
G02*
X128238000Y-76086000I0J-50000D01*
G01*
X128238000Y-76486000D01*
G75*
G02*
X128188000Y-76536000I-50000J0D01*
G01*
X127438000Y-76536000D01*
G75*
G02*
X127388000Y-76486000I0J50000D01*
G01*
G37*
%TD*%
%TO.C,Q6*%
G36*
G01*
X122568000Y-73311000D02*
X122968000Y-73311000D01*
G75*
G02*
X123018000Y-73361000I0J-50000D01*
G01*
X123018000Y-74191000D01*
G75*
G02*
X122968000Y-74241000I-50000J0D01*
G01*
X122568000Y-74241000D01*
G75*
G02*
X122518000Y-74191000I0J50000D01*
G01*
X122518000Y-73361000D01*
G75*
G02*
X122568000Y-73311000I50000J0D01*
G01*
G37*
G36*
G01*
X121918000Y-76461000D02*
X122318000Y-76461000D01*
G75*
G02*
X122368000Y-76511000I0J-50000D01*
G01*
X122368000Y-77261000D01*
G75*
G02*
X122318000Y-77311000I-50000J0D01*
G01*
X121918000Y-77311000D01*
G75*
G02*
X121868000Y-77261000I0J50000D01*
G01*
X121868000Y-76511000D01*
G75*
G02*
X121918000Y-76461000I50000J0D01*
G01*
G37*
G36*
G01*
X120668000Y-74741000D02*
X122918000Y-74741000D01*
G75*
G02*
X122968000Y-74791000I0J-50000D01*
G01*
X122968000Y-76641000D01*
G75*
G02*
X122918000Y-76691000I-50000J0D01*
G01*
X120668000Y-76691000D01*
G75*
G02*
X120618000Y-76641000I0J50000D01*
G01*
X120618000Y-74791000D01*
G75*
G02*
X120668000Y-74741000I50000J0D01*
G01*
G37*
G36*
G01*
X121918000Y-73311000D02*
X122318000Y-73311000D01*
G75*
G02*
X122368000Y-73361000I0J-50000D01*
G01*
X122368000Y-74191000D01*
G75*
G02*
X122318000Y-74241000I-50000J0D01*
G01*
X121918000Y-74241000D01*
G75*
G02*
X121868000Y-74191000I0J50000D01*
G01*
X121868000Y-73361000D01*
G75*
G02*
X121918000Y-73311000I50000J0D01*
G01*
G37*
G36*
G01*
X120618000Y-73311000D02*
X121018000Y-73311000D01*
G75*
G02*
X121068000Y-73361000I0J-50000D01*
G01*
X121068000Y-74191000D01*
G75*
G02*
X121018000Y-74241000I-50000J0D01*
G01*
X120618000Y-74241000D01*
G75*
G02*
X120568000Y-74191000I0J50000D01*
G01*
X120568000Y-73361000D01*
G75*
G02*
X120618000Y-73311000I50000J0D01*
G01*
G37*
G36*
G01*
X121268000Y-73311000D02*
X121668000Y-73311000D01*
G75*
G02*
X121718000Y-73361000I0J-50000D01*
G01*
X121718000Y-74191000D01*
G75*
G02*
X121668000Y-74241000I-50000J0D01*
G01*
X121268000Y-74241000D01*
G75*
G02*
X121218000Y-74191000I0J50000D01*
G01*
X121218000Y-73361000D01*
G75*
G02*
X121268000Y-73311000I50000J0D01*
G01*
G37*
G36*
G01*
X121268000Y-76461000D02*
X121668000Y-76461000D01*
G75*
G02*
X121718000Y-76511000I0J-50000D01*
G01*
X121718000Y-77261000D01*
G75*
G02*
X121668000Y-77311000I-50000J0D01*
G01*
X121268000Y-77311000D01*
G75*
G02*
X121218000Y-77261000I0J50000D01*
G01*
X121218000Y-76511000D01*
G75*
G02*
X121268000Y-76461000I50000J0D01*
G01*
G37*
G36*
G01*
X122568000Y-76461000D02*
X122968000Y-76461000D01*
G75*
G02*
X123018000Y-76511000I0J-50000D01*
G01*
X123018000Y-77261000D01*
G75*
G02*
X122968000Y-77311000I-50000J0D01*
G01*
X122568000Y-77311000D01*
G75*
G02*
X122518000Y-77261000I0J50000D01*
G01*
X122518000Y-76511000D01*
G75*
G02*
X122568000Y-76461000I50000J0D01*
G01*
G37*
G36*
G01*
X120618000Y-76461000D02*
X121018000Y-76461000D01*
G75*
G02*
X121068000Y-76511000I0J-50000D01*
G01*
X121068000Y-77261000D01*
G75*
G02*
X121018000Y-77311000I-50000J0D01*
G01*
X120618000Y-77311000D01*
G75*
G02*
X120568000Y-77261000I0J50000D01*
G01*
X120568000Y-76511000D01*
G75*
G02*
X120618000Y-76461000I50000J0D01*
G01*
G37*
%TD*%
%TO.C,Q7*%
G36*
G01*
X127388000Y-71660000D02*
X127388000Y-71260000D01*
G75*
G02*
X127438000Y-71210000I50000J0D01*
G01*
X128188000Y-71210000D01*
G75*
G02*
X128238000Y-71260000I0J-50000D01*
G01*
X128238000Y-71660000D01*
G75*
G02*
X128188000Y-71710000I-50000J0D01*
G01*
X127438000Y-71710000D01*
G75*
G02*
X127388000Y-71660000I0J50000D01*
G01*
G37*
G36*
G01*
X127388000Y-69710000D02*
X127388000Y-69310000D01*
G75*
G02*
X127438000Y-69260000I50000J0D01*
G01*
X128188000Y-69260000D01*
G75*
G02*
X128238000Y-69310000I0J-50000D01*
G01*
X128238000Y-69710000D01*
G75*
G02*
X128188000Y-69760000I-50000J0D01*
G01*
X127438000Y-69760000D01*
G75*
G02*
X127388000Y-69710000I0J50000D01*
G01*
G37*
G36*
G01*
X127388000Y-71010000D02*
X127388000Y-70610000D01*
G75*
G02*
X127438000Y-70560000I50000J0D01*
G01*
X128188000Y-70560000D01*
G75*
G02*
X128238000Y-70610000I0J-50000D01*
G01*
X128238000Y-71010000D01*
G75*
G02*
X128188000Y-71060000I-50000J0D01*
G01*
X127438000Y-71060000D01*
G75*
G02*
X127388000Y-71010000I0J50000D01*
G01*
G37*
G36*
G01*
X124238000Y-71010000D02*
X124238000Y-70610000D01*
G75*
G02*
X124288000Y-70560000I50000J0D01*
G01*
X125118000Y-70560000D01*
G75*
G02*
X125168000Y-70610000I0J-50000D01*
G01*
X125168000Y-71010000D01*
G75*
G02*
X125118000Y-71060000I-50000J0D01*
G01*
X124288000Y-71060000D01*
G75*
G02*
X124238000Y-71010000I0J50000D01*
G01*
G37*
G36*
G01*
X124238000Y-71660000D02*
X124238000Y-71260000D01*
G75*
G02*
X124288000Y-71210000I50000J0D01*
G01*
X125118000Y-71210000D01*
G75*
G02*
X125168000Y-71260000I0J-50000D01*
G01*
X125168000Y-71660000D01*
G75*
G02*
X125118000Y-71710000I-50000J0D01*
G01*
X124288000Y-71710000D01*
G75*
G02*
X124238000Y-71660000I0J50000D01*
G01*
G37*
G36*
G01*
X124238000Y-70360000D02*
X124238000Y-69960000D01*
G75*
G02*
X124288000Y-69910000I50000J0D01*
G01*
X125118000Y-69910000D01*
G75*
G02*
X125168000Y-69960000I0J-50000D01*
G01*
X125168000Y-70360000D01*
G75*
G02*
X125118000Y-70410000I-50000J0D01*
G01*
X124288000Y-70410000D01*
G75*
G02*
X124238000Y-70360000I0J50000D01*
G01*
G37*
G36*
G01*
X125668000Y-71610000D02*
X125668000Y-69360000D01*
G75*
G02*
X125718000Y-69310000I50000J0D01*
G01*
X127568000Y-69310000D01*
G75*
G02*
X127618000Y-69360000I0J-50000D01*
G01*
X127618000Y-71610000D01*
G75*
G02*
X127568000Y-71660000I-50000J0D01*
G01*
X125718000Y-71660000D01*
G75*
G02*
X125668000Y-71610000I0J50000D01*
G01*
G37*
G36*
G01*
X127388000Y-70360000D02*
X127388000Y-69960000D01*
G75*
G02*
X127438000Y-69910000I50000J0D01*
G01*
X128188000Y-69910000D01*
G75*
G02*
X128238000Y-69960000I0J-50000D01*
G01*
X128238000Y-70360000D01*
G75*
G02*
X128188000Y-70410000I-50000J0D01*
G01*
X127438000Y-70410000D01*
G75*
G02*
X127388000Y-70360000I0J50000D01*
G01*
G37*
G36*
G01*
X124238000Y-69710000D02*
X124238000Y-69310000D01*
G75*
G02*
X124288000Y-69260000I50000J0D01*
G01*
X125118000Y-69260000D01*
G75*
G02*
X125168000Y-69310000I0J-50000D01*
G01*
X125168000Y-69710000D01*
G75*
G02*
X125118000Y-69760000I-50000J0D01*
G01*
X124288000Y-69760000D01*
G75*
G02*
X124238000Y-69710000I0J50000D01*
G01*
G37*
%TD*%
%TO.C,Q8*%
G36*
G01*
X120618000Y-71635000D02*
X121018000Y-71635000D01*
G75*
G02*
X121068000Y-71685000I0J-50000D01*
G01*
X121068000Y-72435000D01*
G75*
G02*
X121018000Y-72485000I-50000J0D01*
G01*
X120618000Y-72485000D01*
G75*
G02*
X120568000Y-72435000I0J50000D01*
G01*
X120568000Y-71685000D01*
G75*
G02*
X120618000Y-71635000I50000J0D01*
G01*
G37*
G36*
G01*
X122568000Y-71635000D02*
X122968000Y-71635000D01*
G75*
G02*
X123018000Y-71685000I0J-50000D01*
G01*
X123018000Y-72435000D01*
G75*
G02*
X122968000Y-72485000I-50000J0D01*
G01*
X122568000Y-72485000D01*
G75*
G02*
X122518000Y-72435000I0J50000D01*
G01*
X122518000Y-71685000D01*
G75*
G02*
X122568000Y-71635000I50000J0D01*
G01*
G37*
G36*
G01*
X121268000Y-71635000D02*
X121668000Y-71635000D01*
G75*
G02*
X121718000Y-71685000I0J-50000D01*
G01*
X121718000Y-72435000D01*
G75*
G02*
X121668000Y-72485000I-50000J0D01*
G01*
X121268000Y-72485000D01*
G75*
G02*
X121218000Y-72435000I0J50000D01*
G01*
X121218000Y-71685000D01*
G75*
G02*
X121268000Y-71635000I50000J0D01*
G01*
G37*
G36*
G01*
X121268000Y-68485000D02*
X121668000Y-68485000D01*
G75*
G02*
X121718000Y-68535000I0J-50000D01*
G01*
X121718000Y-69365000D01*
G75*
G02*
X121668000Y-69415000I-50000J0D01*
G01*
X121268000Y-69415000D01*
G75*
G02*
X121218000Y-69365000I0J50000D01*
G01*
X121218000Y-68535000D01*
G75*
G02*
X121268000Y-68485000I50000J0D01*
G01*
G37*
G36*
G01*
X120618000Y-68485000D02*
X121018000Y-68485000D01*
G75*
G02*
X121068000Y-68535000I0J-50000D01*
G01*
X121068000Y-69365000D01*
G75*
G02*
X121018000Y-69415000I-50000J0D01*
G01*
X120618000Y-69415000D01*
G75*
G02*
X120568000Y-69365000I0J50000D01*
G01*
X120568000Y-68535000D01*
G75*
G02*
X120618000Y-68485000I50000J0D01*
G01*
G37*
G36*
G01*
X121918000Y-68485000D02*
X122318000Y-68485000D01*
G75*
G02*
X122368000Y-68535000I0J-50000D01*
G01*
X122368000Y-69365000D01*
G75*
G02*
X122318000Y-69415000I-50000J0D01*
G01*
X121918000Y-69415000D01*
G75*
G02*
X121868000Y-69365000I0J50000D01*
G01*
X121868000Y-68535000D01*
G75*
G02*
X121918000Y-68485000I50000J0D01*
G01*
G37*
G36*
G01*
X120668000Y-69915000D02*
X122918000Y-69915000D01*
G75*
G02*
X122968000Y-69965000I0J-50000D01*
G01*
X122968000Y-71815000D01*
G75*
G02*
X122918000Y-71865000I-50000J0D01*
G01*
X120668000Y-71865000D01*
G75*
G02*
X120618000Y-71815000I0J50000D01*
G01*
X120618000Y-69965000D01*
G75*
G02*
X120668000Y-69915000I50000J0D01*
G01*
G37*
G36*
G01*
X121918000Y-71635000D02*
X122318000Y-71635000D01*
G75*
G02*
X122368000Y-71685000I0J-50000D01*
G01*
X122368000Y-72435000D01*
G75*
G02*
X122318000Y-72485000I-50000J0D01*
G01*
X121918000Y-72485000D01*
G75*
G02*
X121868000Y-72435000I0J50000D01*
G01*
X121868000Y-71685000D01*
G75*
G02*
X121918000Y-71635000I50000J0D01*
G01*
G37*
G36*
G01*
X122568000Y-68485000D02*
X122968000Y-68485000D01*
G75*
G02*
X123018000Y-68535000I0J-50000D01*
G01*
X123018000Y-69365000D01*
G75*
G02*
X122968000Y-69415000I-50000J0D01*
G01*
X122568000Y-69415000D01*
G75*
G02*
X122518000Y-69365000I0J50000D01*
G01*
X122518000Y-68535000D01*
G75*
G02*
X122568000Y-68485000I50000J0D01*
G01*
G37*
%TD*%
%TO.C,Q9*%
G36*
G01*
X124238000Y-83680000D02*
X124238000Y-83280000D01*
G75*
G02*
X124288000Y-83230000I50000J0D01*
G01*
X125118000Y-83230000D01*
G75*
G02*
X125168000Y-83280000I0J-50000D01*
G01*
X125168000Y-83680000D01*
G75*
G02*
X125118000Y-83730000I-50000J0D01*
G01*
X124288000Y-83730000D01*
G75*
G02*
X124238000Y-83680000I0J50000D01*
G01*
G37*
G36*
G01*
X127388000Y-84330000D02*
X127388000Y-83930000D01*
G75*
G02*
X127438000Y-83880000I50000J0D01*
G01*
X128188000Y-83880000D01*
G75*
G02*
X128238000Y-83930000I0J-50000D01*
G01*
X128238000Y-84330000D01*
G75*
G02*
X128188000Y-84380000I-50000J0D01*
G01*
X127438000Y-84380000D01*
G75*
G02*
X127388000Y-84330000I0J50000D01*
G01*
G37*
G36*
G01*
X125668000Y-85580000D02*
X125668000Y-83330000D01*
G75*
G02*
X125718000Y-83280000I50000J0D01*
G01*
X127568000Y-83280000D01*
G75*
G02*
X127618000Y-83330000I0J-50000D01*
G01*
X127618000Y-85580000D01*
G75*
G02*
X127568000Y-85630000I-50000J0D01*
G01*
X125718000Y-85630000D01*
G75*
G02*
X125668000Y-85580000I0J50000D01*
G01*
G37*
G36*
G01*
X124238000Y-84330000D02*
X124238000Y-83930000D01*
G75*
G02*
X124288000Y-83880000I50000J0D01*
G01*
X125118000Y-83880000D01*
G75*
G02*
X125168000Y-83930000I0J-50000D01*
G01*
X125168000Y-84330000D01*
G75*
G02*
X125118000Y-84380000I-50000J0D01*
G01*
X124288000Y-84380000D01*
G75*
G02*
X124238000Y-84330000I0J50000D01*
G01*
G37*
G36*
G01*
X124238000Y-85630000D02*
X124238000Y-85230000D01*
G75*
G02*
X124288000Y-85180000I50000J0D01*
G01*
X125118000Y-85180000D01*
G75*
G02*
X125168000Y-85230000I0J-50000D01*
G01*
X125168000Y-85630000D01*
G75*
G02*
X125118000Y-85680000I-50000J0D01*
G01*
X124288000Y-85680000D01*
G75*
G02*
X124238000Y-85630000I0J50000D01*
G01*
G37*
G36*
G01*
X124238000Y-84980000D02*
X124238000Y-84580000D01*
G75*
G02*
X124288000Y-84530000I50000J0D01*
G01*
X125118000Y-84530000D01*
G75*
G02*
X125168000Y-84580000I0J-50000D01*
G01*
X125168000Y-84980000D01*
G75*
G02*
X125118000Y-85030000I-50000J0D01*
G01*
X124288000Y-85030000D01*
G75*
G02*
X124238000Y-84980000I0J50000D01*
G01*
G37*
G36*
G01*
X127388000Y-84980000D02*
X127388000Y-84580000D01*
G75*
G02*
X127438000Y-84530000I50000J0D01*
G01*
X128188000Y-84530000D01*
G75*
G02*
X128238000Y-84580000I0J-50000D01*
G01*
X128238000Y-84980000D01*
G75*
G02*
X128188000Y-85030000I-50000J0D01*
G01*
X127438000Y-85030000D01*
G75*
G02*
X127388000Y-84980000I0J50000D01*
G01*
G37*
G36*
G01*
X127388000Y-83680000D02*
X127388000Y-83280000D01*
G75*
G02*
X127438000Y-83230000I50000J0D01*
G01*
X128188000Y-83230000D01*
G75*
G02*
X128238000Y-83280000I0J-50000D01*
G01*
X128238000Y-83680000D01*
G75*
G02*
X128188000Y-83730000I-50000J0D01*
G01*
X127438000Y-83730000D01*
G75*
G02*
X127388000Y-83680000I0J50000D01*
G01*
G37*
G36*
G01*
X127388000Y-85630000D02*
X127388000Y-85230000D01*
G75*
G02*
X127438000Y-85180000I50000J0D01*
G01*
X128188000Y-85180000D01*
G75*
G02*
X128238000Y-85230000I0J-50000D01*
G01*
X128238000Y-85630000D01*
G75*
G02*
X128188000Y-85680000I-50000J0D01*
G01*
X127438000Y-85680000D01*
G75*
G02*
X127388000Y-85630000I0J50000D01*
G01*
G37*
%TD*%
%TO.C,Q10*%
G36*
G01*
X122968000Y-84067000D02*
X122568000Y-84067000D01*
G75*
G02*
X122518000Y-84017000I0J50000D01*
G01*
X122518000Y-83267000D01*
G75*
G02*
X122568000Y-83217000I50000J0D01*
G01*
X122968000Y-83217000D01*
G75*
G02*
X123018000Y-83267000I0J-50000D01*
G01*
X123018000Y-84017000D01*
G75*
G02*
X122968000Y-84067000I-50000J0D01*
G01*
G37*
G36*
G01*
X121018000Y-84067000D02*
X120618000Y-84067000D01*
G75*
G02*
X120568000Y-84017000I0J50000D01*
G01*
X120568000Y-83267000D01*
G75*
G02*
X120618000Y-83217000I50000J0D01*
G01*
X121018000Y-83217000D01*
G75*
G02*
X121068000Y-83267000I0J-50000D01*
G01*
X121068000Y-84017000D01*
G75*
G02*
X121018000Y-84067000I-50000J0D01*
G01*
G37*
G36*
G01*
X122318000Y-84067000D02*
X121918000Y-84067000D01*
G75*
G02*
X121868000Y-84017000I0J50000D01*
G01*
X121868000Y-83267000D01*
G75*
G02*
X121918000Y-83217000I50000J0D01*
G01*
X122318000Y-83217000D01*
G75*
G02*
X122368000Y-83267000I0J-50000D01*
G01*
X122368000Y-84017000D01*
G75*
G02*
X122318000Y-84067000I-50000J0D01*
G01*
G37*
G36*
G01*
X122318000Y-87217000D02*
X121918000Y-87217000D01*
G75*
G02*
X121868000Y-87167000I0J50000D01*
G01*
X121868000Y-86337000D01*
G75*
G02*
X121918000Y-86287000I50000J0D01*
G01*
X122318000Y-86287000D01*
G75*
G02*
X122368000Y-86337000I0J-50000D01*
G01*
X122368000Y-87167000D01*
G75*
G02*
X122318000Y-87217000I-50000J0D01*
G01*
G37*
G36*
G01*
X122968000Y-87217000D02*
X122568000Y-87217000D01*
G75*
G02*
X122518000Y-87167000I0J50000D01*
G01*
X122518000Y-86337000D01*
G75*
G02*
X122568000Y-86287000I50000J0D01*
G01*
X122968000Y-86287000D01*
G75*
G02*
X123018000Y-86337000I0J-50000D01*
G01*
X123018000Y-87167000D01*
G75*
G02*
X122968000Y-87217000I-50000J0D01*
G01*
G37*
G36*
G01*
X121668000Y-87217000D02*
X121268000Y-87217000D01*
G75*
G02*
X121218000Y-87167000I0J50000D01*
G01*
X121218000Y-86337000D01*
G75*
G02*
X121268000Y-86287000I50000J0D01*
G01*
X121668000Y-86287000D01*
G75*
G02*
X121718000Y-86337000I0J-50000D01*
G01*
X121718000Y-87167000D01*
G75*
G02*
X121668000Y-87217000I-50000J0D01*
G01*
G37*
G36*
G01*
X122918000Y-85787000D02*
X120668000Y-85787000D01*
G75*
G02*
X120618000Y-85737000I0J50000D01*
G01*
X120618000Y-83887000D01*
G75*
G02*
X120668000Y-83837000I50000J0D01*
G01*
X122918000Y-83837000D01*
G75*
G02*
X122968000Y-83887000I0J-50000D01*
G01*
X122968000Y-85737000D01*
G75*
G02*
X122918000Y-85787000I-50000J0D01*
G01*
G37*
G36*
G01*
X121668000Y-84067000D02*
X121268000Y-84067000D01*
G75*
G02*
X121218000Y-84017000I0J50000D01*
G01*
X121218000Y-83267000D01*
G75*
G02*
X121268000Y-83217000I50000J0D01*
G01*
X121668000Y-83217000D01*
G75*
G02*
X121718000Y-83267000I0J-50000D01*
G01*
X121718000Y-84017000D01*
G75*
G02*
X121668000Y-84067000I-50000J0D01*
G01*
G37*
G36*
G01*
X121018000Y-87217000D02*
X120618000Y-87217000D01*
G75*
G02*
X120568000Y-87167000I0J50000D01*
G01*
X120568000Y-86337000D01*
G75*
G02*
X120618000Y-86287000I50000J0D01*
G01*
X121018000Y-86287000D01*
G75*
G02*
X121068000Y-86337000I0J-50000D01*
G01*
X121068000Y-87167000D01*
G75*
G02*
X121018000Y-87217000I-50000J0D01*
G01*
G37*
%TD*%
D20*
%TO.C,C19*%
X135128000Y-114625000D03*
D21*
X135128000Y-111125000D03*
%TD*%
%TO.C,C21*%
X103632000Y-110617000D03*
D20*
X103632000Y-114117000D03*
%TD*%
%TO.C,C23*%
G36*
G01*
X121354000Y-100272001D02*
X121354000Y-99371999D01*
G75*
G02*
X121603999Y-99122000I249999J0D01*
G01*
X122254001Y-99122000D01*
G75*
G02*
X122504000Y-99371999I0J-249999D01*
G01*
X122504000Y-100272001D01*
G75*
G02*
X122254001Y-100522000I-249999J0D01*
G01*
X121603999Y-100522000D01*
G75*
G02*
X121354000Y-100272001I0J249999D01*
G01*
G37*
G36*
G01*
X119304000Y-100272001D02*
X119304000Y-99371999D01*
G75*
G02*
X119553999Y-99122000I249999J0D01*
G01*
X120204001Y-99122000D01*
G75*
G02*
X120454000Y-99371999I0J-249999D01*
G01*
X120454000Y-100272001D01*
G75*
G02*
X120204001Y-100522000I-249999J0D01*
G01*
X119553999Y-100522000D01*
G75*
G02*
X119304000Y-100272001I0J249999D01*
G01*
G37*
%TD*%
%TO.C,C24*%
G36*
G01*
X159061999Y-67361000D02*
X159962001Y-67361000D01*
G75*
G02*
X160212000Y-67610999I0J-249999D01*
G01*
X160212000Y-68261001D01*
G75*
G02*
X159962001Y-68511000I-249999J0D01*
G01*
X159061999Y-68511000D01*
G75*
G02*
X158812000Y-68261001I0J249999D01*
G01*
X158812000Y-67610999D01*
G75*
G02*
X159061999Y-67361000I249999J0D01*
G01*
G37*
G36*
G01*
X159061999Y-69411000D02*
X159962001Y-69411000D01*
G75*
G02*
X160212000Y-69660999I0J-249999D01*
G01*
X160212000Y-70311001D01*
G75*
G02*
X159962001Y-70561000I-249999J0D01*
G01*
X159061999Y-70561000D01*
G75*
G02*
X158812000Y-70311001I0J249999D01*
G01*
X158812000Y-69660999D01*
G75*
G02*
X159061999Y-69411000I249999J0D01*
G01*
G37*
%TD*%
%TO.C,C25*%
G36*
G01*
X152838999Y-69411000D02*
X153739001Y-69411000D01*
G75*
G02*
X153989000Y-69660999I0J-249999D01*
G01*
X153989000Y-70311001D01*
G75*
G02*
X153739001Y-70561000I-249999J0D01*
G01*
X152838999Y-70561000D01*
G75*
G02*
X152589000Y-70311001I0J249999D01*
G01*
X152589000Y-69660999D01*
G75*
G02*
X152838999Y-69411000I249999J0D01*
G01*
G37*
G36*
G01*
X152838999Y-67361000D02*
X153739001Y-67361000D01*
G75*
G02*
X153989000Y-67610999I0J-249999D01*
G01*
X153989000Y-68261001D01*
G75*
G02*
X153739001Y-68511000I-249999J0D01*
G01*
X152838999Y-68511000D01*
G75*
G02*
X152589000Y-68261001I0J249999D01*
G01*
X152589000Y-67610999D01*
G75*
G02*
X152838999Y-67361000I249999J0D01*
G01*
G37*
%TD*%
%TO.C,C29*%
G36*
G01*
X170757001Y-75496000D02*
X169856999Y-75496000D01*
G75*
G02*
X169607000Y-75246001I0J249999D01*
G01*
X169607000Y-74595999D01*
G75*
G02*
X169856999Y-74346000I249999J0D01*
G01*
X170757001Y-74346000D01*
G75*
G02*
X171007000Y-74595999I0J-249999D01*
G01*
X171007000Y-75246001D01*
G75*
G02*
X170757001Y-75496000I-249999J0D01*
G01*
G37*
G36*
G01*
X170757001Y-77546000D02*
X169856999Y-77546000D01*
G75*
G02*
X169607000Y-77296001I0J249999D01*
G01*
X169607000Y-76645999D01*
G75*
G02*
X169856999Y-76396000I249999J0D01*
G01*
X170757001Y-76396000D01*
G75*
G02*
X171007000Y-76645999I0J-249999D01*
G01*
X171007000Y-77296001D01*
G75*
G02*
X170757001Y-77546000I-249999J0D01*
G01*
G37*
%TD*%
%TO.C,C33*%
G36*
G01*
X168979001Y-80313000D02*
X168078999Y-80313000D01*
G75*
G02*
X167829000Y-80063001I0J249999D01*
G01*
X167829000Y-79412999D01*
G75*
G02*
X168078999Y-79163000I249999J0D01*
G01*
X168979001Y-79163000D01*
G75*
G02*
X169229000Y-79412999I0J-249999D01*
G01*
X169229000Y-80063001D01*
G75*
G02*
X168979001Y-80313000I-249999J0D01*
G01*
G37*
G36*
G01*
X168979001Y-82363000D02*
X168078999Y-82363000D01*
G75*
G02*
X167829000Y-82113001I0J249999D01*
G01*
X167829000Y-81462999D01*
G75*
G02*
X168078999Y-81213000I249999J0D01*
G01*
X168979001Y-81213000D01*
G75*
G02*
X169229000Y-81462999I0J-249999D01*
G01*
X169229000Y-82113001D01*
G75*
G02*
X168979001Y-82363000I-249999J0D01*
G01*
G37*
%TD*%
%TO.C,J3*%
G36*
G01*
X146142000Y-121675999D02*
X146142000Y-122926001D01*
G75*
G02*
X145892001Y-123176000I-249999J0D01*
G01*
X145191999Y-123176000D01*
G75*
G02*
X144942000Y-122926001I0J249999D01*
G01*
X144942000Y-121675999D01*
G75*
G02*
X145191999Y-121426000I249999J0D01*
G01*
X145892001Y-121426000D01*
G75*
G02*
X146142000Y-121675999I0J-249999D01*
G01*
G37*
D17*
X143542000Y-122301000D03*
X141542000Y-122301000D03*
X139542000Y-122301000D03*
%TD*%
D22*
%TO.C,JP1*%
X142621000Y-60452000D03*
D23*
X145161000Y-60452000D03*
%TD*%
D22*
%TO.C,JP2*%
X165608000Y-60452000D03*
D23*
X163068000Y-60452000D03*
%TD*%
%TO.C,JP3*%
X145161000Y-62992000D03*
D22*
X142621000Y-62992000D03*
%TD*%
D23*
%TO.C,JP4*%
X163068000Y-62992000D03*
D22*
X165608000Y-62992000D03*
%TD*%
%TO.C,R21*%
G36*
G01*
X150679999Y-67361000D02*
X151580001Y-67361000D01*
G75*
G02*
X151830000Y-67610999I0J-249999D01*
G01*
X151830000Y-68261001D01*
G75*
G02*
X151580001Y-68511000I-249999J0D01*
G01*
X150679999Y-68511000D01*
G75*
G02*
X150430000Y-68261001I0J249999D01*
G01*
X150430000Y-67610999D01*
G75*
G02*
X150679999Y-67361000I249999J0D01*
G01*
G37*
G36*
G01*
X150679999Y-69411000D02*
X151580001Y-69411000D01*
G75*
G02*
X151830000Y-69660999I0J-249999D01*
G01*
X151830000Y-70311001D01*
G75*
G02*
X151580001Y-70561000I-249999J0D01*
G01*
X150679999Y-70561000D01*
G75*
G02*
X150430000Y-70311001I0J249999D01*
G01*
X150430000Y-69660999D01*
G75*
G02*
X150679999Y-69411000I249999J0D01*
G01*
G37*
%TD*%
%TO.C,R22*%
G36*
G01*
X157029999Y-69411000D02*
X157930001Y-69411000D01*
G75*
G02*
X158180000Y-69660999I0J-249999D01*
G01*
X158180000Y-70311001D01*
G75*
G02*
X157930001Y-70561000I-249999J0D01*
G01*
X157029999Y-70561000D01*
G75*
G02*
X156780000Y-70311001I0J249999D01*
G01*
X156780000Y-69660999D01*
G75*
G02*
X157029999Y-69411000I249999J0D01*
G01*
G37*
G36*
G01*
X157029999Y-67361000D02*
X157930001Y-67361000D01*
G75*
G02*
X158180000Y-67610999I0J-249999D01*
G01*
X158180000Y-68261001D01*
G75*
G02*
X157930001Y-68511000I-249999J0D01*
G01*
X157029999Y-68511000D01*
G75*
G02*
X156780000Y-68261001I0J249999D01*
G01*
X156780000Y-67610999D01*
G75*
G02*
X157029999Y-67361000I249999J0D01*
G01*
G37*
%TD*%
%TO.C,R33*%
G36*
G01*
X148647999Y-67361000D02*
X149548001Y-67361000D01*
G75*
G02*
X149798000Y-67610999I0J-249999D01*
G01*
X149798000Y-68261001D01*
G75*
G02*
X149548001Y-68511000I-249999J0D01*
G01*
X148647999Y-68511000D01*
G75*
G02*
X148398000Y-68261001I0J249999D01*
G01*
X148398000Y-67610999D01*
G75*
G02*
X148647999Y-67361000I249999J0D01*
G01*
G37*
G36*
G01*
X148647999Y-69411000D02*
X149548001Y-69411000D01*
G75*
G02*
X149798000Y-69660999I0J-249999D01*
G01*
X149798000Y-70311001D01*
G75*
G02*
X149548001Y-70561000I-249999J0D01*
G01*
X148647999Y-70561000D01*
G75*
G02*
X148398000Y-70311001I0J249999D01*
G01*
X148398000Y-69660999D01*
G75*
G02*
X148647999Y-69411000I249999J0D01*
G01*
G37*
%TD*%
%TO.C,R34*%
G36*
G01*
X154997999Y-67361000D02*
X155898001Y-67361000D01*
G75*
G02*
X156148000Y-67610999I0J-249999D01*
G01*
X156148000Y-68261001D01*
G75*
G02*
X155898001Y-68511000I-249999J0D01*
G01*
X154997999Y-68511000D01*
G75*
G02*
X154748000Y-68261001I0J249999D01*
G01*
X154748000Y-67610999D01*
G75*
G02*
X154997999Y-67361000I249999J0D01*
G01*
G37*
G36*
G01*
X154997999Y-69411000D02*
X155898001Y-69411000D01*
G75*
G02*
X156148000Y-69660999I0J-249999D01*
G01*
X156148000Y-70311001D01*
G75*
G02*
X155898001Y-70561000I-249999J0D01*
G01*
X154997999Y-70561000D01*
G75*
G02*
X154748000Y-70311001I0J249999D01*
G01*
X154748000Y-69660999D01*
G75*
G02*
X154997999Y-69411000I249999J0D01*
G01*
G37*
%TD*%
%TO.C,C42*%
G36*
G01*
X147758999Y-103574000D02*
X148659001Y-103574000D01*
G75*
G02*
X148909000Y-103823999I0J-249999D01*
G01*
X148909000Y-104474001D01*
G75*
G02*
X148659001Y-104724000I-249999J0D01*
G01*
X147758999Y-104724000D01*
G75*
G02*
X147509000Y-104474001I0J249999D01*
G01*
X147509000Y-103823999D01*
G75*
G02*
X147758999Y-103574000I249999J0D01*
G01*
G37*
G36*
G01*
X147758999Y-101524000D02*
X148659001Y-101524000D01*
G75*
G02*
X148909000Y-101773999I0J-249999D01*
G01*
X148909000Y-102424001D01*
G75*
G02*
X148659001Y-102674000I-249999J0D01*
G01*
X147758999Y-102674000D01*
G75*
G02*
X147509000Y-102424001I0J249999D01*
G01*
X147509000Y-101773999D01*
G75*
G02*
X147758999Y-101524000I249999J0D01*
G01*
G37*
%TD*%
%TO.C,J4*%
X151384000Y-99187000D03*
D23*
X151384000Y-101727000D03*
X151384000Y-104267000D03*
X151384000Y-106807000D03*
%TD*%
D22*
%TO.C,J7*%
X186690000Y-86233000D03*
D23*
X186690000Y-88773000D03*
X184150000Y-86233000D03*
X184150000Y-88773000D03*
X181610000Y-86233000D03*
X181610000Y-88773000D03*
X179070000Y-86233000D03*
X179070000Y-88773000D03*
%TD*%
D22*
%TO.C,J8*%
X168656000Y-120015000D03*
D23*
X168656000Y-117475000D03*
X171196000Y-120015000D03*
X171196000Y-117475000D03*
X173736000Y-120015000D03*
X173736000Y-117475000D03*
X176276000Y-120015000D03*
X176276000Y-117475000D03*
X178816000Y-120015000D03*
X178816000Y-117475000D03*
%TD*%
D24*
%TO.C,TP1*%
X174752000Y-111379000D03*
%TD*%
D22*
%TO.C,J9*%
X155575000Y-93980000D03*
D23*
X155575000Y-96520000D03*
%TD*%
%TO.C,C43*%
G36*
G01*
X155860000Y-101489500D02*
X155860000Y-101964500D01*
G75*
G02*
X155622500Y-102202000I-237500J0D01*
G01*
X155047500Y-102202000D01*
G75*
G02*
X154810000Y-101964500I0J237500D01*
G01*
X154810000Y-101489500D01*
G75*
G02*
X155047500Y-101252000I237500J0D01*
G01*
X155622500Y-101252000D01*
G75*
G02*
X155860000Y-101489500I0J-237500D01*
G01*
G37*
G36*
G01*
X157610000Y-101489500D02*
X157610000Y-101964500D01*
G75*
G02*
X157372500Y-102202000I-237500J0D01*
G01*
X156797500Y-102202000D01*
G75*
G02*
X156560000Y-101964500I0J237500D01*
G01*
X156560000Y-101489500D01*
G75*
G02*
X156797500Y-101252000I237500J0D01*
G01*
X157372500Y-101252000D01*
G75*
G02*
X157610000Y-101489500I0J-237500D01*
G01*
G37*
%TD*%
D22*
%TO.C,J5*%
X97409000Y-106553000D03*
D23*
X97409000Y-109093000D03*
X97409000Y-111633000D03*
X97409000Y-114173000D03*
X97409000Y-116713000D03*
%TD*%
%TO.C,J10*%
X141478000Y-116713000D03*
X141478000Y-114173000D03*
X141478000Y-111633000D03*
X141478000Y-109093000D03*
D22*
X141478000Y-106553000D03*
%TD*%
M02*
