%TF.GenerationSoftware,KiCad,Pcbnew,(5.1.12)-1*%
%TF.CreationDate,2022-03-07T22:28:18-06:00*%
%TF.ProjectId,Power_Board,506f7765-725f-4426-9f61-72642e6b6963,rev?*%
%TF.SameCoordinates,Original*%
%TF.FileFunction,Legend,Top*%
%TF.FilePolarity,Positive*%
%FSLAX46Y46*%
G04 Gerber Fmt 4.6, Leading zero omitted, Abs format (unit mm)*
G04 Created by KiCad (PCBNEW (5.1.12)-1) date 2022-03-07 22:28:18*
%MOMM*%
%LPD*%
G01*
G04 APERTURE LIST*
%ADD10C,0.190500*%
%ADD11C,0.120000*%
%ADD12C,0.150000*%
G04 APERTURE END LIST*
D10*
X175205571Y-105595964D02*
X175677285Y-105595964D01*
X175423285Y-105886250D01*
X175532142Y-105886250D01*
X175604714Y-105922535D01*
X175641000Y-105958821D01*
X175677285Y-106031392D01*
X175677285Y-106212821D01*
X175641000Y-106285392D01*
X175604714Y-106321678D01*
X175532142Y-106357964D01*
X175314428Y-106357964D01*
X175241857Y-106321678D01*
X175205571Y-106285392D01*
X175895000Y-105595964D02*
X176149000Y-106357964D01*
X176403000Y-105595964D01*
X176584428Y-105595964D02*
X177056142Y-105595964D01*
X176802142Y-105886250D01*
X176911000Y-105886250D01*
X176983571Y-105922535D01*
X177019857Y-105958821D01*
X177056142Y-106031392D01*
X177056142Y-106212821D01*
X177019857Y-106285392D01*
X176983571Y-106321678D01*
X176911000Y-106357964D01*
X176693285Y-106357964D01*
X176620714Y-106321678D01*
X176584428Y-106285392D01*
X174262142Y-107655178D02*
X174371000Y-107691464D01*
X174552428Y-107691464D01*
X174625000Y-107655178D01*
X174661285Y-107618892D01*
X174697571Y-107546321D01*
X174697571Y-107473750D01*
X174661285Y-107401178D01*
X174625000Y-107364892D01*
X174552428Y-107328607D01*
X174407285Y-107292321D01*
X174334714Y-107256035D01*
X174298428Y-107219750D01*
X174262142Y-107147178D01*
X174262142Y-107074607D01*
X174298428Y-107002035D01*
X174334714Y-106965750D01*
X174407285Y-106929464D01*
X174588714Y-106929464D01*
X174697571Y-106965750D01*
X174915285Y-106929464D02*
X175350714Y-106929464D01*
X175133000Y-107691464D02*
X175133000Y-106929464D01*
X175568428Y-107473750D02*
X175931285Y-107473750D01*
X175495857Y-107691464D02*
X175749857Y-106929464D01*
X176003857Y-107691464D01*
X176149000Y-106929464D02*
X176584428Y-106929464D01*
X176366714Y-107691464D02*
X176366714Y-106929464D01*
X176838428Y-106929464D02*
X176838428Y-107546321D01*
X176874714Y-107618892D01*
X176911000Y-107655178D01*
X176983571Y-107691464D01*
X177128714Y-107691464D01*
X177201285Y-107655178D01*
X177237571Y-107618892D01*
X177273857Y-107546321D01*
X177273857Y-106929464D01*
X177600428Y-107655178D02*
X177709285Y-107691464D01*
X177890714Y-107691464D01*
X177963285Y-107655178D01*
X177999571Y-107618892D01*
X178035857Y-107546321D01*
X178035857Y-107473750D01*
X177999571Y-107401178D01*
X177963285Y-107364892D01*
X177890714Y-107328607D01*
X177745571Y-107292321D01*
X177673000Y-107256035D01*
X177636714Y-107219750D01*
X177600428Y-107147178D01*
X177600428Y-107074607D01*
X177636714Y-107002035D01*
X177673000Y-106965750D01*
X177745571Y-106929464D01*
X177927000Y-106929464D01*
X178035857Y-106965750D01*
D11*
%TO.C,C10*%
X179204252Y-82498000D02*
X178681748Y-82498000D01*
X179204252Y-81078000D02*
X178681748Y-81078000D01*
%TO.C,U4*%
X174589000Y-83204000D02*
X180599000Y-83204000D01*
X176839000Y-90024000D02*
X180599000Y-90024000D01*
X180599000Y-83204000D02*
X180599000Y-84464000D01*
X180599000Y-90024000D02*
X180599000Y-88764000D01*
%TO.C,U5*%
X113919000Y-80518000D02*
X172339000Y-80518000D01*
X113919000Y-103378000D02*
X172339000Y-103378000D01*
X113919000Y-80518000D02*
X113919000Y-103378000D01*
X172339000Y-80518000D02*
X172339000Y-103378000D01*
%TO.C,C9*%
X175533000Y-99930000D02*
X177883000Y-99930000D01*
X182353000Y-99930000D02*
X180003000Y-99930000D01*
X182353000Y-94174437D02*
X182353000Y-99930000D01*
X175533000Y-94174437D02*
X175533000Y-99930000D01*
X176597437Y-93110000D02*
X177883000Y-93110000D01*
X181288563Y-93110000D02*
X180003000Y-93110000D01*
X181288563Y-93110000D02*
X182353000Y-94174437D01*
X176597437Y-93110000D02*
X175533000Y-94174437D01*
X180790500Y-92082500D02*
X180790500Y-92870000D01*
X181184250Y-92476250D02*
X180396750Y-92476250D01*
%TO.C,C40*%
X111808000Y-87910302D02*
X111008000Y-87910302D01*
X111408000Y-87510302D02*
X111408000Y-88310302D01*
X109626000Y-96001000D02*
X108560000Y-96001000D01*
X109861000Y-95961000D02*
X108325000Y-95961000D01*
X110041000Y-95921000D02*
X108145000Y-95921000D01*
X110191000Y-95881000D02*
X107995000Y-95881000D01*
X110322000Y-95841000D02*
X107864000Y-95841000D01*
X110439000Y-95801000D02*
X107747000Y-95801000D01*
X110546000Y-95761000D02*
X107640000Y-95761000D01*
X110645000Y-95721000D02*
X107541000Y-95721000D01*
X110738000Y-95681000D02*
X107448000Y-95681000D01*
X110824000Y-95641000D02*
X107362000Y-95641000D01*
X110906000Y-95601000D02*
X107280000Y-95601000D01*
X110983000Y-95561000D02*
X107203000Y-95561000D01*
X111057000Y-95521000D02*
X107129000Y-95521000D01*
X111127000Y-95481000D02*
X107059000Y-95481000D01*
X111195000Y-95441000D02*
X106991000Y-95441000D01*
X111259000Y-95401000D02*
X106927000Y-95401000D01*
X111321000Y-95361000D02*
X106865000Y-95361000D01*
X111380000Y-95321000D02*
X106806000Y-95321000D01*
X111438000Y-95281000D02*
X106748000Y-95281000D01*
X111493000Y-95241000D02*
X106693000Y-95241000D01*
X111547000Y-95201000D02*
X106639000Y-95201000D01*
X111598000Y-95161000D02*
X106588000Y-95161000D01*
X111649000Y-95121000D02*
X106537000Y-95121000D01*
X111697000Y-95081000D02*
X106489000Y-95081000D01*
X111744000Y-95041000D02*
X106442000Y-95041000D01*
X111790000Y-95001000D02*
X106396000Y-95001000D01*
X111834000Y-94961000D02*
X106352000Y-94961000D01*
X111877000Y-94921000D02*
X106309000Y-94921000D01*
X111919000Y-94881000D02*
X106267000Y-94881000D01*
X111960000Y-94841000D02*
X106226000Y-94841000D01*
X112000000Y-94801000D02*
X106186000Y-94801000D01*
X112038000Y-94761000D02*
X106148000Y-94761000D01*
X112076000Y-94721000D02*
X106110000Y-94721000D01*
X108053000Y-94681000D02*
X106074000Y-94681000D01*
X112112000Y-94681000D02*
X110133000Y-94681000D01*
X108053000Y-94641000D02*
X106038000Y-94641000D01*
X112148000Y-94641000D02*
X110133000Y-94641000D01*
X108053000Y-94601000D02*
X106003000Y-94601000D01*
X112183000Y-94601000D02*
X110133000Y-94601000D01*
X108053000Y-94561000D02*
X105969000Y-94561000D01*
X112217000Y-94561000D02*
X110133000Y-94561000D01*
X108053000Y-94521000D02*
X105937000Y-94521000D01*
X112249000Y-94521000D02*
X110133000Y-94521000D01*
X108053000Y-94481000D02*
X105904000Y-94481000D01*
X112282000Y-94481000D02*
X110133000Y-94481000D01*
X108053000Y-94441000D02*
X105873000Y-94441000D01*
X112313000Y-94441000D02*
X110133000Y-94441000D01*
X108053000Y-94401000D02*
X105843000Y-94401000D01*
X112343000Y-94401000D02*
X110133000Y-94401000D01*
X108053000Y-94361000D02*
X105813000Y-94361000D01*
X112373000Y-94361000D02*
X110133000Y-94361000D01*
X108053000Y-94321000D02*
X105784000Y-94321000D01*
X112402000Y-94321000D02*
X110133000Y-94321000D01*
X108053000Y-94281000D02*
X105755000Y-94281000D01*
X112431000Y-94281000D02*
X110133000Y-94281000D01*
X108053000Y-94241000D02*
X105728000Y-94241000D01*
X112458000Y-94241000D02*
X110133000Y-94241000D01*
X108053000Y-94201000D02*
X105701000Y-94201000D01*
X112485000Y-94201000D02*
X110133000Y-94201000D01*
X108053000Y-94161000D02*
X105675000Y-94161000D01*
X112511000Y-94161000D02*
X110133000Y-94161000D01*
X108053000Y-94121000D02*
X105649000Y-94121000D01*
X112537000Y-94121000D02*
X110133000Y-94121000D01*
X108053000Y-94081000D02*
X105624000Y-94081000D01*
X112562000Y-94081000D02*
X110133000Y-94081000D01*
X108053000Y-94041000D02*
X105600000Y-94041000D01*
X112586000Y-94041000D02*
X110133000Y-94041000D01*
X108053000Y-94001000D02*
X105576000Y-94001000D01*
X112610000Y-94001000D02*
X110133000Y-94001000D01*
X108053000Y-93961000D02*
X105553000Y-93961000D01*
X112633000Y-93961000D02*
X110133000Y-93961000D01*
X108053000Y-93921000D02*
X105531000Y-93921000D01*
X112655000Y-93921000D02*
X110133000Y-93921000D01*
X108053000Y-93881000D02*
X105509000Y-93881000D01*
X112677000Y-93881000D02*
X110133000Y-93881000D01*
X108053000Y-93841000D02*
X105487000Y-93841000D01*
X112699000Y-93841000D02*
X110133000Y-93841000D01*
X108053000Y-93801000D02*
X105466000Y-93801000D01*
X112720000Y-93801000D02*
X110133000Y-93801000D01*
X108053000Y-93761000D02*
X105446000Y-93761000D01*
X112740000Y-93761000D02*
X110133000Y-93761000D01*
X108053000Y-93721000D02*
X105427000Y-93721000D01*
X112759000Y-93721000D02*
X110133000Y-93721000D01*
X108053000Y-93681000D02*
X105407000Y-93681000D01*
X112779000Y-93681000D02*
X110133000Y-93681000D01*
X108053000Y-93641000D02*
X105389000Y-93641000D01*
X112797000Y-93641000D02*
X110133000Y-93641000D01*
X108053000Y-93601000D02*
X105371000Y-93601000D01*
X112815000Y-93601000D02*
X110133000Y-93601000D01*
X108053000Y-93561000D02*
X105353000Y-93561000D01*
X112833000Y-93561000D02*
X110133000Y-93561000D01*
X108053000Y-93521000D02*
X105336000Y-93521000D01*
X112850000Y-93521000D02*
X110133000Y-93521000D01*
X108053000Y-93481000D02*
X105319000Y-93481000D01*
X112867000Y-93481000D02*
X110133000Y-93481000D01*
X108053000Y-93441000D02*
X105303000Y-93441000D01*
X112883000Y-93441000D02*
X110133000Y-93441000D01*
X108053000Y-93401000D02*
X105288000Y-93401000D01*
X112898000Y-93401000D02*
X110133000Y-93401000D01*
X108053000Y-93361000D02*
X105272000Y-93361000D01*
X112914000Y-93361000D02*
X110133000Y-93361000D01*
X108053000Y-93321000D02*
X105258000Y-93321000D01*
X112928000Y-93321000D02*
X110133000Y-93321000D01*
X108053000Y-93281000D02*
X105243000Y-93281000D01*
X112943000Y-93281000D02*
X110133000Y-93281000D01*
X108053000Y-93241000D02*
X105230000Y-93241000D01*
X112956000Y-93241000D02*
X110133000Y-93241000D01*
X108053000Y-93201000D02*
X105216000Y-93201000D01*
X112970000Y-93201000D02*
X110133000Y-93201000D01*
X108053000Y-93161000D02*
X105204000Y-93161000D01*
X112982000Y-93161000D02*
X110133000Y-93161000D01*
X108053000Y-93121000D02*
X105191000Y-93121000D01*
X112995000Y-93121000D02*
X110133000Y-93121000D01*
X108053000Y-93081000D02*
X105179000Y-93081000D01*
X113007000Y-93081000D02*
X110133000Y-93081000D01*
X108053000Y-93041000D02*
X105168000Y-93041000D01*
X113018000Y-93041000D02*
X110133000Y-93041000D01*
X108053000Y-93001000D02*
X105157000Y-93001000D01*
X113029000Y-93001000D02*
X110133000Y-93001000D01*
X108053000Y-92961000D02*
X105146000Y-92961000D01*
X113040000Y-92961000D02*
X110133000Y-92961000D01*
X108053000Y-92921000D02*
X105136000Y-92921000D01*
X113050000Y-92921000D02*
X110133000Y-92921000D01*
X108053000Y-92881000D02*
X105126000Y-92881000D01*
X113060000Y-92881000D02*
X110133000Y-92881000D01*
X108053000Y-92841000D02*
X105117000Y-92841000D01*
X113069000Y-92841000D02*
X110133000Y-92841000D01*
X108053000Y-92801000D02*
X105108000Y-92801000D01*
X113078000Y-92801000D02*
X110133000Y-92801000D01*
X108053000Y-92761000D02*
X105099000Y-92761000D01*
X113087000Y-92761000D02*
X110133000Y-92761000D01*
X108053000Y-92721000D02*
X105091000Y-92721000D01*
X113095000Y-92721000D02*
X110133000Y-92721000D01*
X108053000Y-92681000D02*
X105083000Y-92681000D01*
X113103000Y-92681000D02*
X110133000Y-92681000D01*
X108053000Y-92641000D02*
X105076000Y-92641000D01*
X113110000Y-92641000D02*
X110133000Y-92641000D01*
X113117000Y-92600000D02*
X105069000Y-92600000D01*
X113123000Y-92560000D02*
X105063000Y-92560000D01*
X113130000Y-92520000D02*
X105056000Y-92520000D01*
X113135000Y-92480000D02*
X105051000Y-92480000D01*
X113141000Y-92440000D02*
X105045000Y-92440000D01*
X113145000Y-92400000D02*
X105041000Y-92400000D01*
X113150000Y-92360000D02*
X105036000Y-92360000D01*
X113154000Y-92320000D02*
X105032000Y-92320000D01*
X113158000Y-92280000D02*
X105028000Y-92280000D01*
X113161000Y-92240000D02*
X105025000Y-92240000D01*
X113164000Y-92200000D02*
X105022000Y-92200000D01*
X113167000Y-92160000D02*
X105019000Y-92160000D01*
X113169000Y-92120000D02*
X105017000Y-92120000D01*
X113170000Y-92080000D02*
X105016000Y-92080000D01*
X113172000Y-92040000D02*
X105014000Y-92040000D01*
X113173000Y-92000000D02*
X105013000Y-92000000D01*
X113173000Y-91960000D02*
X105013000Y-91960000D01*
X113173000Y-91920000D02*
X105013000Y-91920000D01*
X113213000Y-91920000D02*
G75*
G03*
X113213000Y-91920000I-4120000J0D01*
G01*
%TO.C,D7*%
X169942000Y-107894000D02*
X172802000Y-107894000D01*
X172802000Y-107894000D02*
X172802000Y-105974000D01*
X172802000Y-105974000D02*
X169942000Y-105974000D01*
%TO.C,R39*%
X167139252Y-107644000D02*
X166616748Y-107644000D01*
X167139252Y-106224000D02*
X166616748Y-106224000D01*
%TO.C,J5*%
X126425000Y-77022000D02*
X126425000Y-74362000D01*
X121285000Y-77022000D02*
X126425000Y-77022000D01*
X121285000Y-74362000D02*
X126425000Y-74362000D01*
X121285000Y-77022000D02*
X121285000Y-74362000D01*
X120015000Y-77022000D02*
X118685000Y-77022000D01*
X118685000Y-77022000D02*
X118685000Y-75692000D01*
%TO.C,J6*%
X156785000Y-77022000D02*
X156785000Y-75692000D01*
X158115000Y-77022000D02*
X156785000Y-77022000D01*
X159385000Y-77022000D02*
X159385000Y-74362000D01*
X159385000Y-74362000D02*
X164525000Y-74362000D01*
X159385000Y-77022000D02*
X164525000Y-77022000D01*
X164525000Y-77022000D02*
X164525000Y-74362000D01*
%TO.C,C8*%
X168041250Y-73450750D02*
X168041250Y-74238250D01*
X167647500Y-73844500D02*
X168435000Y-73844500D01*
X168675000Y-78037563D02*
X169739437Y-79102000D01*
X168675000Y-73346437D02*
X169739437Y-72282000D01*
X168675000Y-73346437D02*
X168675000Y-74632000D01*
X168675000Y-78037563D02*
X168675000Y-76752000D01*
X169739437Y-79102000D02*
X175495000Y-79102000D01*
X169739437Y-72282000D02*
X175495000Y-72282000D01*
X175495000Y-72282000D02*
X175495000Y-74632000D01*
X175495000Y-79102000D02*
X175495000Y-76752000D01*
%TO.C,C10*%
D12*
X178300142Y-80367142D02*
X178252523Y-80414761D01*
X178109666Y-80462380D01*
X178014428Y-80462380D01*
X177871571Y-80414761D01*
X177776333Y-80319523D01*
X177728714Y-80224285D01*
X177681095Y-80033809D01*
X177681095Y-79890952D01*
X177728714Y-79700476D01*
X177776333Y-79605238D01*
X177871571Y-79510000D01*
X178014428Y-79462380D01*
X178109666Y-79462380D01*
X178252523Y-79510000D01*
X178300142Y-79557619D01*
X179252523Y-80462380D02*
X178681095Y-80462380D01*
X178966809Y-80462380D02*
X178966809Y-79462380D01*
X178871571Y-79605238D01*
X178776333Y-79700476D01*
X178681095Y-79748095D01*
X179871571Y-79462380D02*
X179966809Y-79462380D01*
X180062047Y-79510000D01*
X180109666Y-79557619D01*
X180157285Y-79652857D01*
X180204904Y-79843333D01*
X180204904Y-80081428D01*
X180157285Y-80271904D01*
X180109666Y-80367142D01*
X180062047Y-80414761D01*
X179966809Y-80462380D01*
X179871571Y-80462380D01*
X179776333Y-80414761D01*
X179728714Y-80367142D01*
X179681095Y-80271904D01*
X179633476Y-80081428D01*
X179633476Y-79843333D01*
X179681095Y-79652857D01*
X179728714Y-79557619D01*
X179776333Y-79510000D01*
X179871571Y-79462380D01*
%TO.C,U4*%
X183261095Y-83272380D02*
X183261095Y-84081904D01*
X183308714Y-84177142D01*
X183356333Y-84224761D01*
X183451571Y-84272380D01*
X183642047Y-84272380D01*
X183737285Y-84224761D01*
X183784904Y-84177142D01*
X183832523Y-84081904D01*
X183832523Y-83272380D01*
X184737285Y-83605714D02*
X184737285Y-84272380D01*
X184499190Y-83224761D02*
X184261095Y-83939047D01*
X184880142Y-83939047D01*
%TO.C,U5*%
X116967095Y-81740380D02*
X116967095Y-82549904D01*
X117014714Y-82645142D01*
X117062333Y-82692761D01*
X117157571Y-82740380D01*
X117348047Y-82740380D01*
X117443285Y-82692761D01*
X117490904Y-82645142D01*
X117538523Y-82549904D01*
X117538523Y-81740380D01*
X118490904Y-81740380D02*
X118014714Y-81740380D01*
X117967095Y-82216571D01*
X118014714Y-82168952D01*
X118109952Y-82121333D01*
X118348047Y-82121333D01*
X118443285Y-82168952D01*
X118490904Y-82216571D01*
X118538523Y-82311809D01*
X118538523Y-82549904D01*
X118490904Y-82645142D01*
X118443285Y-82692761D01*
X118348047Y-82740380D01*
X118109952Y-82740380D01*
X118014714Y-82692761D01*
X117967095Y-82645142D01*
%TO.C,C9*%
X183650142Y-96686666D02*
X183697761Y-96734285D01*
X183745380Y-96877142D01*
X183745380Y-96972380D01*
X183697761Y-97115238D01*
X183602523Y-97210476D01*
X183507285Y-97258095D01*
X183316809Y-97305714D01*
X183173952Y-97305714D01*
X182983476Y-97258095D01*
X182888238Y-97210476D01*
X182793000Y-97115238D01*
X182745380Y-96972380D01*
X182745380Y-96877142D01*
X182793000Y-96734285D01*
X182840619Y-96686666D01*
X183745380Y-96210476D02*
X183745380Y-96020000D01*
X183697761Y-95924761D01*
X183650142Y-95877142D01*
X183507285Y-95781904D01*
X183316809Y-95734285D01*
X182935857Y-95734285D01*
X182840619Y-95781904D01*
X182793000Y-95829523D01*
X182745380Y-95924761D01*
X182745380Y-96115238D01*
X182793000Y-96210476D01*
X182840619Y-96258095D01*
X182935857Y-96305714D01*
X183173952Y-96305714D01*
X183269190Y-96258095D01*
X183316809Y-96210476D01*
X183364428Y-96115238D01*
X183364428Y-95924761D01*
X183316809Y-95829523D01*
X183269190Y-95781904D01*
X183173952Y-95734285D01*
%TO.C,C40*%
X109450142Y-98686857D02*
X109497761Y-98734476D01*
X109545380Y-98877333D01*
X109545380Y-98972571D01*
X109497761Y-99115428D01*
X109402523Y-99210666D01*
X109307285Y-99258285D01*
X109116809Y-99305904D01*
X108973952Y-99305904D01*
X108783476Y-99258285D01*
X108688238Y-99210666D01*
X108593000Y-99115428D01*
X108545380Y-98972571D01*
X108545380Y-98877333D01*
X108593000Y-98734476D01*
X108640619Y-98686857D01*
X108878714Y-97829714D02*
X109545380Y-97829714D01*
X108497761Y-98067809D02*
X109212047Y-98305904D01*
X109212047Y-97686857D01*
X108545380Y-97115428D02*
X108545380Y-97020190D01*
X108593000Y-96924952D01*
X108640619Y-96877333D01*
X108735857Y-96829714D01*
X108926333Y-96782095D01*
X109164428Y-96782095D01*
X109354904Y-96829714D01*
X109450142Y-96877333D01*
X109497761Y-96924952D01*
X109545380Y-97020190D01*
X109545380Y-97115428D01*
X109497761Y-97210666D01*
X109450142Y-97258285D01*
X109354904Y-97305904D01*
X109164428Y-97353523D01*
X108926333Y-97353523D01*
X108735857Y-97305904D01*
X108640619Y-97258285D01*
X108593000Y-97210666D01*
X108545380Y-97115428D01*
%TO.C,D7*%
X170076904Y-105481380D02*
X170076904Y-104481380D01*
X170315000Y-104481380D01*
X170457857Y-104529000D01*
X170553095Y-104624238D01*
X170600714Y-104719476D01*
X170648333Y-104909952D01*
X170648333Y-105052809D01*
X170600714Y-105243285D01*
X170553095Y-105338523D01*
X170457857Y-105433761D01*
X170315000Y-105481380D01*
X170076904Y-105481380D01*
X170981666Y-104481380D02*
X171648333Y-104481380D01*
X171219761Y-105481380D01*
%TO.C,R39*%
X166362142Y-105608380D02*
X166028809Y-105132190D01*
X165790714Y-105608380D02*
X165790714Y-104608380D01*
X166171666Y-104608380D01*
X166266904Y-104656000D01*
X166314523Y-104703619D01*
X166362142Y-104798857D01*
X166362142Y-104941714D01*
X166314523Y-105036952D01*
X166266904Y-105084571D01*
X166171666Y-105132190D01*
X165790714Y-105132190D01*
X166695476Y-104608380D02*
X167314523Y-104608380D01*
X166981190Y-104989333D01*
X167124047Y-104989333D01*
X167219285Y-105036952D01*
X167266904Y-105084571D01*
X167314523Y-105179809D01*
X167314523Y-105417904D01*
X167266904Y-105513142D01*
X167219285Y-105560761D01*
X167124047Y-105608380D01*
X166838333Y-105608380D01*
X166743095Y-105560761D01*
X166695476Y-105513142D01*
X167790714Y-105608380D02*
X167981190Y-105608380D01*
X168076428Y-105560761D01*
X168124047Y-105513142D01*
X168219285Y-105370285D01*
X168266904Y-105179809D01*
X168266904Y-104798857D01*
X168219285Y-104703619D01*
X168171666Y-104656000D01*
X168076428Y-104608380D01*
X167885952Y-104608380D01*
X167790714Y-104656000D01*
X167743095Y-104703619D01*
X167695476Y-104798857D01*
X167695476Y-105036952D01*
X167743095Y-105132190D01*
X167790714Y-105179809D01*
X167885952Y-105227428D01*
X168076428Y-105227428D01*
X168171666Y-105179809D01*
X168219285Y-105132190D01*
X168266904Y-105036952D01*
%TO.C,J5*%
X117137380Y-76025333D02*
X117851666Y-76025333D01*
X117994523Y-76072952D01*
X118089761Y-76168190D01*
X118137380Y-76311047D01*
X118137380Y-76406285D01*
X117137380Y-75072952D02*
X117137380Y-75549142D01*
X117613571Y-75596761D01*
X117565952Y-75549142D01*
X117518333Y-75453904D01*
X117518333Y-75215809D01*
X117565952Y-75120571D01*
X117613571Y-75072952D01*
X117708809Y-75025333D01*
X117946904Y-75025333D01*
X118042142Y-75072952D01*
X118089761Y-75120571D01*
X118137380Y-75215809D01*
X118137380Y-75453904D01*
X118089761Y-75549142D01*
X118042142Y-75596761D01*
X120086428Y-73278952D02*
X120086428Y-72517047D01*
X120467380Y-72898000D02*
X119705476Y-72898000D01*
X124912428Y-73278952D02*
X124912428Y-72517047D01*
X122055000Y-72882095D02*
X122007380Y-72977333D01*
X122007380Y-73120190D01*
X122055000Y-73263047D01*
X122150238Y-73358285D01*
X122245476Y-73405904D01*
X122435952Y-73453523D01*
X122578809Y-73453523D01*
X122769285Y-73405904D01*
X122864523Y-73358285D01*
X122959761Y-73263047D01*
X123007380Y-73120190D01*
X123007380Y-73024952D01*
X122959761Y-72882095D01*
X122912142Y-72834476D01*
X122578809Y-72834476D01*
X122578809Y-73024952D01*
X123007380Y-72405904D02*
X122007380Y-72405904D01*
X122007380Y-72167809D01*
X122055000Y-72024952D01*
X122150238Y-71929714D01*
X122245476Y-71882095D01*
X122435952Y-71834476D01*
X122578809Y-71834476D01*
X122769285Y-71882095D01*
X122864523Y-71929714D01*
X122959761Y-72024952D01*
X123007380Y-72167809D01*
X123007380Y-72405904D01*
%TO.C,J6*%
X155237380Y-76025333D02*
X155951666Y-76025333D01*
X156094523Y-76072952D01*
X156189761Y-76168190D01*
X156237380Y-76311047D01*
X156237380Y-76406285D01*
X155237380Y-75120571D02*
X155237380Y-75311047D01*
X155285000Y-75406285D01*
X155332619Y-75453904D01*
X155475476Y-75549142D01*
X155665952Y-75596761D01*
X156046904Y-75596761D01*
X156142142Y-75549142D01*
X156189761Y-75501523D01*
X156237380Y-75406285D01*
X156237380Y-75215809D01*
X156189761Y-75120571D01*
X156142142Y-75072952D01*
X156046904Y-75025333D01*
X155808809Y-75025333D01*
X155713571Y-75072952D01*
X155665952Y-75120571D01*
X155618333Y-75215809D01*
X155618333Y-75406285D01*
X155665952Y-75501523D01*
X155713571Y-75549142D01*
X155808809Y-75596761D01*
X157512142Y-78684380D02*
X157512142Y-77684380D01*
X157893095Y-77684380D01*
X157988333Y-77732000D01*
X158035952Y-77779619D01*
X158083571Y-77874857D01*
X158083571Y-78017714D01*
X158035952Y-78112952D01*
X157988333Y-78160571D01*
X157893095Y-78208190D01*
X157512142Y-78208190D01*
X158416904Y-77684380D02*
X158655000Y-78684380D01*
X158845476Y-77970095D01*
X159035952Y-78684380D01*
X159274047Y-77684380D01*
X160226428Y-78684380D02*
X159893095Y-78208190D01*
X159655000Y-78684380D02*
X159655000Y-77684380D01*
X160035952Y-77684380D01*
X160131190Y-77732000D01*
X160178809Y-77779619D01*
X160226428Y-77874857D01*
X160226428Y-78017714D01*
X160178809Y-78112952D01*
X160131190Y-78160571D01*
X160035952Y-78208190D01*
X159655000Y-78208190D01*
X161607380Y-77684380D02*
X161797857Y-77684380D01*
X161893095Y-77732000D01*
X161988333Y-77827238D01*
X162035952Y-78017714D01*
X162035952Y-78351047D01*
X161988333Y-78541523D01*
X161893095Y-78636761D01*
X161797857Y-78684380D01*
X161607380Y-78684380D01*
X161512142Y-78636761D01*
X161416904Y-78541523D01*
X161369285Y-78351047D01*
X161369285Y-78017714D01*
X161416904Y-77827238D01*
X161512142Y-77732000D01*
X161607380Y-77684380D01*
X162464523Y-77684380D02*
X162464523Y-78493904D01*
X162512142Y-78589142D01*
X162559761Y-78636761D01*
X162655000Y-78684380D01*
X162845476Y-78684380D01*
X162940714Y-78636761D01*
X162988333Y-78589142D01*
X163035952Y-78493904D01*
X163035952Y-77684380D01*
X163369285Y-77684380D02*
X163940714Y-77684380D01*
X163655000Y-78684380D02*
X163655000Y-77684380D01*
X158567380Y-73009047D02*
X158567380Y-73580476D01*
X158567380Y-73294761D02*
X157567380Y-73294761D01*
X157710238Y-73390000D01*
X157805476Y-73485238D01*
X157853095Y-73580476D01*
X157662619Y-72628095D02*
X157615000Y-72580476D01*
X157567380Y-72485238D01*
X157567380Y-72247142D01*
X157615000Y-72151904D01*
X157662619Y-72104285D01*
X157757857Y-72056666D01*
X157853095Y-72056666D01*
X157995952Y-72104285D01*
X158567380Y-72675714D01*
X158567380Y-72056666D01*
X157567380Y-71770952D02*
X158567380Y-71437619D01*
X157567380Y-71104285D01*
X160107380Y-73628095D02*
X160107380Y-73009047D01*
X160488333Y-73342380D01*
X160488333Y-73199523D01*
X160535952Y-73104285D01*
X160583571Y-73056666D01*
X160678809Y-73009047D01*
X160916904Y-73009047D01*
X161012142Y-73056666D01*
X161059761Y-73104285D01*
X161107380Y-73199523D01*
X161107380Y-73485238D01*
X161059761Y-73580476D01*
X161012142Y-73628095D01*
X160107380Y-72723333D02*
X161107380Y-72390000D01*
X160107380Y-72056666D01*
X160107380Y-71818571D02*
X160107380Y-71199523D01*
X160488333Y-71532857D01*
X160488333Y-71390000D01*
X160535952Y-71294761D01*
X160583571Y-71247142D01*
X160678809Y-71199523D01*
X160916904Y-71199523D01*
X161012142Y-71247142D01*
X161059761Y-71294761D01*
X161107380Y-71390000D01*
X161107380Y-71675714D01*
X161059761Y-71770952D01*
X161012142Y-71818571D01*
X162695000Y-73151904D02*
X162647380Y-73247142D01*
X162647380Y-73390000D01*
X162695000Y-73532857D01*
X162790238Y-73628095D01*
X162885476Y-73675714D01*
X163075952Y-73723333D01*
X163218809Y-73723333D01*
X163409285Y-73675714D01*
X163504523Y-73628095D01*
X163599761Y-73532857D01*
X163647380Y-73390000D01*
X163647380Y-73294761D01*
X163599761Y-73151904D01*
X163552142Y-73104285D01*
X163218809Y-73104285D01*
X163218809Y-73294761D01*
X163647380Y-72675714D02*
X162647380Y-72675714D01*
X163647380Y-72104285D01*
X162647380Y-72104285D01*
X163647380Y-71628095D02*
X162647380Y-71628095D01*
X162647380Y-71390000D01*
X162695000Y-71247142D01*
X162790238Y-71151904D01*
X162885476Y-71104285D01*
X163075952Y-71056666D01*
X163218809Y-71056666D01*
X163409285Y-71104285D01*
X163504523Y-71151904D01*
X163599761Y-71247142D01*
X163647380Y-71390000D01*
X163647380Y-71628095D01*
%TO.C,C8*%
X171918333Y-71699142D02*
X171870714Y-71746761D01*
X171727857Y-71794380D01*
X171632619Y-71794380D01*
X171489761Y-71746761D01*
X171394523Y-71651523D01*
X171346904Y-71556285D01*
X171299285Y-71365809D01*
X171299285Y-71222952D01*
X171346904Y-71032476D01*
X171394523Y-70937238D01*
X171489761Y-70842000D01*
X171632619Y-70794380D01*
X171727857Y-70794380D01*
X171870714Y-70842000D01*
X171918333Y-70889619D01*
X172489761Y-71222952D02*
X172394523Y-71175333D01*
X172346904Y-71127714D01*
X172299285Y-71032476D01*
X172299285Y-70984857D01*
X172346904Y-70889619D01*
X172394523Y-70842000D01*
X172489761Y-70794380D01*
X172680238Y-70794380D01*
X172775476Y-70842000D01*
X172823095Y-70889619D01*
X172870714Y-70984857D01*
X172870714Y-71032476D01*
X172823095Y-71127714D01*
X172775476Y-71175333D01*
X172680238Y-71222952D01*
X172489761Y-71222952D01*
X172394523Y-71270571D01*
X172346904Y-71318190D01*
X172299285Y-71413428D01*
X172299285Y-71603904D01*
X172346904Y-71699142D01*
X172394523Y-71746761D01*
X172489761Y-71794380D01*
X172680238Y-71794380D01*
X172775476Y-71746761D01*
X172823095Y-71699142D01*
X172870714Y-71603904D01*
X172870714Y-71413428D01*
X172823095Y-71318190D01*
X172775476Y-71270571D01*
X172680238Y-71222952D01*
%TD*%
M02*
