%TF.GenerationSoftware,KiCad,Pcbnew,(5.1.12)-1*%
%TF.CreationDate,2022-03-07T22:28:19-06:00*%
%TF.ProjectId,Power_Board,506f7765-725f-4426-9f61-72642e6b6963,rev?*%
%TF.SameCoordinates,Original*%
%TF.FileFunction,Soldermask,Top*%
%TF.FilePolarity,Negative*%
%FSLAX46Y46*%
G04 Gerber Fmt 4.6, Leading zero omitted, Abs format (unit mm)*
G04 Created by KiCad (PCBNEW (5.1.12)-1) date 2022-03-07 22:28:19*
%MOMM*%
%LPD*%
G01*
G04 APERTURE LIST*
%ADD10C,3.200001*%
%ADD11R,2.000000X3.800000*%
%ADD12R,2.000000X1.500000*%
%ADD13C,3.000000*%
%ADD14C,3.200000*%
%ADD15R,1.600000X1.600000*%
%ADD16C,1.600000*%
%ADD17R,1.700000X1.700000*%
%ADD18O,1.700000X1.700000*%
G04 APERTURE END LIST*
D10*
%TO.C,REF\u002A\u002A*%
X109855000Y-75692000D03*
%TD*%
%TO.C,REF\u002A\u002A*%
X109855000Y-106172000D03*
%TD*%
%TO.C,REF\u002A\u002A*%
X183515000Y-106172000D03*
%TD*%
%TO.C,REF\u002A\u002A*%
X183515000Y-75692000D03*
%TD*%
%TO.C,C10*%
G36*
G01*
X178493000Y-81337999D02*
X178493000Y-82238001D01*
G75*
G02*
X178243001Y-82488000I-249999J0D01*
G01*
X177592999Y-82488000D01*
G75*
G02*
X177343000Y-82238001I0J249999D01*
G01*
X177343000Y-81337999D01*
G75*
G02*
X177592999Y-81088000I249999J0D01*
G01*
X178243001Y-81088000D01*
G75*
G02*
X178493000Y-81337999I0J-249999D01*
G01*
G37*
G36*
G01*
X180543000Y-81337999D02*
X180543000Y-82238001D01*
G75*
G02*
X180293001Y-82488000I-249999J0D01*
G01*
X179642999Y-82488000D01*
G75*
G02*
X179393000Y-82238001I0J249999D01*
G01*
X179393000Y-81337999D01*
G75*
G02*
X179642999Y-81088000I249999J0D01*
G01*
X180293001Y-81088000D01*
G75*
G02*
X180543000Y-81337999I0J-249999D01*
G01*
G37*
%TD*%
D11*
%TO.C,U4*%
X181839000Y-86614000D03*
D12*
X175539000Y-86614000D03*
X175539000Y-88914000D03*
X175539000Y-84314000D03*
%TD*%
D13*
%TO.C,U5*%
X117729000Y-84328000D03*
X117729000Y-91948000D03*
X117729000Y-99568000D03*
D14*
X168529000Y-99568000D03*
D13*
X168529000Y-95758000D03*
X168529000Y-91948000D03*
X168529000Y-88138000D03*
D14*
X168529000Y-84328000D03*
%TD*%
%TO.C,C9*%
G36*
G01*
X178393000Y-97570000D02*
X179493000Y-97570000D01*
G75*
G02*
X179743000Y-97820000I0J-250000D01*
G01*
X179743000Y-100820000D01*
G75*
G02*
X179493000Y-101070000I-250000J0D01*
G01*
X178393000Y-101070000D01*
G75*
G02*
X178143000Y-100820000I0J250000D01*
G01*
X178143000Y-97820000D01*
G75*
G02*
X178393000Y-97570000I250000J0D01*
G01*
G37*
G36*
G01*
X178393000Y-91970000D02*
X179493000Y-91970000D01*
G75*
G02*
X179743000Y-92220000I0J-250000D01*
G01*
X179743000Y-95220000D01*
G75*
G02*
X179493000Y-95470000I-250000J0D01*
G01*
X178393000Y-95470000D01*
G75*
G02*
X178143000Y-95220000I0J250000D01*
G01*
X178143000Y-92220000D01*
G75*
G02*
X178393000Y-91970000I250000J0D01*
G01*
G37*
%TD*%
D15*
%TO.C,C40*%
X109093000Y-90170000D03*
D16*
X109093000Y-93670000D03*
%TD*%
%TO.C,D7*%
G36*
G01*
X170492000Y-106483999D02*
X170492000Y-107384001D01*
G75*
G02*
X170242001Y-107634000I-249999J0D01*
G01*
X169591999Y-107634000D01*
G75*
G02*
X169342000Y-107384001I0J249999D01*
G01*
X169342000Y-106483999D01*
G75*
G02*
X169591999Y-106234000I249999J0D01*
G01*
X170242001Y-106234000D01*
G75*
G02*
X170492000Y-106483999I0J-249999D01*
G01*
G37*
G36*
G01*
X172542000Y-106483999D02*
X172542000Y-107384001D01*
G75*
G02*
X172292001Y-107634000I-249999J0D01*
G01*
X171641999Y-107634000D01*
G75*
G02*
X171392000Y-107384001I0J249999D01*
G01*
X171392000Y-106483999D01*
G75*
G02*
X171641999Y-106234000I249999J0D01*
G01*
X172292001Y-106234000D01*
G75*
G02*
X172542000Y-106483999I0J-249999D01*
G01*
G37*
%TD*%
%TO.C,R39*%
G36*
G01*
X166428000Y-106483999D02*
X166428000Y-107384001D01*
G75*
G02*
X166178001Y-107634000I-249999J0D01*
G01*
X165527999Y-107634000D01*
G75*
G02*
X165278000Y-107384001I0J249999D01*
G01*
X165278000Y-106483999D01*
G75*
G02*
X165527999Y-106234000I249999J0D01*
G01*
X166178001Y-106234000D01*
G75*
G02*
X166428000Y-106483999I0J-249999D01*
G01*
G37*
G36*
G01*
X168478000Y-106483999D02*
X168478000Y-107384001D01*
G75*
G02*
X168228001Y-107634000I-249999J0D01*
G01*
X167577999Y-107634000D01*
G75*
G02*
X167328000Y-107384001I0J249999D01*
G01*
X167328000Y-106483999D01*
G75*
G02*
X167577999Y-106234000I249999J0D01*
G01*
X168228001Y-106234000D01*
G75*
G02*
X168478000Y-106483999I0J-249999D01*
G01*
G37*
%TD*%
D17*
%TO.C,J5*%
X120015000Y-75692000D03*
D18*
X122555000Y-75692000D03*
X125095000Y-75692000D03*
%TD*%
%TO.C,J6*%
X163195000Y-75692000D03*
X160655000Y-75692000D03*
D17*
X158115000Y-75692000D03*
%TD*%
%TO.C,C8*%
G36*
G01*
X167535000Y-76242000D02*
X167535000Y-75142000D01*
G75*
G02*
X167785000Y-74892000I250000J0D01*
G01*
X170785000Y-74892000D01*
G75*
G02*
X171035000Y-75142000I0J-250000D01*
G01*
X171035000Y-76242000D01*
G75*
G02*
X170785000Y-76492000I-250000J0D01*
G01*
X167785000Y-76492000D01*
G75*
G02*
X167535000Y-76242000I0J250000D01*
G01*
G37*
G36*
G01*
X173135000Y-76242000D02*
X173135000Y-75142000D01*
G75*
G02*
X173385000Y-74892000I250000J0D01*
G01*
X176385000Y-74892000D01*
G75*
G02*
X176635000Y-75142000I0J-250000D01*
G01*
X176635000Y-76242000D01*
G75*
G02*
X176385000Y-76492000I-250000J0D01*
G01*
X173385000Y-76492000D01*
G75*
G02*
X173135000Y-76242000I0J250000D01*
G01*
G37*
%TD*%
M02*
