%TF.GenerationSoftware,KiCad,Pcbnew,(5.1.12)-1*%
%TF.CreationDate,2022-03-07T22:28:18-06:00*%
%TF.ProjectId,Power_Board,506f7765-725f-4426-9f61-72642e6b6963,rev?*%
%TF.SameCoordinates,Original*%
%TF.FileFunction,Copper,L2,Bot*%
%TF.FilePolarity,Positive*%
%FSLAX46Y46*%
G04 Gerber Fmt 4.6, Leading zero omitted, Abs format (unit mm)*
G04 Created by KiCad (PCBNEW (5.1.12)-1) date 2022-03-07 22:28:18*
%MOMM*%
%LPD*%
G01*
G04 APERTURE LIST*
%TA.AperFunction,ComponentPad*%
%ADD10C,3.000000*%
%TD*%
%TA.AperFunction,ComponentPad*%
%ADD11C,3.200000*%
%TD*%
%TA.AperFunction,ComponentPad*%
%ADD12R,1.600000X1.600000*%
%TD*%
%TA.AperFunction,ComponentPad*%
%ADD13C,1.600000*%
%TD*%
%TA.AperFunction,ComponentPad*%
%ADD14R,1.700000X1.700000*%
%TD*%
%TA.AperFunction,ComponentPad*%
%ADD15O,1.700000X1.700000*%
%TD*%
%TA.AperFunction,ViaPad*%
%ADD16C,0.800000*%
%TD*%
%TA.AperFunction,Conductor*%
%ADD17C,0.254000*%
%TD*%
%TA.AperFunction,Conductor*%
%ADD18C,0.100000*%
%TD*%
G04 APERTURE END LIST*
D10*
%TO.P,U5,1*%
%TO.N,VOUT+*%
X117729000Y-84328000D03*
%TO.P,U5,2*%
%TO.N,PWRGD*%
X117729000Y-91948000D03*
%TO.P,U5,3*%
%TO.N,VOUT-*%
X117729000Y-99568000D03*
D11*
%TO.P,U5,4*%
%TO.N,GND*%
X168529000Y-99568000D03*
D10*
%TO.P,U5,5*%
X168529000Y-95758000D03*
%TO.P,U5,6*%
%TO.N,Net-(U5-Pad6)*%
X168529000Y-91948000D03*
%TO.P,U5,7*%
%TO.N,+12V*%
X168529000Y-88138000D03*
D11*
%TO.P,U5,8*%
X168529000Y-84328000D03*
%TD*%
D12*
%TO.P,C40,1*%
%TO.N,VOUT+*%
X109093000Y-90170000D03*
D13*
%TO.P,C40,2*%
%TO.N,VOUT-*%
X109093000Y-93670000D03*
%TD*%
D14*
%TO.P,J5,1*%
%TO.N,VOUT+*%
X120015000Y-75692000D03*
D15*
%TO.P,J5,2*%
%TO.N,PWRGD*%
X122555000Y-75692000D03*
%TO.P,J5,3*%
%TO.N,VOUT-*%
X125095000Y-75692000D03*
%TD*%
%TO.P,J6,3*%
%TO.N,GND*%
X163195000Y-75692000D03*
%TO.P,J6,2*%
%TO.N,+3V3*%
X160655000Y-75692000D03*
D14*
%TO.P,J6,1*%
%TO.N,+12V*%
X158115000Y-75692000D03*
%TD*%
D16*
%TO.N,GND*%
X171958000Y-108204000D03*
X176784000Y-81788000D03*
X174625000Y-78232000D03*
%TD*%
D17*
%TO.N,VOUT-*%
X144018000Y-110973000D02*
X103518641Y-110973000D01*
X103312777Y-110952815D01*
X103127870Y-110896988D01*
X102957330Y-110806310D01*
X102807651Y-110684235D01*
X102684532Y-110535410D01*
X102592668Y-110365511D01*
X102535552Y-110181003D01*
X102514000Y-109975946D01*
X102514000Y-105982207D01*
X107928000Y-105982207D01*
X107928000Y-106361793D01*
X108002053Y-106734085D01*
X108147315Y-107084777D01*
X108358201Y-107400391D01*
X108626609Y-107668799D01*
X108942223Y-107879685D01*
X109292915Y-108024947D01*
X109665207Y-108099000D01*
X110044793Y-108099000D01*
X110417085Y-108024947D01*
X110767777Y-107879685D01*
X111083391Y-107668799D01*
X111351799Y-107400391D01*
X111562685Y-107084777D01*
X111707947Y-106734085D01*
X111782000Y-106361793D01*
X111782000Y-105982207D01*
X111707947Y-105609915D01*
X111562685Y-105259223D01*
X111351799Y-104943609D01*
X111083391Y-104675201D01*
X110767777Y-104464315D01*
X110417085Y-104319053D01*
X110044793Y-104245000D01*
X109665207Y-104245000D01*
X109292915Y-104319053D01*
X108942223Y-104464315D01*
X108626609Y-104675201D01*
X108358201Y-104943609D01*
X108147315Y-105259223D01*
X108002053Y-105609915D01*
X107928000Y-105982207D01*
X102514000Y-105982207D01*
X102514000Y-91768056D01*
X115902000Y-91768056D01*
X115902000Y-92127944D01*
X115972211Y-92480916D01*
X116109934Y-92813409D01*
X116309876Y-93112645D01*
X116564355Y-93367124D01*
X116863591Y-93567066D01*
X117196084Y-93704789D01*
X117549056Y-93775000D01*
X117908944Y-93775000D01*
X118261916Y-93704789D01*
X118594409Y-93567066D01*
X118893645Y-93367124D01*
X119148124Y-93112645D01*
X119348066Y-92813409D01*
X119485789Y-92480916D01*
X119556000Y-92127944D01*
X119556000Y-91768056D01*
X119485789Y-91415084D01*
X119348066Y-91082591D01*
X119148124Y-90783355D01*
X118893645Y-90528876D01*
X118594409Y-90328934D01*
X118261916Y-90191211D01*
X117908944Y-90121000D01*
X117549056Y-90121000D01*
X117196084Y-90191211D01*
X116863591Y-90328934D01*
X116564355Y-90528876D01*
X116309876Y-90783355D01*
X116109934Y-91082591D01*
X115972211Y-91415084D01*
X115902000Y-91768056D01*
X102514000Y-91768056D01*
X102514000Y-89370000D01*
X107964418Y-89370000D01*
X107964418Y-90970000D01*
X107970732Y-91034103D01*
X107989430Y-91095743D01*
X108019794Y-91152550D01*
X108060657Y-91202343D01*
X108110450Y-91243206D01*
X108167257Y-91273570D01*
X108228897Y-91292268D01*
X108293000Y-91298582D01*
X109893000Y-91298582D01*
X109957103Y-91292268D01*
X110018743Y-91273570D01*
X110075550Y-91243206D01*
X110125343Y-91202343D01*
X110166206Y-91152550D01*
X110196570Y-91095743D01*
X110215268Y-91034103D01*
X110221582Y-90970000D01*
X110221582Y-89370000D01*
X110215268Y-89305897D01*
X110196570Y-89244257D01*
X110166206Y-89187450D01*
X110125343Y-89137657D01*
X110075550Y-89096794D01*
X110018743Y-89066430D01*
X109957103Y-89047732D01*
X109893000Y-89041418D01*
X108293000Y-89041418D01*
X108228897Y-89047732D01*
X108167257Y-89066430D01*
X108110450Y-89096794D01*
X108060657Y-89137657D01*
X108019794Y-89187450D01*
X107989430Y-89244257D01*
X107970732Y-89305897D01*
X107964418Y-89370000D01*
X102514000Y-89370000D01*
X102514000Y-84148056D01*
X115902000Y-84148056D01*
X115902000Y-84507944D01*
X115972211Y-84860916D01*
X116109934Y-85193409D01*
X116309876Y-85492645D01*
X116564355Y-85747124D01*
X116863591Y-85947066D01*
X117196084Y-86084789D01*
X117549056Y-86155000D01*
X117908944Y-86155000D01*
X118261916Y-86084789D01*
X118594409Y-85947066D01*
X118893645Y-85747124D01*
X119148124Y-85492645D01*
X119348066Y-85193409D01*
X119485789Y-84860916D01*
X119556000Y-84507944D01*
X119556000Y-84148056D01*
X119485789Y-83795084D01*
X119348066Y-83462591D01*
X119148124Y-83163355D01*
X118893645Y-82908876D01*
X118594409Y-82708934D01*
X118261916Y-82571211D01*
X117908944Y-82501000D01*
X117549056Y-82501000D01*
X117196084Y-82571211D01*
X116863591Y-82708934D01*
X116564355Y-82908876D01*
X116309876Y-83163355D01*
X116109934Y-83462591D01*
X115972211Y-83795084D01*
X115902000Y-84148056D01*
X102514000Y-84148056D01*
X102514000Y-75502207D01*
X107928000Y-75502207D01*
X107928000Y-75881793D01*
X108002053Y-76254085D01*
X108147315Y-76604777D01*
X108358201Y-76920391D01*
X108626609Y-77188799D01*
X108942223Y-77399685D01*
X109292915Y-77544947D01*
X109665207Y-77619000D01*
X110044793Y-77619000D01*
X110417085Y-77544947D01*
X110767777Y-77399685D01*
X111083391Y-77188799D01*
X111351799Y-76920391D01*
X111562685Y-76604777D01*
X111707947Y-76254085D01*
X111782000Y-75881793D01*
X111782000Y-75502207D01*
X111707947Y-75129915D01*
X111588689Y-74842000D01*
X118836418Y-74842000D01*
X118836418Y-76542000D01*
X118842732Y-76606103D01*
X118861430Y-76667743D01*
X118891794Y-76724550D01*
X118932657Y-76774343D01*
X118982450Y-76815206D01*
X119039257Y-76845570D01*
X119100897Y-76864268D01*
X119165000Y-76870582D01*
X120865000Y-76870582D01*
X120929103Y-76864268D01*
X120990743Y-76845570D01*
X121047550Y-76815206D01*
X121097343Y-76774343D01*
X121138206Y-76724550D01*
X121168570Y-76667743D01*
X121187268Y-76606103D01*
X121193582Y-76542000D01*
X121193582Y-75576076D01*
X121378000Y-75576076D01*
X121378000Y-75807924D01*
X121423231Y-76035318D01*
X121511956Y-76249519D01*
X121640764Y-76442294D01*
X121804706Y-76606236D01*
X121997481Y-76735044D01*
X122211682Y-76823769D01*
X122439076Y-76869000D01*
X122670924Y-76869000D01*
X122898318Y-76823769D01*
X123112519Y-76735044D01*
X123305294Y-76606236D01*
X123469236Y-76442294D01*
X123598044Y-76249519D01*
X123686769Y-76035318D01*
X123732000Y-75807924D01*
X123732000Y-75576076D01*
X123686769Y-75348682D01*
X123598044Y-75134481D01*
X123469236Y-74941706D01*
X123305294Y-74777764D01*
X123112519Y-74648956D01*
X122898318Y-74560231D01*
X122670924Y-74515000D01*
X122439076Y-74515000D01*
X122211682Y-74560231D01*
X121997481Y-74648956D01*
X121804706Y-74777764D01*
X121640764Y-74941706D01*
X121511956Y-75134481D01*
X121423231Y-75348682D01*
X121378000Y-75576076D01*
X121193582Y-75576076D01*
X121193582Y-74842000D01*
X121187268Y-74777897D01*
X121168570Y-74716257D01*
X121138206Y-74659450D01*
X121097343Y-74609657D01*
X121047550Y-74568794D01*
X120990743Y-74538430D01*
X120929103Y-74519732D01*
X120865000Y-74513418D01*
X119165000Y-74513418D01*
X119100897Y-74519732D01*
X119039257Y-74538430D01*
X118982450Y-74568794D01*
X118932657Y-74609657D01*
X118891794Y-74659450D01*
X118861430Y-74716257D01*
X118842732Y-74777897D01*
X118836418Y-74842000D01*
X111588689Y-74842000D01*
X111562685Y-74779223D01*
X111351799Y-74463609D01*
X111083391Y-74195201D01*
X110767777Y-73984315D01*
X110417085Y-73839053D01*
X110044793Y-73765000D01*
X109665207Y-73765000D01*
X109292915Y-73839053D01*
X108942223Y-73984315D01*
X108626609Y-74195201D01*
X108358201Y-74463609D01*
X108147315Y-74779223D01*
X108002053Y-75129915D01*
X107928000Y-75502207D01*
X102514000Y-75502207D01*
X102514000Y-71895641D01*
X102534185Y-71689777D01*
X102590012Y-71504870D01*
X102680688Y-71334332D01*
X102802762Y-71184653D01*
X102951590Y-71061532D01*
X103121493Y-70969666D01*
X103305997Y-70912552D01*
X103511054Y-70891000D01*
X144018000Y-70891000D01*
X144018000Y-110973000D01*
%TA.AperFunction,Conductor*%
D18*
G36*
X144018000Y-110973000D02*
G01*
X103518641Y-110973000D01*
X103312777Y-110952815D01*
X103127870Y-110896988D01*
X102957330Y-110806310D01*
X102807651Y-110684235D01*
X102684532Y-110535410D01*
X102592668Y-110365511D01*
X102535552Y-110181003D01*
X102514000Y-109975946D01*
X102514000Y-105982207D01*
X107928000Y-105982207D01*
X107928000Y-106361793D01*
X108002053Y-106734085D01*
X108147315Y-107084777D01*
X108358201Y-107400391D01*
X108626609Y-107668799D01*
X108942223Y-107879685D01*
X109292915Y-108024947D01*
X109665207Y-108099000D01*
X110044793Y-108099000D01*
X110417085Y-108024947D01*
X110767777Y-107879685D01*
X111083391Y-107668799D01*
X111351799Y-107400391D01*
X111562685Y-107084777D01*
X111707947Y-106734085D01*
X111782000Y-106361793D01*
X111782000Y-105982207D01*
X111707947Y-105609915D01*
X111562685Y-105259223D01*
X111351799Y-104943609D01*
X111083391Y-104675201D01*
X110767777Y-104464315D01*
X110417085Y-104319053D01*
X110044793Y-104245000D01*
X109665207Y-104245000D01*
X109292915Y-104319053D01*
X108942223Y-104464315D01*
X108626609Y-104675201D01*
X108358201Y-104943609D01*
X108147315Y-105259223D01*
X108002053Y-105609915D01*
X107928000Y-105982207D01*
X102514000Y-105982207D01*
X102514000Y-91768056D01*
X115902000Y-91768056D01*
X115902000Y-92127944D01*
X115972211Y-92480916D01*
X116109934Y-92813409D01*
X116309876Y-93112645D01*
X116564355Y-93367124D01*
X116863591Y-93567066D01*
X117196084Y-93704789D01*
X117549056Y-93775000D01*
X117908944Y-93775000D01*
X118261916Y-93704789D01*
X118594409Y-93567066D01*
X118893645Y-93367124D01*
X119148124Y-93112645D01*
X119348066Y-92813409D01*
X119485789Y-92480916D01*
X119556000Y-92127944D01*
X119556000Y-91768056D01*
X119485789Y-91415084D01*
X119348066Y-91082591D01*
X119148124Y-90783355D01*
X118893645Y-90528876D01*
X118594409Y-90328934D01*
X118261916Y-90191211D01*
X117908944Y-90121000D01*
X117549056Y-90121000D01*
X117196084Y-90191211D01*
X116863591Y-90328934D01*
X116564355Y-90528876D01*
X116309876Y-90783355D01*
X116109934Y-91082591D01*
X115972211Y-91415084D01*
X115902000Y-91768056D01*
X102514000Y-91768056D01*
X102514000Y-89370000D01*
X107964418Y-89370000D01*
X107964418Y-90970000D01*
X107970732Y-91034103D01*
X107989430Y-91095743D01*
X108019794Y-91152550D01*
X108060657Y-91202343D01*
X108110450Y-91243206D01*
X108167257Y-91273570D01*
X108228897Y-91292268D01*
X108293000Y-91298582D01*
X109893000Y-91298582D01*
X109957103Y-91292268D01*
X110018743Y-91273570D01*
X110075550Y-91243206D01*
X110125343Y-91202343D01*
X110166206Y-91152550D01*
X110196570Y-91095743D01*
X110215268Y-91034103D01*
X110221582Y-90970000D01*
X110221582Y-89370000D01*
X110215268Y-89305897D01*
X110196570Y-89244257D01*
X110166206Y-89187450D01*
X110125343Y-89137657D01*
X110075550Y-89096794D01*
X110018743Y-89066430D01*
X109957103Y-89047732D01*
X109893000Y-89041418D01*
X108293000Y-89041418D01*
X108228897Y-89047732D01*
X108167257Y-89066430D01*
X108110450Y-89096794D01*
X108060657Y-89137657D01*
X108019794Y-89187450D01*
X107989430Y-89244257D01*
X107970732Y-89305897D01*
X107964418Y-89370000D01*
X102514000Y-89370000D01*
X102514000Y-84148056D01*
X115902000Y-84148056D01*
X115902000Y-84507944D01*
X115972211Y-84860916D01*
X116109934Y-85193409D01*
X116309876Y-85492645D01*
X116564355Y-85747124D01*
X116863591Y-85947066D01*
X117196084Y-86084789D01*
X117549056Y-86155000D01*
X117908944Y-86155000D01*
X118261916Y-86084789D01*
X118594409Y-85947066D01*
X118893645Y-85747124D01*
X119148124Y-85492645D01*
X119348066Y-85193409D01*
X119485789Y-84860916D01*
X119556000Y-84507944D01*
X119556000Y-84148056D01*
X119485789Y-83795084D01*
X119348066Y-83462591D01*
X119148124Y-83163355D01*
X118893645Y-82908876D01*
X118594409Y-82708934D01*
X118261916Y-82571211D01*
X117908944Y-82501000D01*
X117549056Y-82501000D01*
X117196084Y-82571211D01*
X116863591Y-82708934D01*
X116564355Y-82908876D01*
X116309876Y-83163355D01*
X116109934Y-83462591D01*
X115972211Y-83795084D01*
X115902000Y-84148056D01*
X102514000Y-84148056D01*
X102514000Y-75502207D01*
X107928000Y-75502207D01*
X107928000Y-75881793D01*
X108002053Y-76254085D01*
X108147315Y-76604777D01*
X108358201Y-76920391D01*
X108626609Y-77188799D01*
X108942223Y-77399685D01*
X109292915Y-77544947D01*
X109665207Y-77619000D01*
X110044793Y-77619000D01*
X110417085Y-77544947D01*
X110767777Y-77399685D01*
X111083391Y-77188799D01*
X111351799Y-76920391D01*
X111562685Y-76604777D01*
X111707947Y-76254085D01*
X111782000Y-75881793D01*
X111782000Y-75502207D01*
X111707947Y-75129915D01*
X111588689Y-74842000D01*
X118836418Y-74842000D01*
X118836418Y-76542000D01*
X118842732Y-76606103D01*
X118861430Y-76667743D01*
X118891794Y-76724550D01*
X118932657Y-76774343D01*
X118982450Y-76815206D01*
X119039257Y-76845570D01*
X119100897Y-76864268D01*
X119165000Y-76870582D01*
X120865000Y-76870582D01*
X120929103Y-76864268D01*
X120990743Y-76845570D01*
X121047550Y-76815206D01*
X121097343Y-76774343D01*
X121138206Y-76724550D01*
X121168570Y-76667743D01*
X121187268Y-76606103D01*
X121193582Y-76542000D01*
X121193582Y-75576076D01*
X121378000Y-75576076D01*
X121378000Y-75807924D01*
X121423231Y-76035318D01*
X121511956Y-76249519D01*
X121640764Y-76442294D01*
X121804706Y-76606236D01*
X121997481Y-76735044D01*
X122211682Y-76823769D01*
X122439076Y-76869000D01*
X122670924Y-76869000D01*
X122898318Y-76823769D01*
X123112519Y-76735044D01*
X123305294Y-76606236D01*
X123469236Y-76442294D01*
X123598044Y-76249519D01*
X123686769Y-76035318D01*
X123732000Y-75807924D01*
X123732000Y-75576076D01*
X123686769Y-75348682D01*
X123598044Y-75134481D01*
X123469236Y-74941706D01*
X123305294Y-74777764D01*
X123112519Y-74648956D01*
X122898318Y-74560231D01*
X122670924Y-74515000D01*
X122439076Y-74515000D01*
X122211682Y-74560231D01*
X121997481Y-74648956D01*
X121804706Y-74777764D01*
X121640764Y-74941706D01*
X121511956Y-75134481D01*
X121423231Y-75348682D01*
X121378000Y-75576076D01*
X121193582Y-75576076D01*
X121193582Y-74842000D01*
X121187268Y-74777897D01*
X121168570Y-74716257D01*
X121138206Y-74659450D01*
X121097343Y-74609657D01*
X121047550Y-74568794D01*
X120990743Y-74538430D01*
X120929103Y-74519732D01*
X120865000Y-74513418D01*
X119165000Y-74513418D01*
X119100897Y-74519732D01*
X119039257Y-74538430D01*
X118982450Y-74568794D01*
X118932657Y-74609657D01*
X118891794Y-74659450D01*
X118861430Y-74716257D01*
X118842732Y-74777897D01*
X118836418Y-74842000D01*
X111588689Y-74842000D01*
X111562685Y-74779223D01*
X111351799Y-74463609D01*
X111083391Y-74195201D01*
X110767777Y-73984315D01*
X110417085Y-73839053D01*
X110044793Y-73765000D01*
X109665207Y-73765000D01*
X109292915Y-73839053D01*
X108942223Y-73984315D01*
X108626609Y-74195201D01*
X108358201Y-74463609D01*
X108147315Y-74779223D01*
X108002053Y-75129915D01*
X107928000Y-75502207D01*
X102514000Y-75502207D01*
X102514000Y-71895641D01*
X102534185Y-71689777D01*
X102590012Y-71504870D01*
X102680688Y-71334332D01*
X102802762Y-71184653D01*
X102951590Y-71061532D01*
X103121493Y-70969666D01*
X103305997Y-70912552D01*
X103511054Y-70891000D01*
X144018000Y-70891000D01*
X144018000Y-110973000D01*
G37*
%TD.AperFunction*%
%TD*%
D17*
%TO.N,GND*%
X187517223Y-70911185D02*
X187702130Y-70967012D01*
X187872668Y-71057688D01*
X188022347Y-71179762D01*
X188145468Y-71328590D01*
X188237334Y-71498493D01*
X188294448Y-71682997D01*
X188316000Y-71888054D01*
X188316001Y-109968349D01*
X188295815Y-110174223D01*
X188239988Y-110359130D01*
X188149310Y-110529670D01*
X188027235Y-110679349D01*
X187878410Y-110802468D01*
X187708511Y-110894332D01*
X187524003Y-110951448D01*
X187318946Y-110973000D01*
X144472000Y-110973000D01*
X144472000Y-105982207D01*
X181588000Y-105982207D01*
X181588000Y-106361793D01*
X181662053Y-106734085D01*
X181807315Y-107084777D01*
X182018201Y-107400391D01*
X182286609Y-107668799D01*
X182602223Y-107879685D01*
X182952915Y-108024947D01*
X183325207Y-108099000D01*
X183704793Y-108099000D01*
X184077085Y-108024947D01*
X184427777Y-107879685D01*
X184743391Y-107668799D01*
X185011799Y-107400391D01*
X185222685Y-107084777D01*
X185367947Y-106734085D01*
X185442000Y-106361793D01*
X185442000Y-105982207D01*
X185367947Y-105609915D01*
X185222685Y-105259223D01*
X185011799Y-104943609D01*
X184743391Y-104675201D01*
X184427777Y-104464315D01*
X184077085Y-104319053D01*
X183704793Y-104245000D01*
X183325207Y-104245000D01*
X182952915Y-104319053D01*
X182602223Y-104464315D01*
X182286609Y-104675201D01*
X182018201Y-104943609D01*
X181807315Y-105259223D01*
X181662053Y-105609915D01*
X181588000Y-105982207D01*
X144472000Y-105982207D01*
X144472000Y-91768056D01*
X166702000Y-91768056D01*
X166702000Y-92127944D01*
X166772211Y-92480916D01*
X166909934Y-92813409D01*
X167109876Y-93112645D01*
X167364355Y-93367124D01*
X167663591Y-93567066D01*
X167996084Y-93704789D01*
X168349056Y-93775000D01*
X168708944Y-93775000D01*
X169061916Y-93704789D01*
X169394409Y-93567066D01*
X169693645Y-93367124D01*
X169948124Y-93112645D01*
X170148066Y-92813409D01*
X170285789Y-92480916D01*
X170356000Y-92127944D01*
X170356000Y-91768056D01*
X170285789Y-91415084D01*
X170148066Y-91082591D01*
X169948124Y-90783355D01*
X169693645Y-90528876D01*
X169394409Y-90328934D01*
X169061916Y-90191211D01*
X168708944Y-90121000D01*
X168349056Y-90121000D01*
X167996084Y-90191211D01*
X167663591Y-90328934D01*
X167364355Y-90528876D01*
X167109876Y-90783355D01*
X166909934Y-91082591D01*
X166772211Y-91415084D01*
X166702000Y-91768056D01*
X144472000Y-91768056D01*
X144472000Y-87958056D01*
X166702000Y-87958056D01*
X166702000Y-88317944D01*
X166772211Y-88670916D01*
X166909934Y-89003409D01*
X167109876Y-89302645D01*
X167364355Y-89557124D01*
X167663591Y-89757066D01*
X167996084Y-89894789D01*
X168349056Y-89965000D01*
X168708944Y-89965000D01*
X169061916Y-89894789D01*
X169394409Y-89757066D01*
X169693645Y-89557124D01*
X169948124Y-89302645D01*
X170148066Y-89003409D01*
X170285789Y-88670916D01*
X170356000Y-88317944D01*
X170356000Y-87958056D01*
X170285789Y-87605084D01*
X170148066Y-87272591D01*
X169948124Y-86973355D01*
X169693645Y-86718876D01*
X169394409Y-86518934D01*
X169061916Y-86381211D01*
X168708944Y-86311000D01*
X168349056Y-86311000D01*
X167996084Y-86381211D01*
X167663591Y-86518934D01*
X167364355Y-86718876D01*
X167109876Y-86973355D01*
X166909934Y-87272591D01*
X166772211Y-87605084D01*
X166702000Y-87958056D01*
X144472000Y-87958056D01*
X144472000Y-84138207D01*
X166602000Y-84138207D01*
X166602000Y-84517793D01*
X166676053Y-84890085D01*
X166821315Y-85240777D01*
X167032201Y-85556391D01*
X167300609Y-85824799D01*
X167616223Y-86035685D01*
X167966915Y-86180947D01*
X168339207Y-86255000D01*
X168718793Y-86255000D01*
X169091085Y-86180947D01*
X169441777Y-86035685D01*
X169757391Y-85824799D01*
X170025799Y-85556391D01*
X170236685Y-85240777D01*
X170381947Y-84890085D01*
X170456000Y-84517793D01*
X170456000Y-84138207D01*
X170381947Y-83765915D01*
X170236685Y-83415223D01*
X170025799Y-83099609D01*
X169757391Y-82831201D01*
X169441777Y-82620315D01*
X169091085Y-82475053D01*
X168718793Y-82401000D01*
X168339207Y-82401000D01*
X167966915Y-82475053D01*
X167616223Y-82620315D01*
X167300609Y-82831201D01*
X167032201Y-83099609D01*
X166821315Y-83415223D01*
X166676053Y-83765915D01*
X166602000Y-84138207D01*
X144472000Y-84138207D01*
X144472000Y-74842000D01*
X156936418Y-74842000D01*
X156936418Y-76542000D01*
X156942732Y-76606103D01*
X156961430Y-76667743D01*
X156991794Y-76724550D01*
X157032657Y-76774343D01*
X157082450Y-76815206D01*
X157139257Y-76845570D01*
X157200897Y-76864268D01*
X157265000Y-76870582D01*
X158965000Y-76870582D01*
X159029103Y-76864268D01*
X159090743Y-76845570D01*
X159147550Y-76815206D01*
X159197343Y-76774343D01*
X159238206Y-76724550D01*
X159268570Y-76667743D01*
X159287268Y-76606103D01*
X159293582Y-76542000D01*
X159293582Y-75576076D01*
X159478000Y-75576076D01*
X159478000Y-75807924D01*
X159523231Y-76035318D01*
X159611956Y-76249519D01*
X159740764Y-76442294D01*
X159904706Y-76606236D01*
X160097481Y-76735044D01*
X160311682Y-76823769D01*
X160539076Y-76869000D01*
X160770924Y-76869000D01*
X160998318Y-76823769D01*
X161212519Y-76735044D01*
X161405294Y-76606236D01*
X161569236Y-76442294D01*
X161698044Y-76249519D01*
X161786769Y-76035318D01*
X161832000Y-75807924D01*
X161832000Y-75576076D01*
X161817307Y-75502207D01*
X181588000Y-75502207D01*
X181588000Y-75881793D01*
X181662053Y-76254085D01*
X181807315Y-76604777D01*
X182018201Y-76920391D01*
X182286609Y-77188799D01*
X182602223Y-77399685D01*
X182952915Y-77544947D01*
X183325207Y-77619000D01*
X183704793Y-77619000D01*
X184077085Y-77544947D01*
X184427777Y-77399685D01*
X184743391Y-77188799D01*
X185011799Y-76920391D01*
X185222685Y-76604777D01*
X185367947Y-76254085D01*
X185442000Y-75881793D01*
X185442000Y-75502207D01*
X185367947Y-75129915D01*
X185222685Y-74779223D01*
X185011799Y-74463609D01*
X184743391Y-74195201D01*
X184427777Y-73984315D01*
X184077085Y-73839053D01*
X183704793Y-73765000D01*
X183325207Y-73765000D01*
X182952915Y-73839053D01*
X182602223Y-73984315D01*
X182286609Y-74195201D01*
X182018201Y-74463609D01*
X181807315Y-74779223D01*
X181662053Y-75129915D01*
X181588000Y-75502207D01*
X161817307Y-75502207D01*
X161786769Y-75348682D01*
X161698044Y-75134481D01*
X161569236Y-74941706D01*
X161405294Y-74777764D01*
X161212519Y-74648956D01*
X160998318Y-74560231D01*
X160770924Y-74515000D01*
X160539076Y-74515000D01*
X160311682Y-74560231D01*
X160097481Y-74648956D01*
X159904706Y-74777764D01*
X159740764Y-74941706D01*
X159611956Y-75134481D01*
X159523231Y-75348682D01*
X159478000Y-75576076D01*
X159293582Y-75576076D01*
X159293582Y-74842000D01*
X159287268Y-74777897D01*
X159268570Y-74716257D01*
X159238206Y-74659450D01*
X159197343Y-74609657D01*
X159147550Y-74568794D01*
X159090743Y-74538430D01*
X159029103Y-74519732D01*
X158965000Y-74513418D01*
X157265000Y-74513418D01*
X157200897Y-74519732D01*
X157139257Y-74538430D01*
X157082450Y-74568794D01*
X157032657Y-74609657D01*
X156991794Y-74659450D01*
X156961430Y-74716257D01*
X156942732Y-74777897D01*
X156936418Y-74842000D01*
X144472000Y-74842000D01*
X144472000Y-70891000D01*
X187311359Y-70891000D01*
X187517223Y-70911185D01*
%TA.AperFunction,Conductor*%
D18*
G36*
X187517223Y-70911185D02*
G01*
X187702130Y-70967012D01*
X187872668Y-71057688D01*
X188022347Y-71179762D01*
X188145468Y-71328590D01*
X188237334Y-71498493D01*
X188294448Y-71682997D01*
X188316000Y-71888054D01*
X188316001Y-109968349D01*
X188295815Y-110174223D01*
X188239988Y-110359130D01*
X188149310Y-110529670D01*
X188027235Y-110679349D01*
X187878410Y-110802468D01*
X187708511Y-110894332D01*
X187524003Y-110951448D01*
X187318946Y-110973000D01*
X144472000Y-110973000D01*
X144472000Y-105982207D01*
X181588000Y-105982207D01*
X181588000Y-106361793D01*
X181662053Y-106734085D01*
X181807315Y-107084777D01*
X182018201Y-107400391D01*
X182286609Y-107668799D01*
X182602223Y-107879685D01*
X182952915Y-108024947D01*
X183325207Y-108099000D01*
X183704793Y-108099000D01*
X184077085Y-108024947D01*
X184427777Y-107879685D01*
X184743391Y-107668799D01*
X185011799Y-107400391D01*
X185222685Y-107084777D01*
X185367947Y-106734085D01*
X185442000Y-106361793D01*
X185442000Y-105982207D01*
X185367947Y-105609915D01*
X185222685Y-105259223D01*
X185011799Y-104943609D01*
X184743391Y-104675201D01*
X184427777Y-104464315D01*
X184077085Y-104319053D01*
X183704793Y-104245000D01*
X183325207Y-104245000D01*
X182952915Y-104319053D01*
X182602223Y-104464315D01*
X182286609Y-104675201D01*
X182018201Y-104943609D01*
X181807315Y-105259223D01*
X181662053Y-105609915D01*
X181588000Y-105982207D01*
X144472000Y-105982207D01*
X144472000Y-91768056D01*
X166702000Y-91768056D01*
X166702000Y-92127944D01*
X166772211Y-92480916D01*
X166909934Y-92813409D01*
X167109876Y-93112645D01*
X167364355Y-93367124D01*
X167663591Y-93567066D01*
X167996084Y-93704789D01*
X168349056Y-93775000D01*
X168708944Y-93775000D01*
X169061916Y-93704789D01*
X169394409Y-93567066D01*
X169693645Y-93367124D01*
X169948124Y-93112645D01*
X170148066Y-92813409D01*
X170285789Y-92480916D01*
X170356000Y-92127944D01*
X170356000Y-91768056D01*
X170285789Y-91415084D01*
X170148066Y-91082591D01*
X169948124Y-90783355D01*
X169693645Y-90528876D01*
X169394409Y-90328934D01*
X169061916Y-90191211D01*
X168708944Y-90121000D01*
X168349056Y-90121000D01*
X167996084Y-90191211D01*
X167663591Y-90328934D01*
X167364355Y-90528876D01*
X167109876Y-90783355D01*
X166909934Y-91082591D01*
X166772211Y-91415084D01*
X166702000Y-91768056D01*
X144472000Y-91768056D01*
X144472000Y-87958056D01*
X166702000Y-87958056D01*
X166702000Y-88317944D01*
X166772211Y-88670916D01*
X166909934Y-89003409D01*
X167109876Y-89302645D01*
X167364355Y-89557124D01*
X167663591Y-89757066D01*
X167996084Y-89894789D01*
X168349056Y-89965000D01*
X168708944Y-89965000D01*
X169061916Y-89894789D01*
X169394409Y-89757066D01*
X169693645Y-89557124D01*
X169948124Y-89302645D01*
X170148066Y-89003409D01*
X170285789Y-88670916D01*
X170356000Y-88317944D01*
X170356000Y-87958056D01*
X170285789Y-87605084D01*
X170148066Y-87272591D01*
X169948124Y-86973355D01*
X169693645Y-86718876D01*
X169394409Y-86518934D01*
X169061916Y-86381211D01*
X168708944Y-86311000D01*
X168349056Y-86311000D01*
X167996084Y-86381211D01*
X167663591Y-86518934D01*
X167364355Y-86718876D01*
X167109876Y-86973355D01*
X166909934Y-87272591D01*
X166772211Y-87605084D01*
X166702000Y-87958056D01*
X144472000Y-87958056D01*
X144472000Y-84138207D01*
X166602000Y-84138207D01*
X166602000Y-84517793D01*
X166676053Y-84890085D01*
X166821315Y-85240777D01*
X167032201Y-85556391D01*
X167300609Y-85824799D01*
X167616223Y-86035685D01*
X167966915Y-86180947D01*
X168339207Y-86255000D01*
X168718793Y-86255000D01*
X169091085Y-86180947D01*
X169441777Y-86035685D01*
X169757391Y-85824799D01*
X170025799Y-85556391D01*
X170236685Y-85240777D01*
X170381947Y-84890085D01*
X170456000Y-84517793D01*
X170456000Y-84138207D01*
X170381947Y-83765915D01*
X170236685Y-83415223D01*
X170025799Y-83099609D01*
X169757391Y-82831201D01*
X169441777Y-82620315D01*
X169091085Y-82475053D01*
X168718793Y-82401000D01*
X168339207Y-82401000D01*
X167966915Y-82475053D01*
X167616223Y-82620315D01*
X167300609Y-82831201D01*
X167032201Y-83099609D01*
X166821315Y-83415223D01*
X166676053Y-83765915D01*
X166602000Y-84138207D01*
X144472000Y-84138207D01*
X144472000Y-74842000D01*
X156936418Y-74842000D01*
X156936418Y-76542000D01*
X156942732Y-76606103D01*
X156961430Y-76667743D01*
X156991794Y-76724550D01*
X157032657Y-76774343D01*
X157082450Y-76815206D01*
X157139257Y-76845570D01*
X157200897Y-76864268D01*
X157265000Y-76870582D01*
X158965000Y-76870582D01*
X159029103Y-76864268D01*
X159090743Y-76845570D01*
X159147550Y-76815206D01*
X159197343Y-76774343D01*
X159238206Y-76724550D01*
X159268570Y-76667743D01*
X159287268Y-76606103D01*
X159293582Y-76542000D01*
X159293582Y-75576076D01*
X159478000Y-75576076D01*
X159478000Y-75807924D01*
X159523231Y-76035318D01*
X159611956Y-76249519D01*
X159740764Y-76442294D01*
X159904706Y-76606236D01*
X160097481Y-76735044D01*
X160311682Y-76823769D01*
X160539076Y-76869000D01*
X160770924Y-76869000D01*
X160998318Y-76823769D01*
X161212519Y-76735044D01*
X161405294Y-76606236D01*
X161569236Y-76442294D01*
X161698044Y-76249519D01*
X161786769Y-76035318D01*
X161832000Y-75807924D01*
X161832000Y-75576076D01*
X161817307Y-75502207D01*
X181588000Y-75502207D01*
X181588000Y-75881793D01*
X181662053Y-76254085D01*
X181807315Y-76604777D01*
X182018201Y-76920391D01*
X182286609Y-77188799D01*
X182602223Y-77399685D01*
X182952915Y-77544947D01*
X183325207Y-77619000D01*
X183704793Y-77619000D01*
X184077085Y-77544947D01*
X184427777Y-77399685D01*
X184743391Y-77188799D01*
X185011799Y-76920391D01*
X185222685Y-76604777D01*
X185367947Y-76254085D01*
X185442000Y-75881793D01*
X185442000Y-75502207D01*
X185367947Y-75129915D01*
X185222685Y-74779223D01*
X185011799Y-74463609D01*
X184743391Y-74195201D01*
X184427777Y-73984315D01*
X184077085Y-73839053D01*
X183704793Y-73765000D01*
X183325207Y-73765000D01*
X182952915Y-73839053D01*
X182602223Y-73984315D01*
X182286609Y-74195201D01*
X182018201Y-74463609D01*
X181807315Y-74779223D01*
X181662053Y-75129915D01*
X181588000Y-75502207D01*
X161817307Y-75502207D01*
X161786769Y-75348682D01*
X161698044Y-75134481D01*
X161569236Y-74941706D01*
X161405294Y-74777764D01*
X161212519Y-74648956D01*
X160998318Y-74560231D01*
X160770924Y-74515000D01*
X160539076Y-74515000D01*
X160311682Y-74560231D01*
X160097481Y-74648956D01*
X159904706Y-74777764D01*
X159740764Y-74941706D01*
X159611956Y-75134481D01*
X159523231Y-75348682D01*
X159478000Y-75576076D01*
X159293582Y-75576076D01*
X159293582Y-74842000D01*
X159287268Y-74777897D01*
X159268570Y-74716257D01*
X159238206Y-74659450D01*
X159197343Y-74609657D01*
X159147550Y-74568794D01*
X159090743Y-74538430D01*
X159029103Y-74519732D01*
X158965000Y-74513418D01*
X157265000Y-74513418D01*
X157200897Y-74519732D01*
X157139257Y-74538430D01*
X157082450Y-74568794D01*
X157032657Y-74609657D01*
X156991794Y-74659450D01*
X156961430Y-74716257D01*
X156942732Y-74777897D01*
X156936418Y-74842000D01*
X144472000Y-74842000D01*
X144472000Y-70891000D01*
X187311359Y-70891000D01*
X187517223Y-70911185D01*
G37*
%TD.AperFunction*%
%TD*%
M02*
