%TF.GenerationSoftware,KiCad,Pcbnew,(5.1.12)-1*%
%TF.CreationDate,2022-03-31T08:39:47-05:00*%
%TF.ProjectId,Power_Board,506f7765-725f-4426-9f61-72642e6b6963,rev?*%
%TF.SameCoordinates,Original*%
%TF.FileFunction,Legend,Bot*%
%TF.FilePolarity,Positive*%
%FSLAX46Y46*%
G04 Gerber Fmt 4.6, Leading zero omitted, Abs format (unit mm)*
G04 Created by KiCad (PCBNEW (5.1.12)-1) date 2022-03-31 08:39:47*
%MOMM*%
%LPD*%
G01*
G04 APERTURE LIST*
%ADD10C,0.150000*%
G04 APERTURE END LIST*
%TO.C,J5*%
D10*
X123404380Y-86011047D02*
X124404380Y-86344380D01*
X123404380Y-86677714D01*
X123404380Y-87201523D02*
X123404380Y-87392000D01*
X123452000Y-87487238D01*
X123547238Y-87582476D01*
X123737714Y-87630095D01*
X124071047Y-87630095D01*
X124261523Y-87582476D01*
X124356761Y-87487238D01*
X124404380Y-87392000D01*
X124404380Y-87201523D01*
X124356761Y-87106285D01*
X124261523Y-87011047D01*
X124071047Y-86963428D01*
X123737714Y-86963428D01*
X123547238Y-87011047D01*
X123452000Y-87106285D01*
X123404380Y-87201523D01*
X123404380Y-88058666D02*
X124213904Y-88058666D01*
X124309142Y-88106285D01*
X124356761Y-88153904D01*
X124404380Y-88249142D01*
X124404380Y-88439619D01*
X124356761Y-88534857D01*
X124309142Y-88582476D01*
X124213904Y-88630095D01*
X123404380Y-88630095D01*
X123404380Y-88963428D02*
X123404380Y-89534857D01*
X124404380Y-89249142D02*
X123404380Y-89249142D01*
X124023428Y-89868190D02*
X124023428Y-90630095D01*
X124404380Y-90249142D02*
X123642476Y-90249142D01*
X124317095Y-91956000D02*
X124412333Y-91908380D01*
X124555190Y-91908380D01*
X124698047Y-91956000D01*
X124793285Y-92051238D01*
X124840904Y-92146476D01*
X124888523Y-92336952D01*
X124888523Y-92479809D01*
X124840904Y-92670285D01*
X124793285Y-92765523D01*
X124698047Y-92860761D01*
X124555190Y-92908380D01*
X124459952Y-92908380D01*
X124317095Y-92860761D01*
X124269476Y-92813142D01*
X124269476Y-92479809D01*
X124459952Y-92479809D01*
X123840904Y-92908380D02*
X123840904Y-91908380D01*
X123602809Y-91908380D01*
X123459952Y-91956000D01*
X123364714Y-92051238D01*
X123317095Y-92146476D01*
X123269476Y-92336952D01*
X123269476Y-92479809D01*
X123317095Y-92670285D01*
X123364714Y-92765523D01*
X123459952Y-92860761D01*
X123602809Y-92908380D01*
X123840904Y-92908380D01*
X123404380Y-94266047D02*
X124404380Y-94599380D01*
X123404380Y-94932714D01*
X123404380Y-95456523D02*
X123404380Y-95647000D01*
X123452000Y-95742238D01*
X123547238Y-95837476D01*
X123737714Y-95885095D01*
X124071047Y-95885095D01*
X124261523Y-95837476D01*
X124356761Y-95742238D01*
X124404380Y-95647000D01*
X124404380Y-95456523D01*
X124356761Y-95361285D01*
X124261523Y-95266047D01*
X124071047Y-95218428D01*
X123737714Y-95218428D01*
X123547238Y-95266047D01*
X123452000Y-95361285D01*
X123404380Y-95456523D01*
X123404380Y-96313666D02*
X124213904Y-96313666D01*
X124309142Y-96361285D01*
X124356761Y-96408904D01*
X124404380Y-96504142D01*
X124404380Y-96694619D01*
X124356761Y-96789857D01*
X124309142Y-96837476D01*
X124213904Y-96885095D01*
X123404380Y-96885095D01*
X123404380Y-97218428D02*
X123404380Y-97789857D01*
X124404380Y-97504142D02*
X123404380Y-97504142D01*
X124023428Y-98123190D02*
X124023428Y-98885095D01*
%TO.C,J10*%
X162544047Y-87574380D02*
X163115476Y-87574380D01*
X162829761Y-87574380D02*
X162829761Y-86574380D01*
X162925000Y-86717238D01*
X163020238Y-86812476D01*
X163115476Y-86860095D01*
X162163095Y-86669619D02*
X162115476Y-86622000D01*
X162020238Y-86574380D01*
X161782142Y-86574380D01*
X161686904Y-86622000D01*
X161639285Y-86669619D01*
X161591666Y-86764857D01*
X161591666Y-86860095D01*
X161639285Y-87002952D01*
X162210714Y-87574380D01*
X161591666Y-87574380D01*
X161305952Y-86574380D02*
X160972619Y-87574380D01*
X160639285Y-86574380D01*
X162544047Y-90114380D02*
X163115476Y-90114380D01*
X162829761Y-90114380D02*
X162829761Y-89114380D01*
X162925000Y-89257238D01*
X163020238Y-89352476D01*
X163115476Y-89400095D01*
X162163095Y-89209619D02*
X162115476Y-89162000D01*
X162020238Y-89114380D01*
X161782142Y-89114380D01*
X161686904Y-89162000D01*
X161639285Y-89209619D01*
X161591666Y-89304857D01*
X161591666Y-89400095D01*
X161639285Y-89542952D01*
X162210714Y-90114380D01*
X161591666Y-90114380D01*
X161305952Y-89114380D02*
X160972619Y-90114380D01*
X160639285Y-89114380D01*
X163163095Y-91654380D02*
X162544047Y-91654380D01*
X162877380Y-92035333D01*
X162734523Y-92035333D01*
X162639285Y-92082952D01*
X162591666Y-92130571D01*
X162544047Y-92225809D01*
X162544047Y-92463904D01*
X162591666Y-92559142D01*
X162639285Y-92606761D01*
X162734523Y-92654380D01*
X163020238Y-92654380D01*
X163115476Y-92606761D01*
X163163095Y-92559142D01*
X162258333Y-91654380D02*
X161925000Y-92654380D01*
X161591666Y-91654380D01*
X161353571Y-91654380D02*
X160734523Y-91654380D01*
X161067857Y-92035333D01*
X160925000Y-92035333D01*
X160829761Y-92082952D01*
X160782142Y-92130571D01*
X160734523Y-92225809D01*
X160734523Y-92463904D01*
X160782142Y-92559142D01*
X160829761Y-92606761D01*
X160925000Y-92654380D01*
X161210714Y-92654380D01*
X161305952Y-92606761D01*
X161353571Y-92559142D01*
X162686904Y-94242000D02*
X162782142Y-94194380D01*
X162925000Y-94194380D01*
X163067857Y-94242000D01*
X163163095Y-94337238D01*
X163210714Y-94432476D01*
X163258333Y-94622952D01*
X163258333Y-94765809D01*
X163210714Y-94956285D01*
X163163095Y-95051523D01*
X163067857Y-95146761D01*
X162925000Y-95194380D01*
X162829761Y-95194380D01*
X162686904Y-95146761D01*
X162639285Y-95099142D01*
X162639285Y-94765809D01*
X162829761Y-94765809D01*
X162210714Y-95194380D02*
X162210714Y-94194380D01*
X161639285Y-95194380D01*
X161639285Y-94194380D01*
X161163095Y-95194380D02*
X161163095Y-94194380D01*
X160925000Y-94194380D01*
X160782142Y-94242000D01*
X160686904Y-94337238D01*
X160639285Y-94432476D01*
X160591666Y-94622952D01*
X160591666Y-94765809D01*
X160639285Y-94956285D01*
X160686904Y-95051523D01*
X160782142Y-95146761D01*
X160925000Y-95194380D01*
X161163095Y-95194380D01*
X162686904Y-97036000D02*
X162782142Y-96988380D01*
X162925000Y-96988380D01*
X163067857Y-97036000D01*
X163163095Y-97131238D01*
X163210714Y-97226476D01*
X163258333Y-97416952D01*
X163258333Y-97559809D01*
X163210714Y-97750285D01*
X163163095Y-97845523D01*
X163067857Y-97940761D01*
X162925000Y-97988380D01*
X162829761Y-97988380D01*
X162686904Y-97940761D01*
X162639285Y-97893142D01*
X162639285Y-97559809D01*
X162829761Y-97559809D01*
X162210714Y-97988380D02*
X162210714Y-96988380D01*
X161639285Y-97988380D01*
X161639285Y-96988380D01*
X161163095Y-97988380D02*
X161163095Y-96988380D01*
X160925000Y-96988380D01*
X160782142Y-97036000D01*
X160686904Y-97131238D01*
X160639285Y-97226476D01*
X160591666Y-97416952D01*
X160591666Y-97559809D01*
X160639285Y-97750285D01*
X160686904Y-97845523D01*
X160782142Y-97940761D01*
X160925000Y-97988380D01*
X161163095Y-97988380D01*
%TD*%
M02*
