%TF.GenerationSoftware,KiCad,Pcbnew,(5.1.12)-1*%
%TF.CreationDate,2022-03-31T08:39:47-05:00*%
%TF.ProjectId,Power_Board,506f7765-725f-4426-9f61-72642e6b6963,rev?*%
%TF.SameCoordinates,Original*%
%TF.FileFunction,Copper,L2,Bot*%
%TF.FilePolarity,Positive*%
%FSLAX46Y46*%
G04 Gerber Fmt 4.6, Leading zero omitted, Abs format (unit mm)*
G04 Created by KiCad (PCBNEW (5.1.12)-1) date 2022-03-31 08:39:47*
%MOMM*%
%LPD*%
G01*
G04 APERTURE LIST*
%TA.AperFunction,ComponentPad*%
%ADD10C,3.000000*%
%TD*%
%TA.AperFunction,ComponentPad*%
%ADD11C,3.200000*%
%TD*%
%TA.AperFunction,ComponentPad*%
%ADD12R,1.600000X1.600000*%
%TD*%
%TA.AperFunction,ComponentPad*%
%ADD13C,1.600000*%
%TD*%
%TA.AperFunction,ComponentPad*%
%ADD14R,1.700000X1.700000*%
%TD*%
%TA.AperFunction,ComponentPad*%
%ADD15O,1.700000X1.700000*%
%TD*%
%TA.AperFunction,ViaPad*%
%ADD16C,0.800000*%
%TD*%
%TA.AperFunction,Conductor*%
%ADD17C,0.254000*%
%TD*%
%TA.AperFunction,Conductor*%
%ADD18C,0.100000*%
%TD*%
G04 APERTURE END LIST*
D10*
%TO.P,U5,1*%
%TO.N,VOUT+*%
X117729000Y-84328000D03*
%TO.P,U5,2*%
%TO.N,PWRGD*%
X117729000Y-91948000D03*
%TO.P,U5,3*%
%TO.N,VOUT-*%
X117729000Y-99568000D03*
D11*
%TO.P,U5,4*%
%TO.N,GND*%
X168529000Y-99568000D03*
D10*
%TO.P,U5,5*%
X168529000Y-95758000D03*
%TO.P,U5,6*%
%TO.N,Net-(U5-Pad6)*%
X168529000Y-91948000D03*
%TO.P,U5,7*%
%TO.N,+12V*%
X168529000Y-88138000D03*
D11*
%TO.P,U5,8*%
X168529000Y-84328000D03*
%TD*%
D12*
%TO.P,C40,1*%
%TO.N,VOUT+*%
X121158000Y-75692000D03*
D13*
%TO.P,C40,2*%
%TO.N,VOUT-*%
X124658000Y-75692000D03*
%TD*%
D14*
%TO.P,J5,1*%
%TO.N,VOUT+*%
X121158000Y-87249000D03*
D15*
%TO.P,J5,2*%
X121158000Y-89789000D03*
%TO.P,J5,3*%
%TO.N,PWRGD*%
X121158000Y-92329000D03*
%TO.P,J5,4*%
%TO.N,VOUT-*%
X121158000Y-94869000D03*
%TO.P,J5,5*%
X121158000Y-97409000D03*
%TD*%
%TO.P,J10,5*%
%TO.N,GND*%
X165227000Y-97409000D03*
%TO.P,J10,4*%
X165227000Y-94869000D03*
%TO.P,J10,3*%
%TO.N,+3V3*%
X165227000Y-92329000D03*
%TO.P,J10,2*%
%TO.N,+12V*%
X165227000Y-89789000D03*
D14*
%TO.P,J10,1*%
X165227000Y-87249000D03*
%TD*%
D16*
%TO.N,GND*%
X156591000Y-77216000D03*
X176784000Y-81788000D03*
X174625000Y-78232000D03*
%TD*%
D17*
%TO.N,VOUT-*%
X144018000Y-103353000D02*
X115075641Y-103353000D01*
X114869777Y-103332815D01*
X114684870Y-103276988D01*
X114514330Y-103186310D01*
X114364651Y-103064235D01*
X114241532Y-102915410D01*
X114149668Y-102745511D01*
X114092552Y-102561003D01*
X114071000Y-102355946D01*
X114071000Y-91768056D01*
X115902000Y-91768056D01*
X115902000Y-92127944D01*
X115972211Y-92480916D01*
X116109934Y-92813409D01*
X116309876Y-93112645D01*
X116564355Y-93367124D01*
X116863591Y-93567066D01*
X117196084Y-93704789D01*
X117549056Y-93775000D01*
X117908944Y-93775000D01*
X118261916Y-93704789D01*
X118594409Y-93567066D01*
X118893645Y-93367124D01*
X119148124Y-93112645D01*
X119348066Y-92813409D01*
X119485789Y-92480916D01*
X119539066Y-92213076D01*
X119981000Y-92213076D01*
X119981000Y-92444924D01*
X120026231Y-92672318D01*
X120114956Y-92886519D01*
X120243764Y-93079294D01*
X120407706Y-93243236D01*
X120600481Y-93372044D01*
X120814682Y-93460769D01*
X121042076Y-93506000D01*
X121273924Y-93506000D01*
X121501318Y-93460769D01*
X121715519Y-93372044D01*
X121908294Y-93243236D01*
X122072236Y-93079294D01*
X122201044Y-92886519D01*
X122289769Y-92672318D01*
X122335000Y-92444924D01*
X122335000Y-92213076D01*
X122289769Y-91985682D01*
X122201044Y-91771481D01*
X122072236Y-91578706D01*
X121908294Y-91414764D01*
X121715519Y-91285956D01*
X121501318Y-91197231D01*
X121273924Y-91152000D01*
X121042076Y-91152000D01*
X120814682Y-91197231D01*
X120600481Y-91285956D01*
X120407706Y-91414764D01*
X120243764Y-91578706D01*
X120114956Y-91771481D01*
X120026231Y-91985682D01*
X119981000Y-92213076D01*
X119539066Y-92213076D01*
X119556000Y-92127944D01*
X119556000Y-91768056D01*
X119485789Y-91415084D01*
X119348066Y-91082591D01*
X119148124Y-90783355D01*
X118893645Y-90528876D01*
X118594409Y-90328934D01*
X118261916Y-90191211D01*
X117908944Y-90121000D01*
X117549056Y-90121000D01*
X117196084Y-90191211D01*
X116863591Y-90328934D01*
X116564355Y-90528876D01*
X116309876Y-90783355D01*
X116109934Y-91082591D01*
X115972211Y-91415084D01*
X115902000Y-91768056D01*
X114071000Y-91768056D01*
X114071000Y-89673076D01*
X119981000Y-89673076D01*
X119981000Y-89904924D01*
X120026231Y-90132318D01*
X120114956Y-90346519D01*
X120243764Y-90539294D01*
X120407706Y-90703236D01*
X120600481Y-90832044D01*
X120814682Y-90920769D01*
X121042076Y-90966000D01*
X121273924Y-90966000D01*
X121501318Y-90920769D01*
X121715519Y-90832044D01*
X121908294Y-90703236D01*
X122072236Y-90539294D01*
X122201044Y-90346519D01*
X122289769Y-90132318D01*
X122335000Y-89904924D01*
X122335000Y-89673076D01*
X122289769Y-89445682D01*
X122201044Y-89231481D01*
X122072236Y-89038706D01*
X121908294Y-88874764D01*
X121715519Y-88745956D01*
X121501318Y-88657231D01*
X121273924Y-88612000D01*
X121042076Y-88612000D01*
X120814682Y-88657231D01*
X120600481Y-88745956D01*
X120407706Y-88874764D01*
X120243764Y-89038706D01*
X120114956Y-89231481D01*
X120026231Y-89445682D01*
X119981000Y-89673076D01*
X114071000Y-89673076D01*
X114071000Y-86399000D01*
X119979418Y-86399000D01*
X119979418Y-88099000D01*
X119985732Y-88163103D01*
X120004430Y-88224743D01*
X120034794Y-88281550D01*
X120075657Y-88331343D01*
X120125450Y-88372206D01*
X120182257Y-88402570D01*
X120243897Y-88421268D01*
X120308000Y-88427582D01*
X122008000Y-88427582D01*
X122072103Y-88421268D01*
X122133743Y-88402570D01*
X122190550Y-88372206D01*
X122240343Y-88331343D01*
X122281206Y-88281550D01*
X122311570Y-88224743D01*
X122330268Y-88163103D01*
X122336582Y-88099000D01*
X122336582Y-86399000D01*
X122330268Y-86334897D01*
X122311570Y-86273257D01*
X122281206Y-86216450D01*
X122240343Y-86166657D01*
X122190550Y-86125794D01*
X122133743Y-86095430D01*
X122072103Y-86076732D01*
X122008000Y-86070418D01*
X120308000Y-86070418D01*
X120243897Y-86076732D01*
X120182257Y-86095430D01*
X120125450Y-86125794D01*
X120075657Y-86166657D01*
X120034794Y-86216450D01*
X120004430Y-86273257D01*
X119985732Y-86334897D01*
X119979418Y-86399000D01*
X114071000Y-86399000D01*
X114071000Y-84148056D01*
X115902000Y-84148056D01*
X115902000Y-84507944D01*
X115972211Y-84860916D01*
X116109934Y-85193409D01*
X116309876Y-85492645D01*
X116564355Y-85747124D01*
X116863591Y-85947066D01*
X117196084Y-86084789D01*
X117549056Y-86155000D01*
X117908944Y-86155000D01*
X118261916Y-86084789D01*
X118594409Y-85947066D01*
X118893645Y-85747124D01*
X119148124Y-85492645D01*
X119348066Y-85193409D01*
X119485789Y-84860916D01*
X119556000Y-84507944D01*
X119556000Y-84148056D01*
X119485789Y-83795084D01*
X119348066Y-83462591D01*
X119148124Y-83163355D01*
X118893645Y-82908876D01*
X118594409Y-82708934D01*
X118261916Y-82571211D01*
X117908944Y-82501000D01*
X117549056Y-82501000D01*
X117196084Y-82571211D01*
X116863591Y-82708934D01*
X116564355Y-82908876D01*
X116309876Y-83163355D01*
X116109934Y-83462591D01*
X115972211Y-83795084D01*
X115902000Y-84148056D01*
X114071000Y-84148056D01*
X114071000Y-74892000D01*
X120029418Y-74892000D01*
X120029418Y-76492000D01*
X120035732Y-76556103D01*
X120054430Y-76617743D01*
X120084794Y-76674550D01*
X120125657Y-76724343D01*
X120175450Y-76765206D01*
X120232257Y-76795570D01*
X120293897Y-76814268D01*
X120358000Y-76820582D01*
X121958000Y-76820582D01*
X122022103Y-76814268D01*
X122083743Y-76795570D01*
X122140550Y-76765206D01*
X122190343Y-76724343D01*
X122231206Y-76674550D01*
X122261570Y-76617743D01*
X122280268Y-76556103D01*
X122286582Y-76492000D01*
X122286582Y-74892000D01*
X122280268Y-74827897D01*
X122261570Y-74766257D01*
X122231206Y-74709450D01*
X122190343Y-74659657D01*
X122140550Y-74618794D01*
X122083743Y-74588430D01*
X122022103Y-74569732D01*
X121958000Y-74563418D01*
X120358000Y-74563418D01*
X120293897Y-74569732D01*
X120232257Y-74588430D01*
X120175450Y-74618794D01*
X120125657Y-74659657D01*
X120084794Y-74709450D01*
X120054430Y-74766257D01*
X120035732Y-74827897D01*
X120029418Y-74892000D01*
X114071000Y-74892000D01*
X114071000Y-72530641D01*
X114091185Y-72324777D01*
X114147012Y-72139870D01*
X114237688Y-71969332D01*
X114359762Y-71819653D01*
X114508590Y-71696532D01*
X114678493Y-71604666D01*
X114862997Y-71547552D01*
X115068054Y-71526000D01*
X144018000Y-71526000D01*
X144018000Y-103353000D01*
%TA.AperFunction,Conductor*%
D18*
G36*
X144018000Y-103353000D02*
G01*
X115075641Y-103353000D01*
X114869777Y-103332815D01*
X114684870Y-103276988D01*
X114514330Y-103186310D01*
X114364651Y-103064235D01*
X114241532Y-102915410D01*
X114149668Y-102745511D01*
X114092552Y-102561003D01*
X114071000Y-102355946D01*
X114071000Y-91768056D01*
X115902000Y-91768056D01*
X115902000Y-92127944D01*
X115972211Y-92480916D01*
X116109934Y-92813409D01*
X116309876Y-93112645D01*
X116564355Y-93367124D01*
X116863591Y-93567066D01*
X117196084Y-93704789D01*
X117549056Y-93775000D01*
X117908944Y-93775000D01*
X118261916Y-93704789D01*
X118594409Y-93567066D01*
X118893645Y-93367124D01*
X119148124Y-93112645D01*
X119348066Y-92813409D01*
X119485789Y-92480916D01*
X119539066Y-92213076D01*
X119981000Y-92213076D01*
X119981000Y-92444924D01*
X120026231Y-92672318D01*
X120114956Y-92886519D01*
X120243764Y-93079294D01*
X120407706Y-93243236D01*
X120600481Y-93372044D01*
X120814682Y-93460769D01*
X121042076Y-93506000D01*
X121273924Y-93506000D01*
X121501318Y-93460769D01*
X121715519Y-93372044D01*
X121908294Y-93243236D01*
X122072236Y-93079294D01*
X122201044Y-92886519D01*
X122289769Y-92672318D01*
X122335000Y-92444924D01*
X122335000Y-92213076D01*
X122289769Y-91985682D01*
X122201044Y-91771481D01*
X122072236Y-91578706D01*
X121908294Y-91414764D01*
X121715519Y-91285956D01*
X121501318Y-91197231D01*
X121273924Y-91152000D01*
X121042076Y-91152000D01*
X120814682Y-91197231D01*
X120600481Y-91285956D01*
X120407706Y-91414764D01*
X120243764Y-91578706D01*
X120114956Y-91771481D01*
X120026231Y-91985682D01*
X119981000Y-92213076D01*
X119539066Y-92213076D01*
X119556000Y-92127944D01*
X119556000Y-91768056D01*
X119485789Y-91415084D01*
X119348066Y-91082591D01*
X119148124Y-90783355D01*
X118893645Y-90528876D01*
X118594409Y-90328934D01*
X118261916Y-90191211D01*
X117908944Y-90121000D01*
X117549056Y-90121000D01*
X117196084Y-90191211D01*
X116863591Y-90328934D01*
X116564355Y-90528876D01*
X116309876Y-90783355D01*
X116109934Y-91082591D01*
X115972211Y-91415084D01*
X115902000Y-91768056D01*
X114071000Y-91768056D01*
X114071000Y-89673076D01*
X119981000Y-89673076D01*
X119981000Y-89904924D01*
X120026231Y-90132318D01*
X120114956Y-90346519D01*
X120243764Y-90539294D01*
X120407706Y-90703236D01*
X120600481Y-90832044D01*
X120814682Y-90920769D01*
X121042076Y-90966000D01*
X121273924Y-90966000D01*
X121501318Y-90920769D01*
X121715519Y-90832044D01*
X121908294Y-90703236D01*
X122072236Y-90539294D01*
X122201044Y-90346519D01*
X122289769Y-90132318D01*
X122335000Y-89904924D01*
X122335000Y-89673076D01*
X122289769Y-89445682D01*
X122201044Y-89231481D01*
X122072236Y-89038706D01*
X121908294Y-88874764D01*
X121715519Y-88745956D01*
X121501318Y-88657231D01*
X121273924Y-88612000D01*
X121042076Y-88612000D01*
X120814682Y-88657231D01*
X120600481Y-88745956D01*
X120407706Y-88874764D01*
X120243764Y-89038706D01*
X120114956Y-89231481D01*
X120026231Y-89445682D01*
X119981000Y-89673076D01*
X114071000Y-89673076D01*
X114071000Y-86399000D01*
X119979418Y-86399000D01*
X119979418Y-88099000D01*
X119985732Y-88163103D01*
X120004430Y-88224743D01*
X120034794Y-88281550D01*
X120075657Y-88331343D01*
X120125450Y-88372206D01*
X120182257Y-88402570D01*
X120243897Y-88421268D01*
X120308000Y-88427582D01*
X122008000Y-88427582D01*
X122072103Y-88421268D01*
X122133743Y-88402570D01*
X122190550Y-88372206D01*
X122240343Y-88331343D01*
X122281206Y-88281550D01*
X122311570Y-88224743D01*
X122330268Y-88163103D01*
X122336582Y-88099000D01*
X122336582Y-86399000D01*
X122330268Y-86334897D01*
X122311570Y-86273257D01*
X122281206Y-86216450D01*
X122240343Y-86166657D01*
X122190550Y-86125794D01*
X122133743Y-86095430D01*
X122072103Y-86076732D01*
X122008000Y-86070418D01*
X120308000Y-86070418D01*
X120243897Y-86076732D01*
X120182257Y-86095430D01*
X120125450Y-86125794D01*
X120075657Y-86166657D01*
X120034794Y-86216450D01*
X120004430Y-86273257D01*
X119985732Y-86334897D01*
X119979418Y-86399000D01*
X114071000Y-86399000D01*
X114071000Y-84148056D01*
X115902000Y-84148056D01*
X115902000Y-84507944D01*
X115972211Y-84860916D01*
X116109934Y-85193409D01*
X116309876Y-85492645D01*
X116564355Y-85747124D01*
X116863591Y-85947066D01*
X117196084Y-86084789D01*
X117549056Y-86155000D01*
X117908944Y-86155000D01*
X118261916Y-86084789D01*
X118594409Y-85947066D01*
X118893645Y-85747124D01*
X119148124Y-85492645D01*
X119348066Y-85193409D01*
X119485789Y-84860916D01*
X119556000Y-84507944D01*
X119556000Y-84148056D01*
X119485789Y-83795084D01*
X119348066Y-83462591D01*
X119148124Y-83163355D01*
X118893645Y-82908876D01*
X118594409Y-82708934D01*
X118261916Y-82571211D01*
X117908944Y-82501000D01*
X117549056Y-82501000D01*
X117196084Y-82571211D01*
X116863591Y-82708934D01*
X116564355Y-82908876D01*
X116309876Y-83163355D01*
X116109934Y-83462591D01*
X115972211Y-83795084D01*
X115902000Y-84148056D01*
X114071000Y-84148056D01*
X114071000Y-74892000D01*
X120029418Y-74892000D01*
X120029418Y-76492000D01*
X120035732Y-76556103D01*
X120054430Y-76617743D01*
X120084794Y-76674550D01*
X120125657Y-76724343D01*
X120175450Y-76765206D01*
X120232257Y-76795570D01*
X120293897Y-76814268D01*
X120358000Y-76820582D01*
X121958000Y-76820582D01*
X122022103Y-76814268D01*
X122083743Y-76795570D01*
X122140550Y-76765206D01*
X122190343Y-76724343D01*
X122231206Y-76674550D01*
X122261570Y-76617743D01*
X122280268Y-76556103D01*
X122286582Y-76492000D01*
X122286582Y-74892000D01*
X122280268Y-74827897D01*
X122261570Y-74766257D01*
X122231206Y-74709450D01*
X122190343Y-74659657D01*
X122140550Y-74618794D01*
X122083743Y-74588430D01*
X122022103Y-74569732D01*
X121958000Y-74563418D01*
X120358000Y-74563418D01*
X120293897Y-74569732D01*
X120232257Y-74588430D01*
X120175450Y-74618794D01*
X120125657Y-74659657D01*
X120084794Y-74709450D01*
X120054430Y-74766257D01*
X120035732Y-74827897D01*
X120029418Y-74892000D01*
X114071000Y-74892000D01*
X114071000Y-72530641D01*
X114091185Y-72324777D01*
X114147012Y-72139870D01*
X114237688Y-71969332D01*
X114359762Y-71819653D01*
X114508590Y-71696532D01*
X114678493Y-71604666D01*
X114862997Y-71547552D01*
X115068054Y-71526000D01*
X144018000Y-71526000D01*
X144018000Y-103353000D01*
G37*
%TD.AperFunction*%
%TD*%
D17*
%TO.N,GND*%
X183199223Y-71546185D02*
X183384130Y-71602012D01*
X183554668Y-71692688D01*
X183704347Y-71814762D01*
X183827468Y-71963590D01*
X183919334Y-72133493D01*
X183976448Y-72317997D01*
X183998001Y-72523063D01*
X183998000Y-102348359D01*
X183977815Y-102554223D01*
X183921988Y-102739130D01*
X183831310Y-102909670D01*
X183709235Y-103059349D01*
X183560410Y-103182468D01*
X183390511Y-103274332D01*
X183206003Y-103331448D01*
X183000946Y-103353000D01*
X144472000Y-103353000D01*
X144472000Y-92213076D01*
X164050000Y-92213076D01*
X164050000Y-92444924D01*
X164095231Y-92672318D01*
X164183956Y-92886519D01*
X164312764Y-93079294D01*
X164476706Y-93243236D01*
X164669481Y-93372044D01*
X164883682Y-93460769D01*
X165111076Y-93506000D01*
X165342924Y-93506000D01*
X165570318Y-93460769D01*
X165784519Y-93372044D01*
X165977294Y-93243236D01*
X166141236Y-93079294D01*
X166270044Y-92886519D01*
X166358769Y-92672318D01*
X166404000Y-92444924D01*
X166404000Y-92213076D01*
X166358769Y-91985682D01*
X166270044Y-91771481D01*
X166267756Y-91768056D01*
X166702000Y-91768056D01*
X166702000Y-92127944D01*
X166772211Y-92480916D01*
X166909934Y-92813409D01*
X167109876Y-93112645D01*
X167364355Y-93367124D01*
X167663591Y-93567066D01*
X167996084Y-93704789D01*
X168349056Y-93775000D01*
X168708944Y-93775000D01*
X169061916Y-93704789D01*
X169394409Y-93567066D01*
X169693645Y-93367124D01*
X169948124Y-93112645D01*
X170148066Y-92813409D01*
X170285789Y-92480916D01*
X170356000Y-92127944D01*
X170356000Y-91768056D01*
X170285789Y-91415084D01*
X170148066Y-91082591D01*
X169948124Y-90783355D01*
X169693645Y-90528876D01*
X169394409Y-90328934D01*
X169061916Y-90191211D01*
X168708944Y-90121000D01*
X168349056Y-90121000D01*
X167996084Y-90191211D01*
X167663591Y-90328934D01*
X167364355Y-90528876D01*
X167109876Y-90783355D01*
X166909934Y-91082591D01*
X166772211Y-91415084D01*
X166702000Y-91768056D01*
X166267756Y-91768056D01*
X166141236Y-91578706D01*
X165977294Y-91414764D01*
X165784519Y-91285956D01*
X165570318Y-91197231D01*
X165342924Y-91152000D01*
X165111076Y-91152000D01*
X164883682Y-91197231D01*
X164669481Y-91285956D01*
X164476706Y-91414764D01*
X164312764Y-91578706D01*
X164183956Y-91771481D01*
X164095231Y-91985682D01*
X164050000Y-92213076D01*
X144472000Y-92213076D01*
X144472000Y-89673076D01*
X164050000Y-89673076D01*
X164050000Y-89904924D01*
X164095231Y-90132318D01*
X164183956Y-90346519D01*
X164312764Y-90539294D01*
X164476706Y-90703236D01*
X164669481Y-90832044D01*
X164883682Y-90920769D01*
X165111076Y-90966000D01*
X165342924Y-90966000D01*
X165570318Y-90920769D01*
X165784519Y-90832044D01*
X165977294Y-90703236D01*
X166141236Y-90539294D01*
X166270044Y-90346519D01*
X166358769Y-90132318D01*
X166404000Y-89904924D01*
X166404000Y-89673076D01*
X166358769Y-89445682D01*
X166270044Y-89231481D01*
X166141236Y-89038706D01*
X165977294Y-88874764D01*
X165784519Y-88745956D01*
X165570318Y-88657231D01*
X165342924Y-88612000D01*
X165111076Y-88612000D01*
X164883682Y-88657231D01*
X164669481Y-88745956D01*
X164476706Y-88874764D01*
X164312764Y-89038706D01*
X164183956Y-89231481D01*
X164095231Y-89445682D01*
X164050000Y-89673076D01*
X144472000Y-89673076D01*
X144472000Y-86399000D01*
X164048418Y-86399000D01*
X164048418Y-88099000D01*
X164054732Y-88163103D01*
X164073430Y-88224743D01*
X164103794Y-88281550D01*
X164144657Y-88331343D01*
X164194450Y-88372206D01*
X164251257Y-88402570D01*
X164312897Y-88421268D01*
X164377000Y-88427582D01*
X166077000Y-88427582D01*
X166141103Y-88421268D01*
X166202743Y-88402570D01*
X166259550Y-88372206D01*
X166309343Y-88331343D01*
X166350206Y-88281550D01*
X166380570Y-88224743D01*
X166399268Y-88163103D01*
X166405582Y-88099000D01*
X166405582Y-87958056D01*
X166702000Y-87958056D01*
X166702000Y-88317944D01*
X166772211Y-88670916D01*
X166909934Y-89003409D01*
X167109876Y-89302645D01*
X167364355Y-89557124D01*
X167663591Y-89757066D01*
X167996084Y-89894789D01*
X168349056Y-89965000D01*
X168708944Y-89965000D01*
X169061916Y-89894789D01*
X169394409Y-89757066D01*
X169693645Y-89557124D01*
X169948124Y-89302645D01*
X170148066Y-89003409D01*
X170285789Y-88670916D01*
X170356000Y-88317944D01*
X170356000Y-87958056D01*
X170285789Y-87605084D01*
X170148066Y-87272591D01*
X169948124Y-86973355D01*
X169693645Y-86718876D01*
X169394409Y-86518934D01*
X169061916Y-86381211D01*
X168708944Y-86311000D01*
X168349056Y-86311000D01*
X167996084Y-86381211D01*
X167663591Y-86518934D01*
X167364355Y-86718876D01*
X167109876Y-86973355D01*
X166909934Y-87272591D01*
X166772211Y-87605084D01*
X166702000Y-87958056D01*
X166405582Y-87958056D01*
X166405582Y-86399000D01*
X166399268Y-86334897D01*
X166380570Y-86273257D01*
X166350206Y-86216450D01*
X166309343Y-86166657D01*
X166259550Y-86125794D01*
X166202743Y-86095430D01*
X166141103Y-86076732D01*
X166077000Y-86070418D01*
X164377000Y-86070418D01*
X164312897Y-86076732D01*
X164251257Y-86095430D01*
X164194450Y-86125794D01*
X164144657Y-86166657D01*
X164103794Y-86216450D01*
X164073430Y-86273257D01*
X164054732Y-86334897D01*
X164048418Y-86399000D01*
X144472000Y-86399000D01*
X144472000Y-84138207D01*
X166602000Y-84138207D01*
X166602000Y-84517793D01*
X166676053Y-84890085D01*
X166821315Y-85240777D01*
X167032201Y-85556391D01*
X167300609Y-85824799D01*
X167616223Y-86035685D01*
X167966915Y-86180947D01*
X168339207Y-86255000D01*
X168718793Y-86255000D01*
X169091085Y-86180947D01*
X169441777Y-86035685D01*
X169757391Y-85824799D01*
X170025799Y-85556391D01*
X170236685Y-85240777D01*
X170381947Y-84890085D01*
X170456000Y-84517793D01*
X170456000Y-84138207D01*
X170381947Y-83765915D01*
X170236685Y-83415223D01*
X170025799Y-83099609D01*
X169757391Y-82831201D01*
X169441777Y-82620315D01*
X169091085Y-82475053D01*
X168718793Y-82401000D01*
X168339207Y-82401000D01*
X167966915Y-82475053D01*
X167616223Y-82620315D01*
X167300609Y-82831201D01*
X167032201Y-83099609D01*
X166821315Y-83415223D01*
X166676053Y-83765915D01*
X166602000Y-84138207D01*
X144472000Y-84138207D01*
X144472000Y-71526000D01*
X182993359Y-71526000D01*
X183199223Y-71546185D01*
%TA.AperFunction,Conductor*%
D18*
G36*
X183199223Y-71546185D02*
G01*
X183384130Y-71602012D01*
X183554668Y-71692688D01*
X183704347Y-71814762D01*
X183827468Y-71963590D01*
X183919334Y-72133493D01*
X183976448Y-72317997D01*
X183998001Y-72523063D01*
X183998000Y-102348359D01*
X183977815Y-102554223D01*
X183921988Y-102739130D01*
X183831310Y-102909670D01*
X183709235Y-103059349D01*
X183560410Y-103182468D01*
X183390511Y-103274332D01*
X183206003Y-103331448D01*
X183000946Y-103353000D01*
X144472000Y-103353000D01*
X144472000Y-92213076D01*
X164050000Y-92213076D01*
X164050000Y-92444924D01*
X164095231Y-92672318D01*
X164183956Y-92886519D01*
X164312764Y-93079294D01*
X164476706Y-93243236D01*
X164669481Y-93372044D01*
X164883682Y-93460769D01*
X165111076Y-93506000D01*
X165342924Y-93506000D01*
X165570318Y-93460769D01*
X165784519Y-93372044D01*
X165977294Y-93243236D01*
X166141236Y-93079294D01*
X166270044Y-92886519D01*
X166358769Y-92672318D01*
X166404000Y-92444924D01*
X166404000Y-92213076D01*
X166358769Y-91985682D01*
X166270044Y-91771481D01*
X166267756Y-91768056D01*
X166702000Y-91768056D01*
X166702000Y-92127944D01*
X166772211Y-92480916D01*
X166909934Y-92813409D01*
X167109876Y-93112645D01*
X167364355Y-93367124D01*
X167663591Y-93567066D01*
X167996084Y-93704789D01*
X168349056Y-93775000D01*
X168708944Y-93775000D01*
X169061916Y-93704789D01*
X169394409Y-93567066D01*
X169693645Y-93367124D01*
X169948124Y-93112645D01*
X170148066Y-92813409D01*
X170285789Y-92480916D01*
X170356000Y-92127944D01*
X170356000Y-91768056D01*
X170285789Y-91415084D01*
X170148066Y-91082591D01*
X169948124Y-90783355D01*
X169693645Y-90528876D01*
X169394409Y-90328934D01*
X169061916Y-90191211D01*
X168708944Y-90121000D01*
X168349056Y-90121000D01*
X167996084Y-90191211D01*
X167663591Y-90328934D01*
X167364355Y-90528876D01*
X167109876Y-90783355D01*
X166909934Y-91082591D01*
X166772211Y-91415084D01*
X166702000Y-91768056D01*
X166267756Y-91768056D01*
X166141236Y-91578706D01*
X165977294Y-91414764D01*
X165784519Y-91285956D01*
X165570318Y-91197231D01*
X165342924Y-91152000D01*
X165111076Y-91152000D01*
X164883682Y-91197231D01*
X164669481Y-91285956D01*
X164476706Y-91414764D01*
X164312764Y-91578706D01*
X164183956Y-91771481D01*
X164095231Y-91985682D01*
X164050000Y-92213076D01*
X144472000Y-92213076D01*
X144472000Y-89673076D01*
X164050000Y-89673076D01*
X164050000Y-89904924D01*
X164095231Y-90132318D01*
X164183956Y-90346519D01*
X164312764Y-90539294D01*
X164476706Y-90703236D01*
X164669481Y-90832044D01*
X164883682Y-90920769D01*
X165111076Y-90966000D01*
X165342924Y-90966000D01*
X165570318Y-90920769D01*
X165784519Y-90832044D01*
X165977294Y-90703236D01*
X166141236Y-90539294D01*
X166270044Y-90346519D01*
X166358769Y-90132318D01*
X166404000Y-89904924D01*
X166404000Y-89673076D01*
X166358769Y-89445682D01*
X166270044Y-89231481D01*
X166141236Y-89038706D01*
X165977294Y-88874764D01*
X165784519Y-88745956D01*
X165570318Y-88657231D01*
X165342924Y-88612000D01*
X165111076Y-88612000D01*
X164883682Y-88657231D01*
X164669481Y-88745956D01*
X164476706Y-88874764D01*
X164312764Y-89038706D01*
X164183956Y-89231481D01*
X164095231Y-89445682D01*
X164050000Y-89673076D01*
X144472000Y-89673076D01*
X144472000Y-86399000D01*
X164048418Y-86399000D01*
X164048418Y-88099000D01*
X164054732Y-88163103D01*
X164073430Y-88224743D01*
X164103794Y-88281550D01*
X164144657Y-88331343D01*
X164194450Y-88372206D01*
X164251257Y-88402570D01*
X164312897Y-88421268D01*
X164377000Y-88427582D01*
X166077000Y-88427582D01*
X166141103Y-88421268D01*
X166202743Y-88402570D01*
X166259550Y-88372206D01*
X166309343Y-88331343D01*
X166350206Y-88281550D01*
X166380570Y-88224743D01*
X166399268Y-88163103D01*
X166405582Y-88099000D01*
X166405582Y-87958056D01*
X166702000Y-87958056D01*
X166702000Y-88317944D01*
X166772211Y-88670916D01*
X166909934Y-89003409D01*
X167109876Y-89302645D01*
X167364355Y-89557124D01*
X167663591Y-89757066D01*
X167996084Y-89894789D01*
X168349056Y-89965000D01*
X168708944Y-89965000D01*
X169061916Y-89894789D01*
X169394409Y-89757066D01*
X169693645Y-89557124D01*
X169948124Y-89302645D01*
X170148066Y-89003409D01*
X170285789Y-88670916D01*
X170356000Y-88317944D01*
X170356000Y-87958056D01*
X170285789Y-87605084D01*
X170148066Y-87272591D01*
X169948124Y-86973355D01*
X169693645Y-86718876D01*
X169394409Y-86518934D01*
X169061916Y-86381211D01*
X168708944Y-86311000D01*
X168349056Y-86311000D01*
X167996084Y-86381211D01*
X167663591Y-86518934D01*
X167364355Y-86718876D01*
X167109876Y-86973355D01*
X166909934Y-87272591D01*
X166772211Y-87605084D01*
X166702000Y-87958056D01*
X166405582Y-87958056D01*
X166405582Y-86399000D01*
X166399268Y-86334897D01*
X166380570Y-86273257D01*
X166350206Y-86216450D01*
X166309343Y-86166657D01*
X166259550Y-86125794D01*
X166202743Y-86095430D01*
X166141103Y-86076732D01*
X166077000Y-86070418D01*
X164377000Y-86070418D01*
X164312897Y-86076732D01*
X164251257Y-86095430D01*
X164194450Y-86125794D01*
X164144657Y-86166657D01*
X164103794Y-86216450D01*
X164073430Y-86273257D01*
X164054732Y-86334897D01*
X164048418Y-86399000D01*
X144472000Y-86399000D01*
X144472000Y-84138207D01*
X166602000Y-84138207D01*
X166602000Y-84517793D01*
X166676053Y-84890085D01*
X166821315Y-85240777D01*
X167032201Y-85556391D01*
X167300609Y-85824799D01*
X167616223Y-86035685D01*
X167966915Y-86180947D01*
X168339207Y-86255000D01*
X168718793Y-86255000D01*
X169091085Y-86180947D01*
X169441777Y-86035685D01*
X169757391Y-85824799D01*
X170025799Y-85556391D01*
X170236685Y-85240777D01*
X170381947Y-84890085D01*
X170456000Y-84517793D01*
X170456000Y-84138207D01*
X170381947Y-83765915D01*
X170236685Y-83415223D01*
X170025799Y-83099609D01*
X169757391Y-82831201D01*
X169441777Y-82620315D01*
X169091085Y-82475053D01*
X168718793Y-82401000D01*
X168339207Y-82401000D01*
X167966915Y-82475053D01*
X167616223Y-82620315D01*
X167300609Y-82831201D01*
X167032201Y-83099609D01*
X166821315Y-83415223D01*
X166676053Y-83765915D01*
X166602000Y-84138207D01*
X144472000Y-84138207D01*
X144472000Y-71526000D01*
X182993359Y-71526000D01*
X183199223Y-71546185D01*
G37*
%TD.AperFunction*%
%TD*%
M02*
