M48
; DRILL file {KiCad (5.1.12)-1} date 03/31/22 08:39:45
; FORMAT={-:-/ absolute / inch / decimal}
; #@! TF.CreationDate,2022-03-31T08:39:45-05:00
; #@! TF.GenerationSoftware,Kicad,Pcbnew,(5.1.12)-1
; #@! TF.FileFunction,Plated,1,2,PTH
FMAT,2
INCH
T1C0.0157
T2C0.0315
T3C0.0394
T4C0.0630
T5C0.0827
%
G90
G05
T1
X6.165Y-3.04
X6.875Y-3.08
X6.96Y-3.22
T2
X4.77Y-2.98
X4.9078Y-2.98
T3
X4.77Y-3.435
X4.77Y-3.535
X4.77Y-3.635
X4.77Y-3.735
X4.77Y-3.835
X6.505Y-3.435
X6.505Y-3.535
X6.505Y-3.635
X6.505Y-3.735
X6.505Y-3.835
T4
X4.635Y-3.32
X4.635Y-3.62
X4.635Y-3.92
X6.635Y-3.47
X6.635Y-3.62
X6.635Y-3.77
T5
X6.635Y-3.32
X6.635Y-3.92
T0
M30
