%TF.GenerationSoftware,KiCad,Pcbnew,(5.1.12)-1*%
%TF.CreationDate,2022-03-31T08:39:47-05:00*%
%TF.ProjectId,Power_Board,506f7765-725f-4426-9f61-72642e6b6963,rev?*%
%TF.SameCoordinates,Original*%
%TF.FileFunction,Soldermask,Top*%
%TF.FilePolarity,Negative*%
%FSLAX46Y46*%
G04 Gerber Fmt 4.6, Leading zero omitted, Abs format (unit mm)*
G04 Created by KiCad (PCBNEW (5.1.12)-1) date 2022-03-31 08:39:47*
%MOMM*%
%LPD*%
G01*
G04 APERTURE LIST*
%ADD10R,2.000000X3.800000*%
%ADD11R,2.000000X1.500000*%
%ADD12C,3.000000*%
%ADD13C,3.200000*%
%ADD14R,1.600000X1.600000*%
%ADD15C,1.600000*%
%ADD16R,1.700000X1.700000*%
%ADD17O,1.700000X1.700000*%
G04 APERTURE END LIST*
%TO.C,C10*%
G36*
G01*
X178493000Y-81337999D02*
X178493000Y-82238001D01*
G75*
G02*
X178243001Y-82488000I-249999J0D01*
G01*
X177592999Y-82488000D01*
G75*
G02*
X177343000Y-82238001I0J249999D01*
G01*
X177343000Y-81337999D01*
G75*
G02*
X177592999Y-81088000I249999J0D01*
G01*
X178243001Y-81088000D01*
G75*
G02*
X178493000Y-81337999I0J-249999D01*
G01*
G37*
G36*
G01*
X180543000Y-81337999D02*
X180543000Y-82238001D01*
G75*
G02*
X180293001Y-82488000I-249999J0D01*
G01*
X179642999Y-82488000D01*
G75*
G02*
X179393000Y-82238001I0J249999D01*
G01*
X179393000Y-81337999D01*
G75*
G02*
X179642999Y-81088000I249999J0D01*
G01*
X180293001Y-81088000D01*
G75*
G02*
X180543000Y-81337999I0J-249999D01*
G01*
G37*
%TD*%
D10*
%TO.C,U4*%
X181839000Y-86614000D03*
D11*
X175539000Y-86614000D03*
X175539000Y-88914000D03*
X175539000Y-84314000D03*
%TD*%
D12*
%TO.C,U5*%
X117729000Y-84328000D03*
X117729000Y-91948000D03*
X117729000Y-99568000D03*
D13*
X168529000Y-99568000D03*
D12*
X168529000Y-95758000D03*
X168529000Y-91948000D03*
X168529000Y-88138000D03*
D13*
X168529000Y-84328000D03*
%TD*%
%TO.C,C9*%
G36*
G01*
X178393000Y-97570000D02*
X179493000Y-97570000D01*
G75*
G02*
X179743000Y-97820000I0J-250000D01*
G01*
X179743000Y-100820000D01*
G75*
G02*
X179493000Y-101070000I-250000J0D01*
G01*
X178393000Y-101070000D01*
G75*
G02*
X178143000Y-100820000I0J250000D01*
G01*
X178143000Y-97820000D01*
G75*
G02*
X178393000Y-97570000I250000J0D01*
G01*
G37*
G36*
G01*
X178393000Y-91970000D02*
X179493000Y-91970000D01*
G75*
G02*
X179743000Y-92220000I0J-250000D01*
G01*
X179743000Y-95220000D01*
G75*
G02*
X179493000Y-95470000I-250000J0D01*
G01*
X178393000Y-95470000D01*
G75*
G02*
X178143000Y-95220000I0J250000D01*
G01*
X178143000Y-92220000D01*
G75*
G02*
X178393000Y-91970000I250000J0D01*
G01*
G37*
%TD*%
D14*
%TO.C,C40*%
X121158000Y-75692000D03*
D15*
X124658000Y-75692000D03*
%TD*%
%TO.C,D7*%
G36*
G01*
X155125000Y-75495999D02*
X155125000Y-76396001D01*
G75*
G02*
X154875001Y-76646000I-249999J0D01*
G01*
X154224999Y-76646000D01*
G75*
G02*
X153975000Y-76396001I0J249999D01*
G01*
X153975000Y-75495999D01*
G75*
G02*
X154224999Y-75246000I249999J0D01*
G01*
X154875001Y-75246000D01*
G75*
G02*
X155125000Y-75495999I0J-249999D01*
G01*
G37*
G36*
G01*
X157175000Y-75495999D02*
X157175000Y-76396001D01*
G75*
G02*
X156925001Y-76646000I-249999J0D01*
G01*
X156274999Y-76646000D01*
G75*
G02*
X156025000Y-76396001I0J249999D01*
G01*
X156025000Y-75495999D01*
G75*
G02*
X156274999Y-75246000I249999J0D01*
G01*
X156925001Y-75246000D01*
G75*
G02*
X157175000Y-75495999I0J-249999D01*
G01*
G37*
%TD*%
%TO.C,R39*%
G36*
G01*
X151061000Y-75495999D02*
X151061000Y-76396001D01*
G75*
G02*
X150811001Y-76646000I-249999J0D01*
G01*
X150160999Y-76646000D01*
G75*
G02*
X149911000Y-76396001I0J249999D01*
G01*
X149911000Y-75495999D01*
G75*
G02*
X150160999Y-75246000I249999J0D01*
G01*
X150811001Y-75246000D01*
G75*
G02*
X151061000Y-75495999I0J-249999D01*
G01*
G37*
G36*
G01*
X153111000Y-75495999D02*
X153111000Y-76396001D01*
G75*
G02*
X152861001Y-76646000I-249999J0D01*
G01*
X152210999Y-76646000D01*
G75*
G02*
X151961000Y-76396001I0J249999D01*
G01*
X151961000Y-75495999D01*
G75*
G02*
X152210999Y-75246000I249999J0D01*
G01*
X152861001Y-75246000D01*
G75*
G02*
X153111000Y-75495999I0J-249999D01*
G01*
G37*
%TD*%
%TO.C,C8*%
G36*
G01*
X167535000Y-76242000D02*
X167535000Y-75142000D01*
G75*
G02*
X167785000Y-74892000I250000J0D01*
G01*
X170785000Y-74892000D01*
G75*
G02*
X171035000Y-75142000I0J-250000D01*
G01*
X171035000Y-76242000D01*
G75*
G02*
X170785000Y-76492000I-250000J0D01*
G01*
X167785000Y-76492000D01*
G75*
G02*
X167535000Y-76242000I0J250000D01*
G01*
G37*
G36*
G01*
X173135000Y-76242000D02*
X173135000Y-75142000D01*
G75*
G02*
X173385000Y-74892000I250000J0D01*
G01*
X176385000Y-74892000D01*
G75*
G02*
X176635000Y-75142000I0J-250000D01*
G01*
X176635000Y-76242000D01*
G75*
G02*
X176385000Y-76492000I-250000J0D01*
G01*
X173385000Y-76492000D01*
G75*
G02*
X173135000Y-76242000I0J250000D01*
G01*
G37*
%TD*%
D16*
%TO.C,J5*%
X121158000Y-87249000D03*
D17*
X121158000Y-89789000D03*
X121158000Y-92329000D03*
X121158000Y-94869000D03*
X121158000Y-97409000D03*
%TD*%
%TO.C,J10*%
X165227000Y-97409000D03*
X165227000Y-94869000D03*
X165227000Y-92329000D03*
X165227000Y-89789000D03*
D16*
X165227000Y-87249000D03*
%TD*%
M02*
