%TF.GenerationSoftware,KiCad,Pcbnew,(5.1.12)-1*%
%TF.CreationDate,2022-03-31T08:39:47-05:00*%
%TF.ProjectId,Power_Board,506f7765-725f-4426-9f61-72642e6b6963,rev?*%
%TF.SameCoordinates,Original*%
%TF.FileFunction,Copper,L1,Top*%
%TF.FilePolarity,Positive*%
%FSLAX46Y46*%
G04 Gerber Fmt 4.6, Leading zero omitted, Abs format (unit mm)*
G04 Created by KiCad (PCBNEW (5.1.12)-1) date 2022-03-31 08:39:47*
%MOMM*%
%LPD*%
G01*
G04 APERTURE LIST*
%TA.AperFunction,SMDPad,CuDef*%
%ADD10R,2.000000X3.800000*%
%TD*%
%TA.AperFunction,SMDPad,CuDef*%
%ADD11R,2.000000X1.500000*%
%TD*%
%TA.AperFunction,ComponentPad*%
%ADD12C,3.000000*%
%TD*%
%TA.AperFunction,ComponentPad*%
%ADD13C,3.200000*%
%TD*%
%TA.AperFunction,ComponentPad*%
%ADD14R,1.600000X1.600000*%
%TD*%
%TA.AperFunction,ComponentPad*%
%ADD15C,1.600000*%
%TD*%
%TA.AperFunction,ComponentPad*%
%ADD16R,1.700000X1.700000*%
%TD*%
%TA.AperFunction,ComponentPad*%
%ADD17O,1.700000X1.700000*%
%TD*%
%TA.AperFunction,ViaPad*%
%ADD18C,0.800000*%
%TD*%
%TA.AperFunction,Conductor*%
%ADD19C,1.524000*%
%TD*%
%TA.AperFunction,Conductor*%
%ADD20C,1.270000*%
%TD*%
%TA.AperFunction,Conductor*%
%ADD21C,0.508000*%
%TD*%
%TA.AperFunction,Conductor*%
%ADD22C,0.254000*%
%TD*%
%TA.AperFunction,Conductor*%
%ADD23C,1.016000*%
%TD*%
%TA.AperFunction,Conductor*%
%ADD24C,0.100000*%
%TD*%
G04 APERTURE END LIST*
%TO.P,C10,2*%
%TO.N,GND*%
%TA.AperFunction,SMDPad,CuDef*%
G36*
G01*
X178493000Y-81337999D02*
X178493000Y-82238001D01*
G75*
G02*
X178243001Y-82488000I-249999J0D01*
G01*
X177592999Y-82488000D01*
G75*
G02*
X177343000Y-82238001I0J249999D01*
G01*
X177343000Y-81337999D01*
G75*
G02*
X177592999Y-81088000I249999J0D01*
G01*
X178243001Y-81088000D01*
G75*
G02*
X178493000Y-81337999I0J-249999D01*
G01*
G37*
%TD.AperFunction*%
%TO.P,C10,1*%
%TO.N,+3V3*%
%TA.AperFunction,SMDPad,CuDef*%
G36*
G01*
X180543000Y-81337999D02*
X180543000Y-82238001D01*
G75*
G02*
X180293001Y-82488000I-249999J0D01*
G01*
X179642999Y-82488000D01*
G75*
G02*
X179393000Y-82238001I0J249999D01*
G01*
X179393000Y-81337999D01*
G75*
G02*
X179642999Y-81088000I249999J0D01*
G01*
X180293001Y-81088000D01*
G75*
G02*
X180543000Y-81337999I0J-249999D01*
G01*
G37*
%TD.AperFunction*%
%TD*%
D10*
%TO.P,U4,2*%
%TO.N,+3V3*%
X181839000Y-86614000D03*
D11*
X175539000Y-86614000D03*
%TO.P,U4,3*%
%TO.N,+12V*%
X175539000Y-88914000D03*
%TO.P,U4,1*%
%TO.N,GND*%
X175539000Y-84314000D03*
%TD*%
D12*
%TO.P,U5,1*%
%TO.N,VOUT+*%
X117729000Y-84328000D03*
%TO.P,U5,2*%
%TO.N,PWRGD*%
X117729000Y-91948000D03*
%TO.P,U5,3*%
%TO.N,VOUT-*%
X117729000Y-99568000D03*
D13*
%TO.P,U5,4*%
%TO.N,GND*%
X168529000Y-99568000D03*
D12*
%TO.P,U5,5*%
X168529000Y-95758000D03*
%TO.P,U5,6*%
%TO.N,Net-(U5-Pad6)*%
X168529000Y-91948000D03*
%TO.P,U5,7*%
%TO.N,+12V*%
X168529000Y-88138000D03*
D13*
%TO.P,U5,8*%
X168529000Y-84328000D03*
%TD*%
%TO.P,C9,2*%
%TO.N,GND*%
%TA.AperFunction,SMDPad,CuDef*%
G36*
G01*
X178393000Y-97570000D02*
X179493000Y-97570000D01*
G75*
G02*
X179743000Y-97820000I0J-250000D01*
G01*
X179743000Y-100820000D01*
G75*
G02*
X179493000Y-101070000I-250000J0D01*
G01*
X178393000Y-101070000D01*
G75*
G02*
X178143000Y-100820000I0J250000D01*
G01*
X178143000Y-97820000D01*
G75*
G02*
X178393000Y-97570000I250000J0D01*
G01*
G37*
%TD.AperFunction*%
%TO.P,C9,1*%
%TO.N,+3V3*%
%TA.AperFunction,SMDPad,CuDef*%
G36*
G01*
X178393000Y-91970000D02*
X179493000Y-91970000D01*
G75*
G02*
X179743000Y-92220000I0J-250000D01*
G01*
X179743000Y-95220000D01*
G75*
G02*
X179493000Y-95470000I-250000J0D01*
G01*
X178393000Y-95470000D01*
G75*
G02*
X178143000Y-95220000I0J250000D01*
G01*
X178143000Y-92220000D01*
G75*
G02*
X178393000Y-91970000I250000J0D01*
G01*
G37*
%TD.AperFunction*%
%TD*%
D14*
%TO.P,C40,1*%
%TO.N,VOUT+*%
X121158000Y-75692000D03*
D15*
%TO.P,C40,2*%
%TO.N,VOUT-*%
X124658000Y-75692000D03*
%TD*%
%TO.P,D7,2*%
%TO.N,Net-(D7-Pad2)*%
%TA.AperFunction,SMDPad,CuDef*%
G36*
G01*
X155125000Y-75495999D02*
X155125000Y-76396001D01*
G75*
G02*
X154875001Y-76646000I-249999J0D01*
G01*
X154224999Y-76646000D01*
G75*
G02*
X153975000Y-76396001I0J249999D01*
G01*
X153975000Y-75495999D01*
G75*
G02*
X154224999Y-75246000I249999J0D01*
G01*
X154875001Y-75246000D01*
G75*
G02*
X155125000Y-75495999I0J-249999D01*
G01*
G37*
%TD.AperFunction*%
%TO.P,D7,1*%
%TO.N,GND*%
%TA.AperFunction,SMDPad,CuDef*%
G36*
G01*
X157175000Y-75495999D02*
X157175000Y-76396001D01*
G75*
G02*
X156925001Y-76646000I-249999J0D01*
G01*
X156274999Y-76646000D01*
G75*
G02*
X156025000Y-76396001I0J249999D01*
G01*
X156025000Y-75495999D01*
G75*
G02*
X156274999Y-75246000I249999J0D01*
G01*
X156925001Y-75246000D01*
G75*
G02*
X157175000Y-75495999I0J-249999D01*
G01*
G37*
%TD.AperFunction*%
%TD*%
%TO.P,R39,2*%
%TO.N,+3V3*%
%TA.AperFunction,SMDPad,CuDef*%
G36*
G01*
X151061000Y-75495999D02*
X151061000Y-76396001D01*
G75*
G02*
X150811001Y-76646000I-249999J0D01*
G01*
X150160999Y-76646000D01*
G75*
G02*
X149911000Y-76396001I0J249999D01*
G01*
X149911000Y-75495999D01*
G75*
G02*
X150160999Y-75246000I249999J0D01*
G01*
X150811001Y-75246000D01*
G75*
G02*
X151061000Y-75495999I0J-249999D01*
G01*
G37*
%TD.AperFunction*%
%TO.P,R39,1*%
%TO.N,Net-(D7-Pad2)*%
%TA.AperFunction,SMDPad,CuDef*%
G36*
G01*
X153111000Y-75495999D02*
X153111000Y-76396001D01*
G75*
G02*
X152861001Y-76646000I-249999J0D01*
G01*
X152210999Y-76646000D01*
G75*
G02*
X151961000Y-76396001I0J249999D01*
G01*
X151961000Y-75495999D01*
G75*
G02*
X152210999Y-75246000I249999J0D01*
G01*
X152861001Y-75246000D01*
G75*
G02*
X153111000Y-75495999I0J-249999D01*
G01*
G37*
%TD.AperFunction*%
%TD*%
%TO.P,C8,1*%
%TO.N,+12V*%
%TA.AperFunction,SMDPad,CuDef*%
G36*
G01*
X167535000Y-76242000D02*
X167535000Y-75142000D01*
G75*
G02*
X167785000Y-74892000I250000J0D01*
G01*
X170785000Y-74892000D01*
G75*
G02*
X171035000Y-75142000I0J-250000D01*
G01*
X171035000Y-76242000D01*
G75*
G02*
X170785000Y-76492000I-250000J0D01*
G01*
X167785000Y-76492000D01*
G75*
G02*
X167535000Y-76242000I0J250000D01*
G01*
G37*
%TD.AperFunction*%
%TO.P,C8,2*%
%TO.N,GND*%
%TA.AperFunction,SMDPad,CuDef*%
G36*
G01*
X173135000Y-76242000D02*
X173135000Y-75142000D01*
G75*
G02*
X173385000Y-74892000I250000J0D01*
G01*
X176385000Y-74892000D01*
G75*
G02*
X176635000Y-75142000I0J-250000D01*
G01*
X176635000Y-76242000D01*
G75*
G02*
X176385000Y-76492000I-250000J0D01*
G01*
X173385000Y-76492000D01*
G75*
G02*
X173135000Y-76242000I0J250000D01*
G01*
G37*
%TD.AperFunction*%
%TD*%
D16*
%TO.P,J5,1*%
%TO.N,VOUT+*%
X121158000Y-87249000D03*
D17*
%TO.P,J5,2*%
X121158000Y-89789000D03*
%TO.P,J5,3*%
%TO.N,PWRGD*%
X121158000Y-92329000D03*
%TO.P,J5,4*%
%TO.N,VOUT-*%
X121158000Y-94869000D03*
%TO.P,J5,5*%
X121158000Y-97409000D03*
%TD*%
%TO.P,J10,5*%
%TO.N,GND*%
X165227000Y-97409000D03*
%TO.P,J10,4*%
X165227000Y-94869000D03*
%TO.P,J10,3*%
%TO.N,+3V3*%
X165227000Y-92329000D03*
%TO.P,J10,2*%
%TO.N,+12V*%
X165227000Y-89789000D03*
D16*
%TO.P,J10,1*%
X165227000Y-87249000D03*
%TD*%
D18*
%TO.N,GND*%
X156591000Y-77216000D03*
X176784000Y-81788000D03*
X174625000Y-78232000D03*
%TD*%
D19*
%TO.N,+3V3*%
X175539000Y-86614000D02*
X181839000Y-86614000D01*
D20*
X179968000Y-84743000D02*
X181839000Y-86614000D01*
X179968000Y-81788000D02*
X179968000Y-84743000D01*
X181839000Y-90824000D02*
X178943000Y-93720000D01*
X181839000Y-86614000D02*
X181839000Y-90824000D01*
D21*
%TO.N,PWRGD*%
X120777000Y-91948000D02*
X121158000Y-92329000D01*
X117729000Y-91948000D02*
X120777000Y-91948000D01*
D20*
%TO.N,+12V*%
X168529000Y-84328000D02*
X168529000Y-88138000D01*
D19*
X169305000Y-88914000D02*
X175539000Y-88914000D01*
X168529000Y-88138000D02*
X169305000Y-88914000D01*
X168529000Y-76448000D02*
X169285000Y-75692000D01*
X168529000Y-84328000D02*
X168529000Y-76448000D01*
X165227000Y-87249000D02*
X165227000Y-89789000D01*
X167640000Y-87249000D02*
X168529000Y-88138000D01*
X165227000Y-87249000D02*
X167640000Y-87249000D01*
X165227000Y-87249000D02*
X166624000Y-87249000D01*
X168529000Y-85344000D02*
X168529000Y-84328000D01*
X166624000Y-87249000D02*
X168529000Y-85344000D01*
X165227000Y-89789000D02*
X166497000Y-88519000D01*
X168148000Y-88519000D02*
X168529000Y-88138000D01*
X166497000Y-88519000D02*
X168148000Y-88519000D01*
D22*
%TO.N,GND*%
X156600000Y-77207000D02*
X156591000Y-77216000D01*
X156600000Y-75946000D02*
X156600000Y-77207000D01*
D21*
X177918000Y-81788000D02*
X176784000Y-81788000D01*
X175539000Y-83033000D02*
X176784000Y-81788000D01*
X175539000Y-84314000D02*
X175539000Y-83033000D01*
D20*
X168777000Y-99320000D02*
X168529000Y-99568000D01*
X178943000Y-99320000D02*
X168777000Y-99320000D01*
D23*
X174885000Y-77972000D02*
X174625000Y-78232000D01*
X174885000Y-75692000D02*
X174885000Y-77972000D01*
D21*
%TO.N,Net-(D7-Pad2)*%
X152536000Y-75946000D02*
X154550000Y-75946000D01*
%TD*%
D22*
%TO.N,VOUT+*%
X144018000Y-103226000D02*
X115081854Y-103226000D01*
X114894559Y-103207636D01*
X114733497Y-103159008D01*
X114584949Y-103080023D01*
X114454570Y-102973689D01*
X114347326Y-102844054D01*
X114267305Y-102696058D01*
X114217554Y-102535339D01*
X114198000Y-102349293D01*
X114198000Y-99382738D01*
X115848000Y-99382738D01*
X115848000Y-99753262D01*
X115920286Y-100116667D01*
X116062080Y-100458987D01*
X116267932Y-100767067D01*
X116529933Y-101029068D01*
X116838013Y-101234920D01*
X117180333Y-101376714D01*
X117543738Y-101449000D01*
X117914262Y-101449000D01*
X118277667Y-101376714D01*
X118619987Y-101234920D01*
X118928067Y-101029068D01*
X119190068Y-100767067D01*
X119395920Y-100458987D01*
X119537714Y-100116667D01*
X119610000Y-99753262D01*
X119610000Y-99382738D01*
X119537714Y-99019333D01*
X119395920Y-98677013D01*
X119190068Y-98368933D01*
X118928067Y-98106932D01*
X118619987Y-97901080D01*
X118277667Y-97759286D01*
X117914262Y-97687000D01*
X117543738Y-97687000D01*
X117180333Y-97759286D01*
X116838013Y-97901080D01*
X116529933Y-98106932D01*
X116267932Y-98368933D01*
X116062080Y-98677013D01*
X115920286Y-99019333D01*
X115848000Y-99382738D01*
X114198000Y-99382738D01*
X114198000Y-97287757D01*
X119927000Y-97287757D01*
X119927000Y-97530243D01*
X119974307Y-97768069D01*
X120067102Y-97992097D01*
X120201820Y-98193717D01*
X120373283Y-98365180D01*
X120574903Y-98499898D01*
X120798931Y-98592693D01*
X121036757Y-98640000D01*
X121279243Y-98640000D01*
X121517069Y-98592693D01*
X121741097Y-98499898D01*
X121942717Y-98365180D01*
X122114180Y-98193717D01*
X122248898Y-97992097D01*
X122341693Y-97768069D01*
X122389000Y-97530243D01*
X122389000Y-97287757D01*
X122341693Y-97049931D01*
X122248898Y-96825903D01*
X122114180Y-96624283D01*
X121942717Y-96452820D01*
X121741097Y-96318102D01*
X121517069Y-96225307D01*
X121279243Y-96178000D01*
X121036757Y-96178000D01*
X120798931Y-96225307D01*
X120574903Y-96318102D01*
X120373283Y-96452820D01*
X120201820Y-96624283D01*
X120067102Y-96825903D01*
X119974307Y-97049931D01*
X119927000Y-97287757D01*
X114198000Y-97287757D01*
X114198000Y-94747757D01*
X119927000Y-94747757D01*
X119927000Y-94990243D01*
X119974307Y-95228069D01*
X120067102Y-95452097D01*
X120201820Y-95653717D01*
X120373283Y-95825180D01*
X120574903Y-95959898D01*
X120798931Y-96052693D01*
X121036757Y-96100000D01*
X121279243Y-96100000D01*
X121517069Y-96052693D01*
X121741097Y-95959898D01*
X121942717Y-95825180D01*
X122114180Y-95653717D01*
X122248898Y-95452097D01*
X122341693Y-95228069D01*
X122389000Y-94990243D01*
X122389000Y-94747757D01*
X122341693Y-94509931D01*
X122248898Y-94285903D01*
X122114180Y-94084283D01*
X121942717Y-93912820D01*
X121741097Y-93778102D01*
X121517069Y-93685307D01*
X121279243Y-93638000D01*
X121036757Y-93638000D01*
X120798931Y-93685307D01*
X120574903Y-93778102D01*
X120373283Y-93912820D01*
X120201820Y-94084283D01*
X120067102Y-94285903D01*
X119974307Y-94509931D01*
X119927000Y-94747757D01*
X114198000Y-94747757D01*
X114198000Y-91762738D01*
X115848000Y-91762738D01*
X115848000Y-92133262D01*
X115920286Y-92496667D01*
X116062080Y-92838987D01*
X116267932Y-93147067D01*
X116529933Y-93409068D01*
X116838013Y-93614920D01*
X117180333Y-93756714D01*
X117543738Y-93829000D01*
X117914262Y-93829000D01*
X118277667Y-93756714D01*
X118619987Y-93614920D01*
X118928067Y-93409068D01*
X119190068Y-93147067D01*
X119395920Y-92838987D01*
X119501954Y-92583000D01*
X119953407Y-92583000D01*
X119974307Y-92688069D01*
X120067102Y-92912097D01*
X120201820Y-93113717D01*
X120373283Y-93285180D01*
X120574903Y-93419898D01*
X120798931Y-93512693D01*
X121036757Y-93560000D01*
X121279243Y-93560000D01*
X121517069Y-93512693D01*
X121741097Y-93419898D01*
X121942717Y-93285180D01*
X122114180Y-93113717D01*
X122248898Y-92912097D01*
X122341693Y-92688069D01*
X122389000Y-92450243D01*
X122389000Y-92207757D01*
X122341693Y-91969931D01*
X122248898Y-91745903D01*
X122114180Y-91544283D01*
X121942717Y-91372820D01*
X121741097Y-91238102D01*
X121517069Y-91145307D01*
X121279243Y-91098000D01*
X121036757Y-91098000D01*
X120798931Y-91145307D01*
X120574903Y-91238102D01*
X120462810Y-91313000D01*
X119501954Y-91313000D01*
X119395920Y-91057013D01*
X119190068Y-90748933D01*
X118928067Y-90486932D01*
X118619987Y-90281080D01*
X118277667Y-90139286D01*
X117914262Y-90067000D01*
X117543738Y-90067000D01*
X117180333Y-90139286D01*
X116838013Y-90281080D01*
X116529933Y-90486932D01*
X116267932Y-90748933D01*
X116062080Y-91057013D01*
X115920286Y-91399333D01*
X115848000Y-91762738D01*
X114198000Y-91762738D01*
X114198000Y-75575682D01*
X123477000Y-75575682D01*
X123477000Y-75808318D01*
X123522386Y-76036485D01*
X123611412Y-76251413D01*
X123740658Y-76444843D01*
X123905157Y-76609342D01*
X124098587Y-76738588D01*
X124313515Y-76827614D01*
X124541682Y-76873000D01*
X124774318Y-76873000D01*
X125002485Y-76827614D01*
X125217413Y-76738588D01*
X125410843Y-76609342D01*
X125575342Y-76444843D01*
X125704588Y-76251413D01*
X125793614Y-76036485D01*
X125839000Y-75808318D01*
X125839000Y-75575682D01*
X125793614Y-75347515D01*
X125704588Y-75132587D01*
X125575342Y-74939157D01*
X125410843Y-74774658D01*
X125217413Y-74645412D01*
X125002485Y-74556386D01*
X124774318Y-74511000D01*
X124541682Y-74511000D01*
X124313515Y-74556386D01*
X124098587Y-74645412D01*
X123905157Y-74774658D01*
X123740658Y-74939157D01*
X123611412Y-75132587D01*
X123522386Y-75347515D01*
X123477000Y-75575682D01*
X114198000Y-75575682D01*
X114198000Y-72536854D01*
X114216364Y-72349559D01*
X114264992Y-72188499D01*
X114343979Y-72039946D01*
X114450310Y-71909570D01*
X114579946Y-71802326D01*
X114727942Y-71722305D01*
X114888661Y-71672554D01*
X115074707Y-71653000D01*
X144018000Y-71653000D01*
X144018000Y-103226000D01*
%TA.AperFunction,Conductor*%
D24*
G36*
X144018000Y-103226000D02*
G01*
X115081854Y-103226000D01*
X114894559Y-103207636D01*
X114733497Y-103159008D01*
X114584949Y-103080023D01*
X114454570Y-102973689D01*
X114347326Y-102844054D01*
X114267305Y-102696058D01*
X114217554Y-102535339D01*
X114198000Y-102349293D01*
X114198000Y-99382738D01*
X115848000Y-99382738D01*
X115848000Y-99753262D01*
X115920286Y-100116667D01*
X116062080Y-100458987D01*
X116267932Y-100767067D01*
X116529933Y-101029068D01*
X116838013Y-101234920D01*
X117180333Y-101376714D01*
X117543738Y-101449000D01*
X117914262Y-101449000D01*
X118277667Y-101376714D01*
X118619987Y-101234920D01*
X118928067Y-101029068D01*
X119190068Y-100767067D01*
X119395920Y-100458987D01*
X119537714Y-100116667D01*
X119610000Y-99753262D01*
X119610000Y-99382738D01*
X119537714Y-99019333D01*
X119395920Y-98677013D01*
X119190068Y-98368933D01*
X118928067Y-98106932D01*
X118619987Y-97901080D01*
X118277667Y-97759286D01*
X117914262Y-97687000D01*
X117543738Y-97687000D01*
X117180333Y-97759286D01*
X116838013Y-97901080D01*
X116529933Y-98106932D01*
X116267932Y-98368933D01*
X116062080Y-98677013D01*
X115920286Y-99019333D01*
X115848000Y-99382738D01*
X114198000Y-99382738D01*
X114198000Y-97287757D01*
X119927000Y-97287757D01*
X119927000Y-97530243D01*
X119974307Y-97768069D01*
X120067102Y-97992097D01*
X120201820Y-98193717D01*
X120373283Y-98365180D01*
X120574903Y-98499898D01*
X120798931Y-98592693D01*
X121036757Y-98640000D01*
X121279243Y-98640000D01*
X121517069Y-98592693D01*
X121741097Y-98499898D01*
X121942717Y-98365180D01*
X122114180Y-98193717D01*
X122248898Y-97992097D01*
X122341693Y-97768069D01*
X122389000Y-97530243D01*
X122389000Y-97287757D01*
X122341693Y-97049931D01*
X122248898Y-96825903D01*
X122114180Y-96624283D01*
X121942717Y-96452820D01*
X121741097Y-96318102D01*
X121517069Y-96225307D01*
X121279243Y-96178000D01*
X121036757Y-96178000D01*
X120798931Y-96225307D01*
X120574903Y-96318102D01*
X120373283Y-96452820D01*
X120201820Y-96624283D01*
X120067102Y-96825903D01*
X119974307Y-97049931D01*
X119927000Y-97287757D01*
X114198000Y-97287757D01*
X114198000Y-94747757D01*
X119927000Y-94747757D01*
X119927000Y-94990243D01*
X119974307Y-95228069D01*
X120067102Y-95452097D01*
X120201820Y-95653717D01*
X120373283Y-95825180D01*
X120574903Y-95959898D01*
X120798931Y-96052693D01*
X121036757Y-96100000D01*
X121279243Y-96100000D01*
X121517069Y-96052693D01*
X121741097Y-95959898D01*
X121942717Y-95825180D01*
X122114180Y-95653717D01*
X122248898Y-95452097D01*
X122341693Y-95228069D01*
X122389000Y-94990243D01*
X122389000Y-94747757D01*
X122341693Y-94509931D01*
X122248898Y-94285903D01*
X122114180Y-94084283D01*
X121942717Y-93912820D01*
X121741097Y-93778102D01*
X121517069Y-93685307D01*
X121279243Y-93638000D01*
X121036757Y-93638000D01*
X120798931Y-93685307D01*
X120574903Y-93778102D01*
X120373283Y-93912820D01*
X120201820Y-94084283D01*
X120067102Y-94285903D01*
X119974307Y-94509931D01*
X119927000Y-94747757D01*
X114198000Y-94747757D01*
X114198000Y-91762738D01*
X115848000Y-91762738D01*
X115848000Y-92133262D01*
X115920286Y-92496667D01*
X116062080Y-92838987D01*
X116267932Y-93147067D01*
X116529933Y-93409068D01*
X116838013Y-93614920D01*
X117180333Y-93756714D01*
X117543738Y-93829000D01*
X117914262Y-93829000D01*
X118277667Y-93756714D01*
X118619987Y-93614920D01*
X118928067Y-93409068D01*
X119190068Y-93147067D01*
X119395920Y-92838987D01*
X119501954Y-92583000D01*
X119953407Y-92583000D01*
X119974307Y-92688069D01*
X120067102Y-92912097D01*
X120201820Y-93113717D01*
X120373283Y-93285180D01*
X120574903Y-93419898D01*
X120798931Y-93512693D01*
X121036757Y-93560000D01*
X121279243Y-93560000D01*
X121517069Y-93512693D01*
X121741097Y-93419898D01*
X121942717Y-93285180D01*
X122114180Y-93113717D01*
X122248898Y-92912097D01*
X122341693Y-92688069D01*
X122389000Y-92450243D01*
X122389000Y-92207757D01*
X122341693Y-91969931D01*
X122248898Y-91745903D01*
X122114180Y-91544283D01*
X121942717Y-91372820D01*
X121741097Y-91238102D01*
X121517069Y-91145307D01*
X121279243Y-91098000D01*
X121036757Y-91098000D01*
X120798931Y-91145307D01*
X120574903Y-91238102D01*
X120462810Y-91313000D01*
X119501954Y-91313000D01*
X119395920Y-91057013D01*
X119190068Y-90748933D01*
X118928067Y-90486932D01*
X118619987Y-90281080D01*
X118277667Y-90139286D01*
X117914262Y-90067000D01*
X117543738Y-90067000D01*
X117180333Y-90139286D01*
X116838013Y-90281080D01*
X116529933Y-90486932D01*
X116267932Y-90748933D01*
X116062080Y-91057013D01*
X115920286Y-91399333D01*
X115848000Y-91762738D01*
X114198000Y-91762738D01*
X114198000Y-75575682D01*
X123477000Y-75575682D01*
X123477000Y-75808318D01*
X123522386Y-76036485D01*
X123611412Y-76251413D01*
X123740658Y-76444843D01*
X123905157Y-76609342D01*
X124098587Y-76738588D01*
X124313515Y-76827614D01*
X124541682Y-76873000D01*
X124774318Y-76873000D01*
X125002485Y-76827614D01*
X125217413Y-76738588D01*
X125410843Y-76609342D01*
X125575342Y-76444843D01*
X125704588Y-76251413D01*
X125793614Y-76036485D01*
X125839000Y-75808318D01*
X125839000Y-75575682D01*
X125793614Y-75347515D01*
X125704588Y-75132587D01*
X125575342Y-74939157D01*
X125410843Y-74774658D01*
X125217413Y-74645412D01*
X125002485Y-74556386D01*
X124774318Y-74511000D01*
X124541682Y-74511000D01*
X124313515Y-74556386D01*
X124098587Y-74645412D01*
X123905157Y-74774658D01*
X123740658Y-74939157D01*
X123611412Y-75132587D01*
X123522386Y-75347515D01*
X123477000Y-75575682D01*
X114198000Y-75575682D01*
X114198000Y-72536854D01*
X114216364Y-72349559D01*
X114264992Y-72188499D01*
X114343979Y-72039946D01*
X114450310Y-71909570D01*
X114579946Y-71802326D01*
X114727942Y-71722305D01*
X114888661Y-71672554D01*
X115074707Y-71653000D01*
X144018000Y-71653000D01*
X144018000Y-103226000D01*
G37*
%TD.AperFunction*%
%TD*%
D22*
%TO.N,+3V3*%
X183174441Y-71671364D02*
X183335501Y-71719992D01*
X183484054Y-71798979D01*
X183614430Y-71905310D01*
X183721674Y-72034946D01*
X183801695Y-72182942D01*
X183851446Y-72343661D01*
X183871001Y-72529716D01*
X183871000Y-102342146D01*
X183852636Y-102529441D01*
X183804008Y-102690503D01*
X183725023Y-102839051D01*
X183618689Y-102969430D01*
X183489054Y-103076674D01*
X183341058Y-103156695D01*
X183180339Y-103206446D01*
X182994293Y-103226000D01*
X144526000Y-103226000D01*
X144526000Y-99372889D01*
X166548000Y-99372889D01*
X166548000Y-99763111D01*
X166624129Y-100145836D01*
X166773461Y-100506355D01*
X166990257Y-100830814D01*
X167266186Y-101106743D01*
X167590645Y-101323539D01*
X167951164Y-101472871D01*
X168333889Y-101549000D01*
X168724111Y-101549000D01*
X169106836Y-101472871D01*
X169467355Y-101323539D01*
X169791814Y-101106743D01*
X170067743Y-100830814D01*
X170284539Y-100506355D01*
X170355102Y-100336000D01*
X177760157Y-100336000D01*
X177760157Y-100820000D01*
X177772317Y-100943462D01*
X177808329Y-101062179D01*
X177866810Y-101171589D01*
X177945512Y-101267488D01*
X178041411Y-101346190D01*
X178150821Y-101404671D01*
X178269538Y-101440683D01*
X178393000Y-101452843D01*
X179493000Y-101452843D01*
X179616462Y-101440683D01*
X179735179Y-101404671D01*
X179844589Y-101346190D01*
X179940488Y-101267488D01*
X180019190Y-101171589D01*
X180077671Y-101062179D01*
X180113683Y-100943462D01*
X180125843Y-100820000D01*
X180125843Y-97820000D01*
X180113683Y-97696538D01*
X180077671Y-97577821D01*
X180019190Y-97468411D01*
X179940488Y-97372512D01*
X179844589Y-97293810D01*
X179735179Y-97235329D01*
X179616462Y-97199317D01*
X179493000Y-97187157D01*
X178393000Y-97187157D01*
X178269538Y-97199317D01*
X178150821Y-97235329D01*
X178041411Y-97293810D01*
X177945512Y-97372512D01*
X177866810Y-97468411D01*
X177808329Y-97577821D01*
X177772317Y-97696538D01*
X177760157Y-97820000D01*
X177760157Y-98304000D01*
X170066557Y-98304000D01*
X169791814Y-98029257D01*
X169467355Y-97812461D01*
X169106836Y-97663129D01*
X168849897Y-97612020D01*
X169077667Y-97566714D01*
X169419987Y-97424920D01*
X169728067Y-97219068D01*
X169990068Y-96957067D01*
X170195920Y-96648987D01*
X170337714Y-96306667D01*
X170410000Y-95943262D01*
X170410000Y-95572738D01*
X170337714Y-95209333D01*
X170195920Y-94867013D01*
X169990068Y-94558933D01*
X169728067Y-94296932D01*
X169419987Y-94091080D01*
X169077667Y-93949286D01*
X168714262Y-93877000D01*
X168343738Y-93877000D01*
X167980333Y-93949286D01*
X167638013Y-94091080D01*
X167329933Y-94296932D01*
X167067932Y-94558933D01*
X166862080Y-94867013D01*
X166720286Y-95209333D01*
X166648000Y-95572738D01*
X166648000Y-95943262D01*
X166720286Y-96306667D01*
X166862080Y-96648987D01*
X167067932Y-96957067D01*
X167329933Y-97219068D01*
X167638013Y-97424920D01*
X167980333Y-97566714D01*
X168208103Y-97612020D01*
X167951164Y-97663129D01*
X167590645Y-97812461D01*
X167266186Y-98029257D01*
X166990257Y-98305186D01*
X166773461Y-98629645D01*
X166624129Y-98990164D01*
X166548000Y-99372889D01*
X144526000Y-99372889D01*
X144526000Y-97287757D01*
X163996000Y-97287757D01*
X163996000Y-97530243D01*
X164043307Y-97768069D01*
X164136102Y-97992097D01*
X164270820Y-98193717D01*
X164442283Y-98365180D01*
X164643903Y-98499898D01*
X164867931Y-98592693D01*
X165105757Y-98640000D01*
X165348243Y-98640000D01*
X165586069Y-98592693D01*
X165810097Y-98499898D01*
X166011717Y-98365180D01*
X166183180Y-98193717D01*
X166317898Y-97992097D01*
X166410693Y-97768069D01*
X166458000Y-97530243D01*
X166458000Y-97287757D01*
X166410693Y-97049931D01*
X166317898Y-96825903D01*
X166183180Y-96624283D01*
X166011717Y-96452820D01*
X165810097Y-96318102D01*
X165586069Y-96225307D01*
X165348243Y-96178000D01*
X165105757Y-96178000D01*
X164867931Y-96225307D01*
X164643903Y-96318102D01*
X164442283Y-96452820D01*
X164270820Y-96624283D01*
X164136102Y-96825903D01*
X164043307Y-97049931D01*
X163996000Y-97287757D01*
X144526000Y-97287757D01*
X144526000Y-94747757D01*
X163996000Y-94747757D01*
X163996000Y-94990243D01*
X164043307Y-95228069D01*
X164136102Y-95452097D01*
X164270820Y-95653717D01*
X164442283Y-95825180D01*
X164643903Y-95959898D01*
X164867931Y-96052693D01*
X165105757Y-96100000D01*
X165348243Y-96100000D01*
X165586069Y-96052693D01*
X165810097Y-95959898D01*
X166011717Y-95825180D01*
X166183180Y-95653717D01*
X166317898Y-95452097D01*
X166410693Y-95228069D01*
X166458000Y-94990243D01*
X166458000Y-94747757D01*
X166410693Y-94509931D01*
X166317898Y-94285903D01*
X166183180Y-94084283D01*
X166011717Y-93912820D01*
X165810097Y-93778102D01*
X165586069Y-93685307D01*
X165348243Y-93638000D01*
X165105757Y-93638000D01*
X164867931Y-93685307D01*
X164643903Y-93778102D01*
X164442283Y-93912820D01*
X164270820Y-94084283D01*
X164136102Y-94285903D01*
X164043307Y-94509931D01*
X163996000Y-94747757D01*
X144526000Y-94747757D01*
X144526000Y-91762738D01*
X166648000Y-91762738D01*
X166648000Y-92133262D01*
X166720286Y-92496667D01*
X166862080Y-92838987D01*
X167067932Y-93147067D01*
X167329933Y-93409068D01*
X167638013Y-93614920D01*
X167980333Y-93756714D01*
X168343738Y-93829000D01*
X168714262Y-93829000D01*
X169077667Y-93756714D01*
X169419987Y-93614920D01*
X169728067Y-93409068D01*
X169990068Y-93147067D01*
X170195920Y-92838987D01*
X170337714Y-92496667D01*
X170410000Y-92133262D01*
X170410000Y-91762738D01*
X170337714Y-91399333D01*
X170195920Y-91057013D01*
X169990068Y-90748933D01*
X169728067Y-90486932D01*
X169419987Y-90281080D01*
X169077667Y-90139286D01*
X168714262Y-90067000D01*
X168343738Y-90067000D01*
X167980333Y-90139286D01*
X167638013Y-90281080D01*
X167329933Y-90486932D01*
X167067932Y-90748933D01*
X166862080Y-91057013D01*
X166720286Y-91399333D01*
X166648000Y-91762738D01*
X144526000Y-91762738D01*
X144526000Y-86399000D01*
X163994157Y-86399000D01*
X163994157Y-88099000D01*
X164001513Y-88173689D01*
X164023299Y-88245508D01*
X164058678Y-88311696D01*
X164084000Y-88342552D01*
X164084001Y-89331687D01*
X164043307Y-89429931D01*
X163996000Y-89667757D01*
X163996000Y-89910243D01*
X164043307Y-90148069D01*
X164136102Y-90372097D01*
X164270820Y-90573717D01*
X164442283Y-90745180D01*
X164643903Y-90879898D01*
X164867931Y-90972693D01*
X165105757Y-91020000D01*
X165348243Y-91020000D01*
X165586069Y-90972693D01*
X165810097Y-90879898D01*
X166011717Y-90745180D01*
X166183180Y-90573717D01*
X166317898Y-90372097D01*
X166358591Y-90273854D01*
X166970446Y-89662000D01*
X167424118Y-89662000D01*
X167638013Y-89804920D01*
X167980333Y-89946714D01*
X168343738Y-90019000D01*
X168714262Y-90019000D01*
X168892989Y-89983449D01*
X169080932Y-90040461D01*
X169101517Y-90042488D01*
X169248854Y-90057000D01*
X169248861Y-90057000D01*
X169305000Y-90062529D01*
X169361139Y-90057000D01*
X175595146Y-90057000D01*
X175698270Y-90046843D01*
X176539000Y-90046843D01*
X176613689Y-90039487D01*
X176685508Y-90017701D01*
X176751696Y-89982322D01*
X176809711Y-89934711D01*
X176857322Y-89876696D01*
X176892701Y-89810508D01*
X176914487Y-89738689D01*
X176921843Y-89664000D01*
X176921843Y-88164000D01*
X176914487Y-88089311D01*
X176892701Y-88017492D01*
X176857322Y-87951304D01*
X176809711Y-87893289D01*
X176751696Y-87845678D01*
X176685508Y-87810299D01*
X176613689Y-87788513D01*
X176539000Y-87781157D01*
X175698270Y-87781157D01*
X175595146Y-87771000D01*
X170373850Y-87771000D01*
X170337714Y-87589333D01*
X170195920Y-87247013D01*
X169990068Y-86938933D01*
X169728067Y-86676932D01*
X169545000Y-86554611D01*
X169545000Y-86031658D01*
X169791814Y-85866743D01*
X170067743Y-85590814D01*
X170284539Y-85266355D01*
X170433871Y-84905836D01*
X170510000Y-84523111D01*
X170510000Y-84132889D01*
X170433871Y-83750164D01*
X170356760Y-83564000D01*
X174156157Y-83564000D01*
X174156157Y-85064000D01*
X174163513Y-85138689D01*
X174185299Y-85210508D01*
X174220678Y-85276696D01*
X174268289Y-85334711D01*
X174326304Y-85382322D01*
X174392492Y-85417701D01*
X174464311Y-85439487D01*
X174539000Y-85446843D01*
X176539000Y-85446843D01*
X176613689Y-85439487D01*
X176685508Y-85417701D01*
X176751696Y-85382322D01*
X176809711Y-85334711D01*
X176857322Y-85276696D01*
X176892701Y-85210508D01*
X176914487Y-85138689D01*
X176921843Y-85064000D01*
X176921843Y-83564000D01*
X176914487Y-83489311D01*
X176892701Y-83417492D01*
X176857322Y-83351304D01*
X176809711Y-83293289D01*
X176751696Y-83245678D01*
X176685508Y-83210299D01*
X176613689Y-83188513D01*
X176539000Y-83181157D01*
X176288867Y-83181157D01*
X176910982Y-82559042D01*
X177011809Y-82538987D01*
X177034695Y-82529507D01*
X177066810Y-82589589D01*
X177145512Y-82685488D01*
X177241411Y-82764190D01*
X177350821Y-82822671D01*
X177469538Y-82858683D01*
X177592999Y-82870843D01*
X178243001Y-82870843D01*
X178366462Y-82858683D01*
X178485179Y-82822671D01*
X178594589Y-82764190D01*
X178690488Y-82685488D01*
X178769190Y-82589589D01*
X178827671Y-82480179D01*
X178863683Y-82361462D01*
X178875843Y-82238001D01*
X178875843Y-81337999D01*
X178863683Y-81214538D01*
X178827671Y-81095821D01*
X178769190Y-80986411D01*
X178690488Y-80890512D01*
X178594589Y-80811810D01*
X178485179Y-80753329D01*
X178366462Y-80717317D01*
X178243001Y-80705157D01*
X177592999Y-80705157D01*
X177469538Y-80717317D01*
X177350821Y-80753329D01*
X177241411Y-80811810D01*
X177145512Y-80890512D01*
X177066810Y-80986411D01*
X177034695Y-81046493D01*
X177011809Y-81037013D01*
X176860922Y-81007000D01*
X176707078Y-81007000D01*
X176556191Y-81037013D01*
X176414058Y-81095887D01*
X176286141Y-81181358D01*
X176177358Y-81290141D01*
X176091887Y-81418058D01*
X176033013Y-81560191D01*
X176012958Y-81661018D01*
X175112046Y-82561930D01*
X175087816Y-82581815D01*
X175067932Y-82606044D01*
X175008463Y-82678507D01*
X174949498Y-82788821D01*
X174913189Y-82908519D01*
X174900929Y-83033000D01*
X174904001Y-83064191D01*
X174904001Y-83181157D01*
X174539000Y-83181157D01*
X174464311Y-83188513D01*
X174392492Y-83210299D01*
X174326304Y-83245678D01*
X174268289Y-83293289D01*
X174220678Y-83351304D01*
X174185299Y-83417492D01*
X174163513Y-83489311D01*
X174156157Y-83564000D01*
X170356760Y-83564000D01*
X170284539Y-83389645D01*
X170067743Y-83065186D01*
X169791814Y-82789257D01*
X169672000Y-82709200D01*
X169672000Y-76921445D01*
X169718602Y-76874843D01*
X170785000Y-76874843D01*
X170908462Y-76862683D01*
X171027179Y-76826671D01*
X171136589Y-76768190D01*
X171232488Y-76689488D01*
X171311190Y-76593589D01*
X171369671Y-76484179D01*
X171405683Y-76365462D01*
X171417843Y-76242000D01*
X171417843Y-75142000D01*
X172752157Y-75142000D01*
X172752157Y-76242000D01*
X172764317Y-76365462D01*
X172800329Y-76484179D01*
X172858810Y-76593589D01*
X172937512Y-76689488D01*
X173033411Y-76768190D01*
X173142821Y-76826671D01*
X173261538Y-76862683D01*
X173385000Y-76874843D01*
X173996001Y-76874843D01*
X173996001Y-77603764D01*
X173965505Y-77634260D01*
X173882248Y-77735709D01*
X173799698Y-77890148D01*
X173748864Y-78057726D01*
X173731700Y-78232000D01*
X173748864Y-78406274D01*
X173799698Y-78573852D01*
X173882248Y-78728291D01*
X173993341Y-78863659D01*
X174128709Y-78974752D01*
X174283148Y-79057302D01*
X174450726Y-79108136D01*
X174625000Y-79125300D01*
X174799274Y-79108136D01*
X174966852Y-79057302D01*
X175121291Y-78974752D01*
X175222740Y-78891495D01*
X175482736Y-78631499D01*
X175516659Y-78603659D01*
X175627753Y-78468291D01*
X175710303Y-78313851D01*
X175749305Y-78185277D01*
X175761136Y-78146275D01*
X175778301Y-77972000D01*
X175774000Y-77928332D01*
X175774000Y-76874843D01*
X176385000Y-76874843D01*
X176508462Y-76862683D01*
X176627179Y-76826671D01*
X176736589Y-76768190D01*
X176832488Y-76689488D01*
X176911190Y-76593589D01*
X176969671Y-76484179D01*
X177005683Y-76365462D01*
X177017843Y-76242000D01*
X177017843Y-75142000D01*
X177005683Y-75018538D01*
X176969671Y-74899821D01*
X176911190Y-74790411D01*
X176832488Y-74694512D01*
X176736589Y-74615810D01*
X176627179Y-74557329D01*
X176508462Y-74521317D01*
X176385000Y-74509157D01*
X173385000Y-74509157D01*
X173261538Y-74521317D01*
X173142821Y-74557329D01*
X173033411Y-74615810D01*
X172937512Y-74694512D01*
X172858810Y-74790411D01*
X172800329Y-74899821D01*
X172764317Y-75018538D01*
X172752157Y-75142000D01*
X171417843Y-75142000D01*
X171405683Y-75018538D01*
X171369671Y-74899821D01*
X171311190Y-74790411D01*
X171232488Y-74694512D01*
X171136589Y-74615810D01*
X171027179Y-74557329D01*
X170908462Y-74521317D01*
X170785000Y-74509157D01*
X167785000Y-74509157D01*
X167661538Y-74521317D01*
X167542821Y-74557329D01*
X167433411Y-74615810D01*
X167337512Y-74694512D01*
X167258810Y-74790411D01*
X167200329Y-74899821D01*
X167164317Y-75018538D01*
X167152157Y-75142000D01*
X167152157Y-76242000D01*
X167164317Y-76365462D01*
X167200329Y-76484179D01*
X167258810Y-76593589D01*
X167337512Y-76689488D01*
X167386001Y-76729282D01*
X167386000Y-82709200D01*
X167266186Y-82789257D01*
X166990257Y-83065186D01*
X166773461Y-83389645D01*
X166624129Y-83750164D01*
X166548000Y-84132889D01*
X166548000Y-84523111D01*
X166624129Y-84905836D01*
X166773461Y-85266355D01*
X166860274Y-85396280D01*
X166214107Y-86042447D01*
X166151689Y-86023513D01*
X166077000Y-86016157D01*
X164377000Y-86016157D01*
X164302311Y-86023513D01*
X164230492Y-86045299D01*
X164164304Y-86080678D01*
X164106289Y-86128289D01*
X164058678Y-86186304D01*
X164023299Y-86252492D01*
X164001513Y-86324311D01*
X163994157Y-86399000D01*
X144526000Y-86399000D01*
X144526000Y-75495999D01*
X151578157Y-75495999D01*
X151578157Y-76396001D01*
X151590317Y-76519462D01*
X151626329Y-76638179D01*
X151684810Y-76747589D01*
X151763512Y-76843488D01*
X151859411Y-76922190D01*
X151968821Y-76980671D01*
X152087538Y-77016683D01*
X152210999Y-77028843D01*
X152861001Y-77028843D01*
X152984462Y-77016683D01*
X153103179Y-76980671D01*
X153212589Y-76922190D01*
X153308488Y-76843488D01*
X153387190Y-76747589D01*
X153445671Y-76638179D01*
X153463016Y-76581000D01*
X153622984Y-76581000D01*
X153640329Y-76638179D01*
X153698810Y-76747589D01*
X153777512Y-76843488D01*
X153873411Y-76922190D01*
X153982821Y-76980671D01*
X154101538Y-77016683D01*
X154224999Y-77028843D01*
X154875001Y-77028843D01*
X154998462Y-77016683D01*
X155117179Y-76980671D01*
X155226589Y-76922190D01*
X155322488Y-76843488D01*
X155401190Y-76747589D01*
X155459671Y-76638179D01*
X155495683Y-76519462D01*
X155507843Y-76396001D01*
X155507843Y-75495999D01*
X155642157Y-75495999D01*
X155642157Y-76396001D01*
X155654317Y-76519462D01*
X155690329Y-76638179D01*
X155748810Y-76747589D01*
X155827512Y-76843488D01*
X155881574Y-76887855D01*
X155840013Y-76988191D01*
X155810000Y-77139078D01*
X155810000Y-77292922D01*
X155840013Y-77443809D01*
X155898887Y-77585942D01*
X155984358Y-77713859D01*
X156093141Y-77822642D01*
X156221058Y-77908113D01*
X156363191Y-77966987D01*
X156514078Y-77997000D01*
X156667922Y-77997000D01*
X156818809Y-77966987D01*
X156960942Y-77908113D01*
X157088859Y-77822642D01*
X157197642Y-77713859D01*
X157283113Y-77585942D01*
X157341987Y-77443809D01*
X157372000Y-77292922D01*
X157372000Y-77139078D01*
X157341987Y-76988191D01*
X157304993Y-76898880D01*
X157372488Y-76843488D01*
X157451190Y-76747589D01*
X157509671Y-76638179D01*
X157545683Y-76519462D01*
X157557843Y-76396001D01*
X157557843Y-75495999D01*
X157545683Y-75372538D01*
X157509671Y-75253821D01*
X157451190Y-75144411D01*
X157372488Y-75048512D01*
X157276589Y-74969810D01*
X157167179Y-74911329D01*
X157048462Y-74875317D01*
X156925001Y-74863157D01*
X156274999Y-74863157D01*
X156151538Y-74875317D01*
X156032821Y-74911329D01*
X155923411Y-74969810D01*
X155827512Y-75048512D01*
X155748810Y-75144411D01*
X155690329Y-75253821D01*
X155654317Y-75372538D01*
X155642157Y-75495999D01*
X155507843Y-75495999D01*
X155495683Y-75372538D01*
X155459671Y-75253821D01*
X155401190Y-75144411D01*
X155322488Y-75048512D01*
X155226589Y-74969810D01*
X155117179Y-74911329D01*
X154998462Y-74875317D01*
X154875001Y-74863157D01*
X154224999Y-74863157D01*
X154101538Y-74875317D01*
X153982821Y-74911329D01*
X153873411Y-74969810D01*
X153777512Y-75048512D01*
X153698810Y-75144411D01*
X153640329Y-75253821D01*
X153622984Y-75311000D01*
X153463016Y-75311000D01*
X153445671Y-75253821D01*
X153387190Y-75144411D01*
X153308488Y-75048512D01*
X153212589Y-74969810D01*
X153103179Y-74911329D01*
X152984462Y-74875317D01*
X152861001Y-74863157D01*
X152210999Y-74863157D01*
X152087538Y-74875317D01*
X151968821Y-74911329D01*
X151859411Y-74969810D01*
X151763512Y-75048512D01*
X151684810Y-75144411D01*
X151626329Y-75253821D01*
X151590317Y-75372538D01*
X151578157Y-75495999D01*
X144526000Y-75495999D01*
X144526000Y-71653000D01*
X182987146Y-71653000D01*
X183174441Y-71671364D01*
%TA.AperFunction,Conductor*%
D24*
G36*
X183174441Y-71671364D02*
G01*
X183335501Y-71719992D01*
X183484054Y-71798979D01*
X183614430Y-71905310D01*
X183721674Y-72034946D01*
X183801695Y-72182942D01*
X183851446Y-72343661D01*
X183871001Y-72529716D01*
X183871000Y-102342146D01*
X183852636Y-102529441D01*
X183804008Y-102690503D01*
X183725023Y-102839051D01*
X183618689Y-102969430D01*
X183489054Y-103076674D01*
X183341058Y-103156695D01*
X183180339Y-103206446D01*
X182994293Y-103226000D01*
X144526000Y-103226000D01*
X144526000Y-99372889D01*
X166548000Y-99372889D01*
X166548000Y-99763111D01*
X166624129Y-100145836D01*
X166773461Y-100506355D01*
X166990257Y-100830814D01*
X167266186Y-101106743D01*
X167590645Y-101323539D01*
X167951164Y-101472871D01*
X168333889Y-101549000D01*
X168724111Y-101549000D01*
X169106836Y-101472871D01*
X169467355Y-101323539D01*
X169791814Y-101106743D01*
X170067743Y-100830814D01*
X170284539Y-100506355D01*
X170355102Y-100336000D01*
X177760157Y-100336000D01*
X177760157Y-100820000D01*
X177772317Y-100943462D01*
X177808329Y-101062179D01*
X177866810Y-101171589D01*
X177945512Y-101267488D01*
X178041411Y-101346190D01*
X178150821Y-101404671D01*
X178269538Y-101440683D01*
X178393000Y-101452843D01*
X179493000Y-101452843D01*
X179616462Y-101440683D01*
X179735179Y-101404671D01*
X179844589Y-101346190D01*
X179940488Y-101267488D01*
X180019190Y-101171589D01*
X180077671Y-101062179D01*
X180113683Y-100943462D01*
X180125843Y-100820000D01*
X180125843Y-97820000D01*
X180113683Y-97696538D01*
X180077671Y-97577821D01*
X180019190Y-97468411D01*
X179940488Y-97372512D01*
X179844589Y-97293810D01*
X179735179Y-97235329D01*
X179616462Y-97199317D01*
X179493000Y-97187157D01*
X178393000Y-97187157D01*
X178269538Y-97199317D01*
X178150821Y-97235329D01*
X178041411Y-97293810D01*
X177945512Y-97372512D01*
X177866810Y-97468411D01*
X177808329Y-97577821D01*
X177772317Y-97696538D01*
X177760157Y-97820000D01*
X177760157Y-98304000D01*
X170066557Y-98304000D01*
X169791814Y-98029257D01*
X169467355Y-97812461D01*
X169106836Y-97663129D01*
X168849897Y-97612020D01*
X169077667Y-97566714D01*
X169419987Y-97424920D01*
X169728067Y-97219068D01*
X169990068Y-96957067D01*
X170195920Y-96648987D01*
X170337714Y-96306667D01*
X170410000Y-95943262D01*
X170410000Y-95572738D01*
X170337714Y-95209333D01*
X170195920Y-94867013D01*
X169990068Y-94558933D01*
X169728067Y-94296932D01*
X169419987Y-94091080D01*
X169077667Y-93949286D01*
X168714262Y-93877000D01*
X168343738Y-93877000D01*
X167980333Y-93949286D01*
X167638013Y-94091080D01*
X167329933Y-94296932D01*
X167067932Y-94558933D01*
X166862080Y-94867013D01*
X166720286Y-95209333D01*
X166648000Y-95572738D01*
X166648000Y-95943262D01*
X166720286Y-96306667D01*
X166862080Y-96648987D01*
X167067932Y-96957067D01*
X167329933Y-97219068D01*
X167638013Y-97424920D01*
X167980333Y-97566714D01*
X168208103Y-97612020D01*
X167951164Y-97663129D01*
X167590645Y-97812461D01*
X167266186Y-98029257D01*
X166990257Y-98305186D01*
X166773461Y-98629645D01*
X166624129Y-98990164D01*
X166548000Y-99372889D01*
X144526000Y-99372889D01*
X144526000Y-97287757D01*
X163996000Y-97287757D01*
X163996000Y-97530243D01*
X164043307Y-97768069D01*
X164136102Y-97992097D01*
X164270820Y-98193717D01*
X164442283Y-98365180D01*
X164643903Y-98499898D01*
X164867931Y-98592693D01*
X165105757Y-98640000D01*
X165348243Y-98640000D01*
X165586069Y-98592693D01*
X165810097Y-98499898D01*
X166011717Y-98365180D01*
X166183180Y-98193717D01*
X166317898Y-97992097D01*
X166410693Y-97768069D01*
X166458000Y-97530243D01*
X166458000Y-97287757D01*
X166410693Y-97049931D01*
X166317898Y-96825903D01*
X166183180Y-96624283D01*
X166011717Y-96452820D01*
X165810097Y-96318102D01*
X165586069Y-96225307D01*
X165348243Y-96178000D01*
X165105757Y-96178000D01*
X164867931Y-96225307D01*
X164643903Y-96318102D01*
X164442283Y-96452820D01*
X164270820Y-96624283D01*
X164136102Y-96825903D01*
X164043307Y-97049931D01*
X163996000Y-97287757D01*
X144526000Y-97287757D01*
X144526000Y-94747757D01*
X163996000Y-94747757D01*
X163996000Y-94990243D01*
X164043307Y-95228069D01*
X164136102Y-95452097D01*
X164270820Y-95653717D01*
X164442283Y-95825180D01*
X164643903Y-95959898D01*
X164867931Y-96052693D01*
X165105757Y-96100000D01*
X165348243Y-96100000D01*
X165586069Y-96052693D01*
X165810097Y-95959898D01*
X166011717Y-95825180D01*
X166183180Y-95653717D01*
X166317898Y-95452097D01*
X166410693Y-95228069D01*
X166458000Y-94990243D01*
X166458000Y-94747757D01*
X166410693Y-94509931D01*
X166317898Y-94285903D01*
X166183180Y-94084283D01*
X166011717Y-93912820D01*
X165810097Y-93778102D01*
X165586069Y-93685307D01*
X165348243Y-93638000D01*
X165105757Y-93638000D01*
X164867931Y-93685307D01*
X164643903Y-93778102D01*
X164442283Y-93912820D01*
X164270820Y-94084283D01*
X164136102Y-94285903D01*
X164043307Y-94509931D01*
X163996000Y-94747757D01*
X144526000Y-94747757D01*
X144526000Y-91762738D01*
X166648000Y-91762738D01*
X166648000Y-92133262D01*
X166720286Y-92496667D01*
X166862080Y-92838987D01*
X167067932Y-93147067D01*
X167329933Y-93409068D01*
X167638013Y-93614920D01*
X167980333Y-93756714D01*
X168343738Y-93829000D01*
X168714262Y-93829000D01*
X169077667Y-93756714D01*
X169419987Y-93614920D01*
X169728067Y-93409068D01*
X169990068Y-93147067D01*
X170195920Y-92838987D01*
X170337714Y-92496667D01*
X170410000Y-92133262D01*
X170410000Y-91762738D01*
X170337714Y-91399333D01*
X170195920Y-91057013D01*
X169990068Y-90748933D01*
X169728067Y-90486932D01*
X169419987Y-90281080D01*
X169077667Y-90139286D01*
X168714262Y-90067000D01*
X168343738Y-90067000D01*
X167980333Y-90139286D01*
X167638013Y-90281080D01*
X167329933Y-90486932D01*
X167067932Y-90748933D01*
X166862080Y-91057013D01*
X166720286Y-91399333D01*
X166648000Y-91762738D01*
X144526000Y-91762738D01*
X144526000Y-86399000D01*
X163994157Y-86399000D01*
X163994157Y-88099000D01*
X164001513Y-88173689D01*
X164023299Y-88245508D01*
X164058678Y-88311696D01*
X164084000Y-88342552D01*
X164084001Y-89331687D01*
X164043307Y-89429931D01*
X163996000Y-89667757D01*
X163996000Y-89910243D01*
X164043307Y-90148069D01*
X164136102Y-90372097D01*
X164270820Y-90573717D01*
X164442283Y-90745180D01*
X164643903Y-90879898D01*
X164867931Y-90972693D01*
X165105757Y-91020000D01*
X165348243Y-91020000D01*
X165586069Y-90972693D01*
X165810097Y-90879898D01*
X166011717Y-90745180D01*
X166183180Y-90573717D01*
X166317898Y-90372097D01*
X166358591Y-90273854D01*
X166970446Y-89662000D01*
X167424118Y-89662000D01*
X167638013Y-89804920D01*
X167980333Y-89946714D01*
X168343738Y-90019000D01*
X168714262Y-90019000D01*
X168892989Y-89983449D01*
X169080932Y-90040461D01*
X169101517Y-90042488D01*
X169248854Y-90057000D01*
X169248861Y-90057000D01*
X169305000Y-90062529D01*
X169361139Y-90057000D01*
X175595146Y-90057000D01*
X175698270Y-90046843D01*
X176539000Y-90046843D01*
X176613689Y-90039487D01*
X176685508Y-90017701D01*
X176751696Y-89982322D01*
X176809711Y-89934711D01*
X176857322Y-89876696D01*
X176892701Y-89810508D01*
X176914487Y-89738689D01*
X176921843Y-89664000D01*
X176921843Y-88164000D01*
X176914487Y-88089311D01*
X176892701Y-88017492D01*
X176857322Y-87951304D01*
X176809711Y-87893289D01*
X176751696Y-87845678D01*
X176685508Y-87810299D01*
X176613689Y-87788513D01*
X176539000Y-87781157D01*
X175698270Y-87781157D01*
X175595146Y-87771000D01*
X170373850Y-87771000D01*
X170337714Y-87589333D01*
X170195920Y-87247013D01*
X169990068Y-86938933D01*
X169728067Y-86676932D01*
X169545000Y-86554611D01*
X169545000Y-86031658D01*
X169791814Y-85866743D01*
X170067743Y-85590814D01*
X170284539Y-85266355D01*
X170433871Y-84905836D01*
X170510000Y-84523111D01*
X170510000Y-84132889D01*
X170433871Y-83750164D01*
X170356760Y-83564000D01*
X174156157Y-83564000D01*
X174156157Y-85064000D01*
X174163513Y-85138689D01*
X174185299Y-85210508D01*
X174220678Y-85276696D01*
X174268289Y-85334711D01*
X174326304Y-85382322D01*
X174392492Y-85417701D01*
X174464311Y-85439487D01*
X174539000Y-85446843D01*
X176539000Y-85446843D01*
X176613689Y-85439487D01*
X176685508Y-85417701D01*
X176751696Y-85382322D01*
X176809711Y-85334711D01*
X176857322Y-85276696D01*
X176892701Y-85210508D01*
X176914487Y-85138689D01*
X176921843Y-85064000D01*
X176921843Y-83564000D01*
X176914487Y-83489311D01*
X176892701Y-83417492D01*
X176857322Y-83351304D01*
X176809711Y-83293289D01*
X176751696Y-83245678D01*
X176685508Y-83210299D01*
X176613689Y-83188513D01*
X176539000Y-83181157D01*
X176288867Y-83181157D01*
X176910982Y-82559042D01*
X177011809Y-82538987D01*
X177034695Y-82529507D01*
X177066810Y-82589589D01*
X177145512Y-82685488D01*
X177241411Y-82764190D01*
X177350821Y-82822671D01*
X177469538Y-82858683D01*
X177592999Y-82870843D01*
X178243001Y-82870843D01*
X178366462Y-82858683D01*
X178485179Y-82822671D01*
X178594589Y-82764190D01*
X178690488Y-82685488D01*
X178769190Y-82589589D01*
X178827671Y-82480179D01*
X178863683Y-82361462D01*
X178875843Y-82238001D01*
X178875843Y-81337999D01*
X178863683Y-81214538D01*
X178827671Y-81095821D01*
X178769190Y-80986411D01*
X178690488Y-80890512D01*
X178594589Y-80811810D01*
X178485179Y-80753329D01*
X178366462Y-80717317D01*
X178243001Y-80705157D01*
X177592999Y-80705157D01*
X177469538Y-80717317D01*
X177350821Y-80753329D01*
X177241411Y-80811810D01*
X177145512Y-80890512D01*
X177066810Y-80986411D01*
X177034695Y-81046493D01*
X177011809Y-81037013D01*
X176860922Y-81007000D01*
X176707078Y-81007000D01*
X176556191Y-81037013D01*
X176414058Y-81095887D01*
X176286141Y-81181358D01*
X176177358Y-81290141D01*
X176091887Y-81418058D01*
X176033013Y-81560191D01*
X176012958Y-81661018D01*
X175112046Y-82561930D01*
X175087816Y-82581815D01*
X175067932Y-82606044D01*
X175008463Y-82678507D01*
X174949498Y-82788821D01*
X174913189Y-82908519D01*
X174900929Y-83033000D01*
X174904001Y-83064191D01*
X174904001Y-83181157D01*
X174539000Y-83181157D01*
X174464311Y-83188513D01*
X174392492Y-83210299D01*
X174326304Y-83245678D01*
X174268289Y-83293289D01*
X174220678Y-83351304D01*
X174185299Y-83417492D01*
X174163513Y-83489311D01*
X174156157Y-83564000D01*
X170356760Y-83564000D01*
X170284539Y-83389645D01*
X170067743Y-83065186D01*
X169791814Y-82789257D01*
X169672000Y-82709200D01*
X169672000Y-76921445D01*
X169718602Y-76874843D01*
X170785000Y-76874843D01*
X170908462Y-76862683D01*
X171027179Y-76826671D01*
X171136589Y-76768190D01*
X171232488Y-76689488D01*
X171311190Y-76593589D01*
X171369671Y-76484179D01*
X171405683Y-76365462D01*
X171417843Y-76242000D01*
X171417843Y-75142000D01*
X172752157Y-75142000D01*
X172752157Y-76242000D01*
X172764317Y-76365462D01*
X172800329Y-76484179D01*
X172858810Y-76593589D01*
X172937512Y-76689488D01*
X173033411Y-76768190D01*
X173142821Y-76826671D01*
X173261538Y-76862683D01*
X173385000Y-76874843D01*
X173996001Y-76874843D01*
X173996001Y-77603764D01*
X173965505Y-77634260D01*
X173882248Y-77735709D01*
X173799698Y-77890148D01*
X173748864Y-78057726D01*
X173731700Y-78232000D01*
X173748864Y-78406274D01*
X173799698Y-78573852D01*
X173882248Y-78728291D01*
X173993341Y-78863659D01*
X174128709Y-78974752D01*
X174283148Y-79057302D01*
X174450726Y-79108136D01*
X174625000Y-79125300D01*
X174799274Y-79108136D01*
X174966852Y-79057302D01*
X175121291Y-78974752D01*
X175222740Y-78891495D01*
X175482736Y-78631499D01*
X175516659Y-78603659D01*
X175627753Y-78468291D01*
X175710303Y-78313851D01*
X175749305Y-78185277D01*
X175761136Y-78146275D01*
X175778301Y-77972000D01*
X175774000Y-77928332D01*
X175774000Y-76874843D01*
X176385000Y-76874843D01*
X176508462Y-76862683D01*
X176627179Y-76826671D01*
X176736589Y-76768190D01*
X176832488Y-76689488D01*
X176911190Y-76593589D01*
X176969671Y-76484179D01*
X177005683Y-76365462D01*
X177017843Y-76242000D01*
X177017843Y-75142000D01*
X177005683Y-75018538D01*
X176969671Y-74899821D01*
X176911190Y-74790411D01*
X176832488Y-74694512D01*
X176736589Y-74615810D01*
X176627179Y-74557329D01*
X176508462Y-74521317D01*
X176385000Y-74509157D01*
X173385000Y-74509157D01*
X173261538Y-74521317D01*
X173142821Y-74557329D01*
X173033411Y-74615810D01*
X172937512Y-74694512D01*
X172858810Y-74790411D01*
X172800329Y-74899821D01*
X172764317Y-75018538D01*
X172752157Y-75142000D01*
X171417843Y-75142000D01*
X171405683Y-75018538D01*
X171369671Y-74899821D01*
X171311190Y-74790411D01*
X171232488Y-74694512D01*
X171136589Y-74615810D01*
X171027179Y-74557329D01*
X170908462Y-74521317D01*
X170785000Y-74509157D01*
X167785000Y-74509157D01*
X167661538Y-74521317D01*
X167542821Y-74557329D01*
X167433411Y-74615810D01*
X167337512Y-74694512D01*
X167258810Y-74790411D01*
X167200329Y-74899821D01*
X167164317Y-75018538D01*
X167152157Y-75142000D01*
X167152157Y-76242000D01*
X167164317Y-76365462D01*
X167200329Y-76484179D01*
X167258810Y-76593589D01*
X167337512Y-76689488D01*
X167386001Y-76729282D01*
X167386000Y-82709200D01*
X167266186Y-82789257D01*
X166990257Y-83065186D01*
X166773461Y-83389645D01*
X166624129Y-83750164D01*
X166548000Y-84132889D01*
X166548000Y-84523111D01*
X166624129Y-84905836D01*
X166773461Y-85266355D01*
X166860274Y-85396280D01*
X166214107Y-86042447D01*
X166151689Y-86023513D01*
X166077000Y-86016157D01*
X164377000Y-86016157D01*
X164302311Y-86023513D01*
X164230492Y-86045299D01*
X164164304Y-86080678D01*
X164106289Y-86128289D01*
X164058678Y-86186304D01*
X164023299Y-86252492D01*
X164001513Y-86324311D01*
X163994157Y-86399000D01*
X144526000Y-86399000D01*
X144526000Y-75495999D01*
X151578157Y-75495999D01*
X151578157Y-76396001D01*
X151590317Y-76519462D01*
X151626329Y-76638179D01*
X151684810Y-76747589D01*
X151763512Y-76843488D01*
X151859411Y-76922190D01*
X151968821Y-76980671D01*
X152087538Y-77016683D01*
X152210999Y-77028843D01*
X152861001Y-77028843D01*
X152984462Y-77016683D01*
X153103179Y-76980671D01*
X153212589Y-76922190D01*
X153308488Y-76843488D01*
X153387190Y-76747589D01*
X153445671Y-76638179D01*
X153463016Y-76581000D01*
X153622984Y-76581000D01*
X153640329Y-76638179D01*
X153698810Y-76747589D01*
X153777512Y-76843488D01*
X153873411Y-76922190D01*
X153982821Y-76980671D01*
X154101538Y-77016683D01*
X154224999Y-77028843D01*
X154875001Y-77028843D01*
X154998462Y-77016683D01*
X155117179Y-76980671D01*
X155226589Y-76922190D01*
X155322488Y-76843488D01*
X155401190Y-76747589D01*
X155459671Y-76638179D01*
X155495683Y-76519462D01*
X155507843Y-76396001D01*
X155507843Y-75495999D01*
X155642157Y-75495999D01*
X155642157Y-76396001D01*
X155654317Y-76519462D01*
X155690329Y-76638179D01*
X155748810Y-76747589D01*
X155827512Y-76843488D01*
X155881574Y-76887855D01*
X155840013Y-76988191D01*
X155810000Y-77139078D01*
X155810000Y-77292922D01*
X155840013Y-77443809D01*
X155898887Y-77585942D01*
X155984358Y-77713859D01*
X156093141Y-77822642D01*
X156221058Y-77908113D01*
X156363191Y-77966987D01*
X156514078Y-77997000D01*
X156667922Y-77997000D01*
X156818809Y-77966987D01*
X156960942Y-77908113D01*
X157088859Y-77822642D01*
X157197642Y-77713859D01*
X157283113Y-77585942D01*
X157341987Y-77443809D01*
X157372000Y-77292922D01*
X157372000Y-77139078D01*
X157341987Y-76988191D01*
X157304993Y-76898880D01*
X157372488Y-76843488D01*
X157451190Y-76747589D01*
X157509671Y-76638179D01*
X157545683Y-76519462D01*
X157557843Y-76396001D01*
X157557843Y-75495999D01*
X157545683Y-75372538D01*
X157509671Y-75253821D01*
X157451190Y-75144411D01*
X157372488Y-75048512D01*
X157276589Y-74969810D01*
X157167179Y-74911329D01*
X157048462Y-74875317D01*
X156925001Y-74863157D01*
X156274999Y-74863157D01*
X156151538Y-74875317D01*
X156032821Y-74911329D01*
X155923411Y-74969810D01*
X155827512Y-75048512D01*
X155748810Y-75144411D01*
X155690329Y-75253821D01*
X155654317Y-75372538D01*
X155642157Y-75495999D01*
X155507843Y-75495999D01*
X155495683Y-75372538D01*
X155459671Y-75253821D01*
X155401190Y-75144411D01*
X155322488Y-75048512D01*
X155226589Y-74969810D01*
X155117179Y-74911329D01*
X154998462Y-74875317D01*
X154875001Y-74863157D01*
X154224999Y-74863157D01*
X154101538Y-74875317D01*
X153982821Y-74911329D01*
X153873411Y-74969810D01*
X153777512Y-75048512D01*
X153698810Y-75144411D01*
X153640329Y-75253821D01*
X153622984Y-75311000D01*
X153463016Y-75311000D01*
X153445671Y-75253821D01*
X153387190Y-75144411D01*
X153308488Y-75048512D01*
X153212589Y-74969810D01*
X153103179Y-74911329D01*
X152984462Y-74875317D01*
X152861001Y-74863157D01*
X152210999Y-74863157D01*
X152087538Y-74875317D01*
X151968821Y-74911329D01*
X151859411Y-74969810D01*
X151763512Y-75048512D01*
X151684810Y-75144411D01*
X151626329Y-75253821D01*
X151590317Y-75372538D01*
X151578157Y-75495999D01*
X144526000Y-75495999D01*
X144526000Y-71653000D01*
X182987146Y-71653000D01*
X183174441Y-71671364D01*
G37*
%TD.AperFunction*%
%TD*%
M02*
