%TF.GenerationSoftware,KiCad,Pcbnew,(5.1.12)-1*%
%TF.CreationDate,2022-03-07T22:11:42-06:00*%
%TF.ProjectId,PoE_Stepper_Driver,506f455f-5374-4657-9070-65725f447269,rev?*%
%TF.SameCoordinates,Original*%
%TF.FileFunction,Paste,Top*%
%TF.FilePolarity,Positive*%
%FSLAX46Y46*%
G04 Gerber Fmt 4.6, Leading zero omitted, Abs format (unit mm)*
G04 Created by KiCad (PCBNEW (5.1.12)-1) date 2022-03-07 22:11:42*
%MOMM*%
%LPD*%
G01*
G04 APERTURE LIST*
%ADD10R,1.500000X0.520000*%
%ADD11R,0.520000X1.500000*%
%ADD12R,2.100000X1.400000*%
%ADD13R,2.290000X0.760000*%
%ADD14R,1.200000X0.400000*%
%ADD15R,1.500000X1.200000*%
%ADD16R,1.550000X1.300000*%
G04 APERTURE END LIST*
%TO.C,C2*%
G36*
G01*
X120218000Y-118040999D02*
X120218000Y-118941001D01*
G75*
G02*
X119968001Y-119191000I-249999J0D01*
G01*
X119317999Y-119191000D01*
G75*
G02*
X119068000Y-118941001I0J249999D01*
G01*
X119068000Y-118040999D01*
G75*
G02*
X119317999Y-117791000I249999J0D01*
G01*
X119968001Y-117791000D01*
G75*
G02*
X120218000Y-118040999I0J-249999D01*
G01*
G37*
G36*
G01*
X118168000Y-118040999D02*
X118168000Y-118941001D01*
G75*
G02*
X117918001Y-119191000I-249999J0D01*
G01*
X117267999Y-119191000D01*
G75*
G02*
X117018000Y-118941001I0J249999D01*
G01*
X117018000Y-118040999D01*
G75*
G02*
X117267999Y-117791000I249999J0D01*
G01*
X117918001Y-117791000D01*
G75*
G02*
X118168000Y-118040999I0J-249999D01*
G01*
G37*
%TD*%
D10*
%TO.C,U16*%
X124668000Y-111950000D03*
X124668000Y-111150000D03*
X124668000Y-110350000D03*
X124668000Y-109550000D03*
X124668000Y-108750000D03*
X124668000Y-107950000D03*
X124668000Y-107150000D03*
X124668000Y-106350000D03*
X124668000Y-105550000D03*
X124668000Y-104750000D03*
X124668000Y-103950000D03*
D11*
X122618000Y-101900000D03*
X121818000Y-101900000D03*
X121018000Y-101900000D03*
X120218000Y-101900000D03*
X119418000Y-101900000D03*
X118618000Y-101900000D03*
X117818000Y-101900000D03*
X117018000Y-101900000D03*
X116218000Y-101900000D03*
X115418000Y-101900000D03*
X114618000Y-101900000D03*
D10*
X112568000Y-103950000D03*
X112568000Y-104750000D03*
X112568000Y-105550000D03*
X112568000Y-106350000D03*
X112568000Y-107150000D03*
X112568000Y-107950000D03*
X112568000Y-108750000D03*
X112568000Y-109550000D03*
X112568000Y-110350000D03*
X112568000Y-111150000D03*
X112568000Y-111950000D03*
D11*
X114618000Y-114000000D03*
X115418000Y-114000000D03*
X116218000Y-114000000D03*
X117018000Y-114000000D03*
X117818000Y-114000000D03*
X118618000Y-114000000D03*
X119418000Y-114000000D03*
X120218000Y-114000000D03*
X121018000Y-114000000D03*
X121818000Y-114000000D03*
X122618000Y-114000000D03*
%TD*%
%TO.C,C17*%
G36*
G01*
X120066000Y-116655001D02*
X120066000Y-115754999D01*
G75*
G02*
X120315999Y-115505000I249999J0D01*
G01*
X120966001Y-115505000D01*
G75*
G02*
X121216000Y-115754999I0J-249999D01*
G01*
X121216000Y-116655001D01*
G75*
G02*
X120966001Y-116905000I-249999J0D01*
G01*
X120315999Y-116905000D01*
G75*
G02*
X120066000Y-116655001I0J249999D01*
G01*
G37*
G36*
G01*
X122116000Y-116655001D02*
X122116000Y-115754999D01*
G75*
G02*
X122365999Y-115505000I249999J0D01*
G01*
X123016001Y-115505000D01*
G75*
G02*
X123266000Y-115754999I0J-249999D01*
G01*
X123266000Y-116655001D01*
G75*
G02*
X123016001Y-116905000I-249999J0D01*
G01*
X122365999Y-116905000D01*
G75*
G02*
X122116000Y-116655001I0J249999D01*
G01*
G37*
%TD*%
%TO.C,CG1*%
G36*
G01*
X101717000Y-89715000D02*
X101717000Y-86815000D01*
G75*
G02*
X101967000Y-86565000I250000J0D01*
G01*
X102767000Y-86565000D01*
G75*
G02*
X103017000Y-86815000I0J-250000D01*
G01*
X103017000Y-89715000D01*
G75*
G02*
X102767000Y-89965000I-250000J0D01*
G01*
X101967000Y-89965000D01*
G75*
G02*
X101717000Y-89715000I0J250000D01*
G01*
G37*
G36*
G01*
X97267000Y-89715000D02*
X97267000Y-86815000D01*
G75*
G02*
X97517000Y-86565000I250000J0D01*
G01*
X98317000Y-86565000D01*
G75*
G02*
X98567000Y-86815000I0J-250000D01*
G01*
X98567000Y-89715000D01*
G75*
G02*
X98317000Y-89965000I-250000J0D01*
G01*
X97517000Y-89965000D01*
G75*
G02*
X97267000Y-89715000I0J250000D01*
G01*
G37*
%TD*%
D12*
%TO.C,D1*%
X138938000Y-90084000D03*
X138938000Y-85684000D03*
%TD*%
%TO.C,D3*%
G36*
G01*
X141535999Y-80569000D02*
X142436001Y-80569000D01*
G75*
G02*
X142686000Y-80818999I0J-249999D01*
G01*
X142686000Y-81469001D01*
G75*
G02*
X142436001Y-81719000I-249999J0D01*
G01*
X141535999Y-81719000D01*
G75*
G02*
X141286000Y-81469001I0J249999D01*
G01*
X141286000Y-80818999D01*
G75*
G02*
X141535999Y-80569000I249999J0D01*
G01*
G37*
G36*
G01*
X141535999Y-82619000D02*
X142436001Y-82619000D01*
G75*
G02*
X142686000Y-82868999I0J-249999D01*
G01*
X142686000Y-83519001D01*
G75*
G02*
X142436001Y-83769000I-249999J0D01*
G01*
X141535999Y-83769000D01*
G75*
G02*
X141286000Y-83519001I0J249999D01*
G01*
X141286000Y-82868999D01*
G75*
G02*
X141535999Y-82619000I249999J0D01*
G01*
G37*
%TD*%
%TO.C,D4*%
G36*
G01*
X184208000Y-110674998D02*
X184208000Y-111575000D01*
G75*
G02*
X183958001Y-111824999I-249999J0D01*
G01*
X183307999Y-111824999D01*
G75*
G02*
X183058000Y-111575000I0J249999D01*
G01*
X183058000Y-110674998D01*
G75*
G02*
X183307999Y-110424999I249999J0D01*
G01*
X183958001Y-110424999D01*
G75*
G02*
X184208000Y-110674998I0J-249999D01*
G01*
G37*
G36*
G01*
X186258000Y-110674998D02*
X186258000Y-111575000D01*
G75*
G02*
X186008001Y-111824999I-249999J0D01*
G01*
X185357999Y-111824999D01*
G75*
G02*
X185108000Y-111575000I0J249999D01*
G01*
X185108000Y-110674998D01*
G75*
G02*
X185357999Y-110424999I249999J0D01*
G01*
X186008001Y-110424999D01*
G75*
G02*
X186258000Y-110674998I0J-249999D01*
G01*
G37*
%TD*%
%TO.C,D5*%
G36*
G01*
X186258000Y-108642998D02*
X186258000Y-109543000D01*
G75*
G02*
X186008001Y-109792999I-249999J0D01*
G01*
X185357999Y-109792999D01*
G75*
G02*
X185108000Y-109543000I0J249999D01*
G01*
X185108000Y-108642998D01*
G75*
G02*
X185357999Y-108392999I249999J0D01*
G01*
X186008001Y-108392999D01*
G75*
G02*
X186258000Y-108642998I0J-249999D01*
G01*
G37*
G36*
G01*
X184208000Y-108642998D02*
X184208000Y-109543000D01*
G75*
G02*
X183958001Y-109792999I-249999J0D01*
G01*
X183307999Y-109792999D01*
G75*
G02*
X183058000Y-109543000I0J249999D01*
G01*
X183058000Y-108642998D01*
G75*
G02*
X183307999Y-108392999I249999J0D01*
G01*
X183958001Y-108392999D01*
G75*
G02*
X184208000Y-108642998I0J-249999D01*
G01*
G37*
%TD*%
%TO.C,R7*%
G36*
G01*
X107892000Y-93541001D02*
X107892000Y-92640999D01*
G75*
G02*
X108141999Y-92391000I249999J0D01*
G01*
X108792001Y-92391000D01*
G75*
G02*
X109042000Y-92640999I0J-249999D01*
G01*
X109042000Y-93541001D01*
G75*
G02*
X108792001Y-93791000I-249999J0D01*
G01*
X108141999Y-93791000D01*
G75*
G02*
X107892000Y-93541001I0J249999D01*
G01*
G37*
G36*
G01*
X105842000Y-93541001D02*
X105842000Y-92640999D01*
G75*
G02*
X106091999Y-92391000I249999J0D01*
G01*
X106742001Y-92391000D01*
G75*
G02*
X106992000Y-92640999I0J-249999D01*
G01*
X106992000Y-93541001D01*
G75*
G02*
X106742001Y-93791000I-249999J0D01*
G01*
X106091999Y-93791000D01*
G75*
G02*
X105842000Y-93541001I0J249999D01*
G01*
G37*
%TD*%
%TO.C,R8*%
G36*
G01*
X105842000Y-91509001D02*
X105842000Y-90608999D01*
G75*
G02*
X106091999Y-90359000I249999J0D01*
G01*
X106742001Y-90359000D01*
G75*
G02*
X106992000Y-90608999I0J-249999D01*
G01*
X106992000Y-91509001D01*
G75*
G02*
X106742001Y-91759000I-249999J0D01*
G01*
X106091999Y-91759000D01*
G75*
G02*
X105842000Y-91509001I0J249999D01*
G01*
G37*
G36*
G01*
X107892000Y-91509001D02*
X107892000Y-90608999D01*
G75*
G02*
X108141999Y-90359000I249999J0D01*
G01*
X108792001Y-90359000D01*
G75*
G02*
X109042000Y-90608999I0J-249999D01*
G01*
X109042000Y-91509001D01*
G75*
G02*
X108792001Y-91759000I-249999J0D01*
G01*
X108141999Y-91759000D01*
G75*
G02*
X107892000Y-91509001I0J249999D01*
G01*
G37*
%TD*%
%TO.C,RMPS1*%
G36*
G01*
X144116999Y-78165000D02*
X146967001Y-78165000D01*
G75*
G02*
X147217000Y-78414999I0J-249999D01*
G01*
X147217000Y-79440001D01*
G75*
G02*
X146967001Y-79690000I-249999J0D01*
G01*
X144116999Y-79690000D01*
G75*
G02*
X143867000Y-79440001I0J249999D01*
G01*
X143867000Y-78414999D01*
G75*
G02*
X144116999Y-78165000I249999J0D01*
G01*
G37*
G36*
G01*
X144116999Y-84140000D02*
X146967001Y-84140000D01*
G75*
G02*
X147217000Y-84389999I0J-249999D01*
G01*
X147217000Y-85415001D01*
G75*
G02*
X146967001Y-85665000I-249999J0D01*
G01*
X144116999Y-85665000D01*
G75*
G02*
X143867000Y-85415001I0J249999D01*
G01*
X143867000Y-84389999D01*
G75*
G02*
X144116999Y-84140000I249999J0D01*
G01*
G37*
%TD*%
D13*
%TO.C,TR1*%
X121029000Y-83693000D03*
X121029000Y-82423000D03*
X121029000Y-81153000D03*
X121029000Y-79883000D03*
X121029000Y-78613000D03*
X121029000Y-77343000D03*
X121029000Y-76073000D03*
X121029000Y-74803000D03*
X121029000Y-73533000D03*
X121029000Y-72263000D03*
X121029000Y-70993000D03*
X121029000Y-69723000D03*
X135509000Y-69723000D03*
X135509000Y-70993000D03*
X135509000Y-72263000D03*
X135509000Y-73533000D03*
X135509000Y-74803000D03*
X135509000Y-76073000D03*
X135509000Y-77343000D03*
X135509000Y-78613000D03*
X135509000Y-79883000D03*
X135509000Y-81153000D03*
X135509000Y-82423000D03*
X135509000Y-83693000D03*
%TD*%
%TO.C,U3*%
G36*
G01*
X175711115Y-103416967D02*
X175711115Y-103566967D01*
G75*
G02*
X175636115Y-103641967I-75000J0D01*
G01*
X174186115Y-103641967D01*
G75*
G02*
X174111115Y-103566967I0J75000D01*
G01*
X174111115Y-103416967D01*
G75*
G02*
X174186115Y-103341967I75000J0D01*
G01*
X175636115Y-103341967D01*
G75*
G02*
X175711115Y-103416967I0J-75000D01*
G01*
G37*
G36*
G01*
X175711115Y-102916967D02*
X175711115Y-103066967D01*
G75*
G02*
X175636115Y-103141967I-75000J0D01*
G01*
X174186115Y-103141967D01*
G75*
G02*
X174111115Y-103066967I0J75000D01*
G01*
X174111115Y-102916967D01*
G75*
G02*
X174186115Y-102841967I75000J0D01*
G01*
X175636115Y-102841967D01*
G75*
G02*
X175711115Y-102916967I0J-75000D01*
G01*
G37*
G36*
G01*
X175711115Y-102416967D02*
X175711115Y-102566967D01*
G75*
G02*
X175636115Y-102641967I-75000J0D01*
G01*
X174186115Y-102641967D01*
G75*
G02*
X174111115Y-102566967I0J75000D01*
G01*
X174111115Y-102416967D01*
G75*
G02*
X174186115Y-102341967I75000J0D01*
G01*
X175636115Y-102341967D01*
G75*
G02*
X175711115Y-102416967I0J-75000D01*
G01*
G37*
G36*
G01*
X175711115Y-101916967D02*
X175711115Y-102066967D01*
G75*
G02*
X175636115Y-102141967I-75000J0D01*
G01*
X174186115Y-102141967D01*
G75*
G02*
X174111115Y-102066967I0J75000D01*
G01*
X174111115Y-101916967D01*
G75*
G02*
X174186115Y-101841967I75000J0D01*
G01*
X175636115Y-101841967D01*
G75*
G02*
X175711115Y-101916967I0J-75000D01*
G01*
G37*
G36*
G01*
X175711115Y-101416967D02*
X175711115Y-101566967D01*
G75*
G02*
X175636115Y-101641967I-75000J0D01*
G01*
X174186115Y-101641967D01*
G75*
G02*
X174111115Y-101566967I0J75000D01*
G01*
X174111115Y-101416967D01*
G75*
G02*
X174186115Y-101341967I75000J0D01*
G01*
X175636115Y-101341967D01*
G75*
G02*
X175711115Y-101416967I0J-75000D01*
G01*
G37*
G36*
G01*
X175711115Y-100916967D02*
X175711115Y-101066967D01*
G75*
G02*
X175636115Y-101141967I-75000J0D01*
G01*
X174186115Y-101141967D01*
G75*
G02*
X174111115Y-101066967I0J75000D01*
G01*
X174111115Y-100916967D01*
G75*
G02*
X174186115Y-100841967I75000J0D01*
G01*
X175636115Y-100841967D01*
G75*
G02*
X175711115Y-100916967I0J-75000D01*
G01*
G37*
G36*
G01*
X175711115Y-100416967D02*
X175711115Y-100566967D01*
G75*
G02*
X175636115Y-100641967I-75000J0D01*
G01*
X174186115Y-100641967D01*
G75*
G02*
X174111115Y-100566967I0J75000D01*
G01*
X174111115Y-100416967D01*
G75*
G02*
X174186115Y-100341967I75000J0D01*
G01*
X175636115Y-100341967D01*
G75*
G02*
X175711115Y-100416967I0J-75000D01*
G01*
G37*
G36*
G01*
X175711115Y-99916967D02*
X175711115Y-100066967D01*
G75*
G02*
X175636115Y-100141967I-75000J0D01*
G01*
X174186115Y-100141967D01*
G75*
G02*
X174111115Y-100066967I0J75000D01*
G01*
X174111115Y-99916967D01*
G75*
G02*
X174186115Y-99841967I75000J0D01*
G01*
X175636115Y-99841967D01*
G75*
G02*
X175711115Y-99916967I0J-75000D01*
G01*
G37*
G36*
G01*
X175711115Y-99416967D02*
X175711115Y-99566967D01*
G75*
G02*
X175636115Y-99641967I-75000J0D01*
G01*
X174186115Y-99641967D01*
G75*
G02*
X174111115Y-99566967I0J75000D01*
G01*
X174111115Y-99416967D01*
G75*
G02*
X174186115Y-99341967I75000J0D01*
G01*
X175636115Y-99341967D01*
G75*
G02*
X175711115Y-99416967I0J-75000D01*
G01*
G37*
G36*
G01*
X175711115Y-98916967D02*
X175711115Y-99066967D01*
G75*
G02*
X175636115Y-99141967I-75000J0D01*
G01*
X174186115Y-99141967D01*
G75*
G02*
X174111115Y-99066967I0J75000D01*
G01*
X174111115Y-98916967D01*
G75*
G02*
X174186115Y-98841967I75000J0D01*
G01*
X175636115Y-98841967D01*
G75*
G02*
X175711115Y-98916967I0J-75000D01*
G01*
G37*
G36*
G01*
X175711115Y-98416967D02*
X175711115Y-98566967D01*
G75*
G02*
X175636115Y-98641967I-75000J0D01*
G01*
X174186115Y-98641967D01*
G75*
G02*
X174111115Y-98566967I0J75000D01*
G01*
X174111115Y-98416967D01*
G75*
G02*
X174186115Y-98341967I75000J0D01*
G01*
X175636115Y-98341967D01*
G75*
G02*
X175711115Y-98416967I0J-75000D01*
G01*
G37*
G36*
G01*
X175711115Y-97916967D02*
X175711115Y-98066967D01*
G75*
G02*
X175636115Y-98141967I-75000J0D01*
G01*
X174186115Y-98141967D01*
G75*
G02*
X174111115Y-98066967I0J75000D01*
G01*
X174111115Y-97916967D01*
G75*
G02*
X174186115Y-97841967I75000J0D01*
G01*
X175636115Y-97841967D01*
G75*
G02*
X175711115Y-97916967I0J-75000D01*
G01*
G37*
G36*
G01*
X175711115Y-97416967D02*
X175711115Y-97566967D01*
G75*
G02*
X175636115Y-97641967I-75000J0D01*
G01*
X174186115Y-97641967D01*
G75*
G02*
X174111115Y-97566967I0J75000D01*
G01*
X174111115Y-97416967D01*
G75*
G02*
X174186115Y-97341967I75000J0D01*
G01*
X175636115Y-97341967D01*
G75*
G02*
X175711115Y-97416967I0J-75000D01*
G01*
G37*
G36*
G01*
X175711115Y-96916967D02*
X175711115Y-97066967D01*
G75*
G02*
X175636115Y-97141967I-75000J0D01*
G01*
X174186115Y-97141967D01*
G75*
G02*
X174111115Y-97066967I0J75000D01*
G01*
X174111115Y-96916967D01*
G75*
G02*
X174186115Y-96841967I75000J0D01*
G01*
X175636115Y-96841967D01*
G75*
G02*
X175711115Y-96916967I0J-75000D01*
G01*
G37*
G36*
G01*
X175711115Y-96416967D02*
X175711115Y-96566967D01*
G75*
G02*
X175636115Y-96641967I-75000J0D01*
G01*
X174186115Y-96641967D01*
G75*
G02*
X174111115Y-96566967I0J75000D01*
G01*
X174111115Y-96416967D01*
G75*
G02*
X174186115Y-96341967I75000J0D01*
G01*
X175636115Y-96341967D01*
G75*
G02*
X175711115Y-96416967I0J-75000D01*
G01*
G37*
G36*
G01*
X175711115Y-95916967D02*
X175711115Y-96066967D01*
G75*
G02*
X175636115Y-96141967I-75000J0D01*
G01*
X174186115Y-96141967D01*
G75*
G02*
X174111115Y-96066967I0J75000D01*
G01*
X174111115Y-95916967D01*
G75*
G02*
X174186115Y-95841967I75000J0D01*
G01*
X175636115Y-95841967D01*
G75*
G02*
X175711115Y-95916967I0J-75000D01*
G01*
G37*
G36*
G01*
X175711115Y-95416967D02*
X175711115Y-95566967D01*
G75*
G02*
X175636115Y-95641967I-75000J0D01*
G01*
X174186115Y-95641967D01*
G75*
G02*
X174111115Y-95566967I0J75000D01*
G01*
X174111115Y-95416967D01*
G75*
G02*
X174186115Y-95341967I75000J0D01*
G01*
X175636115Y-95341967D01*
G75*
G02*
X175711115Y-95416967I0J-75000D01*
G01*
G37*
G36*
G01*
X175711115Y-94916967D02*
X175711115Y-95066967D01*
G75*
G02*
X175636115Y-95141967I-75000J0D01*
G01*
X174186115Y-95141967D01*
G75*
G02*
X174111115Y-95066967I0J75000D01*
G01*
X174111115Y-94916967D01*
G75*
G02*
X174186115Y-94841967I75000J0D01*
G01*
X175636115Y-94841967D01*
G75*
G02*
X175711115Y-94916967I0J-75000D01*
G01*
G37*
G36*
G01*
X175711115Y-94416967D02*
X175711115Y-94566967D01*
G75*
G02*
X175636115Y-94641967I-75000J0D01*
G01*
X174186115Y-94641967D01*
G75*
G02*
X174111115Y-94566967I0J75000D01*
G01*
X174111115Y-94416967D01*
G75*
G02*
X174186115Y-94341967I75000J0D01*
G01*
X175636115Y-94341967D01*
G75*
G02*
X175711115Y-94416967I0J-75000D01*
G01*
G37*
G36*
G01*
X175711115Y-93916967D02*
X175711115Y-94066967D01*
G75*
G02*
X175636115Y-94141967I-75000J0D01*
G01*
X174186115Y-94141967D01*
G75*
G02*
X174111115Y-94066967I0J75000D01*
G01*
X174111115Y-93916967D01*
G75*
G02*
X174186115Y-93841967I75000J0D01*
G01*
X175636115Y-93841967D01*
G75*
G02*
X175711115Y-93916967I0J-75000D01*
G01*
G37*
G36*
G01*
X175711115Y-93416967D02*
X175711115Y-93566967D01*
G75*
G02*
X175636115Y-93641967I-75000J0D01*
G01*
X174186115Y-93641967D01*
G75*
G02*
X174111115Y-93566967I0J75000D01*
G01*
X174111115Y-93416967D01*
G75*
G02*
X174186115Y-93341967I75000J0D01*
G01*
X175636115Y-93341967D01*
G75*
G02*
X175711115Y-93416967I0J-75000D01*
G01*
G37*
G36*
G01*
X175711115Y-92916967D02*
X175711115Y-93066967D01*
G75*
G02*
X175636115Y-93141967I-75000J0D01*
G01*
X174186115Y-93141967D01*
G75*
G02*
X174111115Y-93066967I0J75000D01*
G01*
X174111115Y-92916967D01*
G75*
G02*
X174186115Y-92841967I75000J0D01*
G01*
X175636115Y-92841967D01*
G75*
G02*
X175711115Y-92916967I0J-75000D01*
G01*
G37*
G36*
G01*
X175711115Y-92416967D02*
X175711115Y-92566967D01*
G75*
G02*
X175636115Y-92641967I-75000J0D01*
G01*
X174186115Y-92641967D01*
G75*
G02*
X174111115Y-92566967I0J75000D01*
G01*
X174111115Y-92416967D01*
G75*
G02*
X174186115Y-92341967I75000J0D01*
G01*
X175636115Y-92341967D01*
G75*
G02*
X175711115Y-92416967I0J-75000D01*
G01*
G37*
G36*
G01*
X175711115Y-91916967D02*
X175711115Y-92066967D01*
G75*
G02*
X175636115Y-92141967I-75000J0D01*
G01*
X174186115Y-92141967D01*
G75*
G02*
X174111115Y-92066967I0J75000D01*
G01*
X174111115Y-91916967D01*
G75*
G02*
X174186115Y-91841967I75000J0D01*
G01*
X175636115Y-91841967D01*
G75*
G02*
X175711115Y-91916967I0J-75000D01*
G01*
G37*
G36*
G01*
X175711115Y-91416967D02*
X175711115Y-91566967D01*
G75*
G02*
X175636115Y-91641967I-75000J0D01*
G01*
X174186115Y-91641967D01*
G75*
G02*
X174111115Y-91566967I0J75000D01*
G01*
X174111115Y-91416967D01*
G75*
G02*
X174186115Y-91341967I75000J0D01*
G01*
X175636115Y-91341967D01*
G75*
G02*
X175711115Y-91416967I0J-75000D01*
G01*
G37*
G36*
G01*
X173386115Y-89091967D02*
X173386115Y-90541967D01*
G75*
G02*
X173311115Y-90616967I-75000J0D01*
G01*
X173161115Y-90616967D01*
G75*
G02*
X173086115Y-90541967I0J75000D01*
G01*
X173086115Y-89091967D01*
G75*
G02*
X173161115Y-89016967I75000J0D01*
G01*
X173311115Y-89016967D01*
G75*
G02*
X173386115Y-89091967I0J-75000D01*
G01*
G37*
G36*
G01*
X172886115Y-89091967D02*
X172886115Y-90541967D01*
G75*
G02*
X172811115Y-90616967I-75000J0D01*
G01*
X172661115Y-90616967D01*
G75*
G02*
X172586115Y-90541967I0J75000D01*
G01*
X172586115Y-89091967D01*
G75*
G02*
X172661115Y-89016967I75000J0D01*
G01*
X172811115Y-89016967D01*
G75*
G02*
X172886115Y-89091967I0J-75000D01*
G01*
G37*
G36*
G01*
X172386115Y-89091967D02*
X172386115Y-90541967D01*
G75*
G02*
X172311115Y-90616967I-75000J0D01*
G01*
X172161115Y-90616967D01*
G75*
G02*
X172086115Y-90541967I0J75000D01*
G01*
X172086115Y-89091967D01*
G75*
G02*
X172161115Y-89016967I75000J0D01*
G01*
X172311115Y-89016967D01*
G75*
G02*
X172386115Y-89091967I0J-75000D01*
G01*
G37*
G36*
G01*
X171886115Y-89091967D02*
X171886115Y-90541967D01*
G75*
G02*
X171811115Y-90616967I-75000J0D01*
G01*
X171661115Y-90616967D01*
G75*
G02*
X171586115Y-90541967I0J75000D01*
G01*
X171586115Y-89091967D01*
G75*
G02*
X171661115Y-89016967I75000J0D01*
G01*
X171811115Y-89016967D01*
G75*
G02*
X171886115Y-89091967I0J-75000D01*
G01*
G37*
G36*
G01*
X171386115Y-89091967D02*
X171386115Y-90541967D01*
G75*
G02*
X171311115Y-90616967I-75000J0D01*
G01*
X171161115Y-90616967D01*
G75*
G02*
X171086115Y-90541967I0J75000D01*
G01*
X171086115Y-89091967D01*
G75*
G02*
X171161115Y-89016967I75000J0D01*
G01*
X171311115Y-89016967D01*
G75*
G02*
X171386115Y-89091967I0J-75000D01*
G01*
G37*
G36*
G01*
X170886115Y-89091967D02*
X170886115Y-90541967D01*
G75*
G02*
X170811115Y-90616967I-75000J0D01*
G01*
X170661115Y-90616967D01*
G75*
G02*
X170586115Y-90541967I0J75000D01*
G01*
X170586115Y-89091967D01*
G75*
G02*
X170661115Y-89016967I75000J0D01*
G01*
X170811115Y-89016967D01*
G75*
G02*
X170886115Y-89091967I0J-75000D01*
G01*
G37*
G36*
G01*
X170386115Y-89091967D02*
X170386115Y-90541967D01*
G75*
G02*
X170311115Y-90616967I-75000J0D01*
G01*
X170161115Y-90616967D01*
G75*
G02*
X170086115Y-90541967I0J75000D01*
G01*
X170086115Y-89091967D01*
G75*
G02*
X170161115Y-89016967I75000J0D01*
G01*
X170311115Y-89016967D01*
G75*
G02*
X170386115Y-89091967I0J-75000D01*
G01*
G37*
G36*
G01*
X169886115Y-89091967D02*
X169886115Y-90541967D01*
G75*
G02*
X169811115Y-90616967I-75000J0D01*
G01*
X169661115Y-90616967D01*
G75*
G02*
X169586115Y-90541967I0J75000D01*
G01*
X169586115Y-89091967D01*
G75*
G02*
X169661115Y-89016967I75000J0D01*
G01*
X169811115Y-89016967D01*
G75*
G02*
X169886115Y-89091967I0J-75000D01*
G01*
G37*
G36*
G01*
X169386115Y-89091967D02*
X169386115Y-90541967D01*
G75*
G02*
X169311115Y-90616967I-75000J0D01*
G01*
X169161115Y-90616967D01*
G75*
G02*
X169086115Y-90541967I0J75000D01*
G01*
X169086115Y-89091967D01*
G75*
G02*
X169161115Y-89016967I75000J0D01*
G01*
X169311115Y-89016967D01*
G75*
G02*
X169386115Y-89091967I0J-75000D01*
G01*
G37*
G36*
G01*
X168886115Y-89091967D02*
X168886115Y-90541967D01*
G75*
G02*
X168811115Y-90616967I-75000J0D01*
G01*
X168661115Y-90616967D01*
G75*
G02*
X168586115Y-90541967I0J75000D01*
G01*
X168586115Y-89091967D01*
G75*
G02*
X168661115Y-89016967I75000J0D01*
G01*
X168811115Y-89016967D01*
G75*
G02*
X168886115Y-89091967I0J-75000D01*
G01*
G37*
G36*
G01*
X168386115Y-89091967D02*
X168386115Y-90541967D01*
G75*
G02*
X168311115Y-90616967I-75000J0D01*
G01*
X168161115Y-90616967D01*
G75*
G02*
X168086115Y-90541967I0J75000D01*
G01*
X168086115Y-89091967D01*
G75*
G02*
X168161115Y-89016967I75000J0D01*
G01*
X168311115Y-89016967D01*
G75*
G02*
X168386115Y-89091967I0J-75000D01*
G01*
G37*
G36*
G01*
X167886115Y-89091967D02*
X167886115Y-90541967D01*
G75*
G02*
X167811115Y-90616967I-75000J0D01*
G01*
X167661115Y-90616967D01*
G75*
G02*
X167586115Y-90541967I0J75000D01*
G01*
X167586115Y-89091967D01*
G75*
G02*
X167661115Y-89016967I75000J0D01*
G01*
X167811115Y-89016967D01*
G75*
G02*
X167886115Y-89091967I0J-75000D01*
G01*
G37*
G36*
G01*
X167386115Y-89091967D02*
X167386115Y-90541967D01*
G75*
G02*
X167311115Y-90616967I-75000J0D01*
G01*
X167161115Y-90616967D01*
G75*
G02*
X167086115Y-90541967I0J75000D01*
G01*
X167086115Y-89091967D01*
G75*
G02*
X167161115Y-89016967I75000J0D01*
G01*
X167311115Y-89016967D01*
G75*
G02*
X167386115Y-89091967I0J-75000D01*
G01*
G37*
G36*
G01*
X166886115Y-89091967D02*
X166886115Y-90541967D01*
G75*
G02*
X166811115Y-90616967I-75000J0D01*
G01*
X166661115Y-90616967D01*
G75*
G02*
X166586115Y-90541967I0J75000D01*
G01*
X166586115Y-89091967D01*
G75*
G02*
X166661115Y-89016967I75000J0D01*
G01*
X166811115Y-89016967D01*
G75*
G02*
X166886115Y-89091967I0J-75000D01*
G01*
G37*
G36*
G01*
X166386115Y-89091967D02*
X166386115Y-90541967D01*
G75*
G02*
X166311115Y-90616967I-75000J0D01*
G01*
X166161115Y-90616967D01*
G75*
G02*
X166086115Y-90541967I0J75000D01*
G01*
X166086115Y-89091967D01*
G75*
G02*
X166161115Y-89016967I75000J0D01*
G01*
X166311115Y-89016967D01*
G75*
G02*
X166386115Y-89091967I0J-75000D01*
G01*
G37*
G36*
G01*
X165886115Y-89091967D02*
X165886115Y-90541967D01*
G75*
G02*
X165811115Y-90616967I-75000J0D01*
G01*
X165661115Y-90616967D01*
G75*
G02*
X165586115Y-90541967I0J75000D01*
G01*
X165586115Y-89091967D01*
G75*
G02*
X165661115Y-89016967I75000J0D01*
G01*
X165811115Y-89016967D01*
G75*
G02*
X165886115Y-89091967I0J-75000D01*
G01*
G37*
G36*
G01*
X165386115Y-89091967D02*
X165386115Y-90541967D01*
G75*
G02*
X165311115Y-90616967I-75000J0D01*
G01*
X165161115Y-90616967D01*
G75*
G02*
X165086115Y-90541967I0J75000D01*
G01*
X165086115Y-89091967D01*
G75*
G02*
X165161115Y-89016967I75000J0D01*
G01*
X165311115Y-89016967D01*
G75*
G02*
X165386115Y-89091967I0J-75000D01*
G01*
G37*
G36*
G01*
X164886115Y-89091967D02*
X164886115Y-90541967D01*
G75*
G02*
X164811115Y-90616967I-75000J0D01*
G01*
X164661115Y-90616967D01*
G75*
G02*
X164586115Y-90541967I0J75000D01*
G01*
X164586115Y-89091967D01*
G75*
G02*
X164661115Y-89016967I75000J0D01*
G01*
X164811115Y-89016967D01*
G75*
G02*
X164886115Y-89091967I0J-75000D01*
G01*
G37*
G36*
G01*
X164386115Y-89091967D02*
X164386115Y-90541967D01*
G75*
G02*
X164311115Y-90616967I-75000J0D01*
G01*
X164161115Y-90616967D01*
G75*
G02*
X164086115Y-90541967I0J75000D01*
G01*
X164086115Y-89091967D01*
G75*
G02*
X164161115Y-89016967I75000J0D01*
G01*
X164311115Y-89016967D01*
G75*
G02*
X164386115Y-89091967I0J-75000D01*
G01*
G37*
G36*
G01*
X163886115Y-89091967D02*
X163886115Y-90541967D01*
G75*
G02*
X163811115Y-90616967I-75000J0D01*
G01*
X163661115Y-90616967D01*
G75*
G02*
X163586115Y-90541967I0J75000D01*
G01*
X163586115Y-89091967D01*
G75*
G02*
X163661115Y-89016967I75000J0D01*
G01*
X163811115Y-89016967D01*
G75*
G02*
X163886115Y-89091967I0J-75000D01*
G01*
G37*
G36*
G01*
X163386115Y-89091967D02*
X163386115Y-90541967D01*
G75*
G02*
X163311115Y-90616967I-75000J0D01*
G01*
X163161115Y-90616967D01*
G75*
G02*
X163086115Y-90541967I0J75000D01*
G01*
X163086115Y-89091967D01*
G75*
G02*
X163161115Y-89016967I75000J0D01*
G01*
X163311115Y-89016967D01*
G75*
G02*
X163386115Y-89091967I0J-75000D01*
G01*
G37*
G36*
G01*
X162886115Y-89091967D02*
X162886115Y-90541967D01*
G75*
G02*
X162811115Y-90616967I-75000J0D01*
G01*
X162661115Y-90616967D01*
G75*
G02*
X162586115Y-90541967I0J75000D01*
G01*
X162586115Y-89091967D01*
G75*
G02*
X162661115Y-89016967I75000J0D01*
G01*
X162811115Y-89016967D01*
G75*
G02*
X162886115Y-89091967I0J-75000D01*
G01*
G37*
G36*
G01*
X162386115Y-89091967D02*
X162386115Y-90541967D01*
G75*
G02*
X162311115Y-90616967I-75000J0D01*
G01*
X162161115Y-90616967D01*
G75*
G02*
X162086115Y-90541967I0J75000D01*
G01*
X162086115Y-89091967D01*
G75*
G02*
X162161115Y-89016967I75000J0D01*
G01*
X162311115Y-89016967D01*
G75*
G02*
X162386115Y-89091967I0J-75000D01*
G01*
G37*
G36*
G01*
X161886115Y-89091967D02*
X161886115Y-90541967D01*
G75*
G02*
X161811115Y-90616967I-75000J0D01*
G01*
X161661115Y-90616967D01*
G75*
G02*
X161586115Y-90541967I0J75000D01*
G01*
X161586115Y-89091967D01*
G75*
G02*
X161661115Y-89016967I75000J0D01*
G01*
X161811115Y-89016967D01*
G75*
G02*
X161886115Y-89091967I0J-75000D01*
G01*
G37*
G36*
G01*
X161386115Y-89091967D02*
X161386115Y-90541967D01*
G75*
G02*
X161311115Y-90616967I-75000J0D01*
G01*
X161161115Y-90616967D01*
G75*
G02*
X161086115Y-90541967I0J75000D01*
G01*
X161086115Y-89091967D01*
G75*
G02*
X161161115Y-89016967I75000J0D01*
G01*
X161311115Y-89016967D01*
G75*
G02*
X161386115Y-89091967I0J-75000D01*
G01*
G37*
G36*
G01*
X160361115Y-91416967D02*
X160361115Y-91566967D01*
G75*
G02*
X160286115Y-91641967I-75000J0D01*
G01*
X158836115Y-91641967D01*
G75*
G02*
X158761115Y-91566967I0J75000D01*
G01*
X158761115Y-91416967D01*
G75*
G02*
X158836115Y-91341967I75000J0D01*
G01*
X160286115Y-91341967D01*
G75*
G02*
X160361115Y-91416967I0J-75000D01*
G01*
G37*
G36*
G01*
X160361115Y-91916967D02*
X160361115Y-92066967D01*
G75*
G02*
X160286115Y-92141967I-75000J0D01*
G01*
X158836115Y-92141967D01*
G75*
G02*
X158761115Y-92066967I0J75000D01*
G01*
X158761115Y-91916967D01*
G75*
G02*
X158836115Y-91841967I75000J0D01*
G01*
X160286115Y-91841967D01*
G75*
G02*
X160361115Y-91916967I0J-75000D01*
G01*
G37*
G36*
G01*
X160361115Y-92416967D02*
X160361115Y-92566967D01*
G75*
G02*
X160286115Y-92641967I-75000J0D01*
G01*
X158836115Y-92641967D01*
G75*
G02*
X158761115Y-92566967I0J75000D01*
G01*
X158761115Y-92416967D01*
G75*
G02*
X158836115Y-92341967I75000J0D01*
G01*
X160286115Y-92341967D01*
G75*
G02*
X160361115Y-92416967I0J-75000D01*
G01*
G37*
G36*
G01*
X160361115Y-92916967D02*
X160361115Y-93066967D01*
G75*
G02*
X160286115Y-93141967I-75000J0D01*
G01*
X158836115Y-93141967D01*
G75*
G02*
X158761115Y-93066967I0J75000D01*
G01*
X158761115Y-92916967D01*
G75*
G02*
X158836115Y-92841967I75000J0D01*
G01*
X160286115Y-92841967D01*
G75*
G02*
X160361115Y-92916967I0J-75000D01*
G01*
G37*
G36*
G01*
X160361115Y-93416967D02*
X160361115Y-93566967D01*
G75*
G02*
X160286115Y-93641967I-75000J0D01*
G01*
X158836115Y-93641967D01*
G75*
G02*
X158761115Y-93566967I0J75000D01*
G01*
X158761115Y-93416967D01*
G75*
G02*
X158836115Y-93341967I75000J0D01*
G01*
X160286115Y-93341967D01*
G75*
G02*
X160361115Y-93416967I0J-75000D01*
G01*
G37*
G36*
G01*
X160361115Y-93916967D02*
X160361115Y-94066967D01*
G75*
G02*
X160286115Y-94141967I-75000J0D01*
G01*
X158836115Y-94141967D01*
G75*
G02*
X158761115Y-94066967I0J75000D01*
G01*
X158761115Y-93916967D01*
G75*
G02*
X158836115Y-93841967I75000J0D01*
G01*
X160286115Y-93841967D01*
G75*
G02*
X160361115Y-93916967I0J-75000D01*
G01*
G37*
G36*
G01*
X160361115Y-94416967D02*
X160361115Y-94566967D01*
G75*
G02*
X160286115Y-94641967I-75000J0D01*
G01*
X158836115Y-94641967D01*
G75*
G02*
X158761115Y-94566967I0J75000D01*
G01*
X158761115Y-94416967D01*
G75*
G02*
X158836115Y-94341967I75000J0D01*
G01*
X160286115Y-94341967D01*
G75*
G02*
X160361115Y-94416967I0J-75000D01*
G01*
G37*
G36*
G01*
X160361115Y-94916967D02*
X160361115Y-95066967D01*
G75*
G02*
X160286115Y-95141967I-75000J0D01*
G01*
X158836115Y-95141967D01*
G75*
G02*
X158761115Y-95066967I0J75000D01*
G01*
X158761115Y-94916967D01*
G75*
G02*
X158836115Y-94841967I75000J0D01*
G01*
X160286115Y-94841967D01*
G75*
G02*
X160361115Y-94916967I0J-75000D01*
G01*
G37*
G36*
G01*
X160361115Y-95416967D02*
X160361115Y-95566967D01*
G75*
G02*
X160286115Y-95641967I-75000J0D01*
G01*
X158836115Y-95641967D01*
G75*
G02*
X158761115Y-95566967I0J75000D01*
G01*
X158761115Y-95416967D01*
G75*
G02*
X158836115Y-95341967I75000J0D01*
G01*
X160286115Y-95341967D01*
G75*
G02*
X160361115Y-95416967I0J-75000D01*
G01*
G37*
G36*
G01*
X160361115Y-95916967D02*
X160361115Y-96066967D01*
G75*
G02*
X160286115Y-96141967I-75000J0D01*
G01*
X158836115Y-96141967D01*
G75*
G02*
X158761115Y-96066967I0J75000D01*
G01*
X158761115Y-95916967D01*
G75*
G02*
X158836115Y-95841967I75000J0D01*
G01*
X160286115Y-95841967D01*
G75*
G02*
X160361115Y-95916967I0J-75000D01*
G01*
G37*
G36*
G01*
X160361115Y-96416967D02*
X160361115Y-96566967D01*
G75*
G02*
X160286115Y-96641967I-75000J0D01*
G01*
X158836115Y-96641967D01*
G75*
G02*
X158761115Y-96566967I0J75000D01*
G01*
X158761115Y-96416967D01*
G75*
G02*
X158836115Y-96341967I75000J0D01*
G01*
X160286115Y-96341967D01*
G75*
G02*
X160361115Y-96416967I0J-75000D01*
G01*
G37*
G36*
G01*
X160361115Y-96916967D02*
X160361115Y-97066967D01*
G75*
G02*
X160286115Y-97141967I-75000J0D01*
G01*
X158836115Y-97141967D01*
G75*
G02*
X158761115Y-97066967I0J75000D01*
G01*
X158761115Y-96916967D01*
G75*
G02*
X158836115Y-96841967I75000J0D01*
G01*
X160286115Y-96841967D01*
G75*
G02*
X160361115Y-96916967I0J-75000D01*
G01*
G37*
G36*
G01*
X160361115Y-97416967D02*
X160361115Y-97566967D01*
G75*
G02*
X160286115Y-97641967I-75000J0D01*
G01*
X158836115Y-97641967D01*
G75*
G02*
X158761115Y-97566967I0J75000D01*
G01*
X158761115Y-97416967D01*
G75*
G02*
X158836115Y-97341967I75000J0D01*
G01*
X160286115Y-97341967D01*
G75*
G02*
X160361115Y-97416967I0J-75000D01*
G01*
G37*
G36*
G01*
X160361115Y-97916967D02*
X160361115Y-98066967D01*
G75*
G02*
X160286115Y-98141967I-75000J0D01*
G01*
X158836115Y-98141967D01*
G75*
G02*
X158761115Y-98066967I0J75000D01*
G01*
X158761115Y-97916967D01*
G75*
G02*
X158836115Y-97841967I75000J0D01*
G01*
X160286115Y-97841967D01*
G75*
G02*
X160361115Y-97916967I0J-75000D01*
G01*
G37*
G36*
G01*
X160361115Y-98416967D02*
X160361115Y-98566967D01*
G75*
G02*
X160286115Y-98641967I-75000J0D01*
G01*
X158836115Y-98641967D01*
G75*
G02*
X158761115Y-98566967I0J75000D01*
G01*
X158761115Y-98416967D01*
G75*
G02*
X158836115Y-98341967I75000J0D01*
G01*
X160286115Y-98341967D01*
G75*
G02*
X160361115Y-98416967I0J-75000D01*
G01*
G37*
G36*
G01*
X160361115Y-98916967D02*
X160361115Y-99066967D01*
G75*
G02*
X160286115Y-99141967I-75000J0D01*
G01*
X158836115Y-99141967D01*
G75*
G02*
X158761115Y-99066967I0J75000D01*
G01*
X158761115Y-98916967D01*
G75*
G02*
X158836115Y-98841967I75000J0D01*
G01*
X160286115Y-98841967D01*
G75*
G02*
X160361115Y-98916967I0J-75000D01*
G01*
G37*
G36*
G01*
X160361115Y-99416967D02*
X160361115Y-99566967D01*
G75*
G02*
X160286115Y-99641967I-75000J0D01*
G01*
X158836115Y-99641967D01*
G75*
G02*
X158761115Y-99566967I0J75000D01*
G01*
X158761115Y-99416967D01*
G75*
G02*
X158836115Y-99341967I75000J0D01*
G01*
X160286115Y-99341967D01*
G75*
G02*
X160361115Y-99416967I0J-75000D01*
G01*
G37*
G36*
G01*
X160361115Y-99916967D02*
X160361115Y-100066967D01*
G75*
G02*
X160286115Y-100141967I-75000J0D01*
G01*
X158836115Y-100141967D01*
G75*
G02*
X158761115Y-100066967I0J75000D01*
G01*
X158761115Y-99916967D01*
G75*
G02*
X158836115Y-99841967I75000J0D01*
G01*
X160286115Y-99841967D01*
G75*
G02*
X160361115Y-99916967I0J-75000D01*
G01*
G37*
G36*
G01*
X160361115Y-100416967D02*
X160361115Y-100566967D01*
G75*
G02*
X160286115Y-100641967I-75000J0D01*
G01*
X158836115Y-100641967D01*
G75*
G02*
X158761115Y-100566967I0J75000D01*
G01*
X158761115Y-100416967D01*
G75*
G02*
X158836115Y-100341967I75000J0D01*
G01*
X160286115Y-100341967D01*
G75*
G02*
X160361115Y-100416967I0J-75000D01*
G01*
G37*
G36*
G01*
X160361115Y-100916967D02*
X160361115Y-101066967D01*
G75*
G02*
X160286115Y-101141967I-75000J0D01*
G01*
X158836115Y-101141967D01*
G75*
G02*
X158761115Y-101066967I0J75000D01*
G01*
X158761115Y-100916967D01*
G75*
G02*
X158836115Y-100841967I75000J0D01*
G01*
X160286115Y-100841967D01*
G75*
G02*
X160361115Y-100916967I0J-75000D01*
G01*
G37*
G36*
G01*
X160361115Y-101416967D02*
X160361115Y-101566967D01*
G75*
G02*
X160286115Y-101641967I-75000J0D01*
G01*
X158836115Y-101641967D01*
G75*
G02*
X158761115Y-101566967I0J75000D01*
G01*
X158761115Y-101416967D01*
G75*
G02*
X158836115Y-101341967I75000J0D01*
G01*
X160286115Y-101341967D01*
G75*
G02*
X160361115Y-101416967I0J-75000D01*
G01*
G37*
G36*
G01*
X160361115Y-101916967D02*
X160361115Y-102066967D01*
G75*
G02*
X160286115Y-102141967I-75000J0D01*
G01*
X158836115Y-102141967D01*
G75*
G02*
X158761115Y-102066967I0J75000D01*
G01*
X158761115Y-101916967D01*
G75*
G02*
X158836115Y-101841967I75000J0D01*
G01*
X160286115Y-101841967D01*
G75*
G02*
X160361115Y-101916967I0J-75000D01*
G01*
G37*
G36*
G01*
X160361115Y-102416967D02*
X160361115Y-102566967D01*
G75*
G02*
X160286115Y-102641967I-75000J0D01*
G01*
X158836115Y-102641967D01*
G75*
G02*
X158761115Y-102566967I0J75000D01*
G01*
X158761115Y-102416967D01*
G75*
G02*
X158836115Y-102341967I75000J0D01*
G01*
X160286115Y-102341967D01*
G75*
G02*
X160361115Y-102416967I0J-75000D01*
G01*
G37*
G36*
G01*
X160361115Y-102916967D02*
X160361115Y-103066967D01*
G75*
G02*
X160286115Y-103141967I-75000J0D01*
G01*
X158836115Y-103141967D01*
G75*
G02*
X158761115Y-103066967I0J75000D01*
G01*
X158761115Y-102916967D01*
G75*
G02*
X158836115Y-102841967I75000J0D01*
G01*
X160286115Y-102841967D01*
G75*
G02*
X160361115Y-102916967I0J-75000D01*
G01*
G37*
G36*
G01*
X160361115Y-103416967D02*
X160361115Y-103566967D01*
G75*
G02*
X160286115Y-103641967I-75000J0D01*
G01*
X158836115Y-103641967D01*
G75*
G02*
X158761115Y-103566967I0J75000D01*
G01*
X158761115Y-103416967D01*
G75*
G02*
X158836115Y-103341967I75000J0D01*
G01*
X160286115Y-103341967D01*
G75*
G02*
X160361115Y-103416967I0J-75000D01*
G01*
G37*
G36*
G01*
X161386115Y-104441967D02*
X161386115Y-105891967D01*
G75*
G02*
X161311115Y-105966967I-75000J0D01*
G01*
X161161115Y-105966967D01*
G75*
G02*
X161086115Y-105891967I0J75000D01*
G01*
X161086115Y-104441967D01*
G75*
G02*
X161161115Y-104366967I75000J0D01*
G01*
X161311115Y-104366967D01*
G75*
G02*
X161386115Y-104441967I0J-75000D01*
G01*
G37*
G36*
G01*
X161886115Y-104441967D02*
X161886115Y-105891967D01*
G75*
G02*
X161811115Y-105966967I-75000J0D01*
G01*
X161661115Y-105966967D01*
G75*
G02*
X161586115Y-105891967I0J75000D01*
G01*
X161586115Y-104441967D01*
G75*
G02*
X161661115Y-104366967I75000J0D01*
G01*
X161811115Y-104366967D01*
G75*
G02*
X161886115Y-104441967I0J-75000D01*
G01*
G37*
G36*
G01*
X162386115Y-104441967D02*
X162386115Y-105891967D01*
G75*
G02*
X162311115Y-105966967I-75000J0D01*
G01*
X162161115Y-105966967D01*
G75*
G02*
X162086115Y-105891967I0J75000D01*
G01*
X162086115Y-104441967D01*
G75*
G02*
X162161115Y-104366967I75000J0D01*
G01*
X162311115Y-104366967D01*
G75*
G02*
X162386115Y-104441967I0J-75000D01*
G01*
G37*
G36*
G01*
X162886115Y-104441967D02*
X162886115Y-105891967D01*
G75*
G02*
X162811115Y-105966967I-75000J0D01*
G01*
X162661115Y-105966967D01*
G75*
G02*
X162586115Y-105891967I0J75000D01*
G01*
X162586115Y-104441967D01*
G75*
G02*
X162661115Y-104366967I75000J0D01*
G01*
X162811115Y-104366967D01*
G75*
G02*
X162886115Y-104441967I0J-75000D01*
G01*
G37*
G36*
G01*
X163386115Y-104441967D02*
X163386115Y-105891967D01*
G75*
G02*
X163311115Y-105966967I-75000J0D01*
G01*
X163161115Y-105966967D01*
G75*
G02*
X163086115Y-105891967I0J75000D01*
G01*
X163086115Y-104441967D01*
G75*
G02*
X163161115Y-104366967I75000J0D01*
G01*
X163311115Y-104366967D01*
G75*
G02*
X163386115Y-104441967I0J-75000D01*
G01*
G37*
G36*
G01*
X163886115Y-104441967D02*
X163886115Y-105891967D01*
G75*
G02*
X163811115Y-105966967I-75000J0D01*
G01*
X163661115Y-105966967D01*
G75*
G02*
X163586115Y-105891967I0J75000D01*
G01*
X163586115Y-104441967D01*
G75*
G02*
X163661115Y-104366967I75000J0D01*
G01*
X163811115Y-104366967D01*
G75*
G02*
X163886115Y-104441967I0J-75000D01*
G01*
G37*
G36*
G01*
X164386115Y-104441967D02*
X164386115Y-105891967D01*
G75*
G02*
X164311115Y-105966967I-75000J0D01*
G01*
X164161115Y-105966967D01*
G75*
G02*
X164086115Y-105891967I0J75000D01*
G01*
X164086115Y-104441967D01*
G75*
G02*
X164161115Y-104366967I75000J0D01*
G01*
X164311115Y-104366967D01*
G75*
G02*
X164386115Y-104441967I0J-75000D01*
G01*
G37*
G36*
G01*
X164886115Y-104441967D02*
X164886115Y-105891967D01*
G75*
G02*
X164811115Y-105966967I-75000J0D01*
G01*
X164661115Y-105966967D01*
G75*
G02*
X164586115Y-105891967I0J75000D01*
G01*
X164586115Y-104441967D01*
G75*
G02*
X164661115Y-104366967I75000J0D01*
G01*
X164811115Y-104366967D01*
G75*
G02*
X164886115Y-104441967I0J-75000D01*
G01*
G37*
G36*
G01*
X165386115Y-104441967D02*
X165386115Y-105891967D01*
G75*
G02*
X165311115Y-105966967I-75000J0D01*
G01*
X165161115Y-105966967D01*
G75*
G02*
X165086115Y-105891967I0J75000D01*
G01*
X165086115Y-104441967D01*
G75*
G02*
X165161115Y-104366967I75000J0D01*
G01*
X165311115Y-104366967D01*
G75*
G02*
X165386115Y-104441967I0J-75000D01*
G01*
G37*
G36*
G01*
X165886115Y-104441967D02*
X165886115Y-105891967D01*
G75*
G02*
X165811115Y-105966967I-75000J0D01*
G01*
X165661115Y-105966967D01*
G75*
G02*
X165586115Y-105891967I0J75000D01*
G01*
X165586115Y-104441967D01*
G75*
G02*
X165661115Y-104366967I75000J0D01*
G01*
X165811115Y-104366967D01*
G75*
G02*
X165886115Y-104441967I0J-75000D01*
G01*
G37*
G36*
G01*
X166386115Y-104441967D02*
X166386115Y-105891967D01*
G75*
G02*
X166311115Y-105966967I-75000J0D01*
G01*
X166161115Y-105966967D01*
G75*
G02*
X166086115Y-105891967I0J75000D01*
G01*
X166086115Y-104441967D01*
G75*
G02*
X166161115Y-104366967I75000J0D01*
G01*
X166311115Y-104366967D01*
G75*
G02*
X166386115Y-104441967I0J-75000D01*
G01*
G37*
G36*
G01*
X166886115Y-104441967D02*
X166886115Y-105891967D01*
G75*
G02*
X166811115Y-105966967I-75000J0D01*
G01*
X166661115Y-105966967D01*
G75*
G02*
X166586115Y-105891967I0J75000D01*
G01*
X166586115Y-104441967D01*
G75*
G02*
X166661115Y-104366967I75000J0D01*
G01*
X166811115Y-104366967D01*
G75*
G02*
X166886115Y-104441967I0J-75000D01*
G01*
G37*
G36*
G01*
X167386115Y-104441967D02*
X167386115Y-105891967D01*
G75*
G02*
X167311115Y-105966967I-75000J0D01*
G01*
X167161115Y-105966967D01*
G75*
G02*
X167086115Y-105891967I0J75000D01*
G01*
X167086115Y-104441967D01*
G75*
G02*
X167161115Y-104366967I75000J0D01*
G01*
X167311115Y-104366967D01*
G75*
G02*
X167386115Y-104441967I0J-75000D01*
G01*
G37*
G36*
G01*
X167886115Y-104441967D02*
X167886115Y-105891967D01*
G75*
G02*
X167811115Y-105966967I-75000J0D01*
G01*
X167661115Y-105966967D01*
G75*
G02*
X167586115Y-105891967I0J75000D01*
G01*
X167586115Y-104441967D01*
G75*
G02*
X167661115Y-104366967I75000J0D01*
G01*
X167811115Y-104366967D01*
G75*
G02*
X167886115Y-104441967I0J-75000D01*
G01*
G37*
G36*
G01*
X168386115Y-104441967D02*
X168386115Y-105891967D01*
G75*
G02*
X168311115Y-105966967I-75000J0D01*
G01*
X168161115Y-105966967D01*
G75*
G02*
X168086115Y-105891967I0J75000D01*
G01*
X168086115Y-104441967D01*
G75*
G02*
X168161115Y-104366967I75000J0D01*
G01*
X168311115Y-104366967D01*
G75*
G02*
X168386115Y-104441967I0J-75000D01*
G01*
G37*
G36*
G01*
X168886115Y-104441967D02*
X168886115Y-105891967D01*
G75*
G02*
X168811115Y-105966967I-75000J0D01*
G01*
X168661115Y-105966967D01*
G75*
G02*
X168586115Y-105891967I0J75000D01*
G01*
X168586115Y-104441967D01*
G75*
G02*
X168661115Y-104366967I75000J0D01*
G01*
X168811115Y-104366967D01*
G75*
G02*
X168886115Y-104441967I0J-75000D01*
G01*
G37*
G36*
G01*
X169386115Y-104441967D02*
X169386115Y-105891967D01*
G75*
G02*
X169311115Y-105966967I-75000J0D01*
G01*
X169161115Y-105966967D01*
G75*
G02*
X169086115Y-105891967I0J75000D01*
G01*
X169086115Y-104441967D01*
G75*
G02*
X169161115Y-104366967I75000J0D01*
G01*
X169311115Y-104366967D01*
G75*
G02*
X169386115Y-104441967I0J-75000D01*
G01*
G37*
G36*
G01*
X169886115Y-104441967D02*
X169886115Y-105891967D01*
G75*
G02*
X169811115Y-105966967I-75000J0D01*
G01*
X169661115Y-105966967D01*
G75*
G02*
X169586115Y-105891967I0J75000D01*
G01*
X169586115Y-104441967D01*
G75*
G02*
X169661115Y-104366967I75000J0D01*
G01*
X169811115Y-104366967D01*
G75*
G02*
X169886115Y-104441967I0J-75000D01*
G01*
G37*
G36*
G01*
X170386115Y-104441967D02*
X170386115Y-105891967D01*
G75*
G02*
X170311115Y-105966967I-75000J0D01*
G01*
X170161115Y-105966967D01*
G75*
G02*
X170086115Y-105891967I0J75000D01*
G01*
X170086115Y-104441967D01*
G75*
G02*
X170161115Y-104366967I75000J0D01*
G01*
X170311115Y-104366967D01*
G75*
G02*
X170386115Y-104441967I0J-75000D01*
G01*
G37*
G36*
G01*
X170886115Y-104441967D02*
X170886115Y-105891967D01*
G75*
G02*
X170811115Y-105966967I-75000J0D01*
G01*
X170661115Y-105966967D01*
G75*
G02*
X170586115Y-105891967I0J75000D01*
G01*
X170586115Y-104441967D01*
G75*
G02*
X170661115Y-104366967I75000J0D01*
G01*
X170811115Y-104366967D01*
G75*
G02*
X170886115Y-104441967I0J-75000D01*
G01*
G37*
G36*
G01*
X171386115Y-104441967D02*
X171386115Y-105891967D01*
G75*
G02*
X171311115Y-105966967I-75000J0D01*
G01*
X171161115Y-105966967D01*
G75*
G02*
X171086115Y-105891967I0J75000D01*
G01*
X171086115Y-104441967D01*
G75*
G02*
X171161115Y-104366967I75000J0D01*
G01*
X171311115Y-104366967D01*
G75*
G02*
X171386115Y-104441967I0J-75000D01*
G01*
G37*
G36*
G01*
X171886115Y-104441967D02*
X171886115Y-105891967D01*
G75*
G02*
X171811115Y-105966967I-75000J0D01*
G01*
X171661115Y-105966967D01*
G75*
G02*
X171586115Y-105891967I0J75000D01*
G01*
X171586115Y-104441967D01*
G75*
G02*
X171661115Y-104366967I75000J0D01*
G01*
X171811115Y-104366967D01*
G75*
G02*
X171886115Y-104441967I0J-75000D01*
G01*
G37*
G36*
G01*
X172386115Y-104441967D02*
X172386115Y-105891967D01*
G75*
G02*
X172311115Y-105966967I-75000J0D01*
G01*
X172161115Y-105966967D01*
G75*
G02*
X172086115Y-105891967I0J75000D01*
G01*
X172086115Y-104441967D01*
G75*
G02*
X172161115Y-104366967I75000J0D01*
G01*
X172311115Y-104366967D01*
G75*
G02*
X172386115Y-104441967I0J-75000D01*
G01*
G37*
G36*
G01*
X172886115Y-104441967D02*
X172886115Y-105891967D01*
G75*
G02*
X172811115Y-105966967I-75000J0D01*
G01*
X172661115Y-105966967D01*
G75*
G02*
X172586115Y-105891967I0J75000D01*
G01*
X172586115Y-104441967D01*
G75*
G02*
X172661115Y-104366967I75000J0D01*
G01*
X172811115Y-104366967D01*
G75*
G02*
X172886115Y-104441967I0J-75000D01*
G01*
G37*
G36*
G01*
X173386115Y-104441967D02*
X173386115Y-105891967D01*
G75*
G02*
X173311115Y-105966967I-75000J0D01*
G01*
X173161115Y-105966967D01*
G75*
G02*
X173086115Y-105891967I0J75000D01*
G01*
X173086115Y-104441967D01*
G75*
G02*
X173161115Y-104366967I75000J0D01*
G01*
X173311115Y-104366967D01*
G75*
G02*
X173386115Y-104441967I0J-75000D01*
G01*
G37*
%TD*%
%TO.C,U14*%
G36*
G01*
X166505000Y-69649000D02*
X166655000Y-69649000D01*
G75*
G02*
X166730000Y-69724000I0J-75000D01*
G01*
X166730000Y-71049000D01*
G75*
G02*
X166655000Y-71124000I-75000J0D01*
G01*
X166505000Y-71124000D01*
G75*
G02*
X166430000Y-71049000I0J75000D01*
G01*
X166430000Y-69724000D01*
G75*
G02*
X166505000Y-69649000I75000J0D01*
G01*
G37*
G36*
G01*
X166005000Y-69649000D02*
X166155000Y-69649000D01*
G75*
G02*
X166230000Y-69724000I0J-75000D01*
G01*
X166230000Y-71049000D01*
G75*
G02*
X166155000Y-71124000I-75000J0D01*
G01*
X166005000Y-71124000D01*
G75*
G02*
X165930000Y-71049000I0J75000D01*
G01*
X165930000Y-69724000D01*
G75*
G02*
X166005000Y-69649000I75000J0D01*
G01*
G37*
G36*
G01*
X165505000Y-69649000D02*
X165655000Y-69649000D01*
G75*
G02*
X165730000Y-69724000I0J-75000D01*
G01*
X165730000Y-71049000D01*
G75*
G02*
X165655000Y-71124000I-75000J0D01*
G01*
X165505000Y-71124000D01*
G75*
G02*
X165430000Y-71049000I0J75000D01*
G01*
X165430000Y-69724000D01*
G75*
G02*
X165505000Y-69649000I75000J0D01*
G01*
G37*
G36*
G01*
X165005000Y-69649000D02*
X165155000Y-69649000D01*
G75*
G02*
X165230000Y-69724000I0J-75000D01*
G01*
X165230000Y-71049000D01*
G75*
G02*
X165155000Y-71124000I-75000J0D01*
G01*
X165005000Y-71124000D01*
G75*
G02*
X164930000Y-71049000I0J75000D01*
G01*
X164930000Y-69724000D01*
G75*
G02*
X165005000Y-69649000I75000J0D01*
G01*
G37*
G36*
G01*
X164505000Y-69649000D02*
X164655000Y-69649000D01*
G75*
G02*
X164730000Y-69724000I0J-75000D01*
G01*
X164730000Y-71049000D01*
G75*
G02*
X164655000Y-71124000I-75000J0D01*
G01*
X164505000Y-71124000D01*
G75*
G02*
X164430000Y-71049000I0J75000D01*
G01*
X164430000Y-69724000D01*
G75*
G02*
X164505000Y-69649000I75000J0D01*
G01*
G37*
G36*
G01*
X164005000Y-69649000D02*
X164155000Y-69649000D01*
G75*
G02*
X164230000Y-69724000I0J-75000D01*
G01*
X164230000Y-71049000D01*
G75*
G02*
X164155000Y-71124000I-75000J0D01*
G01*
X164005000Y-71124000D01*
G75*
G02*
X163930000Y-71049000I0J75000D01*
G01*
X163930000Y-69724000D01*
G75*
G02*
X164005000Y-69649000I75000J0D01*
G01*
G37*
G36*
G01*
X163505000Y-69649000D02*
X163655000Y-69649000D01*
G75*
G02*
X163730000Y-69724000I0J-75000D01*
G01*
X163730000Y-71049000D01*
G75*
G02*
X163655000Y-71124000I-75000J0D01*
G01*
X163505000Y-71124000D01*
G75*
G02*
X163430000Y-71049000I0J75000D01*
G01*
X163430000Y-69724000D01*
G75*
G02*
X163505000Y-69649000I75000J0D01*
G01*
G37*
G36*
G01*
X163005000Y-69649000D02*
X163155000Y-69649000D01*
G75*
G02*
X163230000Y-69724000I0J-75000D01*
G01*
X163230000Y-71049000D01*
G75*
G02*
X163155000Y-71124000I-75000J0D01*
G01*
X163005000Y-71124000D01*
G75*
G02*
X162930000Y-71049000I0J75000D01*
G01*
X162930000Y-69724000D01*
G75*
G02*
X163005000Y-69649000I75000J0D01*
G01*
G37*
G36*
G01*
X162505000Y-69649000D02*
X162655000Y-69649000D01*
G75*
G02*
X162730000Y-69724000I0J-75000D01*
G01*
X162730000Y-71049000D01*
G75*
G02*
X162655000Y-71124000I-75000J0D01*
G01*
X162505000Y-71124000D01*
G75*
G02*
X162430000Y-71049000I0J75000D01*
G01*
X162430000Y-69724000D01*
G75*
G02*
X162505000Y-69649000I75000J0D01*
G01*
G37*
G36*
G01*
X162005000Y-69649000D02*
X162155000Y-69649000D01*
G75*
G02*
X162230000Y-69724000I0J-75000D01*
G01*
X162230000Y-71049000D01*
G75*
G02*
X162155000Y-71124000I-75000J0D01*
G01*
X162005000Y-71124000D01*
G75*
G02*
X161930000Y-71049000I0J75000D01*
G01*
X161930000Y-69724000D01*
G75*
G02*
X162005000Y-69649000I75000J0D01*
G01*
G37*
G36*
G01*
X161505000Y-69649000D02*
X161655000Y-69649000D01*
G75*
G02*
X161730000Y-69724000I0J-75000D01*
G01*
X161730000Y-71049000D01*
G75*
G02*
X161655000Y-71124000I-75000J0D01*
G01*
X161505000Y-71124000D01*
G75*
G02*
X161430000Y-71049000I0J75000D01*
G01*
X161430000Y-69724000D01*
G75*
G02*
X161505000Y-69649000I75000J0D01*
G01*
G37*
G36*
G01*
X161005000Y-69649000D02*
X161155000Y-69649000D01*
G75*
G02*
X161230000Y-69724000I0J-75000D01*
G01*
X161230000Y-71049000D01*
G75*
G02*
X161155000Y-71124000I-75000J0D01*
G01*
X161005000Y-71124000D01*
G75*
G02*
X160930000Y-71049000I0J75000D01*
G01*
X160930000Y-69724000D01*
G75*
G02*
X161005000Y-69649000I75000J0D01*
G01*
G37*
G36*
G01*
X159005000Y-71649000D02*
X160330000Y-71649000D01*
G75*
G02*
X160405000Y-71724000I0J-75000D01*
G01*
X160405000Y-71874000D01*
G75*
G02*
X160330000Y-71949000I-75000J0D01*
G01*
X159005000Y-71949000D01*
G75*
G02*
X158930000Y-71874000I0J75000D01*
G01*
X158930000Y-71724000D01*
G75*
G02*
X159005000Y-71649000I75000J0D01*
G01*
G37*
G36*
G01*
X159005000Y-72149000D02*
X160330000Y-72149000D01*
G75*
G02*
X160405000Y-72224000I0J-75000D01*
G01*
X160405000Y-72374000D01*
G75*
G02*
X160330000Y-72449000I-75000J0D01*
G01*
X159005000Y-72449000D01*
G75*
G02*
X158930000Y-72374000I0J75000D01*
G01*
X158930000Y-72224000D01*
G75*
G02*
X159005000Y-72149000I75000J0D01*
G01*
G37*
G36*
G01*
X159005000Y-72649000D02*
X160330000Y-72649000D01*
G75*
G02*
X160405000Y-72724000I0J-75000D01*
G01*
X160405000Y-72874000D01*
G75*
G02*
X160330000Y-72949000I-75000J0D01*
G01*
X159005000Y-72949000D01*
G75*
G02*
X158930000Y-72874000I0J75000D01*
G01*
X158930000Y-72724000D01*
G75*
G02*
X159005000Y-72649000I75000J0D01*
G01*
G37*
G36*
G01*
X159005000Y-73149000D02*
X160330000Y-73149000D01*
G75*
G02*
X160405000Y-73224000I0J-75000D01*
G01*
X160405000Y-73374000D01*
G75*
G02*
X160330000Y-73449000I-75000J0D01*
G01*
X159005000Y-73449000D01*
G75*
G02*
X158930000Y-73374000I0J75000D01*
G01*
X158930000Y-73224000D01*
G75*
G02*
X159005000Y-73149000I75000J0D01*
G01*
G37*
G36*
G01*
X159005000Y-73649000D02*
X160330000Y-73649000D01*
G75*
G02*
X160405000Y-73724000I0J-75000D01*
G01*
X160405000Y-73874000D01*
G75*
G02*
X160330000Y-73949000I-75000J0D01*
G01*
X159005000Y-73949000D01*
G75*
G02*
X158930000Y-73874000I0J75000D01*
G01*
X158930000Y-73724000D01*
G75*
G02*
X159005000Y-73649000I75000J0D01*
G01*
G37*
G36*
G01*
X159005000Y-74149000D02*
X160330000Y-74149000D01*
G75*
G02*
X160405000Y-74224000I0J-75000D01*
G01*
X160405000Y-74374000D01*
G75*
G02*
X160330000Y-74449000I-75000J0D01*
G01*
X159005000Y-74449000D01*
G75*
G02*
X158930000Y-74374000I0J75000D01*
G01*
X158930000Y-74224000D01*
G75*
G02*
X159005000Y-74149000I75000J0D01*
G01*
G37*
G36*
G01*
X159005000Y-74649000D02*
X160330000Y-74649000D01*
G75*
G02*
X160405000Y-74724000I0J-75000D01*
G01*
X160405000Y-74874000D01*
G75*
G02*
X160330000Y-74949000I-75000J0D01*
G01*
X159005000Y-74949000D01*
G75*
G02*
X158930000Y-74874000I0J75000D01*
G01*
X158930000Y-74724000D01*
G75*
G02*
X159005000Y-74649000I75000J0D01*
G01*
G37*
G36*
G01*
X159005000Y-75149000D02*
X160330000Y-75149000D01*
G75*
G02*
X160405000Y-75224000I0J-75000D01*
G01*
X160405000Y-75374000D01*
G75*
G02*
X160330000Y-75449000I-75000J0D01*
G01*
X159005000Y-75449000D01*
G75*
G02*
X158930000Y-75374000I0J75000D01*
G01*
X158930000Y-75224000D01*
G75*
G02*
X159005000Y-75149000I75000J0D01*
G01*
G37*
G36*
G01*
X159005000Y-75649000D02*
X160330000Y-75649000D01*
G75*
G02*
X160405000Y-75724000I0J-75000D01*
G01*
X160405000Y-75874000D01*
G75*
G02*
X160330000Y-75949000I-75000J0D01*
G01*
X159005000Y-75949000D01*
G75*
G02*
X158930000Y-75874000I0J75000D01*
G01*
X158930000Y-75724000D01*
G75*
G02*
X159005000Y-75649000I75000J0D01*
G01*
G37*
G36*
G01*
X159005000Y-76149000D02*
X160330000Y-76149000D01*
G75*
G02*
X160405000Y-76224000I0J-75000D01*
G01*
X160405000Y-76374000D01*
G75*
G02*
X160330000Y-76449000I-75000J0D01*
G01*
X159005000Y-76449000D01*
G75*
G02*
X158930000Y-76374000I0J75000D01*
G01*
X158930000Y-76224000D01*
G75*
G02*
X159005000Y-76149000I75000J0D01*
G01*
G37*
G36*
G01*
X159005000Y-76649000D02*
X160330000Y-76649000D01*
G75*
G02*
X160405000Y-76724000I0J-75000D01*
G01*
X160405000Y-76874000D01*
G75*
G02*
X160330000Y-76949000I-75000J0D01*
G01*
X159005000Y-76949000D01*
G75*
G02*
X158930000Y-76874000I0J75000D01*
G01*
X158930000Y-76724000D01*
G75*
G02*
X159005000Y-76649000I75000J0D01*
G01*
G37*
G36*
G01*
X159005000Y-77149000D02*
X160330000Y-77149000D01*
G75*
G02*
X160405000Y-77224000I0J-75000D01*
G01*
X160405000Y-77374000D01*
G75*
G02*
X160330000Y-77449000I-75000J0D01*
G01*
X159005000Y-77449000D01*
G75*
G02*
X158930000Y-77374000I0J75000D01*
G01*
X158930000Y-77224000D01*
G75*
G02*
X159005000Y-77149000I75000J0D01*
G01*
G37*
G36*
G01*
X161005000Y-77974000D02*
X161155000Y-77974000D01*
G75*
G02*
X161230000Y-78049000I0J-75000D01*
G01*
X161230000Y-79374000D01*
G75*
G02*
X161155000Y-79449000I-75000J0D01*
G01*
X161005000Y-79449000D01*
G75*
G02*
X160930000Y-79374000I0J75000D01*
G01*
X160930000Y-78049000D01*
G75*
G02*
X161005000Y-77974000I75000J0D01*
G01*
G37*
G36*
G01*
X161505000Y-77974000D02*
X161655000Y-77974000D01*
G75*
G02*
X161730000Y-78049000I0J-75000D01*
G01*
X161730000Y-79374000D01*
G75*
G02*
X161655000Y-79449000I-75000J0D01*
G01*
X161505000Y-79449000D01*
G75*
G02*
X161430000Y-79374000I0J75000D01*
G01*
X161430000Y-78049000D01*
G75*
G02*
X161505000Y-77974000I75000J0D01*
G01*
G37*
G36*
G01*
X162005000Y-77974000D02*
X162155000Y-77974000D01*
G75*
G02*
X162230000Y-78049000I0J-75000D01*
G01*
X162230000Y-79374000D01*
G75*
G02*
X162155000Y-79449000I-75000J0D01*
G01*
X162005000Y-79449000D01*
G75*
G02*
X161930000Y-79374000I0J75000D01*
G01*
X161930000Y-78049000D01*
G75*
G02*
X162005000Y-77974000I75000J0D01*
G01*
G37*
G36*
G01*
X162505000Y-77974000D02*
X162655000Y-77974000D01*
G75*
G02*
X162730000Y-78049000I0J-75000D01*
G01*
X162730000Y-79374000D01*
G75*
G02*
X162655000Y-79449000I-75000J0D01*
G01*
X162505000Y-79449000D01*
G75*
G02*
X162430000Y-79374000I0J75000D01*
G01*
X162430000Y-78049000D01*
G75*
G02*
X162505000Y-77974000I75000J0D01*
G01*
G37*
G36*
G01*
X163005000Y-77974000D02*
X163155000Y-77974000D01*
G75*
G02*
X163230000Y-78049000I0J-75000D01*
G01*
X163230000Y-79374000D01*
G75*
G02*
X163155000Y-79449000I-75000J0D01*
G01*
X163005000Y-79449000D01*
G75*
G02*
X162930000Y-79374000I0J75000D01*
G01*
X162930000Y-78049000D01*
G75*
G02*
X163005000Y-77974000I75000J0D01*
G01*
G37*
G36*
G01*
X163505000Y-77974000D02*
X163655000Y-77974000D01*
G75*
G02*
X163730000Y-78049000I0J-75000D01*
G01*
X163730000Y-79374000D01*
G75*
G02*
X163655000Y-79449000I-75000J0D01*
G01*
X163505000Y-79449000D01*
G75*
G02*
X163430000Y-79374000I0J75000D01*
G01*
X163430000Y-78049000D01*
G75*
G02*
X163505000Y-77974000I75000J0D01*
G01*
G37*
G36*
G01*
X164005000Y-77974000D02*
X164155000Y-77974000D01*
G75*
G02*
X164230000Y-78049000I0J-75000D01*
G01*
X164230000Y-79374000D01*
G75*
G02*
X164155000Y-79449000I-75000J0D01*
G01*
X164005000Y-79449000D01*
G75*
G02*
X163930000Y-79374000I0J75000D01*
G01*
X163930000Y-78049000D01*
G75*
G02*
X164005000Y-77974000I75000J0D01*
G01*
G37*
G36*
G01*
X164505000Y-77974000D02*
X164655000Y-77974000D01*
G75*
G02*
X164730000Y-78049000I0J-75000D01*
G01*
X164730000Y-79374000D01*
G75*
G02*
X164655000Y-79449000I-75000J0D01*
G01*
X164505000Y-79449000D01*
G75*
G02*
X164430000Y-79374000I0J75000D01*
G01*
X164430000Y-78049000D01*
G75*
G02*
X164505000Y-77974000I75000J0D01*
G01*
G37*
G36*
G01*
X165005000Y-77974000D02*
X165155000Y-77974000D01*
G75*
G02*
X165230000Y-78049000I0J-75000D01*
G01*
X165230000Y-79374000D01*
G75*
G02*
X165155000Y-79449000I-75000J0D01*
G01*
X165005000Y-79449000D01*
G75*
G02*
X164930000Y-79374000I0J75000D01*
G01*
X164930000Y-78049000D01*
G75*
G02*
X165005000Y-77974000I75000J0D01*
G01*
G37*
G36*
G01*
X165505000Y-77974000D02*
X165655000Y-77974000D01*
G75*
G02*
X165730000Y-78049000I0J-75000D01*
G01*
X165730000Y-79374000D01*
G75*
G02*
X165655000Y-79449000I-75000J0D01*
G01*
X165505000Y-79449000D01*
G75*
G02*
X165430000Y-79374000I0J75000D01*
G01*
X165430000Y-78049000D01*
G75*
G02*
X165505000Y-77974000I75000J0D01*
G01*
G37*
G36*
G01*
X166005000Y-77974000D02*
X166155000Y-77974000D01*
G75*
G02*
X166230000Y-78049000I0J-75000D01*
G01*
X166230000Y-79374000D01*
G75*
G02*
X166155000Y-79449000I-75000J0D01*
G01*
X166005000Y-79449000D01*
G75*
G02*
X165930000Y-79374000I0J75000D01*
G01*
X165930000Y-78049000D01*
G75*
G02*
X166005000Y-77974000I75000J0D01*
G01*
G37*
G36*
G01*
X166505000Y-77974000D02*
X166655000Y-77974000D01*
G75*
G02*
X166730000Y-78049000I0J-75000D01*
G01*
X166730000Y-79374000D01*
G75*
G02*
X166655000Y-79449000I-75000J0D01*
G01*
X166505000Y-79449000D01*
G75*
G02*
X166430000Y-79374000I0J75000D01*
G01*
X166430000Y-78049000D01*
G75*
G02*
X166505000Y-77974000I75000J0D01*
G01*
G37*
G36*
G01*
X167330000Y-77149000D02*
X168655000Y-77149000D01*
G75*
G02*
X168730000Y-77224000I0J-75000D01*
G01*
X168730000Y-77374000D01*
G75*
G02*
X168655000Y-77449000I-75000J0D01*
G01*
X167330000Y-77449000D01*
G75*
G02*
X167255000Y-77374000I0J75000D01*
G01*
X167255000Y-77224000D01*
G75*
G02*
X167330000Y-77149000I75000J0D01*
G01*
G37*
G36*
G01*
X167330000Y-76649000D02*
X168655000Y-76649000D01*
G75*
G02*
X168730000Y-76724000I0J-75000D01*
G01*
X168730000Y-76874000D01*
G75*
G02*
X168655000Y-76949000I-75000J0D01*
G01*
X167330000Y-76949000D01*
G75*
G02*
X167255000Y-76874000I0J75000D01*
G01*
X167255000Y-76724000D01*
G75*
G02*
X167330000Y-76649000I75000J0D01*
G01*
G37*
G36*
G01*
X167330000Y-76149000D02*
X168655000Y-76149000D01*
G75*
G02*
X168730000Y-76224000I0J-75000D01*
G01*
X168730000Y-76374000D01*
G75*
G02*
X168655000Y-76449000I-75000J0D01*
G01*
X167330000Y-76449000D01*
G75*
G02*
X167255000Y-76374000I0J75000D01*
G01*
X167255000Y-76224000D01*
G75*
G02*
X167330000Y-76149000I75000J0D01*
G01*
G37*
G36*
G01*
X167330000Y-75649000D02*
X168655000Y-75649000D01*
G75*
G02*
X168730000Y-75724000I0J-75000D01*
G01*
X168730000Y-75874000D01*
G75*
G02*
X168655000Y-75949000I-75000J0D01*
G01*
X167330000Y-75949000D01*
G75*
G02*
X167255000Y-75874000I0J75000D01*
G01*
X167255000Y-75724000D01*
G75*
G02*
X167330000Y-75649000I75000J0D01*
G01*
G37*
G36*
G01*
X167330000Y-75149000D02*
X168655000Y-75149000D01*
G75*
G02*
X168730000Y-75224000I0J-75000D01*
G01*
X168730000Y-75374000D01*
G75*
G02*
X168655000Y-75449000I-75000J0D01*
G01*
X167330000Y-75449000D01*
G75*
G02*
X167255000Y-75374000I0J75000D01*
G01*
X167255000Y-75224000D01*
G75*
G02*
X167330000Y-75149000I75000J0D01*
G01*
G37*
G36*
G01*
X167330000Y-74649000D02*
X168655000Y-74649000D01*
G75*
G02*
X168730000Y-74724000I0J-75000D01*
G01*
X168730000Y-74874000D01*
G75*
G02*
X168655000Y-74949000I-75000J0D01*
G01*
X167330000Y-74949000D01*
G75*
G02*
X167255000Y-74874000I0J75000D01*
G01*
X167255000Y-74724000D01*
G75*
G02*
X167330000Y-74649000I75000J0D01*
G01*
G37*
G36*
G01*
X167330000Y-74149000D02*
X168655000Y-74149000D01*
G75*
G02*
X168730000Y-74224000I0J-75000D01*
G01*
X168730000Y-74374000D01*
G75*
G02*
X168655000Y-74449000I-75000J0D01*
G01*
X167330000Y-74449000D01*
G75*
G02*
X167255000Y-74374000I0J75000D01*
G01*
X167255000Y-74224000D01*
G75*
G02*
X167330000Y-74149000I75000J0D01*
G01*
G37*
G36*
G01*
X167330000Y-73649000D02*
X168655000Y-73649000D01*
G75*
G02*
X168730000Y-73724000I0J-75000D01*
G01*
X168730000Y-73874000D01*
G75*
G02*
X168655000Y-73949000I-75000J0D01*
G01*
X167330000Y-73949000D01*
G75*
G02*
X167255000Y-73874000I0J75000D01*
G01*
X167255000Y-73724000D01*
G75*
G02*
X167330000Y-73649000I75000J0D01*
G01*
G37*
G36*
G01*
X167330000Y-73149000D02*
X168655000Y-73149000D01*
G75*
G02*
X168730000Y-73224000I0J-75000D01*
G01*
X168730000Y-73374000D01*
G75*
G02*
X168655000Y-73449000I-75000J0D01*
G01*
X167330000Y-73449000D01*
G75*
G02*
X167255000Y-73374000I0J75000D01*
G01*
X167255000Y-73224000D01*
G75*
G02*
X167330000Y-73149000I75000J0D01*
G01*
G37*
G36*
G01*
X167330000Y-72649000D02*
X168655000Y-72649000D01*
G75*
G02*
X168730000Y-72724000I0J-75000D01*
G01*
X168730000Y-72874000D01*
G75*
G02*
X168655000Y-72949000I-75000J0D01*
G01*
X167330000Y-72949000D01*
G75*
G02*
X167255000Y-72874000I0J75000D01*
G01*
X167255000Y-72724000D01*
G75*
G02*
X167330000Y-72649000I75000J0D01*
G01*
G37*
G36*
G01*
X167330000Y-72149000D02*
X168655000Y-72149000D01*
G75*
G02*
X168730000Y-72224000I0J-75000D01*
G01*
X168730000Y-72374000D01*
G75*
G02*
X168655000Y-72449000I-75000J0D01*
G01*
X167330000Y-72449000D01*
G75*
G02*
X167255000Y-72374000I0J75000D01*
G01*
X167255000Y-72224000D01*
G75*
G02*
X167330000Y-72149000I75000J0D01*
G01*
G37*
G36*
G01*
X167330000Y-71649000D02*
X168655000Y-71649000D01*
G75*
G02*
X168730000Y-71724000I0J-75000D01*
G01*
X168730000Y-71874000D01*
G75*
G02*
X168655000Y-71949000I-75000J0D01*
G01*
X167330000Y-71949000D01*
G75*
G02*
X167255000Y-71874000I0J75000D01*
G01*
X167255000Y-71724000D01*
G75*
G02*
X167330000Y-71649000I75000J0D01*
G01*
G37*
%TD*%
D14*
%TO.C,U15*%
X155635000Y-118935500D03*
X155635000Y-118300500D03*
X155635000Y-117665500D03*
X155635000Y-117030500D03*
X155635000Y-116395500D03*
X155635000Y-115760500D03*
X155635000Y-115125500D03*
X155635000Y-114490500D03*
X150435000Y-114490500D03*
X150435000Y-115125500D03*
X150435000Y-115760500D03*
X150435000Y-116395500D03*
X150435000Y-117030500D03*
X150435000Y-117665500D03*
X150435000Y-118300500D03*
X150435000Y-118935500D03*
%TD*%
D15*
%TO.C,X1*%
X163068000Y-84201000D03*
X165608000Y-84201000D03*
X165608000Y-82001000D03*
X163068000Y-82001000D03*
%TD*%
%TO.C,C4*%
G36*
G01*
X141420000Y-92567000D02*
X141420000Y-90567000D01*
G75*
G02*
X141670000Y-90317000I250000J0D01*
G01*
X145570000Y-90317000D01*
G75*
G02*
X145820000Y-90567000I0J-250000D01*
G01*
X145820000Y-92567000D01*
G75*
G02*
X145570000Y-92817000I-250000J0D01*
G01*
X141670000Y-92817000D01*
G75*
G02*
X141420000Y-92567000I0J250000D01*
G01*
G37*
G36*
G01*
X148820000Y-92567000D02*
X148820000Y-90567000D01*
G75*
G02*
X149070000Y-90317000I250000J0D01*
G01*
X152970000Y-90317000D01*
G75*
G02*
X153220000Y-90567000I0J-250000D01*
G01*
X153220000Y-92567000D01*
G75*
G02*
X152970000Y-92817000I-250000J0D01*
G01*
X149070000Y-92817000D01*
G75*
G02*
X148820000Y-92567000I0J250000D01*
G01*
G37*
%TD*%
%TO.C,C6*%
G36*
G01*
X178649615Y-94093967D02*
X178174615Y-94093967D01*
G75*
G02*
X177937115Y-93856467I0J237500D01*
G01*
X177937115Y-93281467D01*
G75*
G02*
X178174615Y-93043967I237500J0D01*
G01*
X178649615Y-93043967D01*
G75*
G02*
X178887115Y-93281467I0J-237500D01*
G01*
X178887115Y-93856467D01*
G75*
G02*
X178649615Y-94093967I-237500J0D01*
G01*
G37*
G36*
G01*
X178649615Y-95843967D02*
X178174615Y-95843967D01*
G75*
G02*
X177937115Y-95606467I0J237500D01*
G01*
X177937115Y-95031467D01*
G75*
G02*
X178174615Y-94793967I237500J0D01*
G01*
X178649615Y-94793967D01*
G75*
G02*
X178887115Y-95031467I0J-237500D01*
G01*
X178887115Y-95606467D01*
G75*
G02*
X178649615Y-95843967I-237500J0D01*
G01*
G37*
%TD*%
%TO.C,C11*%
G36*
G01*
X140157000Y-76384999D02*
X140157000Y-77285001D01*
G75*
G02*
X139907001Y-77535000I-249999J0D01*
G01*
X139256999Y-77535000D01*
G75*
G02*
X139007000Y-77285001I0J249999D01*
G01*
X139007000Y-76384999D01*
G75*
G02*
X139256999Y-76135000I249999J0D01*
G01*
X139907001Y-76135000D01*
G75*
G02*
X140157000Y-76384999I0J-249999D01*
G01*
G37*
G36*
G01*
X138107000Y-76384999D02*
X138107000Y-77285001D01*
G75*
G02*
X137857001Y-77535000I-249999J0D01*
G01*
X137206999Y-77535000D01*
G75*
G02*
X136957000Y-77285001I0J249999D01*
G01*
X136957000Y-76384999D01*
G75*
G02*
X137206999Y-76135000I249999J0D01*
G01*
X137857001Y-76135000D01*
G75*
G02*
X138107000Y-76384999I0J-249999D01*
G01*
G37*
%TD*%
%TO.C,C12*%
G36*
G01*
X178174615Y-98885967D02*
X178649615Y-98885967D01*
G75*
G02*
X178887115Y-99123467I0J-237500D01*
G01*
X178887115Y-99698467D01*
G75*
G02*
X178649615Y-99935967I-237500J0D01*
G01*
X178174615Y-99935967D01*
G75*
G02*
X177937115Y-99698467I0J237500D01*
G01*
X177937115Y-99123467D01*
G75*
G02*
X178174615Y-98885967I237500J0D01*
G01*
G37*
G36*
G01*
X178174615Y-100635967D02*
X178649615Y-100635967D01*
G75*
G02*
X178887115Y-100873467I0J-237500D01*
G01*
X178887115Y-101448467D01*
G75*
G02*
X178649615Y-101685967I-237500J0D01*
G01*
X178174615Y-101685967D01*
G75*
G02*
X177937115Y-101448467I0J237500D01*
G01*
X177937115Y-100873467D01*
G75*
G02*
X178174615Y-100635967I237500J0D01*
G01*
G37*
%TD*%
%TO.C,C13*%
G36*
G01*
X138107000Y-78543999D02*
X138107000Y-79444001D01*
G75*
G02*
X137857001Y-79694000I-249999J0D01*
G01*
X137206999Y-79694000D01*
G75*
G02*
X136957000Y-79444001I0J249999D01*
G01*
X136957000Y-78543999D01*
G75*
G02*
X137206999Y-78294000I249999J0D01*
G01*
X137857001Y-78294000D01*
G75*
G02*
X138107000Y-78543999I0J-249999D01*
G01*
G37*
G36*
G01*
X140157000Y-78543999D02*
X140157000Y-79444001D01*
G75*
G02*
X139907001Y-79694000I-249999J0D01*
G01*
X139256999Y-79694000D01*
G75*
G02*
X139007000Y-79444001I0J249999D01*
G01*
X139007000Y-78543999D01*
G75*
G02*
X139256999Y-78294000I249999J0D01*
G01*
X139907001Y-78294000D01*
G75*
G02*
X140157000Y-78543999I0J-249999D01*
G01*
G37*
%TD*%
%TO.C,C15*%
G36*
G01*
X132664000Y-102038999D02*
X132664000Y-102939001D01*
G75*
G02*
X132414001Y-103189000I-249999J0D01*
G01*
X131763999Y-103189000D01*
G75*
G02*
X131514000Y-102939001I0J249999D01*
G01*
X131514000Y-102038999D01*
G75*
G02*
X131763999Y-101789000I249999J0D01*
G01*
X132414001Y-101789000D01*
G75*
G02*
X132664000Y-102038999I0J-249999D01*
G01*
G37*
G36*
G01*
X130614000Y-102038999D02*
X130614000Y-102939001D01*
G75*
G02*
X130364001Y-103189000I-249999J0D01*
G01*
X129713999Y-103189000D01*
G75*
G02*
X129464000Y-102939001I0J249999D01*
G01*
X129464000Y-102038999D01*
G75*
G02*
X129713999Y-101789000I249999J0D01*
G01*
X130364001Y-101789000D01*
G75*
G02*
X130614000Y-102038999I0J-249999D01*
G01*
G37*
%TD*%
%TO.C,C16*%
G36*
G01*
X103810000Y-101796001D02*
X103810000Y-100895999D01*
G75*
G02*
X104059999Y-100646000I249999J0D01*
G01*
X104710001Y-100646000D01*
G75*
G02*
X104960000Y-100895999I0J-249999D01*
G01*
X104960000Y-101796001D01*
G75*
G02*
X104710001Y-102046000I-249999J0D01*
G01*
X104059999Y-102046000D01*
G75*
G02*
X103810000Y-101796001I0J249999D01*
G01*
G37*
G36*
G01*
X105860000Y-101796001D02*
X105860000Y-100895999D01*
G75*
G02*
X106109999Y-100646000I249999J0D01*
G01*
X106760001Y-100646000D01*
G75*
G02*
X107010000Y-100895999I0J-249999D01*
G01*
X107010000Y-101796001D01*
G75*
G02*
X106760001Y-102046000I-249999J0D01*
G01*
X106109999Y-102046000D01*
G75*
G02*
X105860000Y-101796001I0J249999D01*
G01*
G37*
%TD*%
%TO.C,C18*%
G36*
G01*
X116662000Y-115754999D02*
X116662000Y-116655001D01*
G75*
G02*
X116412001Y-116905000I-249999J0D01*
G01*
X115761999Y-116905000D01*
G75*
G02*
X115512000Y-116655001I0J249999D01*
G01*
X115512000Y-115754999D01*
G75*
G02*
X115761999Y-115505000I249999J0D01*
G01*
X116412001Y-115505000D01*
G75*
G02*
X116662000Y-115754999I0J-249999D01*
G01*
G37*
G36*
G01*
X114612000Y-115754999D02*
X114612000Y-116655001D01*
G75*
G02*
X114362001Y-116905000I-249999J0D01*
G01*
X113711999Y-116905000D01*
G75*
G02*
X113462000Y-116655001I0J249999D01*
G01*
X113462000Y-115754999D01*
G75*
G02*
X113711999Y-115505000I249999J0D01*
G01*
X114362001Y-115505000D01*
G75*
G02*
X114612000Y-115754999I0J-249999D01*
G01*
G37*
%TD*%
%TO.C,C20*%
G36*
G01*
X109845000Y-111874000D02*
X108595000Y-111874000D01*
G75*
G02*
X108345000Y-111624000I0J250000D01*
G01*
X108345000Y-110699000D01*
G75*
G02*
X108595000Y-110449000I250000J0D01*
G01*
X109845000Y-110449000D01*
G75*
G02*
X110095000Y-110699000I0J-250000D01*
G01*
X110095000Y-111624000D01*
G75*
G02*
X109845000Y-111874000I-250000J0D01*
G01*
G37*
G36*
G01*
X109845000Y-114849000D02*
X108595000Y-114849000D01*
G75*
G02*
X108345000Y-114599000I0J250000D01*
G01*
X108345000Y-113674000D01*
G75*
G02*
X108595000Y-113424000I250000J0D01*
G01*
X109845000Y-113424000D01*
G75*
G02*
X110095000Y-113674000I0J-250000D01*
G01*
X110095000Y-114599000D01*
G75*
G02*
X109845000Y-114849000I-250000J0D01*
G01*
G37*
%TD*%
%TO.C,C22*%
G36*
G01*
X129911000Y-116881000D02*
X128661000Y-116881000D01*
G75*
G02*
X128411000Y-116631000I0J250000D01*
G01*
X128411000Y-115706000D01*
G75*
G02*
X128661000Y-115456000I250000J0D01*
G01*
X129911000Y-115456000D01*
G75*
G02*
X130161000Y-115706000I0J-250000D01*
G01*
X130161000Y-116631000D01*
G75*
G02*
X129911000Y-116881000I-250000J0D01*
G01*
G37*
G36*
G01*
X129911000Y-113906000D02*
X128661000Y-113906000D01*
G75*
G02*
X128411000Y-113656000I0J250000D01*
G01*
X128411000Y-112731000D01*
G75*
G02*
X128661000Y-112481000I250000J0D01*
G01*
X129911000Y-112481000D01*
G75*
G02*
X130161000Y-112731000I0J-250000D01*
G01*
X130161000Y-113656000D01*
G75*
G02*
X129911000Y-113906000I-250000J0D01*
G01*
G37*
%TD*%
%TO.C,R1*%
G36*
G01*
X182321000Y-110674999D02*
X182321000Y-111575001D01*
G75*
G02*
X182071001Y-111825000I-249999J0D01*
G01*
X181420999Y-111825000D01*
G75*
G02*
X181171000Y-111575001I0J249999D01*
G01*
X181171000Y-110674999D01*
G75*
G02*
X181420999Y-110425000I249999J0D01*
G01*
X182071001Y-110425000D01*
G75*
G02*
X182321000Y-110674999I0J-249999D01*
G01*
G37*
G36*
G01*
X180271000Y-110674999D02*
X180271000Y-111575001D01*
G75*
G02*
X180021001Y-111825000I-249999J0D01*
G01*
X179370999Y-111825000D01*
G75*
G02*
X179121000Y-111575001I0J249999D01*
G01*
X179121000Y-110674999D01*
G75*
G02*
X179370999Y-110425000I249999J0D01*
G01*
X180021001Y-110425000D01*
G75*
G02*
X180271000Y-110674999I0J-249999D01*
G01*
G37*
%TD*%
%TO.C,R2*%
G36*
G01*
X180271000Y-108642999D02*
X180271000Y-109543001D01*
G75*
G02*
X180021001Y-109793000I-249999J0D01*
G01*
X179370999Y-109793000D01*
G75*
G02*
X179121000Y-109543001I0J249999D01*
G01*
X179121000Y-108642999D01*
G75*
G02*
X179370999Y-108393000I249999J0D01*
G01*
X180021001Y-108393000D01*
G75*
G02*
X180271000Y-108642999I0J-249999D01*
G01*
G37*
G36*
G01*
X182321000Y-108642999D02*
X182321000Y-109543001D01*
G75*
G02*
X182071001Y-109793000I-249999J0D01*
G01*
X181420999Y-109793000D01*
G75*
G02*
X181171000Y-109543001I0J249999D01*
G01*
X181171000Y-108642999D01*
G75*
G02*
X181420999Y-108393000I249999J0D01*
G01*
X182071001Y-108393000D01*
G75*
G02*
X182321000Y-108642999I0J-249999D01*
G01*
G37*
%TD*%
%TO.C,R3*%
G36*
G01*
X177520116Y-97729467D02*
X177520116Y-97254467D01*
G75*
G02*
X177757616Y-97016967I237500J0D01*
G01*
X178332616Y-97016967D01*
G75*
G02*
X178570116Y-97254467I0J-237500D01*
G01*
X178570116Y-97729467D01*
G75*
G02*
X178332616Y-97966967I-237500J0D01*
G01*
X177757616Y-97966967D01*
G75*
G02*
X177520116Y-97729467I0J237500D01*
G01*
G37*
G36*
G01*
X179270116Y-97729467D02*
X179270116Y-97254467D01*
G75*
G02*
X179507616Y-97016967I237500J0D01*
G01*
X180082616Y-97016967D01*
G75*
G02*
X180320116Y-97254467I0J-237500D01*
G01*
X180320116Y-97729467D01*
G75*
G02*
X180082616Y-97966967I-237500J0D01*
G01*
X179507616Y-97966967D01*
G75*
G02*
X179270116Y-97729467I0J237500D01*
G01*
G37*
%TD*%
%TO.C,R19*%
G36*
G01*
X154235999Y-81603000D02*
X155136001Y-81603000D01*
G75*
G02*
X155386000Y-81852999I0J-249999D01*
G01*
X155386000Y-82503001D01*
G75*
G02*
X155136001Y-82753000I-249999J0D01*
G01*
X154235999Y-82753000D01*
G75*
G02*
X153986000Y-82503001I0J249999D01*
G01*
X153986000Y-81852999D01*
G75*
G02*
X154235999Y-81603000I249999J0D01*
G01*
G37*
G36*
G01*
X154235999Y-79553000D02*
X155136001Y-79553000D01*
G75*
G02*
X155386000Y-79802999I0J-249999D01*
G01*
X155386000Y-80453001D01*
G75*
G02*
X155136001Y-80703000I-249999J0D01*
G01*
X154235999Y-80703000D01*
G75*
G02*
X153986000Y-80453001I0J249999D01*
G01*
X153986000Y-79802999D01*
G75*
G02*
X154235999Y-79553000I249999J0D01*
G01*
G37*
%TD*%
%TO.C,R20*%
G36*
G01*
X157168001Y-82753000D02*
X156267999Y-82753000D01*
G75*
G02*
X156018000Y-82503001I0J249999D01*
G01*
X156018000Y-81852999D01*
G75*
G02*
X156267999Y-81603000I249999J0D01*
G01*
X157168001Y-81603000D01*
G75*
G02*
X157418000Y-81852999I0J-249999D01*
G01*
X157418000Y-82503001D01*
G75*
G02*
X157168001Y-82753000I-249999J0D01*
G01*
G37*
G36*
G01*
X157168001Y-80703000D02*
X156267999Y-80703000D01*
G75*
G02*
X156018000Y-80453001I0J249999D01*
G01*
X156018000Y-79802999D01*
G75*
G02*
X156267999Y-79553000I249999J0D01*
G01*
X157168001Y-79553000D01*
G75*
G02*
X157418000Y-79802999I0J-249999D01*
G01*
X157418000Y-80453001D01*
G75*
G02*
X157168001Y-80703000I-249999J0D01*
G01*
G37*
%TD*%
%TO.C,R23*%
G36*
G01*
X158554000Y-121342999D02*
X158554000Y-122243001D01*
G75*
G02*
X158304001Y-122493000I-249999J0D01*
G01*
X157653999Y-122493000D01*
G75*
G02*
X157404000Y-122243001I0J249999D01*
G01*
X157404000Y-121342999D01*
G75*
G02*
X157653999Y-121093000I249999J0D01*
G01*
X158304001Y-121093000D01*
G75*
G02*
X158554000Y-121342999I0J-249999D01*
G01*
G37*
G36*
G01*
X160604000Y-121342999D02*
X160604000Y-122243001D01*
G75*
G02*
X160354001Y-122493000I-249999J0D01*
G01*
X159703999Y-122493000D01*
G75*
G02*
X159454000Y-122243001I0J249999D01*
G01*
X159454000Y-121342999D01*
G75*
G02*
X159703999Y-121093000I249999J0D01*
G01*
X160354001Y-121093000D01*
G75*
G02*
X160604000Y-121342999I0J-249999D01*
G01*
G37*
%TD*%
%TO.C,R24*%
G36*
G01*
X160604000Y-117278999D02*
X160604000Y-118179001D01*
G75*
G02*
X160354001Y-118429000I-249999J0D01*
G01*
X159703999Y-118429000D01*
G75*
G02*
X159454000Y-118179001I0J249999D01*
G01*
X159454000Y-117278999D01*
G75*
G02*
X159703999Y-117029000I249999J0D01*
G01*
X160354001Y-117029000D01*
G75*
G02*
X160604000Y-117278999I0J-249999D01*
G01*
G37*
G36*
G01*
X158554000Y-117278999D02*
X158554000Y-118179001D01*
G75*
G02*
X158304001Y-118429000I-249999J0D01*
G01*
X157653999Y-118429000D01*
G75*
G02*
X157404000Y-118179001I0J249999D01*
G01*
X157404000Y-117278999D01*
G75*
G02*
X157653999Y-117029000I249999J0D01*
G01*
X158304001Y-117029000D01*
G75*
G02*
X158554000Y-117278999I0J-249999D01*
G01*
G37*
%TD*%
%TO.C,R25*%
G36*
G01*
X158554000Y-119310999D02*
X158554000Y-120211001D01*
G75*
G02*
X158304001Y-120461000I-249999J0D01*
G01*
X157653999Y-120461000D01*
G75*
G02*
X157404000Y-120211001I0J249999D01*
G01*
X157404000Y-119310999D01*
G75*
G02*
X157653999Y-119061000I249999J0D01*
G01*
X158304001Y-119061000D01*
G75*
G02*
X158554000Y-119310999I0J-249999D01*
G01*
G37*
G36*
G01*
X160604000Y-119310999D02*
X160604000Y-120211001D01*
G75*
G02*
X160354001Y-120461000I-249999J0D01*
G01*
X159703999Y-120461000D01*
G75*
G02*
X159454000Y-120211001I0J249999D01*
G01*
X159454000Y-119310999D01*
G75*
G02*
X159703999Y-119061000I249999J0D01*
G01*
X160354001Y-119061000D01*
G75*
G02*
X160604000Y-119310999I0J-249999D01*
G01*
G37*
%TD*%
%TO.C,R26*%
G36*
G01*
X135949001Y-103200000D02*
X133798999Y-103200000D01*
G75*
G02*
X133549000Y-102950001I0J249999D01*
G01*
X133549000Y-101924999D01*
G75*
G02*
X133798999Y-101675000I249999J0D01*
G01*
X135949001Y-101675000D01*
G75*
G02*
X136199000Y-101924999I0J-249999D01*
G01*
X136199000Y-102950001D01*
G75*
G02*
X135949001Y-103200000I-249999J0D01*
G01*
G37*
G36*
G01*
X135949001Y-107875000D02*
X133798999Y-107875000D01*
G75*
G02*
X133549000Y-107625001I0J249999D01*
G01*
X133549000Y-106599999D01*
G75*
G02*
X133798999Y-106350000I249999J0D01*
G01*
X135949001Y-106350000D01*
G75*
G02*
X136199000Y-106599999I0J-249999D01*
G01*
X136199000Y-107625001D01*
G75*
G02*
X135949001Y-107875000I-249999J0D01*
G01*
G37*
%TD*%
%TO.C,R27*%
G36*
G01*
X132276001Y-107391000D02*
X131375999Y-107391000D01*
G75*
G02*
X131126000Y-107141001I0J249999D01*
G01*
X131126000Y-106490999D01*
G75*
G02*
X131375999Y-106241000I249999J0D01*
G01*
X132276001Y-106241000D01*
G75*
G02*
X132526000Y-106490999I0J-249999D01*
G01*
X132526000Y-107141001D01*
G75*
G02*
X132276001Y-107391000I-249999J0D01*
G01*
G37*
G36*
G01*
X132276001Y-105341000D02*
X131375999Y-105341000D01*
G75*
G02*
X131126000Y-105091001I0J249999D01*
G01*
X131126000Y-104440999D01*
G75*
G02*
X131375999Y-104191000I249999J0D01*
G01*
X132276001Y-104191000D01*
G75*
G02*
X132526000Y-104440999I0J-249999D01*
G01*
X132526000Y-105091001D01*
G75*
G02*
X132276001Y-105341000I-249999J0D01*
G01*
G37*
%TD*%
%TO.C,R28*%
G36*
G01*
X102675001Y-106732000D02*
X100524999Y-106732000D01*
G75*
G02*
X100275000Y-106482001I0J249999D01*
G01*
X100275000Y-105456999D01*
G75*
G02*
X100524999Y-105207000I249999J0D01*
G01*
X102675001Y-105207000D01*
G75*
G02*
X102925000Y-105456999I0J-249999D01*
G01*
X102925000Y-106482001D01*
G75*
G02*
X102675001Y-106732000I-249999J0D01*
G01*
G37*
G36*
G01*
X102675001Y-102057000D02*
X100524999Y-102057000D01*
G75*
G02*
X100275000Y-101807001I0J249999D01*
G01*
X100275000Y-100781999D01*
G75*
G02*
X100524999Y-100532000I249999J0D01*
G01*
X102675001Y-100532000D01*
G75*
G02*
X102925000Y-100781999I0J-249999D01*
G01*
X102925000Y-101807001D01*
G75*
G02*
X102675001Y-102057000I-249999J0D01*
G01*
G37*
%TD*%
%TO.C,R29*%
G36*
G01*
X105098001Y-106248000D02*
X104197999Y-106248000D01*
G75*
G02*
X103948000Y-105998001I0J249999D01*
G01*
X103948000Y-105347999D01*
G75*
G02*
X104197999Y-105098000I249999J0D01*
G01*
X105098001Y-105098000D01*
G75*
G02*
X105348000Y-105347999I0J-249999D01*
G01*
X105348000Y-105998001D01*
G75*
G02*
X105098001Y-106248000I-249999J0D01*
G01*
G37*
G36*
G01*
X105098001Y-104198000D02*
X104197999Y-104198000D01*
G75*
G02*
X103948000Y-103948001I0J249999D01*
G01*
X103948000Y-103297999D01*
G75*
G02*
X104197999Y-103048000I249999J0D01*
G01*
X105098001Y-103048000D01*
G75*
G02*
X105348000Y-103297999I0J-249999D01*
G01*
X105348000Y-103948001D01*
G75*
G02*
X105098001Y-104198000I-249999J0D01*
G01*
G37*
%TD*%
%TO.C,R30*%
G36*
G01*
X157810000Y-75114999D02*
X157810000Y-76015001D01*
G75*
G02*
X157560001Y-76265000I-249999J0D01*
G01*
X156909999Y-76265000D01*
G75*
G02*
X156660000Y-76015001I0J249999D01*
G01*
X156660000Y-75114999D01*
G75*
G02*
X156909999Y-74865000I249999J0D01*
G01*
X157560001Y-74865000D01*
G75*
G02*
X157810000Y-75114999I0J-249999D01*
G01*
G37*
G36*
G01*
X155760000Y-75114999D02*
X155760000Y-76015001D01*
G75*
G02*
X155510001Y-76265000I-249999J0D01*
G01*
X154859999Y-76265000D01*
G75*
G02*
X154610000Y-76015001I0J249999D01*
G01*
X154610000Y-75114999D01*
G75*
G02*
X154859999Y-74865000I249999J0D01*
G01*
X155510001Y-74865000D01*
G75*
G02*
X155760000Y-75114999I0J-249999D01*
G01*
G37*
%TD*%
%TO.C,R31*%
G36*
G01*
X157810000Y-77146999D02*
X157810000Y-78047001D01*
G75*
G02*
X157560001Y-78297000I-249999J0D01*
G01*
X156909999Y-78297000D01*
G75*
G02*
X156660000Y-78047001I0J249999D01*
G01*
X156660000Y-77146999D01*
G75*
G02*
X156909999Y-76897000I249999J0D01*
G01*
X157560001Y-76897000D01*
G75*
G02*
X157810000Y-77146999I0J-249999D01*
G01*
G37*
G36*
G01*
X155760000Y-77146999D02*
X155760000Y-78047001D01*
G75*
G02*
X155510001Y-78297000I-249999J0D01*
G01*
X154859999Y-78297000D01*
G75*
G02*
X154610000Y-78047001I0J249999D01*
G01*
X154610000Y-77146999D01*
G75*
G02*
X154859999Y-76897000I249999J0D01*
G01*
X155510001Y-76897000D01*
G75*
G02*
X155760000Y-77146999I0J-249999D01*
G01*
G37*
%TD*%
%TO.C,R32*%
G36*
G01*
X158299999Y-81603000D02*
X159200001Y-81603000D01*
G75*
G02*
X159450000Y-81852999I0J-249999D01*
G01*
X159450000Y-82503001D01*
G75*
G02*
X159200001Y-82753000I-249999J0D01*
G01*
X158299999Y-82753000D01*
G75*
G02*
X158050000Y-82503001I0J249999D01*
G01*
X158050000Y-81852999D01*
G75*
G02*
X158299999Y-81603000I249999J0D01*
G01*
G37*
G36*
G01*
X158299999Y-79553000D02*
X159200001Y-79553000D01*
G75*
G02*
X159450000Y-79802999I0J-249999D01*
G01*
X159450000Y-80453001D01*
G75*
G02*
X159200001Y-80703000I-249999J0D01*
G01*
X158299999Y-80703000D01*
G75*
G02*
X158050000Y-80453001I0J249999D01*
G01*
X158050000Y-79802999D01*
G75*
G02*
X158299999Y-79553000I249999J0D01*
G01*
G37*
%TD*%
%TO.C,R35*%
G36*
G01*
X170104000Y-77793001D02*
X170104000Y-76892999D01*
G75*
G02*
X170353999Y-76643000I249999J0D01*
G01*
X171004001Y-76643000D01*
G75*
G02*
X171254000Y-76892999I0J-249999D01*
G01*
X171254000Y-77793001D01*
G75*
G02*
X171004001Y-78043000I-249999J0D01*
G01*
X170353999Y-78043000D01*
G75*
G02*
X170104000Y-77793001I0J249999D01*
G01*
G37*
G36*
G01*
X172154000Y-77793001D02*
X172154000Y-76892999D01*
G75*
G02*
X172403999Y-76643000I249999J0D01*
G01*
X173054001Y-76643000D01*
G75*
G02*
X173304000Y-76892999I0J-249999D01*
G01*
X173304000Y-77793001D01*
G75*
G02*
X173054001Y-78043000I-249999J0D01*
G01*
X172403999Y-78043000D01*
G75*
G02*
X172154000Y-77793001I0J249999D01*
G01*
G37*
%TD*%
%TO.C,R36*%
G36*
G01*
X172154000Y-75761001D02*
X172154000Y-74860999D01*
G75*
G02*
X172403999Y-74611000I249999J0D01*
G01*
X173054001Y-74611000D01*
G75*
G02*
X173304000Y-74860999I0J-249999D01*
G01*
X173304000Y-75761001D01*
G75*
G02*
X173054001Y-76011000I-249999J0D01*
G01*
X172403999Y-76011000D01*
G75*
G02*
X172154000Y-75761001I0J249999D01*
G01*
G37*
G36*
G01*
X170104000Y-75761001D02*
X170104000Y-74860999D01*
G75*
G02*
X170353999Y-74611000I249999J0D01*
G01*
X171004001Y-74611000D01*
G75*
G02*
X171254000Y-74860999I0J-249999D01*
G01*
X171254000Y-75761001D01*
G75*
G02*
X171004001Y-76011000I-249999J0D01*
G01*
X170353999Y-76011000D01*
G75*
G02*
X170104000Y-75761001I0J249999D01*
G01*
G37*
%TD*%
%TO.C,R37*%
G36*
G01*
X183076001Y-80830000D02*
X182175999Y-80830000D01*
G75*
G02*
X181926000Y-80580001I0J249999D01*
G01*
X181926000Y-79929999D01*
G75*
G02*
X182175999Y-79680000I249999J0D01*
G01*
X183076001Y-79680000D01*
G75*
G02*
X183326000Y-79929999I0J-249999D01*
G01*
X183326000Y-80580001D01*
G75*
G02*
X183076001Y-80830000I-249999J0D01*
G01*
G37*
G36*
G01*
X183076001Y-82880000D02*
X182175999Y-82880000D01*
G75*
G02*
X181926000Y-82630001I0J249999D01*
G01*
X181926000Y-81979999D01*
G75*
G02*
X182175999Y-81730000I249999J0D01*
G01*
X183076001Y-81730000D01*
G75*
G02*
X183326000Y-81979999I0J-249999D01*
G01*
X183326000Y-82630001D01*
G75*
G02*
X183076001Y-82880000I-249999J0D01*
G01*
G37*
%TD*%
%TO.C,C41*%
G36*
G01*
X184461999Y-79680000D02*
X185362001Y-79680000D01*
G75*
G02*
X185612000Y-79929999I0J-249999D01*
G01*
X185612000Y-80580001D01*
G75*
G02*
X185362001Y-80830000I-249999J0D01*
G01*
X184461999Y-80830000D01*
G75*
G02*
X184212000Y-80580001I0J249999D01*
G01*
X184212000Y-79929999D01*
G75*
G02*
X184461999Y-79680000I249999J0D01*
G01*
G37*
G36*
G01*
X184461999Y-81730000D02*
X185362001Y-81730000D01*
G75*
G02*
X185612000Y-81979999I0J-249999D01*
G01*
X185612000Y-82630001D01*
G75*
G02*
X185362001Y-82880000I-249999J0D01*
G01*
X184461999Y-82880000D01*
G75*
G02*
X184212000Y-82630001I0J249999D01*
G01*
X184212000Y-81979999D01*
G75*
G02*
X184461999Y-81730000I249999J0D01*
G01*
G37*
%TD*%
%TO.C,D6*%
G36*
G01*
X186249000Y-106610998D02*
X186249000Y-107511000D01*
G75*
G02*
X185999001Y-107760999I-249999J0D01*
G01*
X185348999Y-107760999D01*
G75*
G02*
X185099000Y-107511000I0J249999D01*
G01*
X185099000Y-106610998D01*
G75*
G02*
X185348999Y-106360999I249999J0D01*
G01*
X185999001Y-106360999D01*
G75*
G02*
X186249000Y-106610998I0J-249999D01*
G01*
G37*
G36*
G01*
X184199000Y-106610998D02*
X184199000Y-107511000D01*
G75*
G02*
X183949001Y-107760999I-249999J0D01*
G01*
X183298999Y-107760999D01*
G75*
G02*
X183049000Y-107511000I0J249999D01*
G01*
X183049000Y-106610998D01*
G75*
G02*
X183298999Y-106360999I249999J0D01*
G01*
X183949001Y-106360999D01*
G75*
G02*
X184199000Y-106610998I0J-249999D01*
G01*
G37*
%TD*%
%TO.C,R38*%
G36*
G01*
X182321000Y-106610999D02*
X182321000Y-107511001D01*
G75*
G02*
X182071001Y-107761000I-249999J0D01*
G01*
X181420999Y-107761000D01*
G75*
G02*
X181171000Y-107511001I0J249999D01*
G01*
X181171000Y-106610999D01*
G75*
G02*
X181420999Y-106361000I249999J0D01*
G01*
X182071001Y-106361000D01*
G75*
G02*
X182321000Y-106610999I0J-249999D01*
G01*
G37*
G36*
G01*
X180271000Y-106610999D02*
X180271000Y-107511001D01*
G75*
G02*
X180021001Y-107761000I-249999J0D01*
G01*
X179370999Y-107761000D01*
G75*
G02*
X179121000Y-107511001I0J249999D01*
G01*
X179121000Y-106610999D01*
G75*
G02*
X179370999Y-106361000I249999J0D01*
G01*
X180021001Y-106361000D01*
G75*
G02*
X180271000Y-106610999I0J-249999D01*
G01*
G37*
%TD*%
D16*
%TO.C,SW3*%
X186220000Y-77688000D03*
X178270000Y-77688000D03*
X186220000Y-73188000D03*
X178270000Y-73188000D03*
%TD*%
%TO.C,R16*%
G36*
G01*
X155136001Y-101277000D02*
X154235999Y-101277000D01*
G75*
G02*
X153986000Y-101027001I0J249999D01*
G01*
X153986000Y-100376999D01*
G75*
G02*
X154235999Y-100127000I249999J0D01*
G01*
X155136001Y-100127000D01*
G75*
G02*
X155386000Y-100376999I0J-249999D01*
G01*
X155386000Y-101027001D01*
G75*
G02*
X155136001Y-101277000I-249999J0D01*
G01*
G37*
G36*
G01*
X155136001Y-103327000D02*
X154235999Y-103327000D01*
G75*
G02*
X153986000Y-103077001I0J249999D01*
G01*
X153986000Y-102426999D01*
G75*
G02*
X154235999Y-102177000I249999J0D01*
G01*
X155136001Y-102177000D01*
G75*
G02*
X155386000Y-102426999I0J-249999D01*
G01*
X155386000Y-103077001D01*
G75*
G02*
X155136001Y-103327000I-249999J0D01*
G01*
G37*
%TD*%
%TO.C,R17*%
G36*
G01*
X155136001Y-107645000D02*
X154235999Y-107645000D01*
G75*
G02*
X153986000Y-107395001I0J249999D01*
G01*
X153986000Y-106744999D01*
G75*
G02*
X154235999Y-106495000I249999J0D01*
G01*
X155136001Y-106495000D01*
G75*
G02*
X155386000Y-106744999I0J-249999D01*
G01*
X155386000Y-107395001D01*
G75*
G02*
X155136001Y-107645000I-249999J0D01*
G01*
G37*
G36*
G01*
X155136001Y-105595000D02*
X154235999Y-105595000D01*
G75*
G02*
X153986000Y-105345001I0J249999D01*
G01*
X153986000Y-104694999D01*
G75*
G02*
X154235999Y-104445000I249999J0D01*
G01*
X155136001Y-104445000D01*
G75*
G02*
X155386000Y-104694999I0J-249999D01*
G01*
X155386000Y-105345001D01*
G75*
G02*
X155136001Y-105595000I-249999J0D01*
G01*
G37*
%TD*%
M02*
